<?xml version="1.0" encoding="utf-8" standalone="no"?>
<!DOCTYPE svg PUBLIC "-//W3C//DTD SVG 1.1//EN"
  "http://www.w3.org/Graphics/SVG/1.1/DTD/svg11.dtd">
<svg xmlns:xlink="http://www.w3.org/1999/xlink" width="927.36875pt" height="355.979687pt" viewBox="0 0 927.36875 355.979687" xmlns="http://www.w3.org/2000/svg" version="1.1">
 <metadata>
  <rdf:RDF xmlns:dc="http://purl.org/dc/elements/1.1/" xmlns:cc="http://creativecommons.org/ns#" xmlns:rdf="http://www.w3.org/1999/02/22-rdf-syntax-ns#">
   <cc:Work>
    <dc:type rdf:resource="http://purl.org/dc/dcmitype/StillImage"/>
    <dc:date>2026-04-09T12:29:48.245899</dc:date>
    <dc:format>image/svg+xml</dc:format>
    <dc:creator>
     <cc:Agent>
      <dc:title>Matplotlib v3.7.2, https://matplotlib.org/</dc:title>
     </cc:Agent>
    </dc:creator>
   </cc:Work>
  </rdf:RDF>
 </metadata>
 <defs>
  <style type="text/css">*{stroke-linejoin: round; stroke-linecap: butt}</style>
 </defs>
 <g id="figure_1">
  <g id="patch_1">
   <path d="M 0 355.979687 
L 927.36875 355.979687 
L 927.36875 0 
L 0 0 
z
" style="fill: #ffffff"/>
  </g>
  <g id="axes_1">
   <g id="patch_2">
    <path d="M 57.80875 315.52 
L 458.10875 315.52 
L 458.10875 51.36 
L 57.80875 51.36 
z
" style="fill: #ffffff"/>
   </g>
   <g id="patch_3">
    <path d="M 76.004205 315.52 
L 82.069356 315.52 
L 82.069356 63.939048 
L 76.004205 63.939048 
z
" clip-path="url(#p0921379df7)" style="fill: #1f77b4; opacity: 0.82; stroke: #ffffff; stroke-linejoin: miter"/>
   </g>
   <g id="patch_4">
    <path d="M 82.069356 315.52 
L 88.134508 315.52 
L 88.134508 159.004084 
L 82.069356 159.004084 
z
" clip-path="url(#p0921379df7)" style="fill: #1f77b4; opacity: 0.82; stroke: #ffffff; stroke-linejoin: miter"/>
   </g>
   <g id="patch_5">
    <path d="M 88.134508 315.52 
L 94.199659 315.52 
L 94.199659 222.18069 
L 88.134508 222.18069 
z
" clip-path="url(#p0921379df7)" style="fill: #1f77b4; opacity: 0.82; stroke: #ffffff; stroke-linejoin: miter"/>
   </g>
   <g id="patch_6">
    <path d="M 94.199659 315.52 
L 100.264811 315.52 
L 100.264811 256.320068 
L 94.199659 256.320068 
z
" clip-path="url(#p0921379df7)" style="fill: #1f77b4; opacity: 0.82; stroke: #ffffff; stroke-linejoin: miter"/>
   </g>
   <g id="patch_7">
    <path d="M 100.264811 315.52 
L 106.329962 315.52 
L 106.329962 264.123354 
L 100.264811 264.123354 
z
" clip-path="url(#p0921379df7)" style="fill: #1f77b4; opacity: 0.82; stroke: #ffffff; stroke-linejoin: miter"/>
   </g>
   <g id="patch_8">
    <path d="M 106.329962 315.52 
L 112.395114 315.52 
L 112.395114 270.651104 
L 106.329962 270.651104 
z
" clip-path="url(#p0921379df7)" style="fill: #1f77b4; opacity: 0.82; stroke: #ffffff; stroke-linejoin: miter"/>
   </g>
   <g id="patch_9">
    <path d="M 112.395114 315.52 
L 118.460265 315.52 
L 118.460265 280.855401 
L 112.395114 280.855401 
z
" clip-path="url(#p0921379df7)" style="fill: #1f77b4; opacity: 0.82; stroke: #ffffff; stroke-linejoin: miter"/>
   </g>
   <g id="patch_10">
    <path d="M 118.460265 315.52 
L 124.525417 315.52 
L 124.525417 285.732455 
L 118.460265 285.732455 
z
" clip-path="url(#p0921379df7)" style="fill: #1f77b4; opacity: 0.82; stroke: #ffffff; stroke-linejoin: miter"/>
   </g>
   <g id="patch_11">
    <path d="M 124.525417 315.52 
L 130.590568 315.52 
L 130.590568 292.785425 
L 124.525417 292.785425 
z
" clip-path="url(#p0921379df7)" style="fill: #1f77b4; opacity: 0.82; stroke: #ffffff; stroke-linejoin: miter"/>
   </g>
   <g id="patch_12">
    <path d="M 130.590568 315.52 
L 136.65572 315.52 
L 136.65572 296.461974 
L 130.590568 296.461974 
z
" clip-path="url(#p0921379df7)" style="fill: #1f77b4; opacity: 0.82; stroke: #ffffff; stroke-linejoin: miter"/>
   </g>
   <g id="patch_13">
    <path d="M 136.65572 315.52 
L 142.720871 315.52 
L 142.720871 302.314439 
L 136.65572 302.314439 
z
" clip-path="url(#p0921379df7)" style="fill: #1f77b4; opacity: 0.82; stroke: #ffffff; stroke-linejoin: miter"/>
   </g>
   <g id="patch_14">
    <path d="M 142.720871 315.52 
L 148.786023 315.52 
L 148.786023 303.965134 
L 142.720871 303.965134 
z
" clip-path="url(#p0921379df7)" style="fill: #1f77b4; opacity: 0.82; stroke: #ffffff; stroke-linejoin: miter"/>
   </g>
   <g id="patch_15">
    <path d="M 148.786023 315.52 
L 154.851174 315.52 
L 154.851174 306.816334 
L 148.786023 306.816334 
z
" clip-path="url(#p0921379df7)" style="fill: #1f77b4; opacity: 0.82; stroke: #ffffff; stroke-linejoin: miter"/>
   </g>
   <g id="patch_16">
    <path d="M 154.851174 315.52 
L 160.916326 315.52 
L 160.916326 308.692124 
L 154.851174 308.692124 
z
" clip-path="url(#p0921379df7)" style="fill: #1f77b4; opacity: 0.82; stroke: #ffffff; stroke-linejoin: miter"/>
   </g>
   <g id="patch_17">
    <path d="M 160.916326 315.52 
L 166.981477 315.52 
L 166.981477 309.217346 
L 160.916326 309.217346 
z
" clip-path="url(#p0921379df7)" style="fill: #1f77b4; opacity: 0.82; stroke: #ffffff; stroke-linejoin: miter"/>
   </g>
   <g id="patch_18">
    <path d="M 166.981477 315.52 
L 173.046629 315.52 
L 173.046629 311.393262 
L 166.981477 311.393262 
z
" clip-path="url(#p0921379df7)" style="fill: #1f77b4; opacity: 0.82; stroke: #ffffff; stroke-linejoin: miter"/>
   </g>
   <g id="patch_19">
    <path d="M 173.046629 315.52 
L 179.11178 315.52 
L 179.11178 312.518736 
L 173.046629 312.518736 
z
" clip-path="url(#p0921379df7)" style="fill: #1f77b4; opacity: 0.82; stroke: #ffffff; stroke-linejoin: miter"/>
   </g>
   <g id="patch_20">
    <path d="M 179.11178 315.52 
L 185.176932 315.52 
L 185.176932 313.569178 
L 179.11178 313.569178 
z
" clip-path="url(#p0921379df7)" style="fill: #1f77b4; opacity: 0.82; stroke: #ffffff; stroke-linejoin: miter"/>
   </g>
   <g id="patch_21">
    <path d="M 185.176932 315.52 
L 191.242083 315.52 
L 191.242083 313.64421 
L 185.176932 313.64421 
z
" clip-path="url(#p0921379df7)" style="fill: #1f77b4; opacity: 0.82; stroke: #ffffff; stroke-linejoin: miter"/>
   </g>
   <g id="patch_22">
    <path d="M 191.242083 315.52 
L 197.307235 315.52 
L 197.307235 314.019368 
L 191.242083 314.019368 
z
" clip-path="url(#p0921379df7)" style="fill: #1f77b4; opacity: 0.82; stroke: #ffffff; stroke-linejoin: miter"/>
   </g>
   <g id="patch_23">
    <path d="M 197.307235 315.52 
L 203.372386 315.52 
L 203.372386 314.319494 
L 197.307235 314.319494 
z
" clip-path="url(#p0921379df7)" style="fill: #1f77b4; opacity: 0.82; stroke: #ffffff; stroke-linejoin: miter"/>
   </g>
   <g id="patch_24">
    <path d="M 203.372386 315.52 
L 209.437538 315.52 
L 209.437538 314.619621 
L 203.372386 314.619621 
z
" clip-path="url(#p0921379df7)" style="fill: #1f77b4; opacity: 0.82; stroke: #ffffff; stroke-linejoin: miter"/>
   </g>
   <g id="patch_25">
    <path d="M 209.437538 315.52 
L 215.502689 315.52 
L 215.502689 314.844716 
L 209.437538 314.844716 
z
" clip-path="url(#p0921379df7)" style="fill: #1f77b4; opacity: 0.82; stroke: #ffffff; stroke-linejoin: miter"/>
   </g>
   <g id="patch_26">
    <path d="M 215.502689 315.52 
L 221.567841 315.52 
L 221.567841 314.544589 
L 215.502689 314.544589 
z
" clip-path="url(#p0921379df7)" style="fill: #1f77b4; opacity: 0.82; stroke: #ffffff; stroke-linejoin: miter"/>
   </g>
   <g id="patch_27">
    <path d="M 221.567841 315.52 
L 227.632992 315.52 
L 227.632992 315.06981 
L 221.567841 315.06981 
z
" clip-path="url(#p0921379df7)" style="fill: #1f77b4; opacity: 0.82; stroke: #ffffff; stroke-linejoin: miter"/>
   </g>
   <g id="patch_28">
    <path d="M 227.632992 315.52 
L 233.698144 315.52 
L 233.698144 315.219874 
L 227.632992 315.219874 
z
" clip-path="url(#p0921379df7)" style="fill: #1f77b4; opacity: 0.82; stroke: #ffffff; stroke-linejoin: miter"/>
   </g>
   <g id="patch_29">
    <path d="M 233.698144 315.52 
L 239.763295 315.52 
L 239.763295 314.919747 
L 233.698144 314.919747 
z
" clip-path="url(#p0921379df7)" style="fill: #1f77b4; opacity: 0.82; stroke: #ffffff; stroke-linejoin: miter"/>
   </g>
   <g id="patch_30">
    <path d="M 239.763295 315.52 
L 245.828447 315.52 
L 245.828447 315.144842 
L 239.763295 315.144842 
z
" clip-path="url(#p0921379df7)" style="fill: #1f77b4; opacity: 0.82; stroke: #ffffff; stroke-linejoin: miter"/>
   </g>
   <g id="patch_31">
    <path d="M 245.828447 315.52 
L 251.893598 315.52 
L 251.893598 314.994779 
L 245.828447 314.994779 
z
" clip-path="url(#p0921379df7)" style="fill: #1f77b4; opacity: 0.82; stroke: #ffffff; stroke-linejoin: miter"/>
   </g>
   <g id="patch_32">
    <path d="M 251.893598 315.52 
L 257.95875 315.52 
L 257.95875 315.369937 
L 251.893598 315.369937 
z
" clip-path="url(#p0921379df7)" style="fill: #1f77b4; opacity: 0.82; stroke: #ffffff; stroke-linejoin: miter"/>
   </g>
   <g id="patch_33">
    <path d="M 257.95875 315.52 
L 264.023902 315.52 
L 264.023902 315.219874 
L 257.95875 315.219874 
z
" clip-path="url(#p0921379df7)" style="fill: #1f77b4; opacity: 0.82; stroke: #ffffff; stroke-linejoin: miter"/>
   </g>
   <g id="patch_34">
    <path d="M 264.023902 315.52 
L 270.089053 315.52 
L 270.089053 315.444968 
L 264.023902 315.444968 
z
" clip-path="url(#p0921379df7)" style="fill: #1f77b4; opacity: 0.82; stroke: #ffffff; stroke-linejoin: miter"/>
   </g>
   <g id="patch_35">
    <path d="M 270.089053 315.52 
L 276.154205 315.52 
L 276.154205 315.294905 
L 270.089053 315.294905 
z
" clip-path="url(#p0921379df7)" style="fill: #1f77b4; opacity: 0.82; stroke: #ffffff; stroke-linejoin: miter"/>
   </g>
   <g id="patch_36">
    <path d="M 276.154205 315.52 
L 282.219356 315.52 
L 282.219356 315.294905 
L 276.154205 315.294905 
z
" clip-path="url(#p0921379df7)" style="fill: #1f77b4; opacity: 0.82; stroke: #ffffff; stroke-linejoin: miter"/>
   </g>
   <g id="patch_37">
    <path d="M 282.219356 315.52 
L 288.284508 315.52 
L 288.284508 315.444968 
L 282.219356 315.444968 
z
" clip-path="url(#p0921379df7)" style="fill: #1f77b4; opacity: 0.82; stroke: #ffffff; stroke-linejoin: miter"/>
   </g>
   <g id="patch_38">
    <path d="M 288.284508 315.52 
L 294.349659 315.52 
L 294.349659 315.52 
L 288.284508 315.52 
z
" clip-path="url(#p0921379df7)" style="fill: #1f77b4; opacity: 0.82; stroke: #ffffff; stroke-linejoin: miter"/>
   </g>
   <g id="patch_39">
    <path d="M 294.349659 315.52 
L 300.414811 315.52 
L 300.414811 315.444968 
L 294.349659 315.444968 
z
" clip-path="url(#p0921379df7)" style="fill: #1f77b4; opacity: 0.82; stroke: #ffffff; stroke-linejoin: miter"/>
   </g>
   <g id="patch_40">
    <path d="M 300.414811 315.52 
L 306.479962 315.52 
L 306.479962 315.294905 
L 300.414811 315.294905 
z
" clip-path="url(#p0921379df7)" style="fill: #1f77b4; opacity: 0.82; stroke: #ffffff; stroke-linejoin: miter"/>
   </g>
   <g id="patch_41">
    <path d="M 306.479962 315.52 
L 312.545114 315.52 
L 312.545114 315.52 
L 306.479962 315.52 
z
" clip-path="url(#p0921379df7)" style="fill: #1f77b4; opacity: 0.82; stroke: #ffffff; stroke-linejoin: miter"/>
   </g>
   <g id="patch_42">
    <path d="M 312.545114 315.52 
L 318.610265 315.52 
L 318.610265 315.52 
L 312.545114 315.52 
z
" clip-path="url(#p0921379df7)" style="fill: #1f77b4; opacity: 0.82; stroke: #ffffff; stroke-linejoin: miter"/>
   </g>
   <g id="patch_43">
    <path d="M 318.610265 315.52 
L 324.675417 315.52 
L 324.675417 315.52 
L 318.610265 315.52 
z
" clip-path="url(#p0921379df7)" style="fill: #1f77b4; opacity: 0.82; stroke: #ffffff; stroke-linejoin: miter"/>
   </g>
   <g id="patch_44">
    <path d="M 324.675417 315.52 
L 330.740568 315.52 
L 330.740568 315.444968 
L 324.675417 315.444968 
z
" clip-path="url(#p0921379df7)" style="fill: #1f77b4; opacity: 0.82; stroke: #ffffff; stroke-linejoin: miter"/>
   </g>
   <g id="patch_45">
    <path d="M 330.740568 315.52 
L 336.80572 315.52 
L 336.80572 315.444968 
L 330.740568 315.444968 
z
" clip-path="url(#p0921379df7)" style="fill: #1f77b4; opacity: 0.82; stroke: #ffffff; stroke-linejoin: miter"/>
   </g>
   <g id="patch_46">
    <path d="M 336.80572 315.52 
L 342.870871 315.52 
L 342.870871 315.52 
L 336.80572 315.52 
z
" clip-path="url(#p0921379df7)" style="fill: #1f77b4; opacity: 0.82; stroke: #ffffff; stroke-linejoin: miter"/>
   </g>
   <g id="patch_47">
    <path d="M 342.870871 315.52 
L 348.936023 315.52 
L 348.936023 315.52 
L 342.870871 315.52 
z
" clip-path="url(#p0921379df7)" style="fill: #1f77b4; opacity: 0.82; stroke: #ffffff; stroke-linejoin: miter"/>
   </g>
   <g id="patch_48">
    <path d="M 348.936023 315.52 
L 355.001174 315.52 
L 355.001174 315.52 
L 348.936023 315.52 
z
" clip-path="url(#p0921379df7)" style="fill: #1f77b4; opacity: 0.82; stroke: #ffffff; stroke-linejoin: miter"/>
   </g>
   <g id="patch_49">
    <path d="M 355.001174 315.52 
L 361.066326 315.52 
L 361.066326 315.52 
L 355.001174 315.52 
z
" clip-path="url(#p0921379df7)" style="fill: #1f77b4; opacity: 0.82; stroke: #ffffff; stroke-linejoin: miter"/>
   </g>
   <g id="patch_50">
    <path d="M 361.066326 315.52 
L 367.131477 315.52 
L 367.131477 315.444968 
L 361.066326 315.444968 
z
" clip-path="url(#p0921379df7)" style="fill: #1f77b4; opacity: 0.82; stroke: #ffffff; stroke-linejoin: miter"/>
   </g>
   <g id="patch_51">
    <path d="M 367.131477 315.52 
L 373.196629 315.52 
L 373.196629 315.369937 
L 367.131477 315.369937 
z
" clip-path="url(#p0921379df7)" style="fill: #1f77b4; opacity: 0.82; stroke: #ffffff; stroke-linejoin: miter"/>
   </g>
   <g id="patch_52">
    <path d="M 373.196629 315.52 
L 379.26178 315.52 
L 379.26178 315.52 
L 373.196629 315.52 
z
" clip-path="url(#p0921379df7)" style="fill: #1f77b4; opacity: 0.82; stroke: #ffffff; stroke-linejoin: miter"/>
   </g>
   <g id="patch_53">
    <path d="M 379.26178 315.52 
L 385.326932 315.52 
L 385.326932 315.52 
L 379.26178 315.52 
z
" clip-path="url(#p0921379df7)" style="fill: #1f77b4; opacity: 0.82; stroke: #ffffff; stroke-linejoin: miter"/>
   </g>
   <g id="patch_54">
    <path d="M 385.326932 315.52 
L 391.392083 315.52 
L 391.392083 315.52 
L 385.326932 315.52 
z
" clip-path="url(#p0921379df7)" style="fill: #1f77b4; opacity: 0.82; stroke: #ffffff; stroke-linejoin: miter"/>
   </g>
   <g id="patch_55">
    <path d="M 391.392083 315.52 
L 397.457235 315.52 
L 397.457235 315.52 
L 391.392083 315.52 
z
" clip-path="url(#p0921379df7)" style="fill: #1f77b4; opacity: 0.82; stroke: #ffffff; stroke-linejoin: miter"/>
   </g>
   <g id="patch_56">
    <path d="M 397.457235 315.52 
L 403.522386 315.52 
L 403.522386 315.52 
L 397.457235 315.52 
z
" clip-path="url(#p0921379df7)" style="fill: #1f77b4; opacity: 0.82; stroke: #ffffff; stroke-linejoin: miter"/>
   </g>
   <g id="patch_57">
    <path d="M 403.522386 315.52 
L 409.587538 315.52 
L 409.587538 315.52 
L 403.522386 315.52 
z
" clip-path="url(#p0921379df7)" style="fill: #1f77b4; opacity: 0.82; stroke: #ffffff; stroke-linejoin: miter"/>
   </g>
   <g id="patch_58">
    <path d="M 409.587538 315.52 
L 415.652689 315.52 
L 415.652689 315.52 
L 409.587538 315.52 
z
" clip-path="url(#p0921379df7)" style="fill: #1f77b4; opacity: 0.82; stroke: #ffffff; stroke-linejoin: miter"/>
   </g>
   <g id="patch_59">
    <path d="M 415.652689 315.52 
L 421.717841 315.52 
L 421.717841 315.52 
L 415.652689 315.52 
z
" clip-path="url(#p0921379df7)" style="fill: #1f77b4; opacity: 0.82; stroke: #ffffff; stroke-linejoin: miter"/>
   </g>
   <g id="patch_60">
    <path d="M 421.717841 315.52 
L 427.782992 315.52 
L 427.782992 315.52 
L 421.717841 315.52 
z
" clip-path="url(#p0921379df7)" style="fill: #1f77b4; opacity: 0.82; stroke: #ffffff; stroke-linejoin: miter"/>
   </g>
   <g id="patch_61">
    <path d="M 427.782992 315.52 
L 433.848144 315.52 
L 433.848144 315.52 
L 427.782992 315.52 
z
" clip-path="url(#p0921379df7)" style="fill: #1f77b4; opacity: 0.82; stroke: #ffffff; stroke-linejoin: miter"/>
   </g>
   <g id="patch_62">
    <path d="M 433.848144 315.52 
L 439.913295 315.52 
L 439.913295 315.444968 
L 433.848144 315.444968 
z
" clip-path="url(#p0921379df7)" style="fill: #1f77b4; opacity: 0.82; stroke: #ffffff; stroke-linejoin: miter"/>
   </g>
   <g id="matplotlib.axis_1">
    <g id="xtick_1">
     <g id="line2d_1">
      <defs>
       <path id="m65b0fab9dd" d="M 0 0 
L 0 3.5 
" style="stroke: #000000; stroke-width: 0.8"/>
      </defs>
      <g>
       <use xlink:href="#m65b0fab9dd" x="76.001728" y="315.52" style="stroke: #000000; stroke-width: 0.8"/>
      </g>
     </g>
     <g id="text_1">
      <!-- 0 -->
      <g transform="translate(72.502353 330.878281) scale(0.11 -0.11)">
       <defs>
        <path id="DejaVuSans-30" d="M 2034 4250 
Q 1547 4250 1301 3770 
Q 1056 3291 1056 2328 
Q 1056 1369 1301 889 
Q 1547 409 2034 409 
Q 2525 409 2770 889 
Q 3016 1369 3016 2328 
Q 3016 3291 2770 3770 
Q 2525 4250 2034 4250 
z
M 2034 4750 
Q 2819 4750 3233 4129 
Q 3647 3509 3647 2328 
Q 3647 1150 3233 529 
Q 2819 -91 2034 -91 
Q 1250 -91 836 529 
Q 422 1150 422 2328 
Q 422 3509 836 4129 
Q 1250 4750 2034 4750 
z
" transform="scale(0.015625)"/>
       </defs>
       <use xlink:href="#DejaVuSans-30"/>
      </g>
     </g>
    </g>
    <g id="xtick_2">
     <g id="line2d_2">
      <g>
       <use xlink:href="#m65b0fab9dd" x="142.124065" y="315.52" style="stroke: #000000; stroke-width: 0.8"/>
      </g>
     </g>
     <g id="text_2">
      <!-- 5 -->
      <g transform="translate(138.62469 330.878281) scale(0.11 -0.11)">
       <defs>
        <path id="DejaVuSans-35" d="M 691 4666 
L 3169 4666 
L 3169 4134 
L 1269 4134 
L 1269 2991 
Q 1406 3038 1543 3061 
Q 1681 3084 1819 3084 
Q 2600 3084 3056 2656 
Q 3513 2228 3513 1497 
Q 3513 744 3044 326 
Q 2575 -91 1722 -91 
Q 1428 -91 1123 -41 
Q 819 9 494 109 
L 494 744 
Q 775 591 1075 516 
Q 1375 441 1709 441 
Q 2250 441 2565 725 
Q 2881 1009 2881 1497 
Q 2881 1984 2565 2268 
Q 2250 2553 1709 2553 
Q 1456 2553 1204 2497 
Q 953 2441 691 2322 
L 691 4666 
z
" transform="scale(0.015625)"/>
       </defs>
       <use xlink:href="#DejaVuSans-35"/>
      </g>
     </g>
    </g>
    <g id="xtick_3">
     <g id="line2d_3">
      <g>
       <use xlink:href="#m65b0fab9dd" x="208.246401" y="315.52" style="stroke: #000000; stroke-width: 0.8"/>
      </g>
     </g>
     <g id="text_3">
      <!-- 10 -->
      <g transform="translate(201.247651 330.878281) scale(0.11 -0.11)">
       <defs>
        <path id="DejaVuSans-31" d="M 794 531 
L 1825 531 
L 1825 4091 
L 703 3866 
L 703 4441 
L 1819 4666 
L 2450 4666 
L 2450 531 
L 3481 531 
L 3481 0 
L 794 0 
L 794 531 
z
" transform="scale(0.015625)"/>
       </defs>
       <use xlink:href="#DejaVuSans-31"/>
       <use xlink:href="#DejaVuSans-30" x="63.623047"/>
      </g>
     </g>
    </g>
    <g id="xtick_4">
     <g id="line2d_4">
      <g>
       <use xlink:href="#m65b0fab9dd" x="274.368738" y="315.52" style="stroke: #000000; stroke-width: 0.8"/>
      </g>
     </g>
     <g id="text_4">
      <!-- 15 -->
      <g transform="translate(267.369988 330.878281) scale(0.11 -0.11)">
       <use xlink:href="#DejaVuSans-31"/>
       <use xlink:href="#DejaVuSans-35" x="63.623047"/>
      </g>
     </g>
    </g>
    <g id="xtick_5">
     <g id="line2d_5">
      <g>
       <use xlink:href="#m65b0fab9dd" x="340.491075" y="315.52" style="stroke: #000000; stroke-width: 0.8"/>
      </g>
     </g>
     <g id="text_5">
      <!-- 20 -->
      <g transform="translate(333.492325 330.878281) scale(0.11 -0.11)">
       <defs>
        <path id="DejaVuSans-32" d="M 1228 531 
L 3431 531 
L 3431 0 
L 469 0 
L 469 531 
Q 828 903 1448 1529 
Q 2069 2156 2228 2338 
Q 2531 2678 2651 2914 
Q 2772 3150 2772 3378 
Q 2772 3750 2511 3984 
Q 2250 4219 1831 4219 
Q 1534 4219 1204 4116 
Q 875 4013 500 3803 
L 500 4441 
Q 881 4594 1212 4672 
Q 1544 4750 1819 4750 
Q 2544 4750 2975 4387 
Q 3406 4025 3406 3419 
Q 3406 3131 3298 2873 
Q 3191 2616 2906 2266 
Q 2828 2175 2409 1742 
Q 1991 1309 1228 531 
z
" transform="scale(0.015625)"/>
       </defs>
       <use xlink:href="#DejaVuSans-32"/>
       <use xlink:href="#DejaVuSans-30" x="63.623047"/>
      </g>
     </g>
    </g>
    <g id="xtick_6">
     <g id="line2d_6">
      <g>
       <use xlink:href="#m65b0fab9dd" x="406.613412" y="315.52" style="stroke: #000000; stroke-width: 0.8"/>
      </g>
     </g>
     <g id="text_6">
      <!-- 25 -->
      <g transform="translate(399.614662 330.878281) scale(0.11 -0.11)">
       <use xlink:href="#DejaVuSans-32"/>
       <use xlink:href="#DejaVuSans-35" x="63.623047"/>
      </g>
     </g>
    </g>
    <g id="text_7">
     <!-- Absolute Error (years) -->
     <g transform="translate(192.105 346.284062) scale(0.12 -0.12)">
      <defs>
       <path id="DejaVuSans-41" d="M 2188 4044 
L 1331 1722 
L 3047 1722 
L 2188 4044 
z
M 1831 4666 
L 2547 4666 
L 4325 0 
L 3669 0 
L 3244 1197 
L 1141 1197 
L 716 0 
L 50 0 
L 1831 4666 
z
" transform="scale(0.015625)"/>
       <path id="DejaVuSans-62" d="M 3116 1747 
Q 3116 2381 2855 2742 
Q 2594 3103 2138 3103 
Q 1681 3103 1420 2742 
Q 1159 2381 1159 1747 
Q 1159 1113 1420 752 
Q 1681 391 2138 391 
Q 2594 391 2855 752 
Q 3116 1113 3116 1747 
z
M 1159 2969 
Q 1341 3281 1617 3432 
Q 1894 3584 2278 3584 
Q 2916 3584 3314 3078 
Q 3713 2572 3713 1747 
Q 3713 922 3314 415 
Q 2916 -91 2278 -91 
Q 1894 -91 1617 61 
Q 1341 213 1159 525 
L 1159 0 
L 581 0 
L 581 4863 
L 1159 4863 
L 1159 2969 
z
" transform="scale(0.015625)"/>
       <path id="DejaVuSans-73" d="M 2834 3397 
L 2834 2853 
Q 2591 2978 2328 3040 
Q 2066 3103 1784 3103 
Q 1356 3103 1142 2972 
Q 928 2841 928 2578 
Q 928 2378 1081 2264 
Q 1234 2150 1697 2047 
L 1894 2003 
Q 2506 1872 2764 1633 
Q 3022 1394 3022 966 
Q 3022 478 2636 193 
Q 2250 -91 1575 -91 
Q 1294 -91 989 -36 
Q 684 19 347 128 
L 347 722 
Q 666 556 975 473 
Q 1284 391 1588 391 
Q 1994 391 2212 530 
Q 2431 669 2431 922 
Q 2431 1156 2273 1281 
Q 2116 1406 1581 1522 
L 1381 1569 
Q 847 1681 609 1914 
Q 372 2147 372 2553 
Q 372 3047 722 3315 
Q 1072 3584 1716 3584 
Q 2034 3584 2315 3537 
Q 2597 3491 2834 3397 
z
" transform="scale(0.015625)"/>
       <path id="DejaVuSans-6f" d="M 1959 3097 
Q 1497 3097 1228 2736 
Q 959 2375 959 1747 
Q 959 1119 1226 758 
Q 1494 397 1959 397 
Q 2419 397 2687 759 
Q 2956 1122 2956 1747 
Q 2956 2369 2687 2733 
Q 2419 3097 1959 3097 
z
M 1959 3584 
Q 2709 3584 3137 3096 
Q 3566 2609 3566 1747 
Q 3566 888 3137 398 
Q 2709 -91 1959 -91 
Q 1206 -91 779 398 
Q 353 888 353 1747 
Q 353 2609 779 3096 
Q 1206 3584 1959 3584 
z
" transform="scale(0.015625)"/>
       <path id="DejaVuSans-6c" d="M 603 4863 
L 1178 4863 
L 1178 0 
L 603 0 
L 603 4863 
z
" transform="scale(0.015625)"/>
       <path id="DejaVuSans-75" d="M 544 1381 
L 544 3500 
L 1119 3500 
L 1119 1403 
Q 1119 906 1312 657 
Q 1506 409 1894 409 
Q 2359 409 2629 706 
Q 2900 1003 2900 1516 
L 2900 3500 
L 3475 3500 
L 3475 0 
L 2900 0 
L 2900 538 
Q 2691 219 2414 64 
Q 2138 -91 1772 -91 
Q 1169 -91 856 284 
Q 544 659 544 1381 
z
M 1991 3584 
L 1991 3584 
z
" transform="scale(0.015625)"/>
       <path id="DejaVuSans-74" d="M 1172 4494 
L 1172 3500 
L 2356 3500 
L 2356 3053 
L 1172 3053 
L 1172 1153 
Q 1172 725 1289 603 
Q 1406 481 1766 481 
L 2356 481 
L 2356 0 
L 1766 0 
Q 1100 0 847 248 
Q 594 497 594 1153 
L 594 3053 
L 172 3053 
L 172 3500 
L 594 3500 
L 594 4494 
L 1172 4494 
z
" transform="scale(0.015625)"/>
       <path id="DejaVuSans-65" d="M 3597 1894 
L 3597 1613 
L 953 1613 
Q 991 1019 1311 708 
Q 1631 397 2203 397 
Q 2534 397 2845 478 
Q 3156 559 3463 722 
L 3463 178 
Q 3153 47 2828 -22 
Q 2503 -91 2169 -91 
Q 1331 -91 842 396 
Q 353 884 353 1716 
Q 353 2575 817 3079 
Q 1281 3584 2069 3584 
Q 2775 3584 3186 3129 
Q 3597 2675 3597 1894 
z
M 3022 2063 
Q 3016 2534 2758 2815 
Q 2500 3097 2075 3097 
Q 1594 3097 1305 2825 
Q 1016 2553 972 2059 
L 3022 2063 
z
" transform="scale(0.015625)"/>
       <path id="DejaVuSans-20" transform="scale(0.015625)"/>
       <path id="DejaVuSans-45" d="M 628 4666 
L 3578 4666 
L 3578 4134 
L 1259 4134 
L 1259 2753 
L 3481 2753 
L 3481 2222 
L 1259 2222 
L 1259 531 
L 3634 531 
L 3634 0 
L 628 0 
L 628 4666 
z
" transform="scale(0.015625)"/>
       <path id="DejaVuSans-72" d="M 2631 2963 
Q 2534 3019 2420 3045 
Q 2306 3072 2169 3072 
Q 1681 3072 1420 2755 
Q 1159 2438 1159 1844 
L 1159 0 
L 581 0 
L 581 3500 
L 1159 3500 
L 1159 2956 
Q 1341 3275 1631 3429 
Q 1922 3584 2338 3584 
Q 2397 3584 2469 3576 
Q 2541 3569 2628 3553 
L 2631 2963 
z
" transform="scale(0.015625)"/>
       <path id="DejaVuSans-28" d="M 1984 4856 
Q 1566 4138 1362 3434 
Q 1159 2731 1159 2009 
Q 1159 1288 1364 580 
Q 1569 -128 1984 -844 
L 1484 -844 
Q 1016 -109 783 600 
Q 550 1309 550 2009 
Q 550 2706 781 3412 
Q 1013 4119 1484 4856 
L 1984 4856 
z
" transform="scale(0.015625)"/>
       <path id="DejaVuSans-79" d="M 2059 -325 
Q 1816 -950 1584 -1140 
Q 1353 -1331 966 -1331 
L 506 -1331 
L 506 -850 
L 844 -850 
Q 1081 -850 1212 -737 
Q 1344 -625 1503 -206 
L 1606 56 
L 191 3500 
L 800 3500 
L 1894 763 
L 2988 3500 
L 3597 3500 
L 2059 -325 
z
" transform="scale(0.015625)"/>
       <path id="DejaVuSans-61" d="M 2194 1759 
Q 1497 1759 1228 1600 
Q 959 1441 959 1056 
Q 959 750 1161 570 
Q 1363 391 1709 391 
Q 2188 391 2477 730 
Q 2766 1069 2766 1631 
L 2766 1759 
L 2194 1759 
z
M 3341 1997 
L 3341 0 
L 2766 0 
L 2766 531 
Q 2569 213 2275 61 
Q 1981 -91 1556 -91 
Q 1019 -91 701 211 
Q 384 513 384 1019 
Q 384 1609 779 1909 
Q 1175 2209 1959 2209 
L 2766 2209 
L 2766 2266 
Q 2766 2663 2505 2880 
Q 2244 3097 1772 3097 
Q 1472 3097 1187 3025 
Q 903 2953 641 2809 
L 641 3341 
Q 956 3463 1253 3523 
Q 1550 3584 1831 3584 
Q 2591 3584 2966 3190 
Q 3341 2797 3341 1997 
z
" transform="scale(0.015625)"/>
       <path id="DejaVuSans-29" d="M 513 4856 
L 1013 4856 
Q 1481 4119 1714 3412 
Q 1947 2706 1947 2009 
Q 1947 1309 1714 600 
Q 1481 -109 1013 -844 
L 513 -844 
Q 928 -128 1133 580 
Q 1338 1288 1338 2009 
Q 1338 2731 1133 3434 
Q 928 4138 513 4856 
z
" transform="scale(0.015625)"/>
      </defs>
      <use xlink:href="#DejaVuSans-41"/>
      <use xlink:href="#DejaVuSans-62" x="68.408203"/>
      <use xlink:href="#DejaVuSans-73" x="131.884766"/>
      <use xlink:href="#DejaVuSans-6f" x="183.984375"/>
      <use xlink:href="#DejaVuSans-6c" x="245.166016"/>
      <use xlink:href="#DejaVuSans-75" x="272.949219"/>
      <use xlink:href="#DejaVuSans-74" x="336.328125"/>
      <use xlink:href="#DejaVuSans-65" x="375.537109"/>
      <use xlink:href="#DejaVuSans-20" x="437.060547"/>
      <use xlink:href="#DejaVuSans-45" x="468.847656"/>
      <use xlink:href="#DejaVuSans-72" x="532.03125"/>
      <use xlink:href="#DejaVuSans-72" x="571.394531"/>
      <use xlink:href="#DejaVuSans-6f" x="610.257812"/>
      <use xlink:href="#DejaVuSans-72" x="671.439453"/>
      <use xlink:href="#DejaVuSans-20" x="712.552734"/>
      <use xlink:href="#DejaVuSans-28" x="744.339844"/>
      <use xlink:href="#DejaVuSans-79" x="783.353516"/>
      <use xlink:href="#DejaVuSans-65" x="842.533203"/>
      <use xlink:href="#DejaVuSans-61" x="904.056641"/>
      <use xlink:href="#DejaVuSans-72" x="965.335938"/>
      <use xlink:href="#DejaVuSans-73" x="1006.449219"/>
      <use xlink:href="#DejaVuSans-29" x="1058.548828"/>
     </g>
    </g>
   </g>
   <g id="matplotlib.axis_2">
    <g id="ytick_1">
     <g id="line2d_7">
      <defs>
       <path id="mff4f509132" d="M 0 0 
L -3.5 0 
" style="stroke: #000000; stroke-width: 0.8"/>
      </defs>
      <g>
       <use xlink:href="#mff4f509132" x="57.80875" y="315.52" style="stroke: #000000; stroke-width: 0.8"/>
      </g>
     </g>
     <g id="text_8">
      <!-- 0 -->
      <g transform="translate(43.81 319.699141) scale(0.11 -0.11)">
       <use xlink:href="#DejaVuSans-30"/>
      </g>
     </g>
    </g>
    <g id="ytick_2">
     <g id="line2d_8">
      <g>
       <use xlink:href="#mff4f509132" x="57.80875" y="278.0042" style="stroke: #000000; stroke-width: 0.8"/>
      </g>
     </g>
     <g id="text_9">
      <!-- 500 -->
      <g transform="translate(29.8125 282.183341) scale(0.11 -0.11)">
       <use xlink:href="#DejaVuSans-35"/>
       <use xlink:href="#DejaVuSans-30" x="63.623047"/>
       <use xlink:href="#DejaVuSans-30" x="127.246094"/>
      </g>
     </g>
    </g>
    <g id="ytick_3">
     <g id="line2d_9">
      <g>
       <use xlink:href="#mff4f509132" x="57.80875" y="240.488401" style="stroke: #000000; stroke-width: 0.8"/>
      </g>
     </g>
     <g id="text_10">
      <!-- 1000 -->
      <g transform="translate(22.81375 244.667541) scale(0.11 -0.11)">
       <use xlink:href="#DejaVuSans-31"/>
       <use xlink:href="#DejaVuSans-30" x="63.623047"/>
       <use xlink:href="#DejaVuSans-30" x="127.246094"/>
       <use xlink:href="#DejaVuSans-30" x="190.869141"/>
      </g>
     </g>
    </g>
    <g id="ytick_4">
     <g id="line2d_10">
      <g>
       <use xlink:href="#mff4f509132" x="57.80875" y="202.972601" style="stroke: #000000; stroke-width: 0.8"/>
      </g>
     </g>
     <g id="text_11">
      <!-- 1500 -->
      <g transform="translate(22.81375 207.151742) scale(0.11 -0.11)">
       <use xlink:href="#DejaVuSans-31"/>
       <use xlink:href="#DejaVuSans-35" x="63.623047"/>
       <use xlink:href="#DejaVuSans-30" x="127.246094"/>
       <use xlink:href="#DejaVuSans-30" x="190.869141"/>
      </g>
     </g>
    </g>
    <g id="ytick_5">
     <g id="line2d_11">
      <g>
       <use xlink:href="#mff4f509132" x="57.80875" y="165.456801" style="stroke: #000000; stroke-width: 0.8"/>
      </g>
     </g>
     <g id="text_12">
      <!-- 2000 -->
      <g transform="translate(22.81375 169.635942) scale(0.11 -0.11)">
       <use xlink:href="#DejaVuSans-32"/>
       <use xlink:href="#DejaVuSans-30" x="63.623047"/>
       <use xlink:href="#DejaVuSans-30" x="127.246094"/>
       <use xlink:href="#DejaVuSans-30" x="190.869141"/>
      </g>
     </g>
    </g>
    <g id="ytick_6">
     <g id="line2d_12">
      <g>
       <use xlink:href="#mff4f509132" x="57.80875" y="127.941002" style="stroke: #000000; stroke-width: 0.8"/>
      </g>
     </g>
     <g id="text_13">
      <!-- 2500 -->
      <g transform="translate(22.81375 132.120142) scale(0.11 -0.11)">
       <use xlink:href="#DejaVuSans-32"/>
       <use xlink:href="#DejaVuSans-35" x="63.623047"/>
       <use xlink:href="#DejaVuSans-30" x="127.246094"/>
       <use xlink:href="#DejaVuSans-30" x="190.869141"/>
      </g>
     </g>
    </g>
    <g id="ytick_7">
     <g id="line2d_13">
      <g>
       <use xlink:href="#mff4f509132" x="57.80875" y="90.425202" style="stroke: #000000; stroke-width: 0.8"/>
      </g>
     </g>
     <g id="text_14">
      <!-- 3000 -->
      <g transform="translate(22.81375 94.604343) scale(0.11 -0.11)">
       <defs>
        <path id="DejaVuSans-33" d="M 2597 2516 
Q 3050 2419 3304 2112 
Q 3559 1806 3559 1356 
Q 3559 666 3084 287 
Q 2609 -91 1734 -91 
Q 1441 -91 1130 -33 
Q 819 25 488 141 
L 488 750 
Q 750 597 1062 519 
Q 1375 441 1716 441 
Q 2309 441 2620 675 
Q 2931 909 2931 1356 
Q 2931 1769 2642 2001 
Q 2353 2234 1838 2234 
L 1294 2234 
L 1294 2753 
L 1863 2753 
Q 2328 2753 2575 2939 
Q 2822 3125 2822 3475 
Q 2822 3834 2567 4026 
Q 2313 4219 1838 4219 
Q 1578 4219 1281 4162 
Q 984 4106 628 3988 
L 628 4550 
Q 988 4650 1302 4700 
Q 1616 4750 1894 4750 
Q 2613 4750 3031 4423 
Q 3450 4097 3450 3541 
Q 3450 3153 3228 2886 
Q 3006 2619 2597 2516 
z
" transform="scale(0.015625)"/>
       </defs>
       <use xlink:href="#DejaVuSans-33"/>
       <use xlink:href="#DejaVuSans-30" x="63.623047"/>
       <use xlink:href="#DejaVuSans-30" x="127.246094"/>
       <use xlink:href="#DejaVuSans-30" x="190.869141"/>
      </g>
     </g>
    </g>
    <g id="ytick_8">
     <g id="line2d_14">
      <g>
       <use xlink:href="#mff4f509132" x="57.80875" y="52.909403" style="stroke: #000000; stroke-width: 0.8"/>
      </g>
     </g>
     <g id="text_15">
      <!-- 3500 -->
      <g transform="translate(22.81375 57.088543) scale(0.11 -0.11)">
       <use xlink:href="#DejaVuSans-33"/>
       <use xlink:href="#DejaVuSans-35" x="63.623047"/>
       <use xlink:href="#DejaVuSans-30" x="127.246094"/>
       <use xlink:href="#DejaVuSans-30" x="190.869141"/>
      </g>
     </g>
    </g>
    <g id="text_16">
     <!-- Observations -->
     <g transform="translate(16.318125 223.102812) rotate(-90) scale(0.12 -0.12)">
      <defs>
       <path id="DejaVuSans-4f" d="M 2522 4238 
Q 1834 4238 1429 3725 
Q 1025 3213 1025 2328 
Q 1025 1447 1429 934 
Q 1834 422 2522 422 
Q 3209 422 3611 934 
Q 4013 1447 4013 2328 
Q 4013 3213 3611 3725 
Q 3209 4238 2522 4238 
z
M 2522 4750 
Q 3503 4750 4090 4092 
Q 4678 3434 4678 2328 
Q 4678 1225 4090 567 
Q 3503 -91 2522 -91 
Q 1538 -91 948 565 
Q 359 1222 359 2328 
Q 359 3434 948 4092 
Q 1538 4750 2522 4750 
z
" transform="scale(0.015625)"/>
       <path id="DejaVuSans-76" d="M 191 3500 
L 800 3500 
L 1894 563 
L 2988 3500 
L 3597 3500 
L 2284 0 
L 1503 0 
L 191 3500 
z
" transform="scale(0.015625)"/>
       <path id="DejaVuSans-69" d="M 603 3500 
L 1178 3500 
L 1178 0 
L 603 0 
L 603 3500 
z
M 603 4863 
L 1178 4863 
L 1178 4134 
L 603 4134 
L 603 4863 
z
" transform="scale(0.015625)"/>
       <path id="DejaVuSans-6e" d="M 3513 2113 
L 3513 0 
L 2938 0 
L 2938 2094 
Q 2938 2591 2744 2837 
Q 2550 3084 2163 3084 
Q 1697 3084 1428 2787 
Q 1159 2491 1159 1978 
L 1159 0 
L 581 0 
L 581 3500 
L 1159 3500 
L 1159 2956 
Q 1366 3272 1645 3428 
Q 1925 3584 2291 3584 
Q 2894 3584 3203 3211 
Q 3513 2838 3513 2113 
z
" transform="scale(0.015625)"/>
      </defs>
      <use xlink:href="#DejaVuSans-4f"/>
      <use xlink:href="#DejaVuSans-62" x="78.710938"/>
      <use xlink:href="#DejaVuSans-73" x="142.1875"/>
      <use xlink:href="#DejaVuSans-65" x="194.287109"/>
      <use xlink:href="#DejaVuSans-72" x="255.810547"/>
      <use xlink:href="#DejaVuSans-76" x="296.923828"/>
      <use xlink:href="#DejaVuSans-61" x="356.103516"/>
      <use xlink:href="#DejaVuSans-74" x="417.382812"/>
      <use xlink:href="#DejaVuSans-69" x="456.591797"/>
      <use xlink:href="#DejaVuSans-6f" x="484.375"/>
      <use xlink:href="#DejaVuSans-6e" x="545.556641"/>
      <use xlink:href="#DejaVuSans-73" x="608.935547"/>
     </g>
    </g>
   </g>
   <g id="line2d_15">
    <path d="M 98.373104 315.52 
L 98.373104 51.36 
" clip-path="url(#p0921379df7)" style="fill: none; stroke-dasharray: 5.55,2.4; stroke-dashoffset: 0; stroke: #000000; stroke-width: 1.5"/>
   </g>
   <g id="patch_63">
    <path d="M 57.80875 315.52 
L 57.80875 51.36 
" style="fill: none; stroke: #000000; stroke-width: 0.8; stroke-linejoin: miter; stroke-linecap: square"/>
   </g>
   <g id="patch_64">
    <path d="M 57.80875 315.52 
L 458.10875 315.52 
" style="fill: none; stroke: #000000; stroke-width: 0.8; stroke-linejoin: miter; stroke-linecap: square"/>
   </g>
   <g id="text_17">
    <!-- Abs Error — Direct BAG -->
    <g transform="translate(187.943438 45.36) scale(0.12 -0.12)">
     <defs>
      <path id="DejaVuSans-2014" d="M 313 1978 
L 6088 1978 
L 6088 1528 
L 313 1528 
L 313 1978 
z
" transform="scale(0.015625)"/>
      <path id="DejaVuSans-44" d="M 1259 4147 
L 1259 519 
L 2022 519 
Q 2988 519 3436 956 
Q 3884 1394 3884 2338 
Q 3884 3275 3436 3711 
Q 2988 4147 2022 4147 
L 1259 4147 
z
M 628 4666 
L 1925 4666 
Q 3281 4666 3915 4102 
Q 4550 3538 4550 2338 
Q 4550 1131 3912 565 
Q 3275 0 1925 0 
L 628 0 
L 628 4666 
z
" transform="scale(0.015625)"/>
      <path id="DejaVuSans-63" d="M 3122 3366 
L 3122 2828 
Q 2878 2963 2633 3030 
Q 2388 3097 2138 3097 
Q 1578 3097 1268 2742 
Q 959 2388 959 1747 
Q 959 1106 1268 751 
Q 1578 397 2138 397 
Q 2388 397 2633 464 
Q 2878 531 3122 666 
L 3122 134 
Q 2881 22 2623 -34 
Q 2366 -91 2075 -91 
Q 1284 -91 818 406 
Q 353 903 353 1747 
Q 353 2603 823 3093 
Q 1294 3584 2113 3584 
Q 2378 3584 2631 3529 
Q 2884 3475 3122 3366 
z
" transform="scale(0.015625)"/>
      <path id="DejaVuSans-42" d="M 1259 2228 
L 1259 519 
L 2272 519 
Q 2781 519 3026 730 
Q 3272 941 3272 1375 
Q 3272 1813 3026 2020 
Q 2781 2228 2272 2228 
L 1259 2228 
z
M 1259 4147 
L 1259 2741 
L 2194 2741 
Q 2656 2741 2882 2914 
Q 3109 3088 3109 3444 
Q 3109 3797 2882 3972 
Q 2656 4147 2194 4147 
L 1259 4147 
z
M 628 4666 
L 2241 4666 
Q 2963 4666 3353 4366 
Q 3744 4066 3744 3513 
Q 3744 3084 3544 2831 
Q 3344 2578 2956 2516 
Q 3422 2416 3680 2098 
Q 3938 1781 3938 1306 
Q 3938 681 3513 340 
Q 3088 0 2303 0 
L 628 0 
L 628 4666 
z
" transform="scale(0.015625)"/>
      <path id="DejaVuSans-47" d="M 3809 666 
L 3809 1919 
L 2778 1919 
L 2778 2438 
L 4434 2438 
L 4434 434 
Q 4069 175 3628 42 
Q 3188 -91 2688 -91 
Q 1594 -91 976 548 
Q 359 1188 359 2328 
Q 359 3472 976 4111 
Q 1594 4750 2688 4750 
Q 3144 4750 3555 4637 
Q 3966 4525 4313 4306 
L 4313 3634 
Q 3963 3931 3569 4081 
Q 3175 4231 2741 4231 
Q 1884 4231 1454 3753 
Q 1025 3275 1025 2328 
Q 1025 1384 1454 906 
Q 1884 428 2741 428 
Q 3075 428 3337 486 
Q 3600 544 3809 666 
z
" transform="scale(0.015625)"/>
     </defs>
     <use xlink:href="#DejaVuSans-41"/>
     <use xlink:href="#DejaVuSans-62" x="68.408203"/>
     <use xlink:href="#DejaVuSans-73" x="131.884766"/>
     <use xlink:href="#DejaVuSans-20" x="183.984375"/>
     <use xlink:href="#DejaVuSans-45" x="215.771484"/>
     <use xlink:href="#DejaVuSans-72" x="278.955078"/>
     <use xlink:href="#DejaVuSans-72" x="318.318359"/>
     <use xlink:href="#DejaVuSans-6f" x="357.181641"/>
     <use xlink:href="#DejaVuSans-72" x="418.363281"/>
     <use xlink:href="#DejaVuSans-20" x="459.476562"/>
     <use xlink:href="#DejaVuSans-2014" x="491.263672"/>
     <use xlink:href="#DejaVuSans-20" x="591.263672"/>
     <use xlink:href="#DejaVuSans-44" x="623.050781"/>
     <use xlink:href="#DejaVuSans-69" x="700.052734"/>
     <use xlink:href="#DejaVuSans-72" x="727.835938"/>
     <use xlink:href="#DejaVuSans-65" x="766.699219"/>
     <use xlink:href="#DejaVuSans-63" x="828.222656"/>
     <use xlink:href="#DejaVuSans-74" x="883.203125"/>
     <use xlink:href="#DejaVuSans-20" x="922.412109"/>
     <use xlink:href="#DejaVuSans-42" x="954.199219"/>
     <use xlink:href="#DejaVuSans-41" x="1022.802734"/>
     <use xlink:href="#DejaVuSans-47" x="1089.460938"/>
    </g>
   </g>
   <g id="legend_1">
    <g id="patch_65">
     <path d="M 335.29 74.038125 
L 451.10875 74.038125 
Q 453.10875 74.038125 453.10875 72.038125 
L 453.10875 58.36 
Q 453.10875 56.36 451.10875 56.36 
L 335.29 56.36 
Q 333.29 56.36 333.29 58.36 
L 333.29 72.038125 
Q 333.29 74.038125 335.29 74.038125 
z
" style="fill: #ffffff; opacity: 0.8; stroke: #cccccc; stroke-linejoin: miter"/>
    </g>
    <g id="line2d_16">
     <path d="M 337.29 64.458437 
L 347.29 64.458437 
L 357.29 64.458437 
" style="fill: none; stroke-dasharray: 5.55,2.4; stroke-dashoffset: 0; stroke: #000000; stroke-width: 1.5"/>
    </g>
    <g id="text_18">
     <!-- Mean = 1.692 yr -->
     <g transform="translate(365.29 67.958437) scale(0.1 -0.1)">
      <defs>
       <path id="DejaVuSans-4d" d="M 628 4666 
L 1569 4666 
L 2759 1491 
L 3956 4666 
L 4897 4666 
L 4897 0 
L 4281 0 
L 4281 4097 
L 3078 897 
L 2444 897 
L 1241 4097 
L 1241 0 
L 628 0 
L 628 4666 
z
" transform="scale(0.015625)"/>
       <path id="DejaVuSans-3d" d="M 678 2906 
L 4684 2906 
L 4684 2381 
L 678 2381 
L 678 2906 
z
M 678 1631 
L 4684 1631 
L 4684 1100 
L 678 1100 
L 678 1631 
z
" transform="scale(0.015625)"/>
       <path id="DejaVuSans-2e" d="M 684 794 
L 1344 794 
L 1344 0 
L 684 0 
L 684 794 
z
" transform="scale(0.015625)"/>
       <path id="DejaVuSans-36" d="M 2113 2584 
Q 1688 2584 1439 2293 
Q 1191 2003 1191 1497 
Q 1191 994 1439 701 
Q 1688 409 2113 409 
Q 2538 409 2786 701 
Q 3034 994 3034 1497 
Q 3034 2003 2786 2293 
Q 2538 2584 2113 2584 
z
M 3366 4563 
L 3366 3988 
Q 3128 4100 2886 4159 
Q 2644 4219 2406 4219 
Q 1781 4219 1451 3797 
Q 1122 3375 1075 2522 
Q 1259 2794 1537 2939 
Q 1816 3084 2150 3084 
Q 2853 3084 3261 2657 
Q 3669 2231 3669 1497 
Q 3669 778 3244 343 
Q 2819 -91 2113 -91 
Q 1303 -91 875 529 
Q 447 1150 447 2328 
Q 447 3434 972 4092 
Q 1497 4750 2381 4750 
Q 2619 4750 2861 4703 
Q 3103 4656 3366 4563 
z
" transform="scale(0.015625)"/>
       <path id="DejaVuSans-39" d="M 703 97 
L 703 672 
Q 941 559 1184 500 
Q 1428 441 1663 441 
Q 2288 441 2617 861 
Q 2947 1281 2994 2138 
Q 2813 1869 2534 1725 
Q 2256 1581 1919 1581 
Q 1219 1581 811 2004 
Q 403 2428 403 3163 
Q 403 3881 828 4315 
Q 1253 4750 1959 4750 
Q 2769 4750 3195 4129 
Q 3622 3509 3622 2328 
Q 3622 1225 3098 567 
Q 2575 -91 1691 -91 
Q 1453 -91 1209 -44 
Q 966 3 703 97 
z
M 1959 2075 
Q 2384 2075 2632 2365 
Q 2881 2656 2881 3163 
Q 2881 3666 2632 3958 
Q 2384 4250 1959 4250 
Q 1534 4250 1286 3958 
Q 1038 3666 1038 3163 
Q 1038 2656 1286 2365 
Q 1534 2075 1959 2075 
z
" transform="scale(0.015625)"/>
      </defs>
      <use xlink:href="#DejaVuSans-4d"/>
      <use xlink:href="#DejaVuSans-65" x="86.279297"/>
      <use xlink:href="#DejaVuSans-61" x="147.802734"/>
      <use xlink:href="#DejaVuSans-6e" x="209.082031"/>
      <use xlink:href="#DejaVuSans-20" x="272.460938"/>
      <use xlink:href="#DejaVuSans-3d" x="304.248047"/>
      <use xlink:href="#DejaVuSans-20" x="388.037109"/>
      <use xlink:href="#DejaVuSans-31" x="419.824219"/>
      <use xlink:href="#DejaVuSans-2e" x="483.447266"/>
      <use xlink:href="#DejaVuSans-36" x="515.234375"/>
      <use xlink:href="#DejaVuSans-39" x="578.857422"/>
      <use xlink:href="#DejaVuSans-32" x="642.480469"/>
      <use xlink:href="#DejaVuSans-20" x="706.103516"/>
      <use xlink:href="#DejaVuSans-79" x="737.890625"/>
      <use xlink:href="#DejaVuSans-72" x="797.070312"/>
     </g>
    </g>
   </g>
  </g>
  <g id="axes_2">
   <g id="patch_66">
    <path d="M 519.86875 315.52 
L 920.16875 315.52 
L 920.16875 51.36 
L 519.86875 51.36 
z
" style="fill: #ffffff"/>
   </g>
   <g id="patch_67">
    <path d="M 538.064205 315.52 
L 544.129356 315.52 
L 544.129356 63.939048 
L 538.064205 63.939048 
z
" clip-path="url(#p81ddbb6907)" style="fill: #d62728; opacity: 0.82; stroke: #ffffff; stroke-linejoin: miter"/>
   </g>
   <g id="patch_68">
    <path d="M 544.129356 315.52 
L 550.194508 315.52 
L 550.194508 256.185401 
L 544.129356 256.185401 
z
" clip-path="url(#p81ddbb6907)" style="fill: #d62728; opacity: 0.82; stroke: #ffffff; stroke-linejoin: miter"/>
   </g>
   <g id="patch_69">
    <path d="M 550.194508 315.52 
L 556.259659 315.52 
L 556.259659 272.567154 
L 550.194508 272.567154 
z
" clip-path="url(#p81ddbb6907)" style="fill: #d62728; opacity: 0.82; stroke: #ffffff; stroke-linejoin: miter"/>
   </g>
   <g id="patch_70">
    <path d="M 556.259659 315.52 
L 562.324811 315.52 
L 562.324811 276.620372 
L 556.259659 276.620372 
z
" clip-path="url(#p81ddbb6907)" style="fill: #d62728; opacity: 0.82; stroke: #ffffff; stroke-linejoin: miter"/>
   </g>
   <g id="patch_71">
    <path d="M 562.324811 315.52 
L 568.389962 315.52 
L 568.389962 281.011357 
L 562.324811 281.011357 
z
" clip-path="url(#p81ddbb6907)" style="fill: #d62728; opacity: 0.82; stroke: #ffffff; stroke-linejoin: miter"/>
   </g>
   <g id="patch_72">
    <path d="M 568.389962 315.52 
L 574.455114 315.52 
L 574.455114 283.488324 
L 568.389962 283.488324 
z
" clip-path="url(#p81ddbb6907)" style="fill: #d62728; opacity: 0.82; stroke: #ffffff; stroke-linejoin: miter"/>
   </g>
   <g id="patch_73">
    <path d="M 574.455114 315.52 
L 580.520265 315.52 
L 580.520265 286.359353 
L 574.455114 286.359353 
z
" clip-path="url(#p81ddbb6907)" style="fill: #d62728; opacity: 0.82; stroke: #ffffff; stroke-linejoin: miter"/>
   </g>
   <g id="patch_74">
    <path d="M 580.520265 315.52 
L 586.585417 315.52 
L 586.585417 292.270295 
L 580.520265 292.270295 
z
" clip-path="url(#p81ddbb6907)" style="fill: #d62728; opacity: 0.82; stroke: #ffffff; stroke-linejoin: miter"/>
   </g>
   <g id="patch_75">
    <path d="M 586.585417 315.52 
L 592.650568 315.52 
L 592.650568 296.604985 
L 586.585417 296.604985 
z
" clip-path="url(#p81ddbb6907)" style="fill: #d62728; opacity: 0.82; stroke: #ffffff; stroke-linejoin: miter"/>
   </g>
   <g id="patch_76">
    <path d="M 592.650568 315.52 
L 598.71572 315.52 
L 598.71572 298.687889 
L 592.650568 298.687889 
z
" clip-path="url(#p81ddbb6907)" style="fill: #d62728; opacity: 0.82; stroke: #ffffff; stroke-linejoin: miter"/>
   </g>
   <g id="patch_77">
    <path d="M 598.71572 315.52 
L 604.780871 315.52 
L 604.780871 302.178159 
L 598.71572 302.178159 
z
" clip-path="url(#p81ddbb6907)" style="fill: #d62728; opacity: 0.82; stroke: #ffffff; stroke-linejoin: miter"/>
   </g>
   <g id="patch_78">
    <path d="M 604.780871 315.52 
L 610.846023 315.52 
L 610.846023 305.612135 
L 604.780871 305.612135 
z
" clip-path="url(#p81ddbb6907)" style="fill: #d62728; opacity: 0.82; stroke: #ffffff; stroke-linejoin: miter"/>
   </g>
   <g id="patch_79">
    <path d="M 610.846023 315.52 
L 616.911174 315.52 
L 616.911174 304.542536 
L 610.846023 304.542536 
z
" clip-path="url(#p81ddbb6907)" style="fill: #d62728; opacity: 0.82; stroke: #ffffff; stroke-linejoin: miter"/>
   </g>
   <g id="patch_80">
    <path d="M 616.911174 315.52 
L 622.976326 315.52 
L 622.976326 308.877227 
L 616.911174 308.877227 
z
" clip-path="url(#p81ddbb6907)" style="fill: #d62728; opacity: 0.82; stroke: #ffffff; stroke-linejoin: miter"/>
   </g>
   <g id="patch_81">
    <path d="M 622.976326 315.52 
L 629.041477 315.52 
L 629.041477 309.440174 
L 622.976326 309.440174 
z
" clip-path="url(#p81ddbb6907)" style="fill: #d62728; opacity: 0.82; stroke: #ffffff; stroke-linejoin: miter"/>
   </g>
   <g id="patch_82">
    <path d="M 629.041477 315.52 
L 635.106629 315.52 
L 635.106629 311.410488 
L 629.041477 311.410488 
z
" clip-path="url(#p81ddbb6907)" style="fill: #d62728; opacity: 0.82; stroke: #ffffff; stroke-linejoin: miter"/>
   </g>
   <g id="patch_83">
    <path d="M 635.106629 315.52 
L 641.17178 315.52 
L 641.17178 311.016425 
L 635.106629 311.016425 
z
" clip-path="url(#p81ddbb6907)" style="fill: #d62728; opacity: 0.82; stroke: #ffffff; stroke-linejoin: miter"/>
   </g>
   <g id="patch_84">
    <path d="M 641.17178 315.52 
L 647.236932 315.52 
L 647.236932 312.930444 
L 641.17178 312.930444 
z
" clip-path="url(#p81ddbb6907)" style="fill: #d62728; opacity: 0.82; stroke: #ffffff; stroke-linejoin: miter"/>
   </g>
   <g id="patch_85">
    <path d="M 647.236932 315.52 
L 653.302083 315.52 
L 653.302083 312.930444 
L 647.236932 312.930444 
z
" clip-path="url(#p81ddbb6907)" style="fill: #d62728; opacity: 0.82; stroke: #ffffff; stroke-linejoin: miter"/>
   </g>
   <g id="patch_86">
    <path d="M 653.302083 315.52 
L 659.367235 315.52 
L 659.367235 314.056338 
L 653.302083 314.056338 
z
" clip-path="url(#p81ddbb6907)" style="fill: #d62728; opacity: 0.82; stroke: #ffffff; stroke-linejoin: miter"/>
   </g>
   <g id="patch_87">
    <path d="M 659.367235 315.52 
L 665.432386 315.52 
L 665.432386 313.831159 
L 659.367235 313.831159 
z
" clip-path="url(#p81ddbb6907)" style="fill: #d62728; opacity: 0.82; stroke: #ffffff; stroke-linejoin: miter"/>
   </g>
   <g id="patch_88">
    <path d="M 665.432386 315.52 
L 671.497538 315.52 
L 671.497538 314.337812 
L 665.432386 314.337812 
z
" clip-path="url(#p81ddbb6907)" style="fill: #d62728; opacity: 0.82; stroke: #ffffff; stroke-linejoin: miter"/>
   </g>
   <g id="patch_89">
    <path d="M 671.497538 315.52 
L 677.562689 315.52 
L 677.562689 314.394106 
L 671.497538 314.394106 
z
" clip-path="url(#p81ddbb6907)" style="fill: #d62728; opacity: 0.82; stroke: #ffffff; stroke-linejoin: miter"/>
   </g>
   <g id="patch_90">
    <path d="M 677.562689 315.52 
L 683.627841 315.52 
L 683.627841 314.056338 
L 677.562689 314.056338 
z
" clip-path="url(#p81ddbb6907)" style="fill: #d62728; opacity: 0.82; stroke: #ffffff; stroke-linejoin: miter"/>
   </g>
   <g id="patch_91">
    <path d="M 683.627841 315.52 
L 689.692992 315.52 
L 689.692992 314.394106 
L 683.627841 314.394106 
z
" clip-path="url(#p81ddbb6907)" style="fill: #d62728; opacity: 0.82; stroke: #ffffff; stroke-linejoin: miter"/>
   </g>
   <g id="patch_92">
    <path d="M 689.692992 315.52 
L 695.758144 315.52 
L 695.758144 314.844464 
L 689.692992 314.844464 
z
" clip-path="url(#p81ddbb6907)" style="fill: #d62728; opacity: 0.82; stroke: #ffffff; stroke-linejoin: miter"/>
   </g>
   <g id="patch_93">
    <path d="M 695.758144 315.52 
L 701.823295 315.52 
L 701.823295 314.731874 
L 695.758144 314.731874 
z
" clip-path="url(#p81ddbb6907)" style="fill: #d62728; opacity: 0.82; stroke: #ffffff; stroke-linejoin: miter"/>
   </g>
   <g id="patch_94">
    <path d="M 701.823295 315.52 
L 707.888447 315.52 
L 707.888447 314.788169 
L 701.823295 314.788169 
z
" clip-path="url(#p81ddbb6907)" style="fill: #d62728; opacity: 0.82; stroke: #ffffff; stroke-linejoin: miter"/>
   </g>
   <g id="patch_95">
    <path d="M 707.888447 315.52 
L 713.953598 315.52 
L 713.953598 314.844464 
L 707.888447 314.844464 
z
" clip-path="url(#p81ddbb6907)" style="fill: #d62728; opacity: 0.82; stroke: #ffffff; stroke-linejoin: miter"/>
   </g>
   <g id="patch_96">
    <path d="M 713.953598 315.52 
L 720.01875 315.52 
L 720.01875 314.957053 
L 713.953598 314.957053 
z
" clip-path="url(#p81ddbb6907)" style="fill: #d62728; opacity: 0.82; stroke: #ffffff; stroke-linejoin: miter"/>
   </g>
   <g id="patch_97">
    <path d="M 720.01875 315.52 
L 726.083902 315.52 
L 726.083902 315.182232 
L 720.01875 315.182232 
z
" clip-path="url(#p81ddbb6907)" style="fill: #d62728; opacity: 0.82; stroke: #ffffff; stroke-linejoin: miter"/>
   </g>
   <g id="patch_98">
    <path d="M 726.083902 315.52 
L 732.149053 315.52 
L 732.149053 315.463705 
L 726.083902 315.463705 
z
" clip-path="url(#p81ddbb6907)" style="fill: #d62728; opacity: 0.82; stroke: #ffffff; stroke-linejoin: miter"/>
   </g>
   <g id="patch_99">
    <path d="M 732.149053 315.52 
L 738.214205 315.52 
L 738.214205 315.125937 
L 732.149053 315.125937 
z
" clip-path="url(#p81ddbb6907)" style="fill: #d62728; opacity: 0.82; stroke: #ffffff; stroke-linejoin: miter"/>
   </g>
   <g id="patch_100">
    <path d="M 738.214205 315.52 
L 744.279356 315.52 
L 744.279356 315.294821 
L 738.214205 315.294821 
z
" clip-path="url(#p81ddbb6907)" style="fill: #d62728; opacity: 0.82; stroke: #ffffff; stroke-linejoin: miter"/>
   </g>
   <g id="patch_101">
    <path d="M 744.279356 315.52 
L 750.344508 315.52 
L 750.344508 315.351116 
L 744.279356 315.351116 
z
" clip-path="url(#p81ddbb6907)" style="fill: #d62728; opacity: 0.82; stroke: #ffffff; stroke-linejoin: miter"/>
   </g>
   <g id="patch_102">
    <path d="M 750.344508 315.52 
L 756.409659 315.52 
L 756.409659 315.238527 
L 750.344508 315.238527 
z
" clip-path="url(#p81ddbb6907)" style="fill: #d62728; opacity: 0.82; stroke: #ffffff; stroke-linejoin: miter"/>
   </g>
   <g id="patch_103">
    <path d="M 756.409659 315.52 
L 762.474811 315.52 
L 762.474811 315.407411 
L 756.409659 315.407411 
z
" clip-path="url(#p81ddbb6907)" style="fill: #d62728; opacity: 0.82; stroke: #ffffff; stroke-linejoin: miter"/>
   </g>
   <g id="patch_104">
    <path d="M 762.474811 315.52 
L 768.539962 315.52 
L 768.539962 315.407411 
L 762.474811 315.407411 
z
" clip-path="url(#p81ddbb6907)" style="fill: #d62728; opacity: 0.82; stroke: #ffffff; stroke-linejoin: miter"/>
   </g>
   <g id="patch_105">
    <path d="M 768.539962 315.52 
L 774.605114 315.52 
L 774.605114 315.407411 
L 768.539962 315.407411 
z
" clip-path="url(#p81ddbb6907)" style="fill: #d62728; opacity: 0.82; stroke: #ffffff; stroke-linejoin: miter"/>
   </g>
   <g id="patch_106">
    <path d="M 774.605114 315.52 
L 780.670265 315.52 
L 780.670265 315.407411 
L 774.605114 315.407411 
z
" clip-path="url(#p81ddbb6907)" style="fill: #d62728; opacity: 0.82; stroke: #ffffff; stroke-linejoin: miter"/>
   </g>
   <g id="patch_107">
    <path d="M 780.670265 315.52 
L 786.735417 315.52 
L 786.735417 315.294821 
L 780.670265 315.294821 
z
" clip-path="url(#p81ddbb6907)" style="fill: #d62728; opacity: 0.82; stroke: #ffffff; stroke-linejoin: miter"/>
   </g>
   <g id="patch_108">
    <path d="M 786.735417 315.52 
L 792.800568 315.52 
L 792.800568 315.463705 
L 786.735417 315.463705 
z
" clip-path="url(#p81ddbb6907)" style="fill: #d62728; opacity: 0.82; stroke: #ffffff; stroke-linejoin: miter"/>
   </g>
   <g id="patch_109">
    <path d="M 792.800568 315.52 
L 798.86572 315.52 
L 798.86572 315.407411 
L 792.800568 315.407411 
z
" clip-path="url(#p81ddbb6907)" style="fill: #d62728; opacity: 0.82; stroke: #ffffff; stroke-linejoin: miter"/>
   </g>
   <g id="patch_110">
    <path d="M 798.86572 315.52 
L 804.930871 315.52 
L 804.930871 315.463705 
L 798.86572 315.463705 
z
" clip-path="url(#p81ddbb6907)" style="fill: #d62728; opacity: 0.82; stroke: #ffffff; stroke-linejoin: miter"/>
   </g>
   <g id="patch_111">
    <path d="M 804.930871 315.52 
L 810.996023 315.52 
L 810.996023 315.52 
L 804.930871 315.52 
z
" clip-path="url(#p81ddbb6907)" style="fill: #d62728; opacity: 0.82; stroke: #ffffff; stroke-linejoin: miter"/>
   </g>
   <g id="patch_112">
    <path d="M 810.996023 315.52 
L 817.061174 315.52 
L 817.061174 315.463705 
L 810.996023 315.463705 
z
" clip-path="url(#p81ddbb6907)" style="fill: #d62728; opacity: 0.82; stroke: #ffffff; stroke-linejoin: miter"/>
   </g>
   <g id="patch_113">
    <path d="M 817.061174 315.52 
L 823.126326 315.52 
L 823.126326 315.351116 
L 817.061174 315.351116 
z
" clip-path="url(#p81ddbb6907)" style="fill: #d62728; opacity: 0.82; stroke: #ffffff; stroke-linejoin: miter"/>
   </g>
   <g id="patch_114">
    <path d="M 823.126326 315.52 
L 829.191477 315.52 
L 829.191477 315.407411 
L 823.126326 315.407411 
z
" clip-path="url(#p81ddbb6907)" style="fill: #d62728; opacity: 0.82; stroke: #ffffff; stroke-linejoin: miter"/>
   </g>
   <g id="patch_115">
    <path d="M 829.191477 315.52 
L 835.256629 315.52 
L 835.256629 315.52 
L 829.191477 315.52 
z
" clip-path="url(#p81ddbb6907)" style="fill: #d62728; opacity: 0.82; stroke: #ffffff; stroke-linejoin: miter"/>
   </g>
   <g id="patch_116">
    <path d="M 835.256629 315.52 
L 841.32178 315.52 
L 841.32178 315.52 
L 835.256629 315.52 
z
" clip-path="url(#p81ddbb6907)" style="fill: #d62728; opacity: 0.82; stroke: #ffffff; stroke-linejoin: miter"/>
   </g>
   <g id="patch_117">
    <path d="M 841.32178 315.52 
L 847.386932 315.52 
L 847.386932 315.463705 
L 841.32178 315.463705 
z
" clip-path="url(#p81ddbb6907)" style="fill: #d62728; opacity: 0.82; stroke: #ffffff; stroke-linejoin: miter"/>
   </g>
   <g id="patch_118">
    <path d="M 847.386932 315.52 
L 853.452083 315.52 
L 853.452083 315.52 
L 847.386932 315.52 
z
" clip-path="url(#p81ddbb6907)" style="fill: #d62728; opacity: 0.82; stroke: #ffffff; stroke-linejoin: miter"/>
   </g>
   <g id="patch_119">
    <path d="M 853.452083 315.52 
L 859.517235 315.52 
L 859.517235 315.407411 
L 853.452083 315.407411 
z
" clip-path="url(#p81ddbb6907)" style="fill: #d62728; opacity: 0.82; stroke: #ffffff; stroke-linejoin: miter"/>
   </g>
   <g id="patch_120">
    <path d="M 859.517235 315.52 
L 865.582386 315.52 
L 865.582386 315.52 
L 859.517235 315.52 
z
" clip-path="url(#p81ddbb6907)" style="fill: #d62728; opacity: 0.82; stroke: #ffffff; stroke-linejoin: miter"/>
   </g>
   <g id="patch_121">
    <path d="M 865.582386 315.52 
L 871.647538 315.52 
L 871.647538 315.52 
L 865.582386 315.52 
z
" clip-path="url(#p81ddbb6907)" style="fill: #d62728; opacity: 0.82; stroke: #ffffff; stroke-linejoin: miter"/>
   </g>
   <g id="patch_122">
    <path d="M 871.647538 315.52 
L 877.712689 315.52 
L 877.712689 315.52 
L 871.647538 315.52 
z
" clip-path="url(#p81ddbb6907)" style="fill: #d62728; opacity: 0.82; stroke: #ffffff; stroke-linejoin: miter"/>
   </g>
   <g id="patch_123">
    <path d="M 877.712689 315.52 
L 883.777841 315.52 
L 883.777841 315.52 
L 877.712689 315.52 
z
" clip-path="url(#p81ddbb6907)" style="fill: #d62728; opacity: 0.82; stroke: #ffffff; stroke-linejoin: miter"/>
   </g>
   <g id="patch_124">
    <path d="M 883.777841 315.52 
L 889.842992 315.52 
L 889.842992 315.52 
L 883.777841 315.52 
z
" clip-path="url(#p81ddbb6907)" style="fill: #d62728; opacity: 0.82; stroke: #ffffff; stroke-linejoin: miter"/>
   </g>
   <g id="patch_125">
    <path d="M 889.842992 315.52 
L 895.908144 315.52 
L 895.908144 315.463705 
L 889.842992 315.463705 
z
" clip-path="url(#p81ddbb6907)" style="fill: #d62728; opacity: 0.82; stroke: #ffffff; stroke-linejoin: miter"/>
   </g>
   <g id="patch_126">
    <path d="M 895.908144 315.52 
L 901.973295 315.52 
L 901.973295 315.407411 
L 895.908144 315.407411 
z
" clip-path="url(#p81ddbb6907)" style="fill: #d62728; opacity: 0.82; stroke: #ffffff; stroke-linejoin: miter"/>
   </g>
   <g id="matplotlib.axis_3">
    <g id="xtick_7">
     <g id="line2d_17">
      <g>
       <use xlink:href="#m65b0fab9dd" x="538.061511" y="315.52" style="stroke: #000000; stroke-width: 0.8"/>
      </g>
     </g>
     <g id="text_19">
      <!-- 0 -->
      <g transform="translate(534.562136 330.878281) scale(0.11 -0.11)">
       <use xlink:href="#DejaVuSans-30"/>
      </g>
     </g>
    </g>
    <g id="xtick_8">
     <g id="line2d_18">
      <g>
       <use xlink:href="#m65b0fab9dd" x="603.87711" y="315.52" style="stroke: #000000; stroke-width: 0.8"/>
      </g>
     </g>
     <g id="text_20">
      <!-- 5 -->
      <g transform="translate(600.377735 330.878281) scale(0.11 -0.11)">
       <use xlink:href="#DejaVuSans-35"/>
      </g>
     </g>
    </g>
    <g id="xtick_9">
     <g id="line2d_19">
      <g>
       <use xlink:href="#m65b0fab9dd" x="669.69271" y="315.52" style="stroke: #000000; stroke-width: 0.8"/>
      </g>
     </g>
     <g id="text_21">
      <!-- 10 -->
      <g transform="translate(662.69396 330.878281) scale(0.11 -0.11)">
       <use xlink:href="#DejaVuSans-31"/>
       <use xlink:href="#DejaVuSans-30" x="63.623047"/>
      </g>
     </g>
    </g>
    <g id="xtick_10">
     <g id="line2d_20">
      <g>
       <use xlink:href="#m65b0fab9dd" x="735.508309" y="315.52" style="stroke: #000000; stroke-width: 0.8"/>
      </g>
     </g>
     <g id="text_22">
      <!-- 15 -->
      <g transform="translate(728.509559 330.878281) scale(0.11 -0.11)">
       <use xlink:href="#DejaVuSans-31"/>
       <use xlink:href="#DejaVuSans-35" x="63.623047"/>
      </g>
     </g>
    </g>
    <g id="xtick_11">
     <g id="line2d_21">
      <g>
       <use xlink:href="#m65b0fab9dd" x="801.323909" y="315.52" style="stroke: #000000; stroke-width: 0.8"/>
      </g>
     </g>
     <g id="text_23">
      <!-- 20 -->
      <g transform="translate(794.325159 330.878281) scale(0.11 -0.11)">
       <use xlink:href="#DejaVuSans-32"/>
       <use xlink:href="#DejaVuSans-30" x="63.623047"/>
      </g>
     </g>
    </g>
    <g id="xtick_12">
     <g id="line2d_22">
      <g>
       <use xlink:href="#m65b0fab9dd" x="867.139509" y="315.52" style="stroke: #000000; stroke-width: 0.8"/>
      </g>
     </g>
     <g id="text_24">
      <!-- 25 -->
      <g transform="translate(860.140759 330.878281) scale(0.11 -0.11)">
       <use xlink:href="#DejaVuSans-32"/>
       <use xlink:href="#DejaVuSans-35" x="63.623047"/>
      </g>
     </g>
    </g>
    <g id="text_25">
     <!-- Absolute Error (years) -->
     <g transform="translate(654.165 346.284062) scale(0.12 -0.12)">
      <use xlink:href="#DejaVuSans-41"/>
      <use xlink:href="#DejaVuSans-62" x="68.408203"/>
      <use xlink:href="#DejaVuSans-73" x="131.884766"/>
      <use xlink:href="#DejaVuSans-6f" x="183.984375"/>
      <use xlink:href="#DejaVuSans-6c" x="245.166016"/>
      <use xlink:href="#DejaVuSans-75" x="272.949219"/>
      <use xlink:href="#DejaVuSans-74" x="336.328125"/>
      <use xlink:href="#DejaVuSans-65" x="375.537109"/>
      <use xlink:href="#DejaVuSans-20" x="437.060547"/>
      <use xlink:href="#DejaVuSans-45" x="468.847656"/>
      <use xlink:href="#DejaVuSans-72" x="532.03125"/>
      <use xlink:href="#DejaVuSans-72" x="571.394531"/>
      <use xlink:href="#DejaVuSans-6f" x="610.257812"/>
      <use xlink:href="#DejaVuSans-72" x="671.439453"/>
      <use xlink:href="#DejaVuSans-20" x="712.552734"/>
      <use xlink:href="#DejaVuSans-28" x="744.339844"/>
      <use xlink:href="#DejaVuSans-79" x="783.353516"/>
      <use xlink:href="#DejaVuSans-65" x="842.533203"/>
      <use xlink:href="#DejaVuSans-61" x="904.056641"/>
      <use xlink:href="#DejaVuSans-72" x="965.335938"/>
      <use xlink:href="#DejaVuSans-73" x="1006.449219"/>
      <use xlink:href="#DejaVuSans-29" x="1058.548828"/>
     </g>
    </g>
   </g>
   <g id="matplotlib.axis_4">
    <g id="ytick_9">
     <g id="line2d_23">
      <g>
       <use xlink:href="#mff4f509132" x="519.86875" y="315.52" style="stroke: #000000; stroke-width: 0.8"/>
      </g>
     </g>
     <g id="text_26">
      <!-- 0 -->
      <g transform="translate(505.87 319.699141) scale(0.11 -0.11)">
       <use xlink:href="#DejaVuSans-30"/>
      </g>
     </g>
    </g>
    <g id="ytick_10">
     <g id="line2d_24">
      <g>
       <use xlink:href="#mff4f509132" x="519.86875" y="259.225314" style="stroke: #000000; stroke-width: 0.8"/>
      </g>
     </g>
     <g id="text_27">
      <!-- 1000 -->
      <g transform="translate(484.87375 263.404454) scale(0.11 -0.11)">
       <use xlink:href="#DejaVuSans-31"/>
       <use xlink:href="#DejaVuSans-30" x="63.623047"/>
       <use xlink:href="#DejaVuSans-30" x="127.246094"/>
       <use xlink:href="#DejaVuSans-30" x="190.869141"/>
      </g>
     </g>
    </g>
    <g id="ytick_11">
     <g id="line2d_25">
      <g>
       <use xlink:href="#mff4f509132" x="519.86875" y="202.930628" style="stroke: #000000; stroke-width: 0.8"/>
      </g>
     </g>
     <g id="text_28">
      <!-- 2000 -->
      <g transform="translate(484.87375 207.109768) scale(0.11 -0.11)">
       <use xlink:href="#DejaVuSans-32"/>
       <use xlink:href="#DejaVuSans-30" x="63.623047"/>
       <use xlink:href="#DejaVuSans-30" x="127.246094"/>
       <use xlink:href="#DejaVuSans-30" x="190.869141"/>
      </g>
     </g>
    </g>
    <g id="ytick_12">
     <g id="line2d_26">
      <g>
       <use xlink:href="#mff4f509132" x="519.86875" y="146.635942" style="stroke: #000000; stroke-width: 0.8"/>
      </g>
     </g>
     <g id="text_29">
      <!-- 3000 -->
      <g transform="translate(484.87375 150.815082) scale(0.11 -0.11)">
       <use xlink:href="#DejaVuSans-33"/>
       <use xlink:href="#DejaVuSans-30" x="63.623047"/>
       <use xlink:href="#DejaVuSans-30" x="127.246094"/>
       <use xlink:href="#DejaVuSans-30" x="190.869141"/>
      </g>
     </g>
    </g>
    <g id="ytick_13">
     <g id="line2d_27">
      <g>
       <use xlink:href="#mff4f509132" x="519.86875" y="90.341255" style="stroke: #000000; stroke-width: 0.8"/>
      </g>
     </g>
     <g id="text_30">
      <!-- 4000 -->
      <g transform="translate(484.87375 94.520396) scale(0.11 -0.11)">
       <defs>
        <path id="DejaVuSans-34" d="M 2419 4116 
L 825 1625 
L 2419 1625 
L 2419 4116 
z
M 2253 4666 
L 3047 4666 
L 3047 1625 
L 3713 1625 
L 3713 1100 
L 3047 1100 
L 3047 0 
L 2419 0 
L 2419 1100 
L 313 1100 
L 313 1709 
L 2253 4666 
z
" transform="scale(0.015625)"/>
       </defs>
       <use xlink:href="#DejaVuSans-34"/>
       <use xlink:href="#DejaVuSans-30" x="63.623047"/>
       <use xlink:href="#DejaVuSans-30" x="127.246094"/>
       <use xlink:href="#DejaVuSans-30" x="190.869141"/>
      </g>
     </g>
    </g>
    <g id="text_31">
     <!-- Observations -->
     <g transform="translate(478.378125 223.102812) rotate(-90) scale(0.12 -0.12)">
      <use xlink:href="#DejaVuSans-4f"/>
      <use xlink:href="#DejaVuSans-62" x="78.710938"/>
      <use xlink:href="#DejaVuSans-73" x="142.1875"/>
      <use xlink:href="#DejaVuSans-65" x="194.287109"/>
      <use xlink:href="#DejaVuSans-72" x="255.810547"/>
      <use xlink:href="#DejaVuSans-76" x="296.923828"/>
      <use xlink:href="#DejaVuSans-61" x="356.103516"/>
      <use xlink:href="#DejaVuSans-74" x="417.382812"/>
      <use xlink:href="#DejaVuSans-69" x="456.591797"/>
      <use xlink:href="#DejaVuSans-6f" x="484.375"/>
      <use xlink:href="#DejaVuSans-6e" x="545.556641"/>
      <use xlink:href="#DejaVuSans-73" x="608.935547"/>
     </g>
    </g>
   </g>
   <g id="line2d_28">
    <path d="M 563.650205 315.52 
L 563.650205 51.36 
" clip-path="url(#p81ddbb6907)" style="fill: none; stroke-dasharray: 5.55,2.4; stroke-dashoffset: 0; stroke: #000000; stroke-width: 1.5"/>
   </g>
   <g id="patch_127">
    <path d="M 519.86875 315.52 
L 519.86875 51.36 
" style="fill: none; stroke: #000000; stroke-width: 0.8; stroke-linejoin: miter; stroke-linecap: square"/>
   </g>
   <g id="patch_128">
    <path d="M 519.86875 315.52 
L 920.16875 315.52 
" style="fill: none; stroke: #000000; stroke-width: 0.8; stroke-linejoin: miter; stroke-linecap: square"/>
   </g>
   <g id="text_32">
    <!-- Abs Error — Derived BAG -->
    <g transform="translate(644.4675 45.36) scale(0.12 -0.12)">
     <defs>
      <path id="DejaVuSans-64" d="M 2906 2969 
L 2906 4863 
L 3481 4863 
L 3481 0 
L 2906 0 
L 2906 525 
Q 2725 213 2448 61 
Q 2172 -91 1784 -91 
Q 1150 -91 751 415 
Q 353 922 353 1747 
Q 353 2572 751 3078 
Q 1150 3584 1784 3584 
Q 2172 3584 2448 3432 
Q 2725 3281 2906 2969 
z
M 947 1747 
Q 947 1113 1208 752 
Q 1469 391 1925 391 
Q 2381 391 2643 752 
Q 2906 1113 2906 1747 
Q 2906 2381 2643 2742 
Q 2381 3103 1925 3103 
Q 1469 3103 1208 2742 
Q 947 2381 947 1747 
z
" transform="scale(0.015625)"/>
     </defs>
     <use xlink:href="#DejaVuSans-41"/>
     <use xlink:href="#DejaVuSans-62" x="68.408203"/>
     <use xlink:href="#DejaVuSans-73" x="131.884766"/>
     <use xlink:href="#DejaVuSans-20" x="183.984375"/>
     <use xlink:href="#DejaVuSans-45" x="215.771484"/>
     <use xlink:href="#DejaVuSans-72" x="278.955078"/>
     <use xlink:href="#DejaVuSans-72" x="318.318359"/>
     <use xlink:href="#DejaVuSans-6f" x="357.181641"/>
     <use xlink:href="#DejaVuSans-72" x="418.363281"/>
     <use xlink:href="#DejaVuSans-20" x="459.476562"/>
     <use xlink:href="#DejaVuSans-2014" x="491.263672"/>
     <use xlink:href="#DejaVuSans-20" x="591.263672"/>
     <use xlink:href="#DejaVuSans-44" x="623.050781"/>
     <use xlink:href="#DejaVuSans-65" x="700.052734"/>
     <use xlink:href="#DejaVuSans-72" x="761.576172"/>
     <use xlink:href="#DejaVuSans-69" x="802.689453"/>
     <use xlink:href="#DejaVuSans-76" x="830.472656"/>
     <use xlink:href="#DejaVuSans-65" x="889.652344"/>
     <use xlink:href="#DejaVuSans-64" x="951.175781"/>
     <use xlink:href="#DejaVuSans-20" x="1014.652344"/>
     <use xlink:href="#DejaVuSans-42" x="1046.439453"/>
     <use xlink:href="#DejaVuSans-41" x="1115.042969"/>
     <use xlink:href="#DejaVuSans-47" x="1181.701172"/>
    </g>
   </g>
   <g id="legend_2">
    <g id="patch_129">
     <path d="M 797.35 74.038125 
L 913.16875 74.038125 
Q 915.16875 74.038125 915.16875 72.038125 
L 915.16875 58.36 
Q 915.16875 56.36 913.16875 56.36 
L 797.35 56.36 
Q 795.35 56.36 795.35 58.36 
L 795.35 72.038125 
Q 795.35 74.038125 797.35 74.038125 
z
" style="fill: #ffffff; opacity: 0.8; stroke: #cccccc; stroke-linejoin: miter"/>
    </g>
    <g id="line2d_29">
     <path d="M 799.35 64.458437 
L 809.35 64.458437 
L 819.35 64.458437 
" style="fill: none; stroke-dasharray: 5.55,2.4; stroke-dashoffset: 0; stroke: #000000; stroke-width: 1.5"/>
    </g>
    <g id="text_33">
     <!-- Mean = 1.944 yr -->
     <g transform="translate(827.35 67.958437) scale(0.1 -0.1)">
      <use xlink:href="#DejaVuSans-4d"/>
      <use xlink:href="#DejaVuSans-65" x="86.279297"/>
      <use xlink:href="#DejaVuSans-61" x="147.802734"/>
      <use xlink:href="#DejaVuSans-6e" x="209.082031"/>
      <use xlink:href="#DejaVuSans-20" x="272.460938"/>
      <use xlink:href="#DejaVuSans-3d" x="304.248047"/>
      <use xlink:href="#DejaVuSans-20" x="388.037109"/>
      <use xlink:href="#DejaVuSans-31" x="419.824219"/>
      <use xlink:href="#DejaVuSans-2e" x="483.447266"/>
      <use xlink:href="#DejaVuSans-39" x="515.234375"/>
      <use xlink:href="#DejaVuSans-34" x="578.857422"/>
      <use xlink:href="#DejaVuSans-34" x="642.480469"/>
      <use xlink:href="#DejaVuSans-20" x="706.103516"/>
      <use xlink:href="#DejaVuSans-79" x="737.890625"/>
      <use xlink:href="#DejaVuSans-72" x="797.070312"/>
     </g>
    </g>
   </g>
  </g>
  <g id="text_34">
   <!-- Absolute Error Distribution: Direct vs Derived BAG -->
   <g transform="translate(301.319219 17.077969) scale(0.13 -0.13)">
    <defs>
     <path id="DejaVuSans-3a" d="M 750 794 
L 1409 794 
L 1409 0 
L 750 0 
L 750 794 
z
M 750 3309 
L 1409 3309 
L 1409 2516 
L 750 2516 
L 750 3309 
z
" transform="scale(0.015625)"/>
    </defs>
    <use xlink:href="#DejaVuSans-41"/>
    <use xlink:href="#DejaVuSans-62" x="68.408203"/>
    <use xlink:href="#DejaVuSans-73" x="131.884766"/>
    <use xlink:href="#DejaVuSans-6f" x="183.984375"/>
    <use xlink:href="#DejaVuSans-6c" x="245.166016"/>
    <use xlink:href="#DejaVuSans-75" x="272.949219"/>
    <use xlink:href="#DejaVuSans-74" x="336.328125"/>
    <use xlink:href="#DejaVuSans-65" x="375.537109"/>
    <use xlink:href="#DejaVuSans-20" x="437.060547"/>
    <use xlink:href="#DejaVuSans-45" x="468.847656"/>
    <use xlink:href="#DejaVuSans-72" x="532.03125"/>
    <use xlink:href="#DejaVuSans-72" x="571.394531"/>
    <use xlink:href="#DejaVuSans-6f" x="610.257812"/>
    <use xlink:href="#DejaVuSans-72" x="671.439453"/>
    <use xlink:href="#DejaVuSans-20" x="712.552734"/>
    <use xlink:href="#DejaVuSans-44" x="744.339844"/>
    <use xlink:href="#DejaVuSans-69" x="821.341797"/>
    <use xlink:href="#DejaVuSans-73" x="849.125"/>
    <use xlink:href="#DejaVuSans-74" x="901.224609"/>
    <use xlink:href="#DejaVuSans-72" x="940.433594"/>
    <use xlink:href="#DejaVuSans-69" x="981.546875"/>
    <use xlink:href="#DejaVuSans-62" x="1009.330078"/>
    <use xlink:href="#DejaVuSans-75" x="1072.806641"/>
    <use xlink:href="#DejaVuSans-74" x="1136.185547"/>
    <use xlink:href="#DejaVuSans-69" x="1175.394531"/>
    <use xlink:href="#DejaVuSans-6f" x="1203.177734"/>
    <use xlink:href="#DejaVuSans-6e" x="1264.359375"/>
    <use xlink:href="#DejaVuSans-3a" x="1327.738281"/>
    <use xlink:href="#DejaVuSans-20" x="1361.429688"/>
    <use xlink:href="#DejaVuSans-44" x="1393.216797"/>
    <use xlink:href="#DejaVuSans-69" x="1470.21875"/>
    <use xlink:href="#DejaVuSans-72" x="1498.001953"/>
    <use xlink:href="#DejaVuSans-65" x="1536.865234"/>
    <use xlink:href="#DejaVuSans-63" x="1598.388672"/>
    <use xlink:href="#DejaVuSans-74" x="1653.369141"/>
    <use xlink:href="#DejaVuSans-20" x="1692.578125"/>
    <use xlink:href="#DejaVuSans-76" x="1724.365234"/>
    <use xlink:href="#DejaVuSans-73" x="1783.544922"/>
    <use xlink:href="#DejaVuSans-20" x="1835.644531"/>
    <use xlink:href="#DejaVuSans-44" x="1867.431641"/>
    <use xlink:href="#DejaVuSans-65" x="1944.433594"/>
    <use xlink:href="#DejaVuSans-72" x="2005.957031"/>
    <use xlink:href="#DejaVuSans-69" x="2047.070312"/>
    <use xlink:href="#DejaVuSans-76" x="2074.853516"/>
    <use xlink:href="#DejaVuSans-65" x="2134.033203"/>
    <use xlink:href="#DejaVuSans-64" x="2195.556641"/>
    <use xlink:href="#DejaVuSans-20" x="2259.033203"/>
    <use xlink:href="#DejaVuSans-42" x="2290.820312"/>
    <use xlink:href="#DejaVuSans-41" x="2359.423828"/>
    <use xlink:href="#DejaVuSans-47" x="2426.082031"/>
   </g>
  </g>
 </g>
 <defs>
  <clipPath id="p0921379df7">
   <rect x="57.80875" y="51.36" width="400.3" height="264.16"/>
  </clipPath>
  <clipPath id="p81ddbb6907">
   <rect x="519.86875" y="51.36" width="400.3" height="264.16"/>
  </clipPath>
 </defs>
</svg>
