<?xml version="1.0" encoding="utf-8" standalone="no"?>
<!DOCTYPE svg PUBLIC "-//W3C//DTD SVG 1.1//EN"
  "http://www.w3.org/Graphics/SVG/1.1/DTD/svg11.dtd">
<svg xmlns:xlink="http://www.w3.org/1999/xlink" width="927.39pt" height="351.777812pt" viewBox="0 0 927.39 351.777812" xmlns="http://www.w3.org/2000/svg" version="1.1">
 <metadata>
  <rdf:RDF xmlns:dc="http://purl.org/dc/elements/1.1/" xmlns:cc="http://creativecommons.org/ns#" xmlns:rdf="http://www.w3.org/1999/02/22-rdf-syntax-ns#">
   <cc:Work>
    <dc:type rdf:resource="http://purl.org/dc/dcmitype/StillImage"/>
    <dc:date>2026-04-09T12:41:12.797748</dc:date>
    <dc:format>image/svg+xml</dc:format>
    <dc:creator>
     <cc:Agent>
      <dc:title>Matplotlib v3.7.2, https://matplotlib.org/</dc:title>
     </cc:Agent>
    </dc:creator>
   </cc:Work>
  </rdf:RDF>
 </metadata>
 <defs>
  <style type="text/css">*{stroke-linejoin: round; stroke-linecap: butt}</style>
 </defs>
 <g id="figure_1">
  <g id="patch_1">
   <path d="M 0 351.777812 
L 927.39 351.777812 
L 927.39 0 
L 0 0 
z
" style="fill: #ffffff"/>
  </g>
  <g id="axes_1">
   <g id="patch_2">
    <path d="M 50.81 311.318125 
L 461.64 311.318125 
L 461.64 22.318125 
L 50.81 22.318125 
z
" style="fill: #ffffff"/>
   </g>
   <g id="patch_3">
    <path d="M 69.484091 311.318125 
L 75.708788 311.318125 
L 75.708788 36.08003 
L 69.484091 36.08003 
z
" clip-path="url(#p35ee953390)" style="fill: #4682b4; opacity: 0.85; stroke: #ffffff; stroke-linejoin: miter"/>
   </g>
   <g id="patch_4">
    <path d="M 75.708788 311.318125 
L 81.933485 311.318125 
L 81.933485 49.109052 
L 75.708788 49.109052 
z
" clip-path="url(#p35ee953390)" style="fill: #4682b4; opacity: 0.85; stroke: #ffffff; stroke-linejoin: miter"/>
   </g>
   <g id="patch_5">
    <path d="M 81.933485 311.318125 
L 88.158182 311.318125 
L 88.158182 104.482397 
L 81.933485 104.482397 
z
" clip-path="url(#p35ee953390)" style="fill: #4682b4; opacity: 0.85; stroke: #ffffff; stroke-linejoin: miter"/>
   </g>
   <g id="patch_6">
    <path d="M 88.158182 311.318125 
L 94.382879 311.318125 
L 94.382879 182.65653 
L 88.158182 182.65653 
z
" clip-path="url(#p35ee953390)" style="fill: #4682b4; opacity: 0.85; stroke: #ffffff; stroke-linejoin: miter"/>
   </g>
   <g id="patch_7">
    <path d="M 94.382879 311.318125 
L 100.607576 311.318125 
L 100.607576 216.0434 
L 94.382879 216.0434 
z
" clip-path="url(#p35ee953390)" style="fill: #4682b4; opacity: 0.85; stroke: #ffffff; stroke-linejoin: miter"/>
   </g>
   <g id="patch_8">
    <path d="M 100.607576 311.318125 
L 106.832273 311.318125 
L 106.832273 237.215561 
L 100.607576 237.215561 
z
" clip-path="url(#p35ee953390)" style="fill: #4682b4; opacity: 0.85; stroke: #ffffff; stroke-linejoin: miter"/>
   </g>
   <g id="patch_9">
    <path d="M 106.832273 311.318125 
L 113.05697 311.318125 
L 113.05697 247.801641 
L 106.832273 247.801641 
z
" clip-path="url(#p35ee953390)" style="fill: #4682b4; opacity: 0.85; stroke: #ffffff; stroke-linejoin: miter"/>
   </g>
   <g id="patch_10">
    <path d="M 113.05697 311.318125 
L 119.281667 311.318125 
L 119.281667 251.058897 
L 113.05697 251.058897 
z
" clip-path="url(#p35ee953390)" style="fill: #4682b4; opacity: 0.85; stroke: #ffffff; stroke-linejoin: miter"/>
   </g>
   <g id="patch_11">
    <path d="M 119.281667 311.318125 
L 125.506364 311.318125 
L 125.506364 245.3587 
L 119.281667 245.3587 
z
" clip-path="url(#p35ee953390)" style="fill: #4682b4; opacity: 0.85; stroke: #ffffff; stroke-linejoin: miter"/>
   </g>
   <g id="patch_12">
    <path d="M 125.506364 311.318125 
L 131.731061 311.318125 
L 131.731061 258.387722 
L 125.506364 258.387722 
z
" clip-path="url(#p35ee953390)" style="fill: #4682b4; opacity: 0.85; stroke: #ffffff; stroke-linejoin: miter"/>
   </g>
   <g id="patch_13">
    <path d="M 131.731061 311.318125 
L 137.955758 311.318125 
L 137.955758 273.045372 
L 131.731061 273.045372 
z
" clip-path="url(#p35ee953390)" style="fill: #4682b4; opacity: 0.85; stroke: #ffffff; stroke-linejoin: miter"/>
   </g>
   <g id="patch_14">
    <path d="M 137.955758 311.318125 
L 144.180455 311.318125 
L 144.180455 262.459292 
L 137.955758 262.459292 
z
" clip-path="url(#p35ee953390)" style="fill: #4682b4; opacity: 0.85; stroke: #ffffff; stroke-linejoin: miter"/>
   </g>
   <g id="patch_15">
    <path d="M 144.180455 311.318125 
L 150.405152 311.318125 
L 150.405152 279.559883 
L 144.180455 279.559883 
z
" clip-path="url(#p35ee953390)" style="fill: #4682b4; opacity: 0.85; stroke: #ffffff; stroke-linejoin: miter"/>
   </g>
   <g id="patch_16">
    <path d="M 150.405152 311.318125 
L 156.629848 311.318125 
L 156.629848 277.116942 
L 150.405152 277.116942 
z
" clip-path="url(#p35ee953390)" style="fill: #4682b4; opacity: 0.85; stroke: #ffffff; stroke-linejoin: miter"/>
   </g>
   <g id="patch_17">
    <path d="M 156.629848 311.318125 
L 162.854545 311.318125 
L 162.854545 291.774592 
L 156.629848 291.774592 
z
" clip-path="url(#p35ee953390)" style="fill: #4682b4; opacity: 0.85; stroke: #ffffff; stroke-linejoin: miter"/>
   </g>
   <g id="patch_18">
    <path d="M 162.854545 311.318125 
L 169.079242 311.318125 
L 169.079242 279.559883 
L 162.854545 279.559883 
z
" clip-path="url(#p35ee953390)" style="fill: #4682b4; opacity: 0.85; stroke: #ffffff; stroke-linejoin: miter"/>
   </g>
   <g id="patch_19">
    <path d="M 169.079242 311.318125 
L 175.303939 311.318125 
L 175.303939 282.002825 
L 169.079242 282.002825 
z
" clip-path="url(#p35ee953390)" style="fill: #4682b4; opacity: 0.85; stroke: #ffffff; stroke-linejoin: miter"/>
   </g>
   <g id="patch_20">
    <path d="M 175.303939 311.318125 
L 181.528636 311.318125 
L 181.528636 283.631453 
L 175.303939 283.631453 
z
" clip-path="url(#p35ee953390)" style="fill: #4682b4; opacity: 0.85; stroke: #ffffff; stroke-linejoin: miter"/>
   </g>
   <g id="patch_21">
    <path d="M 181.528636 311.318125 
L 187.753333 311.318125 
L 187.753333 287.703022 
L 181.528636 287.703022 
z
" clip-path="url(#p35ee953390)" style="fill: #4682b4; opacity: 0.85; stroke: #ffffff; stroke-linejoin: miter"/>
   </g>
   <g id="patch_22">
    <path d="M 187.753333 311.318125 
L 193.97803 311.318125 
L 193.97803 291.774592 
L 187.753333 291.774592 
z
" clip-path="url(#p35ee953390)" style="fill: #4682b4; opacity: 0.85; stroke: #ffffff; stroke-linejoin: miter"/>
   </g>
   <g id="patch_23">
    <path d="M 193.97803 311.318125 
L 200.202727 311.318125 
L 200.202727 300.732044 
L 193.97803 300.732044 
z
" clip-path="url(#p35ee953390)" style="fill: #4682b4; opacity: 0.85; stroke: #ffffff; stroke-linejoin: miter"/>
   </g>
   <g id="patch_24">
    <path d="M 200.202727 311.318125 
L 206.427424 311.318125 
L 206.427424 298.289103 
L 200.202727 298.289103 
z
" clip-path="url(#p35ee953390)" style="fill: #4682b4; opacity: 0.85; stroke: #ffffff; stroke-linejoin: miter"/>
   </g>
   <g id="patch_25">
    <path d="M 206.427424 311.318125 
L 212.652121 311.318125 
L 212.652121 299.917731 
L 206.427424 299.917731 
z
" clip-path="url(#p35ee953390)" style="fill: #4682b4; opacity: 0.85; stroke: #ffffff; stroke-linejoin: miter"/>
   </g>
   <g id="patch_26">
    <path d="M 212.652121 311.318125 
L 218.876818 311.318125 
L 218.876818 303.9893 
L 212.652121 303.9893 
z
" clip-path="url(#p35ee953390)" style="fill: #4682b4; opacity: 0.85; stroke: #ffffff; stroke-linejoin: miter"/>
   </g>
   <g id="patch_27">
    <path d="M 218.876818 311.318125 
L 225.101515 311.318125 
L 225.101515 302.360672 
L 218.876818 302.360672 
z
" clip-path="url(#p35ee953390)" style="fill: #4682b4; opacity: 0.85; stroke: #ffffff; stroke-linejoin: miter"/>
   </g>
   <g id="patch_28">
    <path d="M 225.101515 311.318125 
L 231.326212 311.318125 
L 231.326212 304.803614 
L 225.101515 304.803614 
z
" clip-path="url(#p35ee953390)" style="fill: #4682b4; opacity: 0.85; stroke: #ffffff; stroke-linejoin: miter"/>
   </g>
   <g id="patch_29">
    <path d="M 231.326212 311.318125 
L 237.550909 311.318125 
L 237.550909 308.060869 
L 231.326212 308.060869 
z
" clip-path="url(#p35ee953390)" style="fill: #4682b4; opacity: 0.85; stroke: #ffffff; stroke-linejoin: miter"/>
   </g>
   <g id="patch_30">
    <path d="M 237.550909 311.318125 
L 243.775606 311.318125 
L 243.775606 306.432242 
L 237.550909 306.432242 
z
" clip-path="url(#p35ee953390)" style="fill: #4682b4; opacity: 0.85; stroke: #ffffff; stroke-linejoin: miter"/>
   </g>
   <g id="patch_31">
    <path d="M 243.775606 311.318125 
L 250.000303 311.318125 
L 250.000303 304.803614 
L 243.775606 304.803614 
z
" clip-path="url(#p35ee953390)" style="fill: #4682b4; opacity: 0.85; stroke: #ffffff; stroke-linejoin: miter"/>
   </g>
   <g id="patch_32">
    <path d="M 250.000303 311.318125 
L 256.225 311.318125 
L 256.225 307.246556 
L 250.000303 307.246556 
z
" clip-path="url(#p35ee953390)" style="fill: #4682b4; opacity: 0.85; stroke: #ffffff; stroke-linejoin: miter"/>
   </g>
   <g id="patch_33">
    <path d="M 256.225 311.318125 
L 262.449697 311.318125 
L 262.449697 306.432242 
L 256.225 306.432242 
z
" clip-path="url(#p35ee953390)" style="fill: #4682b4; opacity: 0.85; stroke: #ffffff; stroke-linejoin: miter"/>
   </g>
   <g id="patch_34">
    <path d="M 262.449697 311.318125 
L 268.674394 311.318125 
L 268.674394 308.060869 
L 262.449697 308.060869 
z
" clip-path="url(#p35ee953390)" style="fill: #4682b4; opacity: 0.85; stroke: #ffffff; stroke-linejoin: miter"/>
   </g>
   <g id="patch_35">
    <path d="M 268.674394 311.318125 
L 274.899091 311.318125 
L 274.899091 308.875183 
L 268.674394 308.875183 
z
" clip-path="url(#p35ee953390)" style="fill: #4682b4; opacity: 0.85; stroke: #ffffff; stroke-linejoin: miter"/>
   </g>
   <g id="patch_36">
    <path d="M 274.899091 311.318125 
L 281.123788 311.318125 
L 281.123788 309.689497 
L 274.899091 309.689497 
z
" clip-path="url(#p35ee953390)" style="fill: #4682b4; opacity: 0.85; stroke: #ffffff; stroke-linejoin: miter"/>
   </g>
   <g id="patch_37">
    <path d="M 281.123788 311.318125 
L 287.348485 311.318125 
L 287.348485 309.689497 
L 281.123788 309.689497 
z
" clip-path="url(#p35ee953390)" style="fill: #4682b4; opacity: 0.85; stroke: #ffffff; stroke-linejoin: miter"/>
   </g>
   <g id="patch_38">
    <path d="M 287.348485 311.318125 
L 293.573182 311.318125 
L 293.573182 310.503811 
L 287.348485 310.503811 
z
" clip-path="url(#p35ee953390)" style="fill: #4682b4; opacity: 0.85; stroke: #ffffff; stroke-linejoin: miter"/>
   </g>
   <g id="patch_39">
    <path d="M 293.573182 311.318125 
L 299.797879 311.318125 
L 299.797879 311.318125 
L 293.573182 311.318125 
z
" clip-path="url(#p35ee953390)" style="fill: #4682b4; opacity: 0.85; stroke: #ffffff; stroke-linejoin: miter"/>
   </g>
   <g id="patch_40">
    <path d="M 299.797879 311.318125 
L 306.022576 311.318125 
L 306.022576 310.503811 
L 299.797879 310.503811 
z
" clip-path="url(#p35ee953390)" style="fill: #4682b4; opacity: 0.85; stroke: #ffffff; stroke-linejoin: miter"/>
   </g>
   <g id="patch_41">
    <path d="M 306.022576 311.318125 
L 312.247273 311.318125 
L 312.247273 308.875183 
L 306.022576 308.875183 
z
" clip-path="url(#p35ee953390)" style="fill: #4682b4; opacity: 0.85; stroke: #ffffff; stroke-linejoin: miter"/>
   </g>
   <g id="patch_42">
    <path d="M 312.247273 311.318125 
L 318.47197 311.318125 
L 318.47197 311.318125 
L 312.247273 311.318125 
z
" clip-path="url(#p35ee953390)" style="fill: #4682b4; opacity: 0.85; stroke: #ffffff; stroke-linejoin: miter"/>
   </g>
   <g id="patch_43">
    <path d="M 318.47197 311.318125 
L 324.696667 311.318125 
L 324.696667 311.318125 
L 318.47197 311.318125 
z
" clip-path="url(#p35ee953390)" style="fill: #4682b4; opacity: 0.85; stroke: #ffffff; stroke-linejoin: miter"/>
   </g>
   <g id="patch_44">
    <path d="M 324.696667 311.318125 
L 330.921364 311.318125 
L 330.921364 309.689497 
L 324.696667 309.689497 
z
" clip-path="url(#p35ee953390)" style="fill: #4682b4; opacity: 0.85; stroke: #ffffff; stroke-linejoin: miter"/>
   </g>
   <g id="patch_45">
    <path d="M 330.921364 311.318125 
L 337.146061 311.318125 
L 337.146061 309.689497 
L 330.921364 309.689497 
z
" clip-path="url(#p35ee953390)" style="fill: #4682b4; opacity: 0.85; stroke: #ffffff; stroke-linejoin: miter"/>
   </g>
   <g id="patch_46">
    <path d="M 337.146061 311.318125 
L 343.370758 311.318125 
L 343.370758 310.503811 
L 337.146061 310.503811 
z
" clip-path="url(#p35ee953390)" style="fill: #4682b4; opacity: 0.85; stroke: #ffffff; stroke-linejoin: miter"/>
   </g>
   <g id="patch_47">
    <path d="M 343.370758 311.318125 
L 349.595455 311.318125 
L 349.595455 311.318125 
L 343.370758 311.318125 
z
" clip-path="url(#p35ee953390)" style="fill: #4682b4; opacity: 0.85; stroke: #ffffff; stroke-linejoin: miter"/>
   </g>
   <g id="patch_48">
    <path d="M 349.595455 311.318125 
L 355.820152 311.318125 
L 355.820152 310.503811 
L 349.595455 310.503811 
z
" clip-path="url(#p35ee953390)" style="fill: #4682b4; opacity: 0.85; stroke: #ffffff; stroke-linejoin: miter"/>
   </g>
   <g id="patch_49">
    <path d="M 355.820152 311.318125 
L 362.044848 311.318125 
L 362.044848 310.503811 
L 355.820152 310.503811 
z
" clip-path="url(#p35ee953390)" style="fill: #4682b4; opacity: 0.85; stroke: #ffffff; stroke-linejoin: miter"/>
   </g>
   <g id="patch_50">
    <path d="M 362.044848 311.318125 
L 368.269545 311.318125 
L 368.269545 311.318125 
L 362.044848 311.318125 
z
" clip-path="url(#p35ee953390)" style="fill: #4682b4; opacity: 0.85; stroke: #ffffff; stroke-linejoin: miter"/>
   </g>
   <g id="patch_51">
    <path d="M 368.269545 311.318125 
L 374.494242 311.318125 
L 374.494242 308.875183 
L 368.269545 308.875183 
z
" clip-path="url(#p35ee953390)" style="fill: #4682b4; opacity: 0.85; stroke: #ffffff; stroke-linejoin: miter"/>
   </g>
   <g id="patch_52">
    <path d="M 374.494242 311.318125 
L 380.718939 311.318125 
L 380.718939 311.318125 
L 374.494242 311.318125 
z
" clip-path="url(#p35ee953390)" style="fill: #4682b4; opacity: 0.85; stroke: #ffffff; stroke-linejoin: miter"/>
   </g>
   <g id="patch_53">
    <path d="M 380.718939 311.318125 
L 386.943636 311.318125 
L 386.943636 311.318125 
L 380.718939 311.318125 
z
" clip-path="url(#p35ee953390)" style="fill: #4682b4; opacity: 0.85; stroke: #ffffff; stroke-linejoin: miter"/>
   </g>
   <g id="patch_54">
    <path d="M 386.943636 311.318125 
L 393.168333 311.318125 
L 393.168333 310.503811 
L 386.943636 310.503811 
z
" clip-path="url(#p35ee953390)" style="fill: #4682b4; opacity: 0.85; stroke: #ffffff; stroke-linejoin: miter"/>
   </g>
   <g id="patch_55">
    <path d="M 393.168333 311.318125 
L 399.39303 311.318125 
L 399.39303 311.318125 
L 393.168333 311.318125 
z
" clip-path="url(#p35ee953390)" style="fill: #4682b4; opacity: 0.85; stroke: #ffffff; stroke-linejoin: miter"/>
   </g>
   <g id="patch_56">
    <path d="M 399.39303 311.318125 
L 405.617727 311.318125 
L 405.617727 309.689497 
L 399.39303 309.689497 
z
" clip-path="url(#p35ee953390)" style="fill: #4682b4; opacity: 0.85; stroke: #ffffff; stroke-linejoin: miter"/>
   </g>
   <g id="patch_57">
    <path d="M 405.617727 311.318125 
L 411.842424 311.318125 
L 411.842424 311.318125 
L 405.617727 311.318125 
z
" clip-path="url(#p35ee953390)" style="fill: #4682b4; opacity: 0.85; stroke: #ffffff; stroke-linejoin: miter"/>
   </g>
   <g id="patch_58">
    <path d="M 411.842424 311.318125 
L 418.067121 311.318125 
L 418.067121 311.318125 
L 411.842424 311.318125 
z
" clip-path="url(#p35ee953390)" style="fill: #4682b4; opacity: 0.85; stroke: #ffffff; stroke-linejoin: miter"/>
   </g>
   <g id="patch_59">
    <path d="M 418.067121 311.318125 
L 424.291818 311.318125 
L 424.291818 309.689497 
L 418.067121 309.689497 
z
" clip-path="url(#p35ee953390)" style="fill: #4682b4; opacity: 0.85; stroke: #ffffff; stroke-linejoin: miter"/>
   </g>
   <g id="patch_60">
    <path d="M 424.291818 311.318125 
L 430.516515 311.318125 
L 430.516515 311.318125 
L 424.291818 311.318125 
z
" clip-path="url(#p35ee953390)" style="fill: #4682b4; opacity: 0.85; stroke: #ffffff; stroke-linejoin: miter"/>
   </g>
   <g id="patch_61">
    <path d="M 430.516515 311.318125 
L 436.741212 311.318125 
L 436.741212 311.318125 
L 430.516515 311.318125 
z
" clip-path="url(#p35ee953390)" style="fill: #4682b4; opacity: 0.85; stroke: #ffffff; stroke-linejoin: miter"/>
   </g>
   <g id="patch_62">
    <path d="M 436.741212 311.318125 
L 442.965909 311.318125 
L 442.965909 310.503811 
L 436.741212 310.503811 
z
" clip-path="url(#p35ee953390)" style="fill: #4682b4; opacity: 0.85; stroke: #ffffff; stroke-linejoin: miter"/>
   </g>
   <g id="matplotlib.axis_1">
    <g id="xtick_1">
     <g id="line2d_1">
      <defs>
       <path id="m6c92e2bc6e" d="M 0 0 
L 0 3.5 
" style="stroke: #000000; stroke-width: 0.8"/>
      </defs>
      <g>
       <use xlink:href="#m6c92e2bc6e" x="69.469504" y="311.318125" style="stroke: #000000; stroke-width: 0.8"/>
      </g>
     </g>
     <g id="text_1">
      <!-- 0 -->
      <g transform="translate(65.970129 326.676406) scale(0.11 -0.11)">
       <defs>
        <path id="DejaVuSans-30" d="M 2034 4250 
Q 1547 4250 1301 3770 
Q 1056 3291 1056 2328 
Q 1056 1369 1301 889 
Q 1547 409 2034 409 
Q 2525 409 2770 889 
Q 3016 1369 3016 2328 
Q 3016 3291 2770 3770 
Q 2525 4250 2034 4250 
z
M 2034 4750 
Q 2819 4750 3233 4129 
Q 3647 3509 3647 2328 
Q 3647 1150 3233 529 
Q 2819 -91 2034 -91 
Q 1250 -91 836 529 
Q 422 1150 422 2328 
Q 422 3509 836 4129 
Q 1250 4750 2034 4750 
z
" transform="scale(0.015625)"/>
       </defs>
       <use xlink:href="#DejaVuSans-30"/>
      </g>
     </g>
    </g>
    <g id="xtick_2">
     <g id="line2d_2">
      <g>
       <use xlink:href="#m6c92e2bc6e" x="123.30372" y="311.318125" style="stroke: #000000; stroke-width: 0.8"/>
      </g>
     </g>
     <g id="text_2">
      <!-- 2 -->
      <g transform="translate(119.804345 326.676406) scale(0.11 -0.11)">
       <defs>
        <path id="DejaVuSans-32" d="M 1228 531 
L 3431 531 
L 3431 0 
L 469 0 
L 469 531 
Q 828 903 1448 1529 
Q 2069 2156 2228 2338 
Q 2531 2678 2651 2914 
Q 2772 3150 2772 3378 
Q 2772 3750 2511 3984 
Q 2250 4219 1831 4219 
Q 1534 4219 1204 4116 
Q 875 4013 500 3803 
L 500 4441 
Q 881 4594 1212 4672 
Q 1544 4750 1819 4750 
Q 2544 4750 2975 4387 
Q 3406 4025 3406 3419 
Q 3406 3131 3298 2873 
Q 3191 2616 2906 2266 
Q 2828 2175 2409 1742 
Q 1991 1309 1228 531 
z
" transform="scale(0.015625)"/>
       </defs>
       <use xlink:href="#DejaVuSans-32"/>
      </g>
     </g>
    </g>
    <g id="xtick_3">
     <g id="line2d_3">
      <g>
       <use xlink:href="#m6c92e2bc6e" x="177.137936" y="311.318125" style="stroke: #000000; stroke-width: 0.8"/>
      </g>
     </g>
     <g id="text_3">
      <!-- 4 -->
      <g transform="translate(173.638561 326.676406) scale(0.11 -0.11)">
       <defs>
        <path id="DejaVuSans-34" d="M 2419 4116 
L 825 1625 
L 2419 1625 
L 2419 4116 
z
M 2253 4666 
L 3047 4666 
L 3047 1625 
L 3713 1625 
L 3713 1100 
L 3047 1100 
L 3047 0 
L 2419 0 
L 2419 1100 
L 313 1100 
L 313 1709 
L 2253 4666 
z
" transform="scale(0.015625)"/>
       </defs>
       <use xlink:href="#DejaVuSans-34"/>
      </g>
     </g>
    </g>
    <g id="xtick_4">
     <g id="line2d_4">
      <g>
       <use xlink:href="#m6c92e2bc6e" x="230.972152" y="311.318125" style="stroke: #000000; stroke-width: 0.8"/>
      </g>
     </g>
     <g id="text_4">
      <!-- 6 -->
      <g transform="translate(227.472777 326.676406) scale(0.11 -0.11)">
       <defs>
        <path id="DejaVuSans-36" d="M 2113 2584 
Q 1688 2584 1439 2293 
Q 1191 2003 1191 1497 
Q 1191 994 1439 701 
Q 1688 409 2113 409 
Q 2538 409 2786 701 
Q 3034 994 3034 1497 
Q 3034 2003 2786 2293 
Q 2538 2584 2113 2584 
z
M 3366 4563 
L 3366 3988 
Q 3128 4100 2886 4159 
Q 2644 4219 2406 4219 
Q 1781 4219 1451 3797 
Q 1122 3375 1075 2522 
Q 1259 2794 1537 2939 
Q 1816 3084 2150 3084 
Q 2853 3084 3261 2657 
Q 3669 2231 3669 1497 
Q 3669 778 3244 343 
Q 2819 -91 2113 -91 
Q 1303 -91 875 529 
Q 447 1150 447 2328 
Q 447 3434 972 4092 
Q 1497 4750 2381 4750 
Q 2619 4750 2861 4703 
Q 3103 4656 3366 4563 
z
" transform="scale(0.015625)"/>
       </defs>
       <use xlink:href="#DejaVuSans-36"/>
      </g>
     </g>
    </g>
    <g id="xtick_5">
     <g id="line2d_5">
      <g>
       <use xlink:href="#m6c92e2bc6e" x="284.806369" y="311.318125" style="stroke: #000000; stroke-width: 0.8"/>
      </g>
     </g>
     <g id="text_5">
      <!-- 8 -->
      <g transform="translate(281.306994 326.676406) scale(0.11 -0.11)">
       <defs>
        <path id="DejaVuSans-38" d="M 2034 2216 
Q 1584 2216 1326 1975 
Q 1069 1734 1069 1313 
Q 1069 891 1326 650 
Q 1584 409 2034 409 
Q 2484 409 2743 651 
Q 3003 894 3003 1313 
Q 3003 1734 2745 1975 
Q 2488 2216 2034 2216 
z
M 1403 2484 
Q 997 2584 770 2862 
Q 544 3141 544 3541 
Q 544 4100 942 4425 
Q 1341 4750 2034 4750 
Q 2731 4750 3128 4425 
Q 3525 4100 3525 3541 
Q 3525 3141 3298 2862 
Q 3072 2584 2669 2484 
Q 3125 2378 3379 2068 
Q 3634 1759 3634 1313 
Q 3634 634 3220 271 
Q 2806 -91 2034 -91 
Q 1263 -91 848 271 
Q 434 634 434 1313 
Q 434 1759 690 2068 
Q 947 2378 1403 2484 
z
M 1172 3481 
Q 1172 3119 1398 2916 
Q 1625 2713 2034 2713 
Q 2441 2713 2670 2916 
Q 2900 3119 2900 3481 
Q 2900 3844 2670 4047 
Q 2441 4250 2034 4250 
Q 1625 4250 1398 4047 
Q 1172 3844 1172 3481 
z
" transform="scale(0.015625)"/>
       </defs>
       <use xlink:href="#DejaVuSans-38"/>
      </g>
     </g>
    </g>
    <g id="xtick_6">
     <g id="line2d_6">
      <g>
       <use xlink:href="#m6c92e2bc6e" x="338.640585" y="311.318125" style="stroke: #000000; stroke-width: 0.8"/>
      </g>
     </g>
     <g id="text_6">
      <!-- 10 -->
      <g transform="translate(331.641835 326.676406) scale(0.11 -0.11)">
       <defs>
        <path id="DejaVuSans-31" d="M 794 531 
L 1825 531 
L 1825 4091 
L 703 3866 
L 703 4441 
L 1819 4666 
L 2450 4666 
L 2450 531 
L 3481 531 
L 3481 0 
L 794 0 
L 794 531 
z
" transform="scale(0.015625)"/>
       </defs>
       <use xlink:href="#DejaVuSans-31"/>
       <use xlink:href="#DejaVuSans-30" x="63.623047"/>
      </g>
     </g>
    </g>
    <g id="xtick_7">
     <g id="line2d_7">
      <g>
       <use xlink:href="#m6c92e2bc6e" x="392.474801" y="311.318125" style="stroke: #000000; stroke-width: 0.8"/>
      </g>
     </g>
     <g id="text_7">
      <!-- 12 -->
      <g transform="translate(385.476051 326.676406) scale(0.11 -0.11)">
       <use xlink:href="#DejaVuSans-31"/>
       <use xlink:href="#DejaVuSans-32" x="63.623047"/>
      </g>
     </g>
    </g>
    <g id="xtick_8">
     <g id="line2d_8">
      <g>
       <use xlink:href="#m6c92e2bc6e" x="446.309017" y="311.318125" style="stroke: #000000; stroke-width: 0.8"/>
      </g>
     </g>
     <g id="text_8">
      <!-- 14 -->
      <g transform="translate(439.310267 326.676406) scale(0.11 -0.11)">
       <use xlink:href="#DejaVuSans-31"/>
       <use xlink:href="#DejaVuSans-34" x="63.623047"/>
      </g>
     </g>
    </g>
    <g id="text_9">
     <!-- Absolute Error (BAG) -->
     <g transform="translate(194.118438 342.082187) scale(0.12 -0.12)">
      <defs>
       <path id="DejaVuSans-41" d="M 2188 4044 
L 1331 1722 
L 3047 1722 
L 2188 4044 
z
M 1831 4666 
L 2547 4666 
L 4325 0 
L 3669 0 
L 3244 1197 
L 1141 1197 
L 716 0 
L 50 0 
L 1831 4666 
z
" transform="scale(0.015625)"/>
       <path id="DejaVuSans-62" d="M 3116 1747 
Q 3116 2381 2855 2742 
Q 2594 3103 2138 3103 
Q 1681 3103 1420 2742 
Q 1159 2381 1159 1747 
Q 1159 1113 1420 752 
Q 1681 391 2138 391 
Q 2594 391 2855 752 
Q 3116 1113 3116 1747 
z
M 1159 2969 
Q 1341 3281 1617 3432 
Q 1894 3584 2278 3584 
Q 2916 3584 3314 3078 
Q 3713 2572 3713 1747 
Q 3713 922 3314 415 
Q 2916 -91 2278 -91 
Q 1894 -91 1617 61 
Q 1341 213 1159 525 
L 1159 0 
L 581 0 
L 581 4863 
L 1159 4863 
L 1159 2969 
z
" transform="scale(0.015625)"/>
       <path id="DejaVuSans-73" d="M 2834 3397 
L 2834 2853 
Q 2591 2978 2328 3040 
Q 2066 3103 1784 3103 
Q 1356 3103 1142 2972 
Q 928 2841 928 2578 
Q 928 2378 1081 2264 
Q 1234 2150 1697 2047 
L 1894 2003 
Q 2506 1872 2764 1633 
Q 3022 1394 3022 966 
Q 3022 478 2636 193 
Q 2250 -91 1575 -91 
Q 1294 -91 989 -36 
Q 684 19 347 128 
L 347 722 
Q 666 556 975 473 
Q 1284 391 1588 391 
Q 1994 391 2212 530 
Q 2431 669 2431 922 
Q 2431 1156 2273 1281 
Q 2116 1406 1581 1522 
L 1381 1569 
Q 847 1681 609 1914 
Q 372 2147 372 2553 
Q 372 3047 722 3315 
Q 1072 3584 1716 3584 
Q 2034 3584 2315 3537 
Q 2597 3491 2834 3397 
z
" transform="scale(0.015625)"/>
       <path id="DejaVuSans-6f" d="M 1959 3097 
Q 1497 3097 1228 2736 
Q 959 2375 959 1747 
Q 959 1119 1226 758 
Q 1494 397 1959 397 
Q 2419 397 2687 759 
Q 2956 1122 2956 1747 
Q 2956 2369 2687 2733 
Q 2419 3097 1959 3097 
z
M 1959 3584 
Q 2709 3584 3137 3096 
Q 3566 2609 3566 1747 
Q 3566 888 3137 398 
Q 2709 -91 1959 -91 
Q 1206 -91 779 398 
Q 353 888 353 1747 
Q 353 2609 779 3096 
Q 1206 3584 1959 3584 
z
" transform="scale(0.015625)"/>
       <path id="DejaVuSans-6c" d="M 603 4863 
L 1178 4863 
L 1178 0 
L 603 0 
L 603 4863 
z
" transform="scale(0.015625)"/>
       <path id="DejaVuSans-75" d="M 544 1381 
L 544 3500 
L 1119 3500 
L 1119 1403 
Q 1119 906 1312 657 
Q 1506 409 1894 409 
Q 2359 409 2629 706 
Q 2900 1003 2900 1516 
L 2900 3500 
L 3475 3500 
L 3475 0 
L 2900 0 
L 2900 538 
Q 2691 219 2414 64 
Q 2138 -91 1772 -91 
Q 1169 -91 856 284 
Q 544 659 544 1381 
z
M 1991 3584 
L 1991 3584 
z
" transform="scale(0.015625)"/>
       <path id="DejaVuSans-74" d="M 1172 4494 
L 1172 3500 
L 2356 3500 
L 2356 3053 
L 1172 3053 
L 1172 1153 
Q 1172 725 1289 603 
Q 1406 481 1766 481 
L 2356 481 
L 2356 0 
L 1766 0 
Q 1100 0 847 248 
Q 594 497 594 1153 
L 594 3053 
L 172 3053 
L 172 3500 
L 594 3500 
L 594 4494 
L 1172 4494 
z
" transform="scale(0.015625)"/>
       <path id="DejaVuSans-65" d="M 3597 1894 
L 3597 1613 
L 953 1613 
Q 991 1019 1311 708 
Q 1631 397 2203 397 
Q 2534 397 2845 478 
Q 3156 559 3463 722 
L 3463 178 
Q 3153 47 2828 -22 
Q 2503 -91 2169 -91 
Q 1331 -91 842 396 
Q 353 884 353 1716 
Q 353 2575 817 3079 
Q 1281 3584 2069 3584 
Q 2775 3584 3186 3129 
Q 3597 2675 3597 1894 
z
M 3022 2063 
Q 3016 2534 2758 2815 
Q 2500 3097 2075 3097 
Q 1594 3097 1305 2825 
Q 1016 2553 972 2059 
L 3022 2063 
z
" transform="scale(0.015625)"/>
       <path id="DejaVuSans-20" transform="scale(0.015625)"/>
       <path id="DejaVuSans-45" d="M 628 4666 
L 3578 4666 
L 3578 4134 
L 1259 4134 
L 1259 2753 
L 3481 2753 
L 3481 2222 
L 1259 2222 
L 1259 531 
L 3634 531 
L 3634 0 
L 628 0 
L 628 4666 
z
" transform="scale(0.015625)"/>
       <path id="DejaVuSans-72" d="M 2631 2963 
Q 2534 3019 2420 3045 
Q 2306 3072 2169 3072 
Q 1681 3072 1420 2755 
Q 1159 2438 1159 1844 
L 1159 0 
L 581 0 
L 581 3500 
L 1159 3500 
L 1159 2956 
Q 1341 3275 1631 3429 
Q 1922 3584 2338 3584 
Q 2397 3584 2469 3576 
Q 2541 3569 2628 3553 
L 2631 2963 
z
" transform="scale(0.015625)"/>
       <path id="DejaVuSans-28" d="M 1984 4856 
Q 1566 4138 1362 3434 
Q 1159 2731 1159 2009 
Q 1159 1288 1364 580 
Q 1569 -128 1984 -844 
L 1484 -844 
Q 1016 -109 783 600 
Q 550 1309 550 2009 
Q 550 2706 781 3412 
Q 1013 4119 1484 4856 
L 1984 4856 
z
" transform="scale(0.015625)"/>
       <path id="DejaVuSans-42" d="M 1259 2228 
L 1259 519 
L 2272 519 
Q 2781 519 3026 730 
Q 3272 941 3272 1375 
Q 3272 1813 3026 2020 
Q 2781 2228 2272 2228 
L 1259 2228 
z
M 1259 4147 
L 1259 2741 
L 2194 2741 
Q 2656 2741 2882 2914 
Q 3109 3088 3109 3444 
Q 3109 3797 2882 3972 
Q 2656 4147 2194 4147 
L 1259 4147 
z
M 628 4666 
L 2241 4666 
Q 2963 4666 3353 4366 
Q 3744 4066 3744 3513 
Q 3744 3084 3544 2831 
Q 3344 2578 2956 2516 
Q 3422 2416 3680 2098 
Q 3938 1781 3938 1306 
Q 3938 681 3513 340 
Q 3088 0 2303 0 
L 628 0 
L 628 4666 
z
" transform="scale(0.015625)"/>
       <path id="DejaVuSans-47" d="M 3809 666 
L 3809 1919 
L 2778 1919 
L 2778 2438 
L 4434 2438 
L 4434 434 
Q 4069 175 3628 42 
Q 3188 -91 2688 -91 
Q 1594 -91 976 548 
Q 359 1188 359 2328 
Q 359 3472 976 4111 
Q 1594 4750 2688 4750 
Q 3144 4750 3555 4637 
Q 3966 4525 4313 4306 
L 4313 3634 
Q 3963 3931 3569 4081 
Q 3175 4231 2741 4231 
Q 1884 4231 1454 3753 
Q 1025 3275 1025 2328 
Q 1025 1384 1454 906 
Q 1884 428 2741 428 
Q 3075 428 3337 486 
Q 3600 544 3809 666 
z
" transform="scale(0.015625)"/>
       <path id="DejaVuSans-29" d="M 513 4856 
L 1013 4856 
Q 1481 4119 1714 3412 
Q 1947 2706 1947 2009 
Q 1947 1309 1714 600 
Q 1481 -109 1013 -844 
L 513 -844 
Q 928 -128 1133 580 
Q 1338 1288 1338 2009 
Q 1338 2731 1133 3434 
Q 928 4138 513 4856 
z
" transform="scale(0.015625)"/>
      </defs>
      <use xlink:href="#DejaVuSans-41"/>
      <use xlink:href="#DejaVuSans-62" x="68.408203"/>
      <use xlink:href="#DejaVuSans-73" x="131.884766"/>
      <use xlink:href="#DejaVuSans-6f" x="183.984375"/>
      <use xlink:href="#DejaVuSans-6c" x="245.166016"/>
      <use xlink:href="#DejaVuSans-75" x="272.949219"/>
      <use xlink:href="#DejaVuSans-74" x="336.328125"/>
      <use xlink:href="#DejaVuSans-65" x="375.537109"/>
      <use xlink:href="#DejaVuSans-20" x="437.060547"/>
      <use xlink:href="#DejaVuSans-45" x="468.847656"/>
      <use xlink:href="#DejaVuSans-72" x="532.03125"/>
      <use xlink:href="#DejaVuSans-72" x="571.394531"/>
      <use xlink:href="#DejaVuSans-6f" x="610.257812"/>
      <use xlink:href="#DejaVuSans-72" x="671.439453"/>
      <use xlink:href="#DejaVuSans-20" x="712.552734"/>
      <use xlink:href="#DejaVuSans-28" x="744.339844"/>
      <use xlink:href="#DejaVuSans-42" x="783.353516"/>
      <use xlink:href="#DejaVuSans-41" x="851.957031"/>
      <use xlink:href="#DejaVuSans-47" x="918.615234"/>
      <use xlink:href="#DejaVuSans-29" x="996.105469"/>
     </g>
    </g>
   </g>
   <g id="matplotlib.axis_2">
    <g id="ytick_1">
     <g id="line2d_9">
      <defs>
       <path id="mece96e9564" d="M 0 0 
L -3.5 0 
" style="stroke: #000000; stroke-width: 0.8"/>
      </defs>
      <g>
       <use xlink:href="#mece96e9564" x="50.81" y="311.318125" style="stroke: #000000; stroke-width: 0.8"/>
      </g>
     </g>
     <g id="text_10">
      <!-- 0 -->
      <g transform="translate(36.81125 315.497266) scale(0.11 -0.11)">
       <use xlink:href="#DejaVuSans-30"/>
      </g>
     </g>
    </g>
    <g id="ytick_2">
     <g id="line2d_10">
      <g>
       <use xlink:href="#mece96e9564" x="50.81" y="270.60243" style="stroke: #000000; stroke-width: 0.8"/>
      </g>
     </g>
     <g id="text_11">
      <!-- 50 -->
      <g transform="translate(29.8125 274.781571) scale(0.11 -0.11)">
       <defs>
        <path id="DejaVuSans-35" d="M 691 4666 
L 3169 4666 
L 3169 4134 
L 1269 4134 
L 1269 2991 
Q 1406 3038 1543 3061 
Q 1681 3084 1819 3084 
Q 2600 3084 3056 2656 
Q 3513 2228 3513 1497 
Q 3513 744 3044 326 
Q 2575 -91 1722 -91 
Q 1428 -91 1123 -41 
Q 819 9 494 109 
L 494 744 
Q 775 591 1075 516 
Q 1375 441 1709 441 
Q 2250 441 2565 725 
Q 2881 1009 2881 1497 
Q 2881 1984 2565 2268 
Q 2250 2553 1709 2553 
Q 1456 2553 1204 2497 
Q 953 2441 691 2322 
L 691 4666 
z
" transform="scale(0.015625)"/>
       </defs>
       <use xlink:href="#DejaVuSans-35"/>
       <use xlink:href="#DejaVuSans-30" x="63.623047"/>
      </g>
     </g>
    </g>
    <g id="ytick_3">
     <g id="line2d_11">
      <g>
       <use xlink:href="#mece96e9564" x="50.81" y="229.886736" style="stroke: #000000; stroke-width: 0.8"/>
      </g>
     </g>
     <g id="text_12">
      <!-- 100 -->
      <g transform="translate(22.81375 234.065877) scale(0.11 -0.11)">
       <use xlink:href="#DejaVuSans-31"/>
       <use xlink:href="#DejaVuSans-30" x="63.623047"/>
       <use xlink:href="#DejaVuSans-30" x="127.246094"/>
      </g>
     </g>
    </g>
    <g id="ytick_4">
     <g id="line2d_12">
      <g>
       <use xlink:href="#mece96e9564" x="50.81" y="189.171041" style="stroke: #000000; stroke-width: 0.8"/>
      </g>
     </g>
     <g id="text_13">
      <!-- 150 -->
      <g transform="translate(22.81375 193.350182) scale(0.11 -0.11)">
       <use xlink:href="#DejaVuSans-31"/>
       <use xlink:href="#DejaVuSans-35" x="63.623047"/>
       <use xlink:href="#DejaVuSans-30" x="127.246094"/>
      </g>
     </g>
    </g>
    <g id="ytick_5">
     <g id="line2d_13">
      <g>
       <use xlink:href="#mece96e9564" x="50.81" y="148.455347" style="stroke: #000000; stroke-width: 0.8"/>
      </g>
     </g>
     <g id="text_14">
      <!-- 200 -->
      <g transform="translate(22.81375 152.634487) scale(0.11 -0.11)">
       <use xlink:href="#DejaVuSans-32"/>
       <use xlink:href="#DejaVuSans-30" x="63.623047"/>
       <use xlink:href="#DejaVuSans-30" x="127.246094"/>
      </g>
     </g>
    </g>
    <g id="ytick_6">
     <g id="line2d_14">
      <g>
       <use xlink:href="#mece96e9564" x="50.81" y="107.739652" style="stroke: #000000; stroke-width: 0.8"/>
      </g>
     </g>
     <g id="text_15">
      <!-- 250 -->
      <g transform="translate(22.81375 111.918793) scale(0.11 -0.11)">
       <use xlink:href="#DejaVuSans-32"/>
       <use xlink:href="#DejaVuSans-35" x="63.623047"/>
       <use xlink:href="#DejaVuSans-30" x="127.246094"/>
      </g>
     </g>
    </g>
    <g id="ytick_7">
     <g id="line2d_15">
      <g>
       <use xlink:href="#mece96e9564" x="50.81" y="67.023958" style="stroke: #000000; stroke-width: 0.8"/>
      </g>
     </g>
     <g id="text_16">
      <!-- 300 -->
      <g transform="translate(22.81375 71.203098) scale(0.11 -0.11)">
       <defs>
        <path id="DejaVuSans-33" d="M 2597 2516 
Q 3050 2419 3304 2112 
Q 3559 1806 3559 1356 
Q 3559 666 3084 287 
Q 2609 -91 1734 -91 
Q 1441 -91 1130 -33 
Q 819 25 488 141 
L 488 750 
Q 750 597 1062 519 
Q 1375 441 1716 441 
Q 2309 441 2620 675 
Q 2931 909 2931 1356 
Q 2931 1769 2642 2001 
Q 2353 2234 1838 2234 
L 1294 2234 
L 1294 2753 
L 1863 2753 
Q 2328 2753 2575 2939 
Q 2822 3125 2822 3475 
Q 2822 3834 2567 4026 
Q 2313 4219 1838 4219 
Q 1578 4219 1281 4162 
Q 984 4106 628 3988 
L 628 4550 
Q 988 4650 1302 4700 
Q 1616 4750 1894 4750 
Q 2613 4750 3031 4423 
Q 3450 4097 3450 3541 
Q 3450 3153 3228 2886 
Q 3006 2619 2597 2516 
z
" transform="scale(0.015625)"/>
       </defs>
       <use xlink:href="#DejaVuSans-33"/>
       <use xlink:href="#DejaVuSans-30" x="63.623047"/>
       <use xlink:href="#DejaVuSans-30" x="127.246094"/>
      </g>
     </g>
    </g>
    <g id="ytick_8">
     <g id="line2d_16">
      <g>
       <use xlink:href="#mece96e9564" x="50.81" y="26.308263" style="stroke: #000000; stroke-width: 0.8"/>
      </g>
     </g>
     <g id="text_17">
      <!-- 350 -->
      <g transform="translate(22.81375 30.487404) scale(0.11 -0.11)">
       <use xlink:href="#DejaVuSans-33"/>
       <use xlink:href="#DejaVuSans-35" x="63.623047"/>
       <use xlink:href="#DejaVuSans-30" x="127.246094"/>
      </g>
     </g>
    </g>
    <g id="text_18">
     <!-- Observations -->
     <g transform="translate(16.318125 206.480937) rotate(-90) scale(0.12 -0.12)">
      <defs>
       <path id="DejaVuSans-4f" d="M 2522 4238 
Q 1834 4238 1429 3725 
Q 1025 3213 1025 2328 
Q 1025 1447 1429 934 
Q 1834 422 2522 422 
Q 3209 422 3611 934 
Q 4013 1447 4013 2328 
Q 4013 3213 3611 3725 
Q 3209 4238 2522 4238 
z
M 2522 4750 
Q 3503 4750 4090 4092 
Q 4678 3434 4678 2328 
Q 4678 1225 4090 567 
Q 3503 -91 2522 -91 
Q 1538 -91 948 565 
Q 359 1222 359 2328 
Q 359 3434 948 4092 
Q 1538 4750 2522 4750 
z
" transform="scale(0.015625)"/>
       <path id="DejaVuSans-76" d="M 191 3500 
L 800 3500 
L 1894 563 
L 2988 3500 
L 3597 3500 
L 2284 0 
L 1503 0 
L 191 3500 
z
" transform="scale(0.015625)"/>
       <path id="DejaVuSans-61" d="M 2194 1759 
Q 1497 1759 1228 1600 
Q 959 1441 959 1056 
Q 959 750 1161 570 
Q 1363 391 1709 391 
Q 2188 391 2477 730 
Q 2766 1069 2766 1631 
L 2766 1759 
L 2194 1759 
z
M 3341 1997 
L 3341 0 
L 2766 0 
L 2766 531 
Q 2569 213 2275 61 
Q 1981 -91 1556 -91 
Q 1019 -91 701 211 
Q 384 513 384 1019 
Q 384 1609 779 1909 
Q 1175 2209 1959 2209 
L 2766 2209 
L 2766 2266 
Q 2766 2663 2505 2880 
Q 2244 3097 1772 3097 
Q 1472 3097 1187 3025 
Q 903 2953 641 2809 
L 641 3341 
Q 956 3463 1253 3523 
Q 1550 3584 1831 3584 
Q 2591 3584 2966 3190 
Q 3341 2797 3341 1997 
z
" transform="scale(0.015625)"/>
       <path id="DejaVuSans-69" d="M 603 3500 
L 1178 3500 
L 1178 0 
L 603 0 
L 603 3500 
z
M 603 4863 
L 1178 4863 
L 1178 4134 
L 603 4134 
L 603 4863 
z
" transform="scale(0.015625)"/>
       <path id="DejaVuSans-6e" d="M 3513 2113 
L 3513 0 
L 2938 0 
L 2938 2094 
Q 2938 2591 2744 2837 
Q 2550 3084 2163 3084 
Q 1697 3084 1428 2787 
Q 1159 2491 1159 1978 
L 1159 0 
L 581 0 
L 581 3500 
L 1159 3500 
L 1159 2956 
Q 1366 3272 1645 3428 
Q 1925 3584 2291 3584 
Q 2894 3584 3203 3211 
Q 3513 2838 3513 2113 
z
" transform="scale(0.015625)"/>
      </defs>
      <use xlink:href="#DejaVuSans-4f"/>
      <use xlink:href="#DejaVuSans-62" x="78.710938"/>
      <use xlink:href="#DejaVuSans-73" x="142.1875"/>
      <use xlink:href="#DejaVuSans-65" x="194.287109"/>
      <use xlink:href="#DejaVuSans-72" x="255.810547"/>
      <use xlink:href="#DejaVuSans-76" x="296.923828"/>
      <use xlink:href="#DejaVuSans-61" x="356.103516"/>
      <use xlink:href="#DejaVuSans-74" x="417.382812"/>
      <use xlink:href="#DejaVuSans-69" x="456.591797"/>
      <use xlink:href="#DejaVuSans-6f" x="484.375"/>
      <use xlink:href="#DejaVuSans-6e" x="545.556641"/>
      <use xlink:href="#DejaVuSans-73" x="608.935547"/>
     </g>
    </g>
   </g>
   <g id="line2d_17">
    <path d="M 112.442116 311.318125 
L 112.442116 22.318125 
" clip-path="url(#p35ee953390)" style="fill: none; stroke-dasharray: 5.55,2.4; stroke-dashoffset: 0; stroke: #dc143c; stroke-width: 1.5"/>
   </g>
   <g id="patch_63">
    <path d="M 50.81 311.318125 
L 50.81 22.318125 
" style="fill: none; stroke: #000000; stroke-width: 0.8; stroke-linejoin: miter; stroke-linecap: square"/>
   </g>
   <g id="patch_64">
    <path d="M 50.81 311.318125 
L 461.64 311.318125 
" style="fill: none; stroke: #000000; stroke-width: 0.8; stroke-linejoin: miter; stroke-linecap: square"/>
   </g>
   <g id="text_19">
    <!-- Abs. Error Distribution — All Observations -->
    <g transform="translate(131.019063 16.318125) scale(0.12 -0.12)">
     <defs>
      <path id="DejaVuSans-2e" d="M 684 794 
L 1344 794 
L 1344 0 
L 684 0 
L 684 794 
z
" transform="scale(0.015625)"/>
      <path id="DejaVuSans-44" d="M 1259 4147 
L 1259 519 
L 2022 519 
Q 2988 519 3436 956 
Q 3884 1394 3884 2338 
Q 3884 3275 3436 3711 
Q 2988 4147 2022 4147 
L 1259 4147 
z
M 628 4666 
L 1925 4666 
Q 3281 4666 3915 4102 
Q 4550 3538 4550 2338 
Q 4550 1131 3912 565 
Q 3275 0 1925 0 
L 628 0 
L 628 4666 
z
" transform="scale(0.015625)"/>
      <path id="DejaVuSans-2014" d="M 313 1978 
L 6088 1978 
L 6088 1528 
L 313 1528 
L 313 1978 
z
" transform="scale(0.015625)"/>
     </defs>
     <use xlink:href="#DejaVuSans-41"/>
     <use xlink:href="#DejaVuSans-62" x="68.408203"/>
     <use xlink:href="#DejaVuSans-73" x="131.884766"/>
     <use xlink:href="#DejaVuSans-2e" x="183.984375"/>
     <use xlink:href="#DejaVuSans-20" x="215.771484"/>
     <use xlink:href="#DejaVuSans-45" x="247.558594"/>
     <use xlink:href="#DejaVuSans-72" x="310.742188"/>
     <use xlink:href="#DejaVuSans-72" x="350.105469"/>
     <use xlink:href="#DejaVuSans-6f" x="388.96875"/>
     <use xlink:href="#DejaVuSans-72" x="450.150391"/>
     <use xlink:href="#DejaVuSans-20" x="491.263672"/>
     <use xlink:href="#DejaVuSans-44" x="523.050781"/>
     <use xlink:href="#DejaVuSans-69" x="600.052734"/>
     <use xlink:href="#DejaVuSans-73" x="627.835938"/>
     <use xlink:href="#DejaVuSans-74" x="679.935547"/>
     <use xlink:href="#DejaVuSans-72" x="719.144531"/>
     <use xlink:href="#DejaVuSans-69" x="760.257812"/>
     <use xlink:href="#DejaVuSans-62" x="788.041016"/>
     <use xlink:href="#DejaVuSans-75" x="851.517578"/>
     <use xlink:href="#DejaVuSans-74" x="914.896484"/>
     <use xlink:href="#DejaVuSans-69" x="954.105469"/>
     <use xlink:href="#DejaVuSans-6f" x="981.888672"/>
     <use xlink:href="#DejaVuSans-6e" x="1043.070312"/>
     <use xlink:href="#DejaVuSans-20" x="1106.449219"/>
     <use xlink:href="#DejaVuSans-2014" x="1138.236328"/>
     <use xlink:href="#DejaVuSans-20" x="1238.236328"/>
     <use xlink:href="#DejaVuSans-41" x="1270.023438"/>
     <use xlink:href="#DejaVuSans-6c" x="1338.431641"/>
     <use xlink:href="#DejaVuSans-6c" x="1366.214844"/>
     <use xlink:href="#DejaVuSans-20" x="1393.998047"/>
     <use xlink:href="#DejaVuSans-4f" x="1425.785156"/>
     <use xlink:href="#DejaVuSans-62" x="1504.496094"/>
     <use xlink:href="#DejaVuSans-73" x="1567.972656"/>
     <use xlink:href="#DejaVuSans-65" x="1620.072266"/>
     <use xlink:href="#DejaVuSans-72" x="1681.595703"/>
     <use xlink:href="#DejaVuSans-76" x="1722.708984"/>
     <use xlink:href="#DejaVuSans-61" x="1781.888672"/>
     <use xlink:href="#DejaVuSans-74" x="1843.167969"/>
     <use xlink:href="#DejaVuSans-69" x="1882.376953"/>
     <use xlink:href="#DejaVuSans-6f" x="1910.160156"/>
     <use xlink:href="#DejaVuSans-6e" x="1971.341797"/>
     <use xlink:href="#DejaVuSans-73" x="2034.720703"/>
    </g>
   </g>
   <g id="legend_1">
    <g id="patch_65">
     <path d="M 352.029063 44.99625 
L 454.64 44.99625 
Q 456.64 44.99625 456.64 42.99625 
L 456.64 29.318125 
Q 456.64 27.318125 454.64 27.318125 
L 352.029063 27.318125 
Q 350.029063 27.318125 350.029063 29.318125 
L 350.029063 42.99625 
Q 350.029063 44.99625 352.029063 44.99625 
z
" style="fill: #ffffff; opacity: 0.8; stroke: #cccccc; stroke-linejoin: miter"/>
    </g>
    <g id="line2d_18">
     <path d="M 354.029063 35.416563 
L 364.029063 35.416563 
L 374.029063 35.416563 
" style="fill: none; stroke-dasharray: 5.55,2.4; stroke-dashoffset: 0; stroke: #dc143c; stroke-width: 1.5"/>
    </g>
    <g id="text_20">
     <!-- Mean = 1.596 -->
     <g transform="translate(382.029063 38.916563) scale(0.1 -0.1)">
      <defs>
       <path id="DejaVuSans-4d" d="M 628 4666 
L 1569 4666 
L 2759 1491 
L 3956 4666 
L 4897 4666 
L 4897 0 
L 4281 0 
L 4281 4097 
L 3078 897 
L 2444 897 
L 1241 4097 
L 1241 0 
L 628 0 
L 628 4666 
z
" transform="scale(0.015625)"/>
       <path id="DejaVuSans-3d" d="M 678 2906 
L 4684 2906 
L 4684 2381 
L 678 2381 
L 678 2906 
z
M 678 1631 
L 4684 1631 
L 4684 1100 
L 678 1100 
L 678 1631 
z
" transform="scale(0.015625)"/>
       <path id="DejaVuSans-39" d="M 703 97 
L 703 672 
Q 941 559 1184 500 
Q 1428 441 1663 441 
Q 2288 441 2617 861 
Q 2947 1281 2994 2138 
Q 2813 1869 2534 1725 
Q 2256 1581 1919 1581 
Q 1219 1581 811 2004 
Q 403 2428 403 3163 
Q 403 3881 828 4315 
Q 1253 4750 1959 4750 
Q 2769 4750 3195 4129 
Q 3622 3509 3622 2328 
Q 3622 1225 3098 567 
Q 2575 -91 1691 -91 
Q 1453 -91 1209 -44 
Q 966 3 703 97 
z
M 1959 2075 
Q 2384 2075 2632 2365 
Q 2881 2656 2881 3163 
Q 2881 3666 2632 3958 
Q 2384 4250 1959 4250 
Q 1534 4250 1286 3958 
Q 1038 3666 1038 3163 
Q 1038 2656 1286 2365 
Q 1534 2075 1959 2075 
z
" transform="scale(0.015625)"/>
      </defs>
      <use xlink:href="#DejaVuSans-4d"/>
      <use xlink:href="#DejaVuSans-65" x="86.279297"/>
      <use xlink:href="#DejaVuSans-61" x="147.802734"/>
      <use xlink:href="#DejaVuSans-6e" x="209.082031"/>
      <use xlink:href="#DejaVuSans-20" x="272.460938"/>
      <use xlink:href="#DejaVuSans-3d" x="304.248047"/>
      <use xlink:href="#DejaVuSans-20" x="388.037109"/>
      <use xlink:href="#DejaVuSans-31" x="419.824219"/>
      <use xlink:href="#DejaVuSans-2e" x="483.447266"/>
      <use xlink:href="#DejaVuSans-35" x="515.234375"/>
      <use xlink:href="#DejaVuSans-39" x="578.857422"/>
      <use xlink:href="#DejaVuSans-36" x="642.480469"/>
     </g>
    </g>
   </g>
  </g>
  <g id="axes_2">
   <g id="patch_66">
    <path d="M 509.36 311.318125 
L 920.19 311.318125 
L 920.19 22.318125 
L 509.36 22.318125 
z
" style="fill: #ffffff"/>
   </g>
   <g id="patch_67">
    <path d="M 528.034091 311.318125 
L 537.371136 311.318125 
L 537.371136 219.572093 
L 528.034091 219.572093 
z
" clip-path="url(#p9806f757a0)" style="fill: #ff7f50; opacity: 0.85; stroke: #ffffff; stroke-linejoin: miter"/>
   </g>
   <g id="patch_68">
    <path d="M 537.371136 311.318125 
L 546.708182 311.318125 
L 546.708182 85.481739 
L 537.371136 85.481739 
z
" clip-path="url(#p9806f757a0)" style="fill: #ff7f50; opacity: 0.85; stroke: #ffffff; stroke-linejoin: miter"/>
   </g>
   <g id="patch_69">
    <path d="M 546.708182 311.318125 
L 556.045227 311.318125 
L 556.045227 50.194804 
L 546.708182 50.194804 
z
" clip-path="url(#p9806f757a0)" style="fill: #ff7f50; opacity: 0.85; stroke: #ffffff; stroke-linejoin: miter"/>
   </g>
   <g id="patch_70">
    <path d="M 556.045227 311.318125 
L 565.382273 311.318125 
L 565.382273 36.08003 
L 556.045227 36.08003 
z
" clip-path="url(#p9806f757a0)" style="fill: #ff7f50; opacity: 0.85; stroke: #ffffff; stroke-linejoin: miter"/>
   </g>
   <g id="patch_71">
    <path d="M 565.382273 311.318125 
L 574.719318 311.318125 
L 574.719318 99.596513 
L 565.382273 99.596513 
z
" clip-path="url(#p9806f757a0)" style="fill: #ff7f50; opacity: 0.85; stroke: #ffffff; stroke-linejoin: miter"/>
   </g>
   <g id="patch_72">
    <path d="M 574.719318 311.318125 
L 584.056364 311.318125 
L 584.056364 50.194804 
L 574.719318 50.194804 
z
" clip-path="url(#p9806f757a0)" style="fill: #ff7f50; opacity: 0.85; stroke: #ffffff; stroke-linejoin: miter"/>
   </g>
   <g id="patch_73">
    <path d="M 584.056364 311.318125 
L 593.393409 311.318125 
L 593.393409 81.953046 
L 584.056364 81.953046 
z
" clip-path="url(#p9806f757a0)" style="fill: #ff7f50; opacity: 0.85; stroke: #ffffff; stroke-linejoin: miter"/>
   </g>
   <g id="patch_74">
    <path d="M 593.393409 311.318125 
L 602.730455 311.318125 
L 602.730455 103.125207 
L 593.393409 103.125207 
z
" clip-path="url(#p9806f757a0)" style="fill: #ff7f50; opacity: 0.85; stroke: #ffffff; stroke-linejoin: miter"/>
   </g>
   <g id="patch_75">
    <path d="M 602.730455 311.318125 
L 612.0675 311.318125 
L 612.0675 170.170384 
L 602.730455 170.170384 
z
" clip-path="url(#p9806f757a0)" style="fill: #ff7f50; opacity: 0.85; stroke: #ffffff; stroke-linejoin: miter"/>
   </g>
   <g id="patch_76">
    <path d="M 612.0675 311.318125 
L 621.404545 311.318125 
L 621.404545 201.928626 
L 612.0675 201.928626 
z
" clip-path="url(#p9806f757a0)" style="fill: #ff7f50; opacity: 0.85; stroke: #ffffff; stroke-linejoin: miter"/>
   </g>
   <g id="patch_77">
    <path d="M 621.404545 311.318125 
L 630.741591 311.318125 
L 630.741591 138.412142 
L 621.404545 138.412142 
z
" clip-path="url(#p9806f757a0)" style="fill: #ff7f50; opacity: 0.85; stroke: #ffffff; stroke-linejoin: miter"/>
   </g>
   <g id="patch_78">
    <path d="M 630.741591 311.318125 
L 640.078636 311.318125 
L 640.078636 187.813851 
L 630.741591 187.813851 
z
" clip-path="url(#p9806f757a0)" style="fill: #ff7f50; opacity: 0.85; stroke: #ffffff; stroke-linejoin: miter"/>
   </g>
   <g id="patch_79">
    <path d="M 640.078636 311.318125 
L 649.415682 311.318125 
L 649.415682 212.514706 
L 640.078636 212.514706 
z
" clip-path="url(#p9806f757a0)" style="fill: #ff7f50; opacity: 0.85; stroke: #ffffff; stroke-linejoin: miter"/>
   </g>
   <g id="patch_80">
    <path d="M 649.415682 311.318125 
L 658.752727 311.318125 
L 658.752727 219.572093 
L 649.415682 219.572093 
z
" clip-path="url(#p9806f757a0)" style="fill: #ff7f50; opacity: 0.85; stroke: #ffffff; stroke-linejoin: miter"/>
   </g>
   <g id="patch_81">
    <path d="M 658.752727 311.318125 
L 668.089773 311.318125 
L 668.089773 261.916416 
L 658.752727 261.916416 
z
" clip-path="url(#p9806f757a0)" style="fill: #ff7f50; opacity: 0.85; stroke: #ffffff; stroke-linejoin: miter"/>
   </g>
   <g id="patch_82">
    <path d="M 668.089773 311.318125 
L 677.426818 311.318125 
L 677.426818 272.502496 
L 668.089773 272.502496 
z
" clip-path="url(#p9806f757a0)" style="fill: #ff7f50; opacity: 0.85; stroke: #ffffff; stroke-linejoin: miter"/>
   </g>
   <g id="patch_83">
    <path d="M 677.426818 311.318125 
L 686.763864 311.318125 
L 686.763864 265.445109 
L 677.426818 265.445109 
z
" clip-path="url(#p9806f757a0)" style="fill: #ff7f50; opacity: 0.85; stroke: #ffffff; stroke-linejoin: miter"/>
   </g>
   <g id="patch_84">
    <path d="M 686.763864 311.318125 
L 696.100909 311.318125 
L 696.100909 283.088577 
L 686.763864 283.088577 
z
" clip-path="url(#p9806f757a0)" style="fill: #ff7f50; opacity: 0.85; stroke: #ffffff; stroke-linejoin: miter"/>
   </g>
   <g id="patch_85">
    <path d="M 696.100909 311.318125 
L 705.437955 311.318125 
L 705.437955 293.674657 
L 696.100909 293.674657 
z
" clip-path="url(#p9806f757a0)" style="fill: #ff7f50; opacity: 0.85; stroke: #ffffff; stroke-linejoin: miter"/>
   </g>
   <g id="patch_86">
    <path d="M 705.437955 311.318125 
L 714.775 311.318125 
L 714.775 304.260738 
L 705.437955 304.260738 
z
" clip-path="url(#p9806f757a0)" style="fill: #ff7f50; opacity: 0.85; stroke: #ffffff; stroke-linejoin: miter"/>
   </g>
   <g id="patch_87">
    <path d="M 714.775 311.318125 
L 724.112045 311.318125 
L 724.112045 300.732044 
L 714.775 300.732044 
z
" clip-path="url(#p9806f757a0)" style="fill: #ff7f50; opacity: 0.85; stroke: #ffffff; stroke-linejoin: miter"/>
   </g>
   <g id="patch_88">
    <path d="M 724.112045 311.318125 
L 733.449091 311.318125 
L 733.449091 300.732044 
L 724.112045 300.732044 
z
" clip-path="url(#p9806f757a0)" style="fill: #ff7f50; opacity: 0.85; stroke: #ffffff; stroke-linejoin: miter"/>
   </g>
   <g id="patch_89">
    <path d="M 733.449091 311.318125 
L 742.786136 311.318125 
L 742.786136 307.789431 
L 733.449091 307.789431 
z
" clip-path="url(#p9806f757a0)" style="fill: #ff7f50; opacity: 0.85; stroke: #ffffff; stroke-linejoin: miter"/>
   </g>
   <g id="patch_90">
    <path d="M 742.786136 311.318125 
L 752.123182 311.318125 
L 752.123182 300.732044 
L 742.786136 300.732044 
z
" clip-path="url(#p9806f757a0)" style="fill: #ff7f50; opacity: 0.85; stroke: #ffffff; stroke-linejoin: miter"/>
   </g>
   <g id="patch_91">
    <path d="M 752.123182 311.318125 
L 761.460227 311.318125 
L 761.460227 311.318125 
L 752.123182 311.318125 
z
" clip-path="url(#p9806f757a0)" style="fill: #ff7f50; opacity: 0.85; stroke: #ffffff; stroke-linejoin: miter"/>
   </g>
   <g id="patch_92">
    <path d="M 761.460227 311.318125 
L 770.797273 311.318125 
L 770.797273 307.789431 
L 761.460227 307.789431 
z
" clip-path="url(#p9806f757a0)" style="fill: #ff7f50; opacity: 0.85; stroke: #ffffff; stroke-linejoin: miter"/>
   </g>
   <g id="patch_93">
    <path d="M 770.797273 311.318125 
L 780.134318 311.318125 
L 780.134318 307.789431 
L 770.797273 307.789431 
z
" clip-path="url(#p9806f757a0)" style="fill: #ff7f50; opacity: 0.85; stroke: #ffffff; stroke-linejoin: miter"/>
   </g>
   <g id="patch_94">
    <path d="M 780.134318 311.318125 
L 789.471364 311.318125 
L 789.471364 307.789431 
L 780.134318 307.789431 
z
" clip-path="url(#p9806f757a0)" style="fill: #ff7f50; opacity: 0.85; stroke: #ffffff; stroke-linejoin: miter"/>
   </g>
   <g id="patch_95">
    <path d="M 789.471364 311.318125 
L 798.808409 311.318125 
L 798.808409 307.789431 
L 789.471364 307.789431 
z
" clip-path="url(#p9806f757a0)" style="fill: #ff7f50; opacity: 0.85; stroke: #ffffff; stroke-linejoin: miter"/>
   </g>
   <g id="patch_96">
    <path d="M 798.808409 311.318125 
L 808.145455 311.318125 
L 808.145455 311.318125 
L 798.808409 311.318125 
z
" clip-path="url(#p9806f757a0)" style="fill: #ff7f50; opacity: 0.85; stroke: #ffffff; stroke-linejoin: miter"/>
   </g>
   <g id="patch_97">
    <path d="M 808.145455 311.318125 
L 817.4825 311.318125 
L 817.4825 311.318125 
L 808.145455 311.318125 
z
" clip-path="url(#p9806f757a0)" style="fill: #ff7f50; opacity: 0.85; stroke: #ffffff; stroke-linejoin: miter"/>
   </g>
   <g id="patch_98">
    <path d="M 817.4825 311.318125 
L 826.819545 311.318125 
L 826.819545 311.318125 
L 817.4825 311.318125 
z
" clip-path="url(#p9806f757a0)" style="fill: #ff7f50; opacity: 0.85; stroke: #ffffff; stroke-linejoin: miter"/>
   </g>
   <g id="patch_99">
    <path d="M 826.819545 311.318125 
L 836.156591 311.318125 
L 836.156591 311.318125 
L 826.819545 311.318125 
z
" clip-path="url(#p9806f757a0)" style="fill: #ff7f50; opacity: 0.85; stroke: #ffffff; stroke-linejoin: miter"/>
   </g>
   <g id="patch_100">
    <path d="M 836.156591 311.318125 
L 845.493636 311.318125 
L 845.493636 311.318125 
L 836.156591 311.318125 
z
" clip-path="url(#p9806f757a0)" style="fill: #ff7f50; opacity: 0.85; stroke: #ffffff; stroke-linejoin: miter"/>
   </g>
   <g id="patch_101">
    <path d="M 845.493636 311.318125 
L 854.830682 311.318125 
L 854.830682 311.318125 
L 845.493636 311.318125 
z
" clip-path="url(#p9806f757a0)" style="fill: #ff7f50; opacity: 0.85; stroke: #ffffff; stroke-linejoin: miter"/>
   </g>
   <g id="patch_102">
    <path d="M 854.830682 311.318125 
L 864.167727 311.318125 
L 864.167727 307.789431 
L 854.830682 307.789431 
z
" clip-path="url(#p9806f757a0)" style="fill: #ff7f50; opacity: 0.85; stroke: #ffffff; stroke-linejoin: miter"/>
   </g>
   <g id="patch_103">
    <path d="M 864.167727 311.318125 
L 873.504773 311.318125 
L 873.504773 307.789431 
L 864.167727 307.789431 
z
" clip-path="url(#p9806f757a0)" style="fill: #ff7f50; opacity: 0.85; stroke: #ffffff; stroke-linejoin: miter"/>
   </g>
   <g id="patch_104">
    <path d="M 873.504773 311.318125 
L 882.841818 311.318125 
L 882.841818 307.789431 
L 873.504773 307.789431 
z
" clip-path="url(#p9806f757a0)" style="fill: #ff7f50; opacity: 0.85; stroke: #ffffff; stroke-linejoin: miter"/>
   </g>
   <g id="patch_105">
    <path d="M 882.841818 311.318125 
L 892.178864 311.318125 
L 892.178864 311.318125 
L 882.841818 311.318125 
z
" clip-path="url(#p9806f757a0)" style="fill: #ff7f50; opacity: 0.85; stroke: #ffffff; stroke-linejoin: miter"/>
   </g>
   <g id="patch_106">
    <path d="M 892.178864 311.318125 
L 901.515909 311.318125 
L 901.515909 307.789431 
L 892.178864 307.789431 
z
" clip-path="url(#p9806f757a0)" style="fill: #ff7f50; opacity: 0.85; stroke: #ffffff; stroke-linejoin: miter"/>
   </g>
   <g id="matplotlib.axis_3">
    <g id="xtick_9">
     <g id="line2d_19">
      <g>
       <use xlink:href="#m6c92e2bc6e" x="526.495327" y="311.318125" style="stroke: #000000; stroke-width: 0.8"/>
      </g>
     </g>
     <g id="text_21">
      <!-- 0 -->
      <g transform="translate(522.995952 326.676406) scale(0.11 -0.11)">
       <use xlink:href="#DejaVuSans-30"/>
      </g>
     </g>
    </g>
    <g id="xtick_10">
     <g id="line2d_20">
      <g>
       <use xlink:href="#m6c92e2bc6e" x="574.190973" y="311.318125" style="stroke: #000000; stroke-width: 0.8"/>
      </g>
     </g>
     <g id="text_22">
      <!-- 1 -->
      <g transform="translate(570.691598 326.676406) scale(0.11 -0.11)">
       <use xlink:href="#DejaVuSans-31"/>
      </g>
     </g>
    </g>
    <g id="xtick_11">
     <g id="line2d_21">
      <g>
       <use xlink:href="#m6c92e2bc6e" x="621.88662" y="311.318125" style="stroke: #000000; stroke-width: 0.8"/>
      </g>
     </g>
     <g id="text_23">
      <!-- 2 -->
      <g transform="translate(618.387245 326.676406) scale(0.11 -0.11)">
       <use xlink:href="#DejaVuSans-32"/>
      </g>
     </g>
    </g>
    <g id="xtick_12">
     <g id="line2d_22">
      <g>
       <use xlink:href="#m6c92e2bc6e" x="669.582267" y="311.318125" style="stroke: #000000; stroke-width: 0.8"/>
      </g>
     </g>
     <g id="text_24">
      <!-- 3 -->
      <g transform="translate(666.082892 326.676406) scale(0.11 -0.11)">
       <use xlink:href="#DejaVuSans-33"/>
      </g>
     </g>
    </g>
    <g id="xtick_13">
     <g id="line2d_23">
      <g>
       <use xlink:href="#m6c92e2bc6e" x="717.277914" y="311.318125" style="stroke: #000000; stroke-width: 0.8"/>
      </g>
     </g>
     <g id="text_25">
      <!-- 4 -->
      <g transform="translate(713.778539 326.676406) scale(0.11 -0.11)">
       <use xlink:href="#DejaVuSans-34"/>
      </g>
     </g>
    </g>
    <g id="xtick_14">
     <g id="line2d_24">
      <g>
       <use xlink:href="#m6c92e2bc6e" x="764.973561" y="311.318125" style="stroke: #000000; stroke-width: 0.8"/>
      </g>
     </g>
     <g id="text_26">
      <!-- 5 -->
      <g transform="translate(761.474186 326.676406) scale(0.11 -0.11)">
       <use xlink:href="#DejaVuSans-35"/>
      </g>
     </g>
    </g>
    <g id="xtick_15">
     <g id="line2d_25">
      <g>
       <use xlink:href="#m6c92e2bc6e" x="812.669208" y="311.318125" style="stroke: #000000; stroke-width: 0.8"/>
      </g>
     </g>
     <g id="text_27">
      <!-- 6 -->
      <g transform="translate(809.169833 326.676406) scale(0.11 -0.11)">
       <use xlink:href="#DejaVuSans-36"/>
      </g>
     </g>
    </g>
    <g id="xtick_16">
     <g id="line2d_26">
      <g>
       <use xlink:href="#m6c92e2bc6e" x="860.364854" y="311.318125" style="stroke: #000000; stroke-width: 0.8"/>
      </g>
     </g>
     <g id="text_28">
      <!-- 7 -->
      <g transform="translate(856.865479 326.676406) scale(0.11 -0.11)">
       <defs>
        <path id="DejaVuSans-37" d="M 525 4666 
L 3525 4666 
L 3525 4397 
L 1831 0 
L 1172 0 
L 2766 4134 
L 525 4134 
L 525 4666 
z
" transform="scale(0.015625)"/>
       </defs>
       <use xlink:href="#DejaVuSans-37"/>
      </g>
     </g>
    </g>
    <g id="xtick_17">
     <g id="line2d_27">
      <g>
       <use xlink:href="#m6c92e2bc6e" x="908.060501" y="311.318125" style="stroke: #000000; stroke-width: 0.8"/>
      </g>
     </g>
     <g id="text_29">
      <!-- 8 -->
      <g transform="translate(904.561126 326.676406) scale(0.11 -0.11)">
       <use xlink:href="#DejaVuSans-38"/>
      </g>
     </g>
    </g>
    <g id="text_30">
     <!-- Per-Subject MAE (BAG) -->
     <g transform="translate(646.670313 342.082187) scale(0.12 -0.12)">
      <defs>
       <path id="DejaVuSans-50" d="M 1259 4147 
L 1259 2394 
L 2053 2394 
Q 2494 2394 2734 2622 
Q 2975 2850 2975 3272 
Q 2975 3691 2734 3919 
Q 2494 4147 2053 4147 
L 1259 4147 
z
M 628 4666 
L 2053 4666 
Q 2838 4666 3239 4311 
Q 3641 3956 3641 3272 
Q 3641 2581 3239 2228 
Q 2838 1875 2053 1875 
L 1259 1875 
L 1259 0 
L 628 0 
L 628 4666 
z
" transform="scale(0.015625)"/>
       <path id="DejaVuSans-2d" d="M 313 2009 
L 1997 2009 
L 1997 1497 
L 313 1497 
L 313 2009 
z
" transform="scale(0.015625)"/>
       <path id="DejaVuSans-53" d="M 3425 4513 
L 3425 3897 
Q 3066 4069 2747 4153 
Q 2428 4238 2131 4238 
Q 1616 4238 1336 4038 
Q 1056 3838 1056 3469 
Q 1056 3159 1242 3001 
Q 1428 2844 1947 2747 
L 2328 2669 
Q 3034 2534 3370 2195 
Q 3706 1856 3706 1288 
Q 3706 609 3251 259 
Q 2797 -91 1919 -91 
Q 1588 -91 1214 -16 
Q 841 59 441 206 
L 441 856 
Q 825 641 1194 531 
Q 1563 422 1919 422 
Q 2459 422 2753 634 
Q 3047 847 3047 1241 
Q 3047 1584 2836 1778 
Q 2625 1972 2144 2069 
L 1759 2144 
Q 1053 2284 737 2584 
Q 422 2884 422 3419 
Q 422 4038 858 4394 
Q 1294 4750 2059 4750 
Q 2388 4750 2728 4690 
Q 3069 4631 3425 4513 
z
" transform="scale(0.015625)"/>
       <path id="DejaVuSans-6a" d="M 603 3500 
L 1178 3500 
L 1178 -63 
Q 1178 -731 923 -1031 
Q 669 -1331 103 -1331 
L -116 -1331 
L -116 -844 
L 38 -844 
Q 366 -844 484 -692 
Q 603 -541 603 -63 
L 603 3500 
z
M 603 4863 
L 1178 4863 
L 1178 4134 
L 603 4134 
L 603 4863 
z
" transform="scale(0.015625)"/>
       <path id="DejaVuSans-63" d="M 3122 3366 
L 3122 2828 
Q 2878 2963 2633 3030 
Q 2388 3097 2138 3097 
Q 1578 3097 1268 2742 
Q 959 2388 959 1747 
Q 959 1106 1268 751 
Q 1578 397 2138 397 
Q 2388 397 2633 464 
Q 2878 531 3122 666 
L 3122 134 
Q 2881 22 2623 -34 
Q 2366 -91 2075 -91 
Q 1284 -91 818 406 
Q 353 903 353 1747 
Q 353 2603 823 3093 
Q 1294 3584 2113 3584 
Q 2378 3584 2631 3529 
Q 2884 3475 3122 3366 
z
" transform="scale(0.015625)"/>
      </defs>
      <use xlink:href="#DejaVuSans-50"/>
      <use xlink:href="#DejaVuSans-65" x="56.677734"/>
      <use xlink:href="#DejaVuSans-72" x="118.201172"/>
      <use xlink:href="#DejaVuSans-2d" x="152.939453"/>
      <use xlink:href="#DejaVuSans-53" x="189.023438"/>
      <use xlink:href="#DejaVuSans-75" x="252.5"/>
      <use xlink:href="#DejaVuSans-62" x="315.878906"/>
      <use xlink:href="#DejaVuSans-6a" x="379.355469"/>
      <use xlink:href="#DejaVuSans-65" x="407.138672"/>
      <use xlink:href="#DejaVuSans-63" x="468.662109"/>
      <use xlink:href="#DejaVuSans-74" x="523.642578"/>
      <use xlink:href="#DejaVuSans-20" x="562.851562"/>
      <use xlink:href="#DejaVuSans-4d" x="594.638672"/>
      <use xlink:href="#DejaVuSans-41" x="680.917969"/>
      <use xlink:href="#DejaVuSans-45" x="749.326172"/>
      <use xlink:href="#DejaVuSans-20" x="812.509766"/>
      <use xlink:href="#DejaVuSans-28" x="844.296875"/>
      <use xlink:href="#DejaVuSans-42" x="883.310547"/>
      <use xlink:href="#DejaVuSans-41" x="951.914062"/>
      <use xlink:href="#DejaVuSans-47" x="1018.572266"/>
      <use xlink:href="#DejaVuSans-29" x="1096.0625"/>
     </g>
    </g>
   </g>
   <g id="matplotlib.axis_4">
    <g id="ytick_9">
     <g id="line2d_28">
      <g>
       <use xlink:href="#mece96e9564" x="509.36" y="311.318125" style="stroke: #000000; stroke-width: 0.8"/>
      </g>
     </g>
     <g id="text_31">
      <!-- 0 -->
      <g transform="translate(495.36125 315.497266) scale(0.11 -0.11)">
       <use xlink:href="#DejaVuSans-30"/>
      </g>
     </g>
    </g>
    <g id="ytick_10">
     <g id="line2d_29">
      <g>
       <use xlink:href="#mece96e9564" x="509.36" y="276.03119" style="stroke: #000000; stroke-width: 0.8"/>
      </g>
     </g>
     <g id="text_32">
      <!-- 10 -->
      <g transform="translate(488.3625 280.21033) scale(0.11 -0.11)">
       <use xlink:href="#DejaVuSans-31"/>
       <use xlink:href="#DejaVuSans-30" x="63.623047"/>
      </g>
     </g>
    </g>
    <g id="ytick_11">
     <g id="line2d_30">
      <g>
       <use xlink:href="#mece96e9564" x="509.36" y="240.744254" style="stroke: #000000; stroke-width: 0.8"/>
      </g>
     </g>
     <g id="text_33">
      <!-- 20 -->
      <g transform="translate(488.3625 244.923395) scale(0.11 -0.11)">
       <use xlink:href="#DejaVuSans-32"/>
       <use xlink:href="#DejaVuSans-30" x="63.623047"/>
      </g>
     </g>
    </g>
    <g id="ytick_12">
     <g id="line2d_31">
      <g>
       <use xlink:href="#mece96e9564" x="509.36" y="205.457319" style="stroke: #000000; stroke-width: 0.8"/>
      </g>
     </g>
     <g id="text_34">
      <!-- 30 -->
      <g transform="translate(488.3625 209.63646) scale(0.11 -0.11)">
       <use xlink:href="#DejaVuSans-33"/>
       <use xlink:href="#DejaVuSans-30" x="63.623047"/>
      </g>
     </g>
    </g>
    <g id="ytick_13">
     <g id="line2d_32">
      <g>
       <use xlink:href="#mece96e9564" x="509.36" y="170.170384" style="stroke: #000000; stroke-width: 0.8"/>
      </g>
     </g>
     <g id="text_35">
      <!-- 40 -->
      <g transform="translate(488.3625 174.349524) scale(0.11 -0.11)">
       <use xlink:href="#DejaVuSans-34"/>
       <use xlink:href="#DejaVuSans-30" x="63.623047"/>
      </g>
     </g>
    </g>
    <g id="ytick_14">
     <g id="line2d_33">
      <g>
       <use xlink:href="#mece96e9564" x="509.36" y="134.883449" style="stroke: #000000; stroke-width: 0.8"/>
      </g>
     </g>
     <g id="text_36">
      <!-- 50 -->
      <g transform="translate(488.3625 139.062589) scale(0.11 -0.11)">
       <use xlink:href="#DejaVuSans-35"/>
       <use xlink:href="#DejaVuSans-30" x="63.623047"/>
      </g>
     </g>
    </g>
    <g id="ytick_15">
     <g id="line2d_34">
      <g>
       <use xlink:href="#mece96e9564" x="509.36" y="99.596513" style="stroke: #000000; stroke-width: 0.8"/>
      </g>
     </g>
     <g id="text_37">
      <!-- 60 -->
      <g transform="translate(488.3625 103.775654) scale(0.11 -0.11)">
       <use xlink:href="#DejaVuSans-36"/>
       <use xlink:href="#DejaVuSans-30" x="63.623047"/>
      </g>
     </g>
    </g>
    <g id="ytick_16">
     <g id="line2d_35">
      <g>
       <use xlink:href="#mece96e9564" x="509.36" y="64.309578" style="stroke: #000000; stroke-width: 0.8"/>
      </g>
     </g>
     <g id="text_38">
      <!-- 70 -->
      <g transform="translate(488.3625 68.488719) scale(0.11 -0.11)">
       <use xlink:href="#DejaVuSans-37"/>
       <use xlink:href="#DejaVuSans-30" x="63.623047"/>
      </g>
     </g>
    </g>
    <g id="ytick_17">
     <g id="line2d_36">
      <g>
       <use xlink:href="#mece96e9564" x="509.36" y="29.022643" style="stroke: #000000; stroke-width: 0.8"/>
      </g>
     </g>
     <g id="text_39">
      <!-- 80 -->
      <g transform="translate(488.3625 33.201783) scale(0.11 -0.11)">
       <use xlink:href="#DejaVuSans-38"/>
       <use xlink:href="#DejaVuSans-30" x="63.623047"/>
      </g>
     </g>
    </g>
    <g id="text_40">
     <!-- Subjects -->
     <g transform="translate(481.866875 192.374375) rotate(-90) scale(0.12 -0.12)">
      <use xlink:href="#DejaVuSans-53"/>
      <use xlink:href="#DejaVuSans-75" x="63.476562"/>
      <use xlink:href="#DejaVuSans-62" x="126.855469"/>
      <use xlink:href="#DejaVuSans-6a" x="190.332031"/>
      <use xlink:href="#DejaVuSans-65" x="218.115234"/>
      <use xlink:href="#DejaVuSans-63" x="279.638672"/>
      <use xlink:href="#DejaVuSans-74" x="334.619141"/>
      <use xlink:href="#DejaVuSans-73" x="373.828125"/>
     </g>
    </g>
   </g>
   <g id="line2d_37">
    <path d="M 596.299994 311.318125 
L 596.299994 22.318125 
" clip-path="url(#p9806f757a0)" style="fill: none; stroke-dasharray: 5.55,2.4; stroke-dashoffset: 0; stroke: #000080; stroke-width: 1.5"/>
   </g>
   <g id="patch_107">
    <path d="M 509.36 311.318125 
L 509.36 22.318125 
" style="fill: none; stroke: #000000; stroke-width: 0.8; stroke-linejoin: miter; stroke-linecap: square"/>
   </g>
   <g id="patch_108">
    <path d="M 509.36 311.318125 
L 920.19 311.318125 
" style="fill: none; stroke: #000000; stroke-width: 0.8; stroke-linejoin: miter; stroke-linecap: square"/>
   </g>
   <g id="text_41">
    <!-- Per-Subject MAE Distribution -->
    <g transform="translate(629.114687 16.318125) scale(0.12 -0.12)">
     <use xlink:href="#DejaVuSans-50"/>
     <use xlink:href="#DejaVuSans-65" x="56.677734"/>
     <use xlink:href="#DejaVuSans-72" x="118.201172"/>
     <use xlink:href="#DejaVuSans-2d" x="152.939453"/>
     <use xlink:href="#DejaVuSans-53" x="189.023438"/>
     <use xlink:href="#DejaVuSans-75" x="252.5"/>
     <use xlink:href="#DejaVuSans-62" x="315.878906"/>
     <use xlink:href="#DejaVuSans-6a" x="379.355469"/>
     <use xlink:href="#DejaVuSans-65" x="407.138672"/>
     <use xlink:href="#DejaVuSans-63" x="468.662109"/>
     <use xlink:href="#DejaVuSans-74" x="523.642578"/>
     <use xlink:href="#DejaVuSans-20" x="562.851562"/>
     <use xlink:href="#DejaVuSans-4d" x="594.638672"/>
     <use xlink:href="#DejaVuSans-41" x="680.917969"/>
     <use xlink:href="#DejaVuSans-45" x="749.326172"/>
     <use xlink:href="#DejaVuSans-20" x="812.509766"/>
     <use xlink:href="#DejaVuSans-44" x="844.296875"/>
     <use xlink:href="#DejaVuSans-69" x="921.298828"/>
     <use xlink:href="#DejaVuSans-73" x="949.082031"/>
     <use xlink:href="#DejaVuSans-74" x="1001.181641"/>
     <use xlink:href="#DejaVuSans-72" x="1040.390625"/>
     <use xlink:href="#DejaVuSans-69" x="1081.503906"/>
     <use xlink:href="#DejaVuSans-62" x="1109.287109"/>
     <use xlink:href="#DejaVuSans-75" x="1172.763672"/>
     <use xlink:href="#DejaVuSans-74" x="1236.142578"/>
     <use xlink:href="#DejaVuSans-69" x="1275.351562"/>
     <use xlink:href="#DejaVuSans-6f" x="1303.134766"/>
     <use xlink:href="#DejaVuSans-6e" x="1364.316406"/>
    </g>
   </g>
   <g id="legend_2">
    <g id="patch_109">
     <path d="M 810.579063 44.99625 
L 913.19 44.99625 
Q 915.19 44.99625 915.19 42.99625 
L 915.19 29.318125 
Q 915.19 27.318125 913.19 27.318125 
L 810.579063 27.318125 
Q 808.579063 27.318125 808.579063 29.318125 
L 808.579063 42.99625 
Q 808.579063 44.99625 810.579063 44.99625 
z
" style="fill: #ffffff; opacity: 0.8; stroke: #cccccc; stroke-linejoin: miter"/>
    </g>
    <g id="line2d_38">
     <path d="M 812.579063 35.416563 
L 822.579063 35.416563 
L 832.579063 35.416563 
" style="fill: none; stroke-dasharray: 5.55,2.4; stroke-dashoffset: 0; stroke: #000080; stroke-width: 1.5"/>
    </g>
    <g id="text_42">
     <!-- Mean = 1.464 -->
     <g transform="translate(840.579063 38.916563) scale(0.1 -0.1)">
      <use xlink:href="#DejaVuSans-4d"/>
      <use xlink:href="#DejaVuSans-65" x="86.279297"/>
      <use xlink:href="#DejaVuSans-61" x="147.802734"/>
      <use xlink:href="#DejaVuSans-6e" x="209.082031"/>
      <use xlink:href="#DejaVuSans-20" x="272.460938"/>
      <use xlink:href="#DejaVuSans-3d" x="304.248047"/>
      <use xlink:href="#DejaVuSans-20" x="388.037109"/>
      <use xlink:href="#DejaVuSans-31" x="419.824219"/>
      <use xlink:href="#DejaVuSans-2e" x="483.447266"/>
      <use xlink:href="#DejaVuSans-34" x="515.234375"/>
      <use xlink:href="#DejaVuSans-36" x="578.857422"/>
      <use xlink:href="#DejaVuSans-34" x="642.480469"/>
     </g>
    </g>
   </g>
  </g>
 </g>
 <defs>
  <clipPath id="p35ee953390">
   <rect x="50.81" y="22.318125" width="410.83" height="289"/>
  </clipPath>
  <clipPath id="p9806f757a0">
   <rect x="509.36" y="22.318125" width="410.83" height="289"/>
  </clipPath>
 </defs>
</svg>
