<?xml version="1.0" encoding="utf-8" standalone="no"?>
<!DOCTYPE svg PUBLIC "-//W3C//DTD SVG 1.1//EN"
  "http://www.w3.org/Graphics/SVG/1.1/DTD/svg11.dtd">
<svg xmlns:xlink="http://www.w3.org/1999/xlink" width="999.41125pt" height="386.250062pt" viewBox="0 0 999.41125 386.250062" xmlns="http://www.w3.org/2000/svg" version="1.1">
 <metadata>
  <rdf:RDF xmlns:dc="http://purl.org/dc/elements/1.1/" xmlns:cc="http://creativecommons.org/ns#" xmlns:rdf="http://www.w3.org/1999/02/22-rdf-syntax-ns#">
   <cc:Work>
    <dc:type rdf:resource="http://purl.org/dc/dcmitype/StillImage"/>
    <dc:date>2026-04-09T12:42:20.856087</dc:date>
    <dc:format>image/svg+xml</dc:format>
    <dc:creator>
     <cc:Agent>
      <dc:title>Matplotlib v3.7.2, https://matplotlib.org/</dc:title>
     </cc:Agent>
    </dc:creator>
   </cc:Work>
  </rdf:RDF>
 </metadata>
 <defs>
  <style type="text/css">*{stroke-linejoin: round; stroke-linecap: butt}</style>
 </defs>
 <g id="figure_1">
  <g id="patch_1">
   <path d="M 0 386.250062 
L 999.41125 386.250062 
L 999.41125 0 
L 0 0 
z
" style="fill: #ffffff"/>
  </g>
  <g id="axes_1">
   <g id="patch_2">
    <path d="M 43.81125 351.174125 
L 497.66125 351.174125 
L 497.66125 22.318125 
L 43.81125 22.318125 
z
" style="fill: #ffffff"/>
   </g>
   <g id="PolyCollection_1">
    <path d="M 109.718326 335.505703 
L 78.104823 335.505703 
L 76.120429 334.069692 
L 74.152613 332.63368 
L 72.252554 331.197669 
L 70.471673 329.761657 
L 68.858685 328.325646 
L 67.456671 326.889634 
L 66.300427 325.453623 
L 65.414339 324.017611 
L 64.810964 322.5816 
L 64.490443 321.145588 
L 64.440795 319.709577 
L 64.639053 318.273565 
L 65.053105 316.837554 
L 65.64408 315.401542 
L 66.369034 313.965531 
L 67.183705 312.529519 
L 68.045131 311.093508 
L 68.913917 309.657496 
L 69.756043 308.221485 
L 70.544123 306.785473 
L 71.258105 305.349462 
L 71.885438 303.91345 
L 72.420772 302.477439 
L 72.865277 301.041427 
L 73.225691 299.605416 
L 73.513165 298.169404 
L 73.742024 296.733393 
L 73.928499 295.297381 
L 74.08951 293.86137 
L 74.241556 292.425358 
L 74.399766 290.989347 
L 74.57715 289.553335 
L 74.784072 288.117324 
L 75.027972 286.681312 
L 75.313307 285.245301 
L 75.641719 283.809289 
L 76.012354 282.373278 
L 76.422315 280.937266 
L 76.867161 279.501254 
L 77.341423 278.065243 
L 77.839086 276.629231 
L 78.353994 275.19322 
L 78.880186 273.757208 
L 79.412142 272.321197 
L 79.944959 270.885185 
L 80.474463 269.449174 
L 80.997284 268.013162 
L 81.510889 266.577151 
L 82.013588 265.141139 
L 82.504514 263.705128 
L 82.983567 262.269116 
L 83.451317 260.833105 
L 83.908867 259.397093 
L 84.357671 257.961082 
L 84.799317 256.52507 
L 85.235285 255.089059 
L 85.66671 253.653047 
L 86.094152 252.217036 
L 86.517427 250.781024 
L 86.935494 249.345013 
L 87.346432 247.909001 
L 87.747508 246.47299 
L 88.135331 245.036978 
L 88.506093 243.600967 
L 88.855846 242.164955 
L 89.180824 240.728944 
L 89.477746 239.292932 
L 89.744083 237.856921 
L 89.978271 236.420909 
L 90.179837 234.984898 
L 90.349451 233.548886 
L 90.48889 232.112875 
L 90.600942 230.676863 
L 90.689255 229.240852 
L 90.758152 227.80484 
L 90.812427 226.368829 
L 90.857139 224.932817 
L 90.897398 223.496806 
L 90.938157 222.060794 
L 90.984007 220.624783 
L 91.038974 219.188771 
L 91.106332 217.75276 
L 91.188435 216.316748 
L 91.286589 214.880737 
L 91.400972 213.444725 
L 91.530637 212.008714 
L 91.673584 210.572702 
L 91.826933 209.136691 
L 91.987155 207.700679 
L 92.150372 206.264668 
L 92.312674 204.828656 
L 92.470432 203.392645 
L 92.620562 201.956633 
L 92.760721 200.520621 
L 92.8894 199.08461 
L 93.005937 197.648598 
L 93.110426 196.212587 
L 93.203566 194.776575 
L 93.286467 193.340564 
L 94.536682 193.340564 
L 94.536682 193.340564 
L 94.619584 194.776575 
L 94.712724 196.212587 
L 94.817212 197.648598 
L 94.933749 199.08461 
L 95.062429 200.520621 
L 95.202587 201.956633 
L 95.352718 203.392645 
L 95.510476 204.828656 
L 95.672778 206.264668 
L 95.835994 207.700679 
L 95.996216 209.136691 
L 96.149565 210.572702 
L 96.292513 212.008714 
L 96.422177 213.444725 
L 96.53656 214.880737 
L 96.634714 216.316748 
L 96.716818 217.75276 
L 96.784176 219.188771 
L 96.839143 220.624783 
L 96.884992 222.060794 
L 96.925751 223.496806 
L 96.96601 224.932817 
L 97.010722 226.368829 
L 97.064998 227.80484 
L 97.133894 229.240852 
L 97.222207 230.676863 
L 97.334259 232.112875 
L 97.473698 233.548886 
L 97.643312 234.984898 
L 97.844878 236.420909 
L 98.079066 237.856921 
L 98.345404 239.292932 
L 98.642326 240.728944 
L 98.967304 242.164955 
L 99.317057 243.600967 
L 99.687818 245.036978 
L 100.075642 246.47299 
L 100.476717 247.909001 
L 100.887656 249.345013 
L 101.305723 250.781024 
L 101.728998 252.217036 
L 102.15644 253.653047 
L 102.587864 255.089059 
L 103.023833 256.52507 
L 103.465478 257.961082 
L 103.914282 259.397093 
L 104.371832 260.833105 
L 104.839582 262.269116 
L 105.318635 263.705128 
L 105.809561 265.141139 
L 106.31226 266.577151 
L 106.825865 268.013162 
L 107.348686 269.449174 
L 107.878191 270.885185 
L 108.411007 272.321197 
L 108.942963 273.757208 
L 109.469155 275.19322 
L 109.984063 276.629231 
L 110.481726 278.065243 
L 110.955989 279.501254 
L 111.400834 280.937266 
L 111.810795 282.373278 
L 112.181431 283.809289 
L 112.509842 285.245301 
L 112.795178 286.681312 
L 113.039077 288.117324 
L 113.246 289.553335 
L 113.423384 290.989347 
L 113.581594 292.425358 
L 113.733639 293.86137 
L 113.89465 295.297381 
L 114.081125 296.733393 
L 114.309985 298.169404 
L 114.597459 299.605416 
L 114.957872 301.041427 
L 115.402378 302.477439 
L 115.937711 303.91345 
L 116.565044 305.349462 
L 117.279027 306.785473 
L 118.067107 308.221485 
L 118.909232 309.657496 
L 119.778018 311.093508 
L 120.639444 312.529519 
L 121.454116 313.965531 
L 122.179069 315.401542 
L 122.770044 316.837554 
L 123.184096 318.273565 
L 123.382354 319.709577 
L 123.332706 321.145588 
L 123.012185 322.5816 
L 122.40881 324.017611 
L 121.522723 325.453623 
L 120.366478 326.889634 
L 118.964464 328.325646 
L 117.351477 329.761657 
L 115.570596 331.197669 
L 113.670536 332.63368 
L 111.70272 334.069692 
L 109.718326 335.505703 
z
" clip-path="url(#pabc522bf5c)" style="fill: #2166ac; fill-opacity: 0.72"/>
   </g>
   <g id="PolyCollection_2">
    <path d="M 225.665718 336.000768 
L 197.923665 336.000768 
L 196.075 334.438698 
L 194.219292 332.876628 
L 192.397135 331.314558 
L 190.648259 329.752488 
L 189.0094 328.190418 
L 187.512492 326.628348 
L 186.183336 325.066278 
L 185.040843 323.504208 
L 184.096853 321.942138 
L 183.356479 320.380068 
L 182.818831 318.817998 
L 182.477968 317.255928 
L 182.323912 315.693858 
L 182.343578 314.131788 
L 182.521528 312.569718 
L 182.840529 311.007648 
L 183.281928 309.445578 
L 183.825925 307.883508 
L 184.45182 306.321438 
L 185.138333 304.759368 
L 185.864021 303.197298 
L 186.607844 301.635228 
L 187.349824 300.073158 
L 188.071771 298.511088 
L 188.757994 296.949018 
L 189.395929 295.386948 
L 189.976643 293.824878 
L 190.495152 292.262808 
L 190.950559 290.700738 
L 191.345975 289.138668 
L 191.688243 287.576598 
L 191.987459 286.014528 
L 192.25631 284.452458 
L 192.509238 282.890388 
L 192.76148 281.328318 
L 193.028033 279.766248 
L 193.322619 278.204178 
L 193.656739 276.642108 
L 194.038906 275.080038 
L 194.474127 273.517968 
L 194.963688 271.955898 
L 195.505261 270.393828 
L 196.093296 268.831758 
L 196.719655 267.269688 
L 197.374406 265.707618 
L 198.04668 264.145548 
L 198.72551 262.583478 
L 199.400582 261.021408 
L 200.06285 259.459338 
L 200.704978 257.897268 
L 201.321611 256.335198 
L 201.909469 254.773128 
L 202.467283 253.211058 
L 202.995577 251.648988 
L 203.496338 250.086918 
L 203.972572 248.524848 
L 204.427798 246.962778 
L 204.865513 245.400708 
L 205.288668 243.838638 
L 205.699218 242.276568 
L 206.097792 240.714498 
L 206.483519 239.152428 
L 206.854042 237.590358 
L 207.205722 236.028288 
L 207.534011 234.466218 
L 207.833962 232.904148 
L 208.100794 231.342078 
L 208.330471 229.780008 
L 208.520209 228.217938 
L 208.668858 226.655868 
L 208.777124 225.093798 
L 208.847608 223.531728 
L 208.884681 221.969658 
L 208.894208 220.407588 
L 208.883172 218.845518 
L 208.859236 217.283448 
L 208.830289 215.721378 
L 208.804008 214.159308 
L 208.787454 212.597238 
L 208.78672 211.035168 
L 208.806635 209.473098 
L 208.85053 207.911028 
L 208.920089 206.348958 
L 209.015272 204.786888 
L 209.134365 203.224818 
L 209.274133 201.662748 
L 209.430112 200.100678 
L 209.596996 198.538608 
L 209.769118 196.976538 
L 209.940952 195.414468 
L 210.107588 193.852398 
L 210.265123 192.290328 
L 210.41091 190.728258 
L 210.543642 189.166188 
L 210.663276 187.604118 
L 210.770794 186.042048 
L 210.867888 184.479978 
L 210.956576 182.917908 
L 211.03886 181.355838 
L 212.550523 181.355838 
L 212.550523 181.355838 
L 212.632807 182.917908 
L 212.721496 184.479978 
L 212.818589 186.042048 
L 212.926107 187.604118 
L 213.045741 189.166188 
L 213.178473 190.728258 
L 213.32426 192.290328 
L 213.481795 193.852398 
L 213.648431 195.414468 
L 213.820265 196.976538 
L 213.992387 198.538608 
L 214.159271 200.100678 
L 214.31525 201.662748 
L 214.455019 203.224818 
L 214.574111 204.786888 
L 214.669295 206.348958 
L 214.738853 207.911028 
L 214.782749 209.473098 
L 214.802663 211.035168 
L 214.801929 212.597238 
L 214.785375 214.159308 
L 214.759094 215.721378 
L 214.730148 217.283448 
L 214.706211 218.845518 
L 214.695175 220.407588 
L 214.704702 221.969658 
L 214.741775 223.531728 
L 214.81226 225.093798 
L 214.920525 226.655868 
L 215.069174 228.217938 
L 215.258912 229.780008 
L 215.48859 231.342078 
L 215.755421 232.904148 
L 216.055372 234.466218 
L 216.383661 236.028288 
L 216.735341 237.590358 
L 217.105864 239.152428 
L 217.491591 240.714498 
L 217.890165 242.276568 
L 218.300716 243.838638 
L 218.72387 245.400708 
L 219.161585 246.962778 
L 219.616811 248.524848 
L 220.093045 250.086918 
L 220.593806 251.648988 
L 221.122101 253.211058 
L 221.679914 254.773128 
L 222.267772 256.335198 
L 222.884405 257.897268 
L 223.526533 259.459338 
L 224.188801 261.021408 
L 224.863873 262.583478 
L 225.542703 264.145548 
L 226.214977 265.707618 
L 226.869728 267.269688 
L 227.496087 268.831758 
L 228.084122 270.393828 
L 228.625695 271.955898 
L 229.115256 273.517968 
L 229.550477 275.080038 
L 229.932644 276.642108 
L 230.266764 278.204178 
L 230.56135 279.766248 
L 230.827903 281.328318 
L 231.080145 282.890388 
L 231.333073 284.452458 
L 231.601924 286.014528 
L 231.90114 287.576598 
L 232.243408 289.138668 
L 232.638824 290.700738 
L 233.094231 292.262808 
L 233.612741 293.824878 
L 234.193454 295.386948 
L 234.831389 296.949018 
L 235.517612 298.511088 
L 236.239559 300.073158 
L 236.981539 301.635228 
L 237.725362 303.197298 
L 238.45105 304.759368 
L 239.137563 306.321438 
L 239.763458 307.883508 
L 240.307455 309.445578 
L 240.748854 311.007648 
L 241.067855 312.569718 
L 241.245805 314.131788 
L 241.265471 315.693858 
L 241.111415 317.255928 
L 240.770552 318.817998 
L 240.232904 320.380068 
L 239.49253 321.942138 
L 238.54854 323.504208 
L 237.406047 325.066278 
L 236.076891 326.628348 
L 234.579983 328.190418 
L 232.941124 329.752488 
L 231.192248 331.314558 
L 229.370091 332.876628 
L 227.514384 334.438698 
L 225.665718 336.000768 
z
" clip-path="url(#pabc522bf5c)" style="fill: #4dac26; fill-opacity: 0.72"/>
   </g>
   <g id="PolyCollection_3">
    <path d="M 344.015292 336.226125 
L 315.340325 336.226125 
L 313.535231 333.581051 
L 311.772117 330.935978 
L 310.090566 328.290904 
L 308.523443 325.64583 
L 307.09482 323.000757 
L 305.819 320.355683 
L 304.700714 317.71061 
L 303.736385 315.065536 
L 302.916238 312.420462 
L 302.226874 309.775389 
L 301.653941 307.130315 
L 301.184512 304.485241 
L 300.808921 301.840168 
L 300.521869 299.195094 
L 300.322765 296.550021 
L 300.215395 293.904947 
L 300.207029 291.259873 
L 300.307187 288.6148 
L 300.526221 285.969726 
L 300.873877 283.324652 
L 301.357967 280.679579 
L 301.983197 278.034505 
L 302.750233 275.389432 
L 303.655011 272.744358 
L 304.688321 270.099284 
L 305.835701 267.454211 
L 307.077645 264.809137 
L 308.390168 262.164063 
L 309.745724 259.51899 
L 311.114464 256.873916 
L 312.465792 254.228842 
L 313.770128 251.583769 
L 315.000743 248.938695 
L 316.135509 246.293622 
L 317.158364 243.648548 
L 318.060319 241.003474 
L 318.839851 238.358401 
L 319.502611 235.713327 
L 320.060441 233.068253 
L 320.529825 230.42318 
L 320.929946 227.778106 
L 321.280621 225.133033 
L 321.600356 222.487959 
L 321.904771 219.842885 
L 322.205557 217.197812 
L 322.51002 214.552738 
L 322.821211 211.907664 
L 323.138516 209.262591 
L 323.458552 206.617517 
L 323.776213 203.972443 
L 324.085684 201.32737 
L 324.381339 198.682296 
L 324.65843 196.037223 
L 324.913575 193.392149 
L 325.145034 190.747075 
L 325.352817 188.102002 
L 325.538651 185.456928 
L 325.705821 182.811854 
L 325.858904 180.166781 
L 326.003384 177.521707 
L 326.145182 174.876634 
L 326.290104 172.23156 
L 326.443255 169.586486 
L 326.608492 166.941413 
L 326.78797 164.296339 
L 326.981864 161.651265 
L 327.188311 159.006192 
L 327.403597 156.361118 
L 327.622564 153.716045 
L 327.839186 151.070971 
L 328.047228 148.425897 
L 328.240891 145.780824 
L 328.415347 143.13575 
L 328.567108 140.490676 
L 328.694175 137.845603 
L 328.795992 135.200529 
L 328.873229 132.555455 
L 328.927466 129.910382 
L 328.96085 127.265308 
L 328.975782 124.620235 
L 328.9747 121.975161 
L 328.959956 119.330087 
L 328.933797 116.685014 
L 328.898415 114.03994 
L 328.856031 111.394866 
L 328.808969 108.749793 
L 328.759694 106.104719 
L 328.710804 103.459646 
L 328.664957 100.814572 
L 328.624776 98.169498 
L 328.59272 95.524425 
L 328.570962 92.879351 
L 328.561276 90.234277 
L 328.564941 87.589204 
L 328.582675 84.94413 
L 328.614586 82.299056 
L 328.660149 79.653983 
L 328.718212 77.008909 
L 328.787037 74.363836 
L 330.56858 74.363836 
L 330.56858 74.363836 
L 330.637405 77.008909 
L 330.695468 79.653983 
L 330.74103 82.299056 
L 330.772942 84.94413 
L 330.790676 87.589204 
L 330.794341 90.234277 
L 330.784655 92.879351 
L 330.762897 95.524425 
L 330.730841 98.169498 
L 330.69066 100.814572 
L 330.644813 103.459646 
L 330.595923 106.104719 
L 330.546648 108.749793 
L 330.499586 111.394866 
L 330.457201 114.03994 
L 330.42182 116.685014 
L 330.395661 119.330087 
L 330.380917 121.975161 
L 330.379835 124.620235 
L 330.394767 127.265308 
L 330.428151 129.910382 
L 330.482388 132.555455 
L 330.559625 135.200529 
L 330.661442 137.845603 
L 330.788509 140.490676 
L 330.940269 143.13575 
L 331.114726 145.780824 
L 331.308389 148.425897 
L 331.516431 151.070971 
L 331.733053 153.716045 
L 331.95202 156.361118 
L 332.167306 159.006192 
L 332.373753 161.651265 
L 332.567647 164.296339 
L 332.747125 166.941413 
L 332.912362 169.586486 
L 333.065513 172.23156 
L 333.210434 174.876634 
L 333.352233 177.521707 
L 333.496713 180.166781 
L 333.649795 182.811854 
L 333.816966 185.456928 
L 334.0028 188.102002 
L 334.210583 190.747075 
L 334.442041 193.392149 
L 334.697187 196.037223 
L 334.974278 198.682296 
L 335.269933 201.32737 
L 335.579404 203.972443 
L 335.897065 206.617517 
L 336.217101 209.262591 
L 336.534405 211.907664 
L 336.845597 214.552738 
L 337.15006 217.197812 
L 337.450845 219.842885 
L 337.755261 222.487959 
L 338.074996 225.133033 
L 338.425671 227.778106 
L 338.825792 230.42318 
L 339.295175 233.068253 
L 339.853006 235.713327 
L 340.515766 238.358401 
L 341.295298 241.003474 
L 342.197253 243.648548 
L 343.220108 246.293622 
L 344.354874 248.938695 
L 345.585489 251.583769 
L 346.889825 254.228842 
L 348.241153 256.873916 
L 349.609893 259.51899 
L 350.965449 262.164063 
L 352.277972 264.809137 
L 353.519916 267.454211 
L 354.667296 270.099284 
L 355.700606 272.744358 
L 356.605384 275.389432 
L 357.37242 278.034505 
L 357.99765 280.679579 
L 358.48174 283.324652 
L 358.829396 285.969726 
L 359.048429 288.6148 
L 359.148588 291.259873 
L 359.140222 293.904947 
L 359.032852 296.550021 
L 358.833748 299.195094 
L 358.546696 301.840168 
L 358.171105 304.485241 
L 357.701676 307.130315 
L 357.128743 309.775389 
L 356.439379 312.420462 
L 355.619232 315.065536 
L 354.654903 317.71061 
L 353.536616 320.355683 
L 352.260797 323.000757 
L 350.832174 325.64583 
L 349.26505 328.290904 
L 347.5835 330.935978 
L 345.820386 333.581051 
L 344.015292 336.226125 
z
" clip-path="url(#pabc522bf5c)" style="fill: #d6604d; fill-opacity: 0.72"/>
   </g>
   <g id="PolyCollection_4">
    <path d="M 462.9054 329.994106 
L 432.216451 329.994106 
L 430.610017 327.037258 
L 429.013923 324.08041 
L 427.452029 321.123562 
L 425.947597 318.166713 
L 424.522837 315.209865 
L 423.198579 312.253017 
L 421.994048 309.296168 
L 420.926675 306.33932 
L 420.011902 303.382472 
L 419.262925 300.425623 
L 418.69037 297.468775 
L 418.301879 294.511927 
L 418.101678 291.555079 
L 418.090146 288.59823 
L 418.263489 285.641382 
L 418.61358 282.684534 
L 419.128021 279.727685 
L 419.790477 276.770837 
L 420.58127 273.813989 
L 421.478208 270.85714 
L 422.4576 267.900292 
L 423.495349 264.943444 
L 424.568055 261.986596 
L 425.654019 259.029747 
L 426.73408 256.072899 
L 427.792212 253.116051 
L 428.815865 250.159202 
L 429.796047 247.202354 
L 430.72716 244.245506 
L 431.606643 241.288658 
L 432.434487 238.331809 
L 433.212671 235.374961 
L 433.944604 232.418113 
L 434.634602 229.461264 
L 435.287453 226.504416 
L 435.90808 223.547568 
L 436.501313 220.590719 
L 437.071746 217.633871 
L 437.623653 214.677023 
L 438.160954 211.720175 
L 438.687171 208.763326 
L 439.205379 205.806478 
L 439.71813 202.84963 
L 440.227353 199.892781 
L 440.734237 196.935933 
L 441.239129 193.979085 
L 441.741454 191.022236 
L 442.239695 188.065388 
L 442.731438 185.10854 
L 443.213492 182.151692 
L 443.682081 179.194843 
L 444.133092 176.237995 
L 444.562362 173.281147 
L 444.965963 170.324298 
L 445.34047 167.36745 
L 445.683191 164.410602 
L 445.992311 161.453753 
L 446.266985 158.496905 
L 446.507333 155.540057 
L 446.71438 152.583209 
L 446.889925 149.62636 
L 447.036387 146.669512 
L 447.156612 143.712664 
L 447.253696 140.755815 
L 447.330805 137.798967 
L 447.391031 134.842119 
L 447.43727 131.885271 
L 447.472142 128.928422 
L 447.497938 125.971574 
L 447.516591 123.014726 
L 447.529682 120.057877 
L 447.538443 117.101029 
L 447.543788 114.144181 
L 447.546336 111.187332 
L 447.546438 108.230484 
L 447.544205 105.273636 
L 447.539525 102.316788 
L 447.532089 99.359939 
L 447.521414 96.403091 
L 447.506866 93.446243 
L 447.487693 90.489394 
L 447.463078 87.532546 
L 447.432191 84.575698 
L 447.394266 81.618849 
L 447.348689 78.662001 
L 447.295093 75.705153 
L 447.233458 72.748305 
L 447.164199 69.791456 
L 447.088242 66.834608 
L 447.007057 63.87776 
L 446.922667 60.920911 
L 446.837588 57.964063 
L 446.754731 55.007215 
L 446.677251 52.050366 
L 446.60835 49.093518 
L 446.551068 46.13667 
L 446.508055 43.179822 
L 446.481373 40.222973 
L 446.472329 37.266125 
L 448.649522 37.266125 
L 448.649522 37.266125 
L 448.640478 40.222973 
L 448.613796 43.179822 
L 448.570783 46.13667 
L 448.5135 49.093518 
L 448.4446 52.050366 
L 448.367119 55.007215 
L 448.284263 57.964063 
L 448.199183 60.920911 
L 448.114793 63.87776 
L 448.033609 66.834608 
L 447.957651 69.791456 
L 447.888393 72.748305 
L 447.826758 75.705153 
L 447.773162 78.662001 
L 447.727585 81.618849 
L 447.68966 84.575698 
L 447.658772 87.532546 
L 447.634157 90.489394 
L 447.614985 93.446243 
L 447.600436 96.403091 
L 447.589761 99.359939 
L 447.582326 102.316788 
L 447.577646 105.273636 
L 447.575412 108.230484 
L 447.575515 111.187332 
L 447.578063 114.144181 
L 447.583408 117.101029 
L 447.592169 120.057877 
L 447.605259 123.014726 
L 447.623913 125.971574 
L 447.649708 128.928422 
L 447.684581 131.885271 
L 447.73082 134.842119 
L 447.791045 137.798967 
L 447.868154 140.755815 
L 447.965238 143.712664 
L 448.085464 146.669512 
L 448.231925 149.62636 
L 448.407471 152.583209 
L 448.614517 155.540057 
L 448.854866 158.496905 
L 449.12954 161.453753 
L 449.43866 164.410602 
L 449.78138 167.36745 
L 450.155888 170.324298 
L 450.559488 173.281147 
L 450.988758 176.237995 
L 451.43977 179.194843 
L 451.908359 182.151692 
L 452.390413 185.10854 
L 452.882156 188.065388 
L 453.380397 191.022236 
L 453.882722 193.979085 
L 454.387613 196.935933 
L 454.894498 199.892781 
L 455.40372 202.84963 
L 455.916472 205.806478 
L 456.43468 208.763326 
L 456.960897 211.720175 
L 457.498197 214.677023 
L 458.050105 217.633871 
L 458.620537 220.590719 
L 459.213771 223.547568 
L 459.834398 226.504416 
L 460.487249 229.461264 
L 461.177247 232.418113 
L 461.90918 235.374961 
L 462.687364 238.331809 
L 463.515207 241.288658 
L 464.394691 244.245506 
L 465.325804 247.202354 
L 466.305986 250.159202 
L 467.329639 253.116051 
L 468.38777 256.072899 
L 469.467831 259.029747 
L 470.553796 261.986596 
L 471.626502 264.943444 
L 472.66425 267.900292 
L 473.643642 270.85714 
L 474.540581 273.813989 
L 475.331373 276.770837 
L 475.99383 279.727685 
L 476.508271 282.684534 
L 476.858361 285.641382 
L 477.031705 288.59823 
L 477.020172 291.555079 
L 476.819971 294.511927 
L 476.431481 297.468775 
L 475.858925 300.425623 
L 475.109949 303.382472 
L 474.195175 306.33932 
L 473.127803 309.296168 
L 471.923272 312.253017 
L 470.599014 315.209865 
L 469.174253 318.166713 
L 467.669821 321.123562 
L 466.107928 324.08041 
L 464.511834 327.037258 
L 462.9054 329.994106 
z
" clip-path="url(#pabc522bf5c)" style="fill: #762a83; fill-opacity: 0.72"/>
   </g>
   <g id="matplotlib.axis_1">
    <g id="xtick_1">
     <g id="line2d_1">
      <defs>
       <path id="m98a48fe548" d="M 0 0 
L 0 3.5 
" style="stroke: #000000; stroke-width: 0.8"/>
      </defs>
      <g>
       <use xlink:href="#m98a48fe548" x="93.911575" y="351.174125" style="stroke: #000000; stroke-width: 0.8"/>
      </g>
     </g>
     <g id="text_1">
      <!-- &lt;60 -->
      <g transform="translate(83.359231 365.772562) scale(0.1 -0.1)">
       <defs>
        <path id="DejaVuSans-3c" d="M 4684 3150 
L 1459 2003 
L 4684 863 
L 4684 294 
L 678 1747 
L 678 2266 
L 4684 3719 
L 4684 3150 
z
" transform="scale(0.015625)"/>
        <path id="DejaVuSans-36" d="M 2113 2584 
Q 1688 2584 1439 2293 
Q 1191 2003 1191 1497 
Q 1191 994 1439 701 
Q 1688 409 2113 409 
Q 2538 409 2786 701 
Q 3034 994 3034 1497 
Q 3034 2003 2786 2293 
Q 2538 2584 2113 2584 
z
M 3366 4563 
L 3366 3988 
Q 3128 4100 2886 4159 
Q 2644 4219 2406 4219 
Q 1781 4219 1451 3797 
Q 1122 3375 1075 2522 
Q 1259 2794 1537 2939 
Q 1816 3084 2150 3084 
Q 2853 3084 3261 2657 
Q 3669 2231 3669 1497 
Q 3669 778 3244 343 
Q 2819 -91 2113 -91 
Q 1303 -91 875 529 
Q 447 1150 447 2328 
Q 447 3434 972 4092 
Q 1497 4750 2381 4750 
Q 2619 4750 2861 4703 
Q 3103 4656 3366 4563 
z
" transform="scale(0.015625)"/>
        <path id="DejaVuSans-30" d="M 2034 4250 
Q 1547 4250 1301 3770 
Q 1056 3291 1056 2328 
Q 1056 1369 1301 889 
Q 1547 409 2034 409 
Q 2525 409 2770 889 
Q 3016 1369 3016 2328 
Q 3016 3291 2770 3770 
Q 2525 4250 2034 4250 
z
M 2034 4750 
Q 2819 4750 3233 4129 
Q 3647 3509 3647 2328 
Q 3647 1150 3233 529 
Q 2819 -91 2034 -91 
Q 1250 -91 836 529 
Q 422 1150 422 2328 
Q 422 3509 836 4129 
Q 1250 4750 2034 4750 
z
" transform="scale(0.015625)"/>
       </defs>
       <use xlink:href="#DejaVuSans-3c"/>
       <use xlink:href="#DejaVuSans-36" x="83.789062"/>
       <use xlink:href="#DejaVuSans-30" x="147.412109"/>
      </g>
      <!-- (n=230) -->
      <g transform="translate(73.107668 376.970375) scale(0.1 -0.1)">
       <defs>
        <path id="DejaVuSans-28" d="M 1984 4856 
Q 1566 4138 1362 3434 
Q 1159 2731 1159 2009 
Q 1159 1288 1364 580 
Q 1569 -128 1984 -844 
L 1484 -844 
Q 1016 -109 783 600 
Q 550 1309 550 2009 
Q 550 2706 781 3412 
Q 1013 4119 1484 4856 
L 1984 4856 
z
" transform="scale(0.015625)"/>
        <path id="DejaVuSans-6e" d="M 3513 2113 
L 3513 0 
L 2938 0 
L 2938 2094 
Q 2938 2591 2744 2837 
Q 2550 3084 2163 3084 
Q 1697 3084 1428 2787 
Q 1159 2491 1159 1978 
L 1159 0 
L 581 0 
L 581 3500 
L 1159 3500 
L 1159 2956 
Q 1366 3272 1645 3428 
Q 1925 3584 2291 3584 
Q 2894 3584 3203 3211 
Q 3513 2838 3513 2113 
z
" transform="scale(0.015625)"/>
        <path id="DejaVuSans-3d" d="M 678 2906 
L 4684 2906 
L 4684 2381 
L 678 2381 
L 678 2906 
z
M 678 1631 
L 4684 1631 
L 4684 1100 
L 678 1100 
L 678 1631 
z
" transform="scale(0.015625)"/>
        <path id="DejaVuSans-32" d="M 1228 531 
L 3431 531 
L 3431 0 
L 469 0 
L 469 531 
Q 828 903 1448 1529 
Q 2069 2156 2228 2338 
Q 2531 2678 2651 2914 
Q 2772 3150 2772 3378 
Q 2772 3750 2511 3984 
Q 2250 4219 1831 4219 
Q 1534 4219 1204 4116 
Q 875 4013 500 3803 
L 500 4441 
Q 881 4594 1212 4672 
Q 1544 4750 1819 4750 
Q 2544 4750 2975 4387 
Q 3406 4025 3406 3419 
Q 3406 3131 3298 2873 
Q 3191 2616 2906 2266 
Q 2828 2175 2409 1742 
Q 1991 1309 1228 531 
z
" transform="scale(0.015625)"/>
        <path id="DejaVuSans-33" d="M 2597 2516 
Q 3050 2419 3304 2112 
Q 3559 1806 3559 1356 
Q 3559 666 3084 287 
Q 2609 -91 1734 -91 
Q 1441 -91 1130 -33 
Q 819 25 488 141 
L 488 750 
Q 750 597 1062 519 
Q 1375 441 1716 441 
Q 2309 441 2620 675 
Q 2931 909 2931 1356 
Q 2931 1769 2642 2001 
Q 2353 2234 1838 2234 
L 1294 2234 
L 1294 2753 
L 1863 2753 
Q 2328 2753 2575 2939 
Q 2822 3125 2822 3475 
Q 2822 3834 2567 4026 
Q 2313 4219 1838 4219 
Q 1578 4219 1281 4162 
Q 984 4106 628 3988 
L 628 4550 
Q 988 4650 1302 4700 
Q 1616 4750 1894 4750 
Q 2613 4750 3031 4423 
Q 3450 4097 3450 3541 
Q 3450 3153 3228 2886 
Q 3006 2619 2597 2516 
z
" transform="scale(0.015625)"/>
        <path id="DejaVuSans-29" d="M 513 4856 
L 1013 4856 
Q 1481 4119 1714 3412 
Q 1947 2706 1947 2009 
Q 1947 1309 1714 600 
Q 1481 -109 1013 -844 
L 513 -844 
Q 928 -128 1133 580 
Q 1338 1288 1338 2009 
Q 1338 2731 1133 3434 
Q 928 4138 513 4856 
z
" transform="scale(0.015625)"/>
       </defs>
       <use xlink:href="#DejaVuSans-28"/>
       <use xlink:href="#DejaVuSans-6e" x="39.013672"/>
       <use xlink:href="#DejaVuSans-3d" x="102.392578"/>
       <use xlink:href="#DejaVuSans-32" x="186.181641"/>
       <use xlink:href="#DejaVuSans-33" x="249.804688"/>
       <use xlink:href="#DejaVuSans-30" x="313.427734"/>
       <use xlink:href="#DejaVuSans-29" x="377.050781"/>
      </g>
     </g>
    </g>
    <g id="xtick_2">
     <g id="line2d_2">
      <g>
       <use xlink:href="#m98a48fe548" x="211.794692" y="351.174125" style="stroke: #000000; stroke-width: 0.8"/>
      </g>
     </g>
     <g id="text_2">
      <!-- 60-70 -->
      <g transform="translate(197.265785 365.772562) scale(0.1 -0.1)">
       <defs>
        <path id="DejaVuSans-2d" d="M 313 2009 
L 1997 2009 
L 1997 1497 
L 313 1497 
L 313 2009 
z
" transform="scale(0.015625)"/>
        <path id="DejaVuSans-37" d="M 525 4666 
L 3525 4666 
L 3525 4397 
L 1831 0 
L 1172 0 
L 2766 4134 
L 525 4134 
L 525 4666 
z
" transform="scale(0.015625)"/>
       </defs>
       <use xlink:href="#DejaVuSans-36"/>
       <use xlink:href="#DejaVuSans-30" x="63.623047"/>
       <use xlink:href="#DejaVuSans-2d" x="127.246094"/>
       <use xlink:href="#DejaVuSans-37" x="163.330078"/>
       <use xlink:href="#DejaVuSans-30" x="226.953125"/>
      </g>
      <!-- (n=285) -->
      <g transform="translate(190.990785 376.970375) scale(0.1 -0.1)">
       <defs>
        <path id="DejaVuSans-38" d="M 2034 2216 
Q 1584 2216 1326 1975 
Q 1069 1734 1069 1313 
Q 1069 891 1326 650 
Q 1584 409 2034 409 
Q 2484 409 2743 651 
Q 3003 894 3003 1313 
Q 3003 1734 2745 1975 
Q 2488 2216 2034 2216 
z
M 1403 2484 
Q 997 2584 770 2862 
Q 544 3141 544 3541 
Q 544 4100 942 4425 
Q 1341 4750 2034 4750 
Q 2731 4750 3128 4425 
Q 3525 4100 3525 3541 
Q 3525 3141 3298 2862 
Q 3072 2584 2669 2484 
Q 3125 2378 3379 2068 
Q 3634 1759 3634 1313 
Q 3634 634 3220 271 
Q 2806 -91 2034 -91 
Q 1263 -91 848 271 
Q 434 634 434 1313 
Q 434 1759 690 2068 
Q 947 2378 1403 2484 
z
M 1172 3481 
Q 1172 3119 1398 2916 
Q 1625 2713 2034 2713 
Q 2441 2713 2670 2916 
Q 2900 3119 2900 3481 
Q 2900 3844 2670 4047 
Q 2441 4250 2034 4250 
Q 1625 4250 1398 4047 
Q 1172 3844 1172 3481 
z
" transform="scale(0.015625)"/>
        <path id="DejaVuSans-35" d="M 691 4666 
L 3169 4666 
L 3169 4134 
L 1269 4134 
L 1269 2991 
Q 1406 3038 1543 3061 
Q 1681 3084 1819 3084 
Q 2600 3084 3056 2656 
Q 3513 2228 3513 1497 
Q 3513 744 3044 326 
Q 2575 -91 1722 -91 
Q 1428 -91 1123 -41 
Q 819 9 494 109 
L 494 744 
Q 775 591 1075 516 
Q 1375 441 1709 441 
Q 2250 441 2565 725 
Q 2881 1009 2881 1497 
Q 2881 1984 2565 2268 
Q 2250 2553 1709 2553 
Q 1456 2553 1204 2497 
Q 953 2441 691 2322 
L 691 4666 
z
" transform="scale(0.015625)"/>
       </defs>
       <use xlink:href="#DejaVuSans-28"/>
       <use xlink:href="#DejaVuSans-6e" x="39.013672"/>
       <use xlink:href="#DejaVuSans-3d" x="102.392578"/>
       <use xlink:href="#DejaVuSans-32" x="186.181641"/>
       <use xlink:href="#DejaVuSans-38" x="249.804688"/>
       <use xlink:href="#DejaVuSans-35" x="313.427734"/>
       <use xlink:href="#DejaVuSans-29" x="377.050781"/>
      </g>
     </g>
    </g>
    <g id="xtick_3">
     <g id="line2d_3">
      <g>
       <use xlink:href="#m98a48fe548" x="329.677808" y="351.174125" style="stroke: #000000; stroke-width: 0.8"/>
      </g>
     </g>
     <g id="text_3">
      <!-- 70-80 -->
      <g transform="translate(315.148902 365.772562) scale(0.1 -0.1)">
       <use xlink:href="#DejaVuSans-37"/>
       <use xlink:href="#DejaVuSans-30" x="63.623047"/>
       <use xlink:href="#DejaVuSans-2d" x="127.246094"/>
       <use xlink:href="#DejaVuSans-38" x="163.330078"/>
       <use xlink:href="#DejaVuSans-30" x="226.953125"/>
      </g>
      <!-- (n=215) -->
      <g transform="translate(308.873902 376.970375) scale(0.1 -0.1)">
       <defs>
        <path id="DejaVuSans-31" d="M 794 531 
L 1825 531 
L 1825 4091 
L 703 3866 
L 703 4441 
L 1819 4666 
L 2450 4666 
L 2450 531 
L 3481 531 
L 3481 0 
L 794 0 
L 794 531 
z
" transform="scale(0.015625)"/>
       </defs>
       <use xlink:href="#DejaVuSans-28"/>
       <use xlink:href="#DejaVuSans-6e" x="39.013672"/>
       <use xlink:href="#DejaVuSans-3d" x="102.392578"/>
       <use xlink:href="#DejaVuSans-32" x="186.181641"/>
       <use xlink:href="#DejaVuSans-31" x="249.804688"/>
       <use xlink:href="#DejaVuSans-35" x="313.427734"/>
       <use xlink:href="#DejaVuSans-29" x="377.050781"/>
      </g>
     </g>
    </g>
    <g id="xtick_4">
     <g id="line2d_4">
      <g>
       <use xlink:href="#m98a48fe548" x="447.560925" y="351.174125" style="stroke: #000000; stroke-width: 0.8"/>
      </g>
     </g>
     <g id="text_4">
      <!-- &gt;=80 -->
      <g transform="translate(432.818738 365.772562) scale(0.1 -0.1)">
       <defs>
        <path id="DejaVuSans-3e" d="M 678 3150 
L 678 3719 
L 4684 2266 
L 4684 1747 
L 678 294 
L 678 863 
L 3897 2003 
L 678 3150 
z
" transform="scale(0.015625)"/>
       </defs>
       <use xlink:href="#DejaVuSans-3e"/>
       <use xlink:href="#DejaVuSans-3d" x="83.789062"/>
       <use xlink:href="#DejaVuSans-38" x="167.578125"/>
       <use xlink:href="#DejaVuSans-30" x="231.201172"/>
      </g>
      <!-- (n=50) -->
      <g transform="translate(429.938269 376.970375) scale(0.1 -0.1)">
       <use xlink:href="#DejaVuSans-28"/>
       <use xlink:href="#DejaVuSans-6e" x="39.013672"/>
       <use xlink:href="#DejaVuSans-3d" x="102.392578"/>
       <use xlink:href="#DejaVuSans-35" x="186.181641"/>
       <use xlink:href="#DejaVuSans-30" x="249.804688"/>
       <use xlink:href="#DejaVuSans-29" x="313.427734"/>
      </g>
     </g>
    </g>
   </g>
   <g id="matplotlib.axis_2">
    <g id="ytick_1">
     <g id="line2d_5">
      <defs>
       <path id="mda540829dc" d="M 0 0 
L -3.5 0 
" style="stroke: #000000; stroke-width: 0.8"/>
      </defs>
      <g>
       <use xlink:href="#mda540829dc" x="43.81125" y="337.108432" style="stroke: #000000; stroke-width: 0.8"/>
      </g>
     </g>
     <g id="text_5">
      <!-- 0 -->
      <g transform="translate(29.8125 341.287572) scale(0.11 -0.11)">
       <use xlink:href="#DejaVuSans-30"/>
      </g>
     </g>
    </g>
    <g id="ytick_2">
     <g id="line2d_6">
      <g>
       <use xlink:href="#mda540829dc" x="43.81125" y="277.296644" style="stroke: #000000; stroke-width: 0.8"/>
      </g>
     </g>
     <g id="text_6">
      <!-- 2 -->
      <g transform="translate(29.8125 281.475785) scale(0.11 -0.11)">
       <use xlink:href="#DejaVuSans-32"/>
      </g>
     </g>
    </g>
    <g id="ytick_3">
     <g id="line2d_7">
      <g>
       <use xlink:href="#mda540829dc" x="43.81125" y="217.484856" style="stroke: #000000; stroke-width: 0.8"/>
      </g>
     </g>
     <g id="text_7">
      <!-- 4 -->
      <g transform="translate(29.8125 221.663997) scale(0.11 -0.11)">
       <defs>
        <path id="DejaVuSans-34" d="M 2419 4116 
L 825 1625 
L 2419 1625 
L 2419 4116 
z
M 2253 4666 
L 3047 4666 
L 3047 1625 
L 3713 1625 
L 3713 1100 
L 3047 1100 
L 3047 0 
L 2419 0 
L 2419 1100 
L 313 1100 
L 313 1709 
L 2253 4666 
z
" transform="scale(0.015625)"/>
       </defs>
       <use xlink:href="#DejaVuSans-34"/>
      </g>
     </g>
    </g>
    <g id="ytick_4">
     <g id="line2d_8">
      <g>
       <use xlink:href="#mda540829dc" x="43.81125" y="157.673069" style="stroke: #000000; stroke-width: 0.8"/>
      </g>
     </g>
     <g id="text_8">
      <!-- 6 -->
      <g transform="translate(29.8125 161.852209) scale(0.11 -0.11)">
       <use xlink:href="#DejaVuSans-36"/>
      </g>
     </g>
    </g>
    <g id="ytick_5">
     <g id="line2d_9">
      <g>
       <use xlink:href="#mda540829dc" x="43.81125" y="97.861281" style="stroke: #000000; stroke-width: 0.8"/>
      </g>
     </g>
     <g id="text_9">
      <!-- 8 -->
      <g transform="translate(29.8125 102.040422) scale(0.11 -0.11)">
       <use xlink:href="#DejaVuSans-38"/>
      </g>
     </g>
    </g>
    <g id="ytick_6">
     <g id="line2d_10">
      <g>
       <use xlink:href="#mda540829dc" x="43.81125" y="38.049494" style="stroke: #000000; stroke-width: 0.8"/>
      </g>
     </g>
     <g id="text_10">
      <!-- 10 -->
      <g transform="translate(22.81375 42.228634) scale(0.11 -0.11)">
       <use xlink:href="#DejaVuSans-31"/>
       <use xlink:href="#DejaVuSans-30" x="63.623047"/>
      </g>
     </g>
    </g>
    <g id="text_11">
     <!-- MAE (per subject) -->
     <g transform="translate(16.318125 240.028937) rotate(-90) scale(0.12 -0.12)">
      <defs>
       <path id="DejaVuSans-4d" d="M 628 4666 
L 1569 4666 
L 2759 1491 
L 3956 4666 
L 4897 4666 
L 4897 0 
L 4281 0 
L 4281 4097 
L 3078 897 
L 2444 897 
L 1241 4097 
L 1241 0 
L 628 0 
L 628 4666 
z
" transform="scale(0.015625)"/>
       <path id="DejaVuSans-41" d="M 2188 4044 
L 1331 1722 
L 3047 1722 
L 2188 4044 
z
M 1831 4666 
L 2547 4666 
L 4325 0 
L 3669 0 
L 3244 1197 
L 1141 1197 
L 716 0 
L 50 0 
L 1831 4666 
z
" transform="scale(0.015625)"/>
       <path id="DejaVuSans-45" d="M 628 4666 
L 3578 4666 
L 3578 4134 
L 1259 4134 
L 1259 2753 
L 3481 2753 
L 3481 2222 
L 1259 2222 
L 1259 531 
L 3634 531 
L 3634 0 
L 628 0 
L 628 4666 
z
" transform="scale(0.015625)"/>
       <path id="DejaVuSans-20" transform="scale(0.015625)"/>
       <path id="DejaVuSans-70" d="M 1159 525 
L 1159 -1331 
L 581 -1331 
L 581 3500 
L 1159 3500 
L 1159 2969 
Q 1341 3281 1617 3432 
Q 1894 3584 2278 3584 
Q 2916 3584 3314 3078 
Q 3713 2572 3713 1747 
Q 3713 922 3314 415 
Q 2916 -91 2278 -91 
Q 1894 -91 1617 61 
Q 1341 213 1159 525 
z
M 3116 1747 
Q 3116 2381 2855 2742 
Q 2594 3103 2138 3103 
Q 1681 3103 1420 2742 
Q 1159 2381 1159 1747 
Q 1159 1113 1420 752 
Q 1681 391 2138 391 
Q 2594 391 2855 752 
Q 3116 1113 3116 1747 
z
" transform="scale(0.015625)"/>
       <path id="DejaVuSans-65" d="M 3597 1894 
L 3597 1613 
L 953 1613 
Q 991 1019 1311 708 
Q 1631 397 2203 397 
Q 2534 397 2845 478 
Q 3156 559 3463 722 
L 3463 178 
Q 3153 47 2828 -22 
Q 2503 -91 2169 -91 
Q 1331 -91 842 396 
Q 353 884 353 1716 
Q 353 2575 817 3079 
Q 1281 3584 2069 3584 
Q 2775 3584 3186 3129 
Q 3597 2675 3597 1894 
z
M 3022 2063 
Q 3016 2534 2758 2815 
Q 2500 3097 2075 3097 
Q 1594 3097 1305 2825 
Q 1016 2553 972 2059 
L 3022 2063 
z
" transform="scale(0.015625)"/>
       <path id="DejaVuSans-72" d="M 2631 2963 
Q 2534 3019 2420 3045 
Q 2306 3072 2169 3072 
Q 1681 3072 1420 2755 
Q 1159 2438 1159 1844 
L 1159 0 
L 581 0 
L 581 3500 
L 1159 3500 
L 1159 2956 
Q 1341 3275 1631 3429 
Q 1922 3584 2338 3584 
Q 2397 3584 2469 3576 
Q 2541 3569 2628 3553 
L 2631 2963 
z
" transform="scale(0.015625)"/>
       <path id="DejaVuSans-73" d="M 2834 3397 
L 2834 2853 
Q 2591 2978 2328 3040 
Q 2066 3103 1784 3103 
Q 1356 3103 1142 2972 
Q 928 2841 928 2578 
Q 928 2378 1081 2264 
Q 1234 2150 1697 2047 
L 1894 2003 
Q 2506 1872 2764 1633 
Q 3022 1394 3022 966 
Q 3022 478 2636 193 
Q 2250 -91 1575 -91 
Q 1294 -91 989 -36 
Q 684 19 347 128 
L 347 722 
Q 666 556 975 473 
Q 1284 391 1588 391 
Q 1994 391 2212 530 
Q 2431 669 2431 922 
Q 2431 1156 2273 1281 
Q 2116 1406 1581 1522 
L 1381 1569 
Q 847 1681 609 1914 
Q 372 2147 372 2553 
Q 372 3047 722 3315 
Q 1072 3584 1716 3584 
Q 2034 3584 2315 3537 
Q 2597 3491 2834 3397 
z
" transform="scale(0.015625)"/>
       <path id="DejaVuSans-75" d="M 544 1381 
L 544 3500 
L 1119 3500 
L 1119 1403 
Q 1119 906 1312 657 
Q 1506 409 1894 409 
Q 2359 409 2629 706 
Q 2900 1003 2900 1516 
L 2900 3500 
L 3475 3500 
L 3475 0 
L 2900 0 
L 2900 538 
Q 2691 219 2414 64 
Q 2138 -91 1772 -91 
Q 1169 -91 856 284 
Q 544 659 544 1381 
z
M 1991 3584 
L 1991 3584 
z
" transform="scale(0.015625)"/>
       <path id="DejaVuSans-62" d="M 3116 1747 
Q 3116 2381 2855 2742 
Q 2594 3103 2138 3103 
Q 1681 3103 1420 2742 
Q 1159 2381 1159 1747 
Q 1159 1113 1420 752 
Q 1681 391 2138 391 
Q 2594 391 2855 752 
Q 3116 1113 3116 1747 
z
M 1159 2969 
Q 1341 3281 1617 3432 
Q 1894 3584 2278 3584 
Q 2916 3584 3314 3078 
Q 3713 2572 3713 1747 
Q 3713 922 3314 415 
Q 2916 -91 2278 -91 
Q 1894 -91 1617 61 
Q 1341 213 1159 525 
L 1159 0 
L 581 0 
L 581 4863 
L 1159 4863 
L 1159 2969 
z
" transform="scale(0.015625)"/>
       <path id="DejaVuSans-6a" d="M 603 3500 
L 1178 3500 
L 1178 -63 
Q 1178 -731 923 -1031 
Q 669 -1331 103 -1331 
L -116 -1331 
L -116 -844 
L 38 -844 
Q 366 -844 484 -692 
Q 603 -541 603 -63 
L 603 3500 
z
M 603 4863 
L 1178 4863 
L 1178 4134 
L 603 4134 
L 603 4863 
z
" transform="scale(0.015625)"/>
       <path id="DejaVuSans-63" d="M 3122 3366 
L 3122 2828 
Q 2878 2963 2633 3030 
Q 2388 3097 2138 3097 
Q 1578 3097 1268 2742 
Q 959 2388 959 1747 
Q 959 1106 1268 751 
Q 1578 397 2138 397 
Q 2388 397 2633 464 
Q 2878 531 3122 666 
L 3122 134 
Q 2881 22 2623 -34 
Q 2366 -91 2075 -91 
Q 1284 -91 818 406 
Q 353 903 353 1747 
Q 353 2603 823 3093 
Q 1294 3584 2113 3584 
Q 2378 3584 2631 3529 
Q 2884 3475 3122 3366 
z
" transform="scale(0.015625)"/>
       <path id="DejaVuSans-74" d="M 1172 4494 
L 1172 3500 
L 2356 3500 
L 2356 3053 
L 1172 3053 
L 1172 1153 
Q 1172 725 1289 603 
Q 1406 481 1766 481 
L 2356 481 
L 2356 0 
L 1766 0 
Q 1100 0 847 248 
Q 594 497 594 1153 
L 594 3053 
L 172 3053 
L 172 3500 
L 594 3500 
L 594 4494 
L 1172 4494 
z
" transform="scale(0.015625)"/>
      </defs>
      <use xlink:href="#DejaVuSans-4d"/>
      <use xlink:href="#DejaVuSans-41" x="86.279297"/>
      <use xlink:href="#DejaVuSans-45" x="154.6875"/>
      <use xlink:href="#DejaVuSans-20" x="217.871094"/>
      <use xlink:href="#DejaVuSans-28" x="249.658203"/>
      <use xlink:href="#DejaVuSans-70" x="288.671875"/>
      <use xlink:href="#DejaVuSans-65" x="352.148438"/>
      <use xlink:href="#DejaVuSans-72" x="413.671875"/>
      <use xlink:href="#DejaVuSans-20" x="454.785156"/>
      <use xlink:href="#DejaVuSans-73" x="486.572266"/>
      <use xlink:href="#DejaVuSans-75" x="538.671875"/>
      <use xlink:href="#DejaVuSans-62" x="602.050781"/>
      <use xlink:href="#DejaVuSans-6a" x="665.527344"/>
      <use xlink:href="#DejaVuSans-65" x="693.310547"/>
      <use xlink:href="#DejaVuSans-63" x="754.833984"/>
      <use xlink:href="#DejaVuSans-74" x="809.814453"/>
      <use xlink:href="#DejaVuSans-29" x="849.023438"/>
     </g>
    </g>
   </g>
   <g id="LineCollection_1">
    <path d="M 79.176185 193.340564 
L 108.646964 193.340564 
" clip-path="url(#pabc522bf5c)" style="fill: none; stroke: #1f77b4; stroke-width: 1.5"/>
    <path d="M 197.059302 181.355838 
L 226.530081 181.355838 
" clip-path="url(#pabc522bf5c)" style="fill: none; stroke: #1f77b4; stroke-width: 1.5"/>
    <path d="M 314.942419 74.363836 
L 344.413198 74.363836 
" clip-path="url(#pabc522bf5c)" style="fill: none; stroke: #1f77b4; stroke-width: 1.5"/>
    <path d="M 432.825536 37.266125 
L 462.296315 37.266125 
" clip-path="url(#pabc522bf5c)" style="fill: none; stroke: #1f77b4; stroke-width: 1.5"/>
   </g>
   <g id="LineCollection_2">
    <path d="M 79.176185 335.505703 
L 108.646964 335.505703 
" clip-path="url(#pabc522bf5c)" style="fill: none; stroke: #1f77b4; stroke-width: 1.5"/>
    <path d="M 197.059302 336.000768 
L 226.530081 336.000768 
" clip-path="url(#pabc522bf5c)" style="fill: none; stroke: #1f77b4; stroke-width: 1.5"/>
    <path d="M 314.942419 336.226125 
L 344.413198 336.226125 
" clip-path="url(#pabc522bf5c)" style="fill: none; stroke: #1f77b4; stroke-width: 1.5"/>
    <path d="M 432.825536 329.994106 
L 462.296315 329.994106 
" clip-path="url(#pabc522bf5c)" style="fill: none; stroke: #1f77b4; stroke-width: 1.5"/>
   </g>
   <g id="LineCollection_3">
    <path d="M 93.911575 335.505703 
L 93.911575 193.340564 
" clip-path="url(#pabc522bf5c)" style="fill: none; stroke: #1f77b4; stroke-width: 1.5"/>
    <path d="M 211.794692 336.000768 
L 211.794692 181.355838 
" clip-path="url(#pabc522bf5c)" style="fill: none; stroke: #1f77b4; stroke-width: 1.5"/>
    <path d="M 329.677808 336.226125 
L 329.677808 74.363836 
" clip-path="url(#pabc522bf5c)" style="fill: none; stroke: #1f77b4; stroke-width: 1.5"/>
    <path d="M 447.560925 329.994106 
L 447.560925 37.266125 
" clip-path="url(#pabc522bf5c)" style="fill: none; stroke: #1f77b4; stroke-width: 1.5"/>
   </g>
   <g id="LineCollection_4">
    <path d="M 79.176185 302.655146 
L 108.646964 302.655146 
" clip-path="url(#pabc522bf5c)" style="fill: none; stroke: #000000; stroke-width: 2"/>
    <path d="M 197.059302 300.493252 
L 226.530081 300.493252 
" clip-path="url(#pabc522bf5c)" style="fill: none; stroke: #000000; stroke-width: 2"/>
    <path d="M 314.942419 285.300915 
L 344.413198 285.300915 
" clip-path="url(#pabc522bf5c)" style="fill: none; stroke: #000000; stroke-width: 2"/>
    <path d="M 432.825536 282.472555 
L 462.296315 282.472555 
" clip-path="url(#pabc522bf5c)" style="fill: none; stroke: #000000; stroke-width: 2"/>
   </g>
   <g id="patch_3">
    <path d="M 43.81125 351.174125 
L 43.81125 22.318125 
" style="fill: none; stroke: #000000; stroke-width: 0.8; stroke-linejoin: miter; stroke-linecap: square"/>
   </g>
   <g id="patch_4">
    <path d="M 43.81125 351.174125 
L 497.66125 351.174125 
" style="fill: none; stroke: #000000; stroke-width: 0.8; stroke-linejoin: miter; stroke-linecap: square"/>
   </g>
   <g id="text_12">
    <g id="patch_5">
     <path d="M 201.822266 42.694117 
L 339.650234 42.694117 
Q 341.450234 42.694117 341.450234 40.894117 
L 341.450234 32.183805 
Q 341.450234 30.383805 339.650234 30.383805 
L 201.822266 30.383805 
Q 200.022266 30.383805 200.022266 32.183805 
L 200.022266 40.894117 
Q 200.022266 42.694117 201.822266 42.694117 
z
" style="fill: #ffffe0; opacity: 0.8; stroke: #000000; stroke-linejoin: miter"/>
    </g>
    <!-- Kruskal-Wallis  p = 0.0000  *** -->
    <g transform="translate(201.822266 39.022399) scale(0.09 -0.09)">
     <defs>
      <path id="DejaVuSans-Oblique-4b" d="M 1081 4666 
L 1716 4666 
L 1331 2700 
L 3781 4666 
L 4622 4666 
L 1850 2438 
L 3878 0 
L 3109 0 
L 1247 2272 
L 806 0 
L 172 0 
L 1081 4666 
z
" transform="scale(0.015625)"/>
      <path id="DejaVuSans-Oblique-72" d="M 2853 2969 
Q 2766 3016 2653 3041 
Q 2541 3066 2413 3066 
Q 1953 3066 1609 2717 
Q 1266 2369 1153 1784 
L 800 0 
L 225 0 
L 909 3500 
L 1484 3500 
L 1375 2956 
Q 1603 3259 1920 3421 
Q 2238 3584 2597 3584 
Q 2691 3584 2781 3573 
Q 2872 3563 2963 3538 
L 2853 2969 
z
" transform="scale(0.015625)"/>
      <path id="DejaVuSans-Oblique-75" d="M 428 1388 
L 838 3500 
L 1416 3500 
L 1006 1409 
Q 975 1256 961 1147 
Q 947 1038 947 966 
Q 947 700 1109 554 
Q 1272 409 1569 409 
Q 2031 409 2368 721 
Q 2706 1034 2809 1563 
L 3194 3500 
L 3769 3500 
L 3091 0 
L 2516 0 
L 2631 550 
Q 2388 244 2052 76 
Q 1716 -91 1338 -91 
Q 878 -91 622 161 
Q 366 413 366 863 
Q 366 956 381 1097 
Q 397 1238 428 1388 
z
" transform="scale(0.015625)"/>
      <path id="DejaVuSans-Oblique-73" d="M 3200 3397 
L 3091 2853 
Q 2863 2978 2609 3040 
Q 2356 3103 2088 3103 
Q 1634 3103 1373 2948 
Q 1113 2794 1113 2528 
Q 1113 2219 1719 2053 
Q 1766 2041 1788 2034 
L 1972 1978 
Q 2547 1819 2739 1644 
Q 2931 1469 2931 1166 
Q 2931 609 2489 259 
Q 2047 -91 1331 -91 
Q 1053 -91 747 -37 
Q 441 16 72 128 
L 184 722 
Q 500 559 806 475 
Q 1113 391 1394 391 
Q 1816 391 2080 572 
Q 2344 753 2344 1031 
Q 2344 1331 1650 1516 
L 1591 1531 
L 1394 1581 
Q 956 1697 753 1886 
Q 550 2075 550 2369 
Q 550 2928 970 3256 
Q 1391 3584 2113 3584 
Q 2397 3584 2667 3537 
Q 2938 3491 3200 3397 
z
" transform="scale(0.015625)"/>
      <path id="DejaVuSans-Oblique-6b" d="M 1172 4863 
L 1747 4863 
L 1197 2028 
L 3169 3500 
L 3916 3500 
L 1716 1825 
L 3322 0 
L 2625 0 
L 1131 1709 
L 800 0 
L 225 0 
L 1172 4863 
z
" transform="scale(0.015625)"/>
      <path id="DejaVuSans-Oblique-61" d="M 3438 1997 
L 3047 0 
L 2472 0 
L 2578 531 
Q 2325 219 2001 64 
Q 1678 -91 1281 -91 
Q 834 -91 548 182 
Q 263 456 263 884 
Q 263 1497 752 1853 
Q 1241 2209 2100 2209 
L 2900 2209 
L 2931 2363 
Q 2938 2388 2941 2417 
Q 2944 2447 2944 2509 
Q 2944 2788 2717 2942 
Q 2491 3097 2081 3097 
Q 1800 3097 1504 3025 
Q 1209 2953 897 2809 
L 997 3341 
Q 1322 3463 1633 3523 
Q 1944 3584 2234 3584 
Q 2853 3584 3176 3315 
Q 3500 3047 3500 2534 
Q 3500 2431 3484 2292 
Q 3469 2153 3438 1997 
z
M 2816 1759 
L 2241 1759 
Q 1534 1759 1195 1570 
Q 856 1381 856 984 
Q 856 709 1029 553 
Q 1203 397 1509 397 
Q 1978 397 2328 733 
Q 2678 1069 2791 1631 
L 2816 1759 
z
" transform="scale(0.015625)"/>
      <path id="DejaVuSans-Oblique-6c" d="M 1172 4863 
L 1747 4863 
L 800 0 
L 225 0 
L 1172 4863 
z
" transform="scale(0.015625)"/>
      <path id="DejaVuSans-Oblique-2d" d="M 391 2009 
L 2075 2009 
L 1978 1497 
L 288 1497 
L 391 2009 
z
" transform="scale(0.015625)"/>
      <path id="DejaVuSans-Oblique-57" d="M 616 4666 
L 1228 4666 
L 1453 697 
L 3213 4666 
L 3916 4666 
L 4147 697 
L 5888 4666 
L 6528 4666 
L 4453 0 
L 3659 0 
L 3444 3891 
L 1697 0 
L 903 0 
L 616 4666 
z
" transform="scale(0.015625)"/>
      <path id="DejaVuSans-Oblique-69" d="M 1172 4863 
L 1747 4863 
L 1606 4134 
L 1031 4134 
L 1172 4863 
z
M 909 3500 
L 1484 3500 
L 800 0 
L 225 0 
L 909 3500 
z
" transform="scale(0.015625)"/>
      <path id="DejaVuSans-Oblique-20" transform="scale(0.015625)"/>
      <path id="DejaVuSans-Oblique-70" d="M 3175 2156 
Q 3175 2616 2975 2859 
Q 2775 3103 2400 3103 
Q 2144 3103 1911 2972 
Q 1678 2841 1497 2591 
Q 1319 2344 1212 1994 
Q 1106 1644 1106 1300 
Q 1106 863 1306 627 
Q 1506 391 1875 391 
Q 2147 391 2380 519 
Q 2613 647 2778 891 
Q 2956 1147 3065 1494 
Q 3175 1841 3175 2156 
z
M 1394 2969 
Q 1625 3272 1939 3428 
Q 2253 3584 2638 3584 
Q 3175 3584 3472 3232 
Q 3769 2881 3769 2247 
Q 3769 1728 3584 1258 
Q 3400 788 3053 416 
Q 2822 169 2531 39 
Q 2241 -91 1919 -91 
Q 1547 -91 1294 64 
Q 1041 219 916 525 
L 556 -1331 
L -19 -1331 
L 922 3500 
L 1497 3500 
L 1394 2969 
z
" transform="scale(0.015625)"/>
      <path id="DejaVuSans-Oblique-3d" d="M 678 2906 
L 4684 2906 
L 4684 2381 
L 678 2381 
L 678 2906 
z
M 678 1631 
L 4684 1631 
L 4684 1100 
L 678 1100 
L 678 1631 
z
" transform="scale(0.015625)"/>
      <path id="DejaVuSans-Oblique-30" d="M 2444 4750 
Q 3078 4750 3414 4328 
Q 3750 3906 3750 3116 
Q 3750 2516 3592 1923 
Q 3434 1331 3150 863 
Q 2859 394 2467 151 
Q 2075 -91 1600 -91 
Q 988 -91 653 334 
Q 319 759 319 1544 
Q 319 2138 480 2733 
Q 641 3328 928 3794 
Q 1216 4263 1602 4506 
Q 1988 4750 2444 4750 
z
M 2406 4250 
Q 2169 4250 1955 4123 
Q 1741 3997 1569 3750 
Q 1281 3338 1111 2720 
Q 941 2103 941 1453 
Q 941 938 1123 673 
Q 1306 409 1663 409 
Q 1913 409 2125 536 
Q 2338 663 2509 909 
Q 2794 1319 2961 1936 
Q 3128 2553 3128 3206 
Q 3128 3722 2945 3986 
Q 2763 4250 2406 4250 
z
" transform="scale(0.015625)"/>
      <path id="DejaVuSans-Oblique-2e" d="M 525 794 
L 1184 794 
L 1031 0 
L 372 0 
L 525 794 
z
" transform="scale(0.015625)"/>
      <path id="DejaVuSans-Oblique-2a" d="M 3009 3897 
L 1888 3291 
L 3009 2681 
L 2828 2375 
L 1778 3009 
L 1778 1831 
L 1422 1831 
L 1422 3009 
L 372 2375 
L 191 2681 
L 1313 3291 
L 191 3897 
L 372 4206 
L 1422 3572 
L 1422 4750 
L 1778 4750 
L 1778 3572 
L 2828 4206 
L 3009 3897 
z
" transform="scale(0.015625)"/>
     </defs>
     <use xlink:href="#DejaVuSans-Oblique-4b"/>
     <use xlink:href="#DejaVuSans-Oblique-72" x="65.576172"/>
     <use xlink:href="#DejaVuSans-Oblique-75" x="106.689453"/>
     <use xlink:href="#DejaVuSans-Oblique-73" x="170.068359"/>
     <use xlink:href="#DejaVuSans-Oblique-6b" x="222.167969"/>
     <use xlink:href="#DejaVuSans-Oblique-61" x="280.078125"/>
     <use xlink:href="#DejaVuSans-Oblique-6c" x="341.357422"/>
     <use xlink:href="#DejaVuSans-Oblique-2d" x="369.140625"/>
     <use xlink:href="#DejaVuSans-Oblique-57" x="403.474609"/>
     <use xlink:href="#DejaVuSans-Oblique-61" x="496.851562"/>
     <use xlink:href="#DejaVuSans-Oblique-6c" x="558.130859"/>
     <use xlink:href="#DejaVuSans-Oblique-6c" x="585.914062"/>
     <use xlink:href="#DejaVuSans-Oblique-69" x="613.697266"/>
     <use xlink:href="#DejaVuSans-Oblique-73" x="641.480469"/>
     <use xlink:href="#DejaVuSans-Oblique-20" x="693.580078"/>
     <use xlink:href="#DejaVuSans-Oblique-20" x="725.367188"/>
     <use xlink:href="#DejaVuSans-Oblique-70" x="757.154297"/>
     <use xlink:href="#DejaVuSans-Oblique-20" x="820.630859"/>
     <use xlink:href="#DejaVuSans-Oblique-3d" x="852.417969"/>
     <use xlink:href="#DejaVuSans-Oblique-20" x="936.207031"/>
     <use xlink:href="#DejaVuSans-Oblique-30" x="967.994141"/>
     <use xlink:href="#DejaVuSans-Oblique-2e" x="1031.617188"/>
     <use xlink:href="#DejaVuSans-Oblique-30" x="1063.404297"/>
     <use xlink:href="#DejaVuSans-Oblique-30" x="1127.027344"/>
     <use xlink:href="#DejaVuSans-Oblique-30" x="1190.650391"/>
     <use xlink:href="#DejaVuSans-Oblique-30" x="1254.273438"/>
     <use xlink:href="#DejaVuSans-Oblique-20" x="1317.896484"/>
     <use xlink:href="#DejaVuSans-Oblique-20" x="1349.683594"/>
     <use xlink:href="#DejaVuSans-Oblique-2a" x="1381.470703"/>
     <use xlink:href="#DejaVuSans-Oblique-2a" x="1431.470703"/>
     <use xlink:href="#DejaVuSans-Oblique-2a" x="1481.470703"/>
    </g>
   </g>
   <g id="text_13">
    <!-- SPARE-BA — Prediction Error by Age Group -->
    <g transform="translate(142.3625 16.318125) scale(0.12 -0.12)">
     <defs>
      <path id="DejaVuSans-53" d="M 3425 4513 
L 3425 3897 
Q 3066 4069 2747 4153 
Q 2428 4238 2131 4238 
Q 1616 4238 1336 4038 
Q 1056 3838 1056 3469 
Q 1056 3159 1242 3001 
Q 1428 2844 1947 2747 
L 2328 2669 
Q 3034 2534 3370 2195 
Q 3706 1856 3706 1288 
Q 3706 609 3251 259 
Q 2797 -91 1919 -91 
Q 1588 -91 1214 -16 
Q 841 59 441 206 
L 441 856 
Q 825 641 1194 531 
Q 1563 422 1919 422 
Q 2459 422 2753 634 
Q 3047 847 3047 1241 
Q 3047 1584 2836 1778 
Q 2625 1972 2144 2069 
L 1759 2144 
Q 1053 2284 737 2584 
Q 422 2884 422 3419 
Q 422 4038 858 4394 
Q 1294 4750 2059 4750 
Q 2388 4750 2728 4690 
Q 3069 4631 3425 4513 
z
" transform="scale(0.015625)"/>
      <path id="DejaVuSans-50" d="M 1259 4147 
L 1259 2394 
L 2053 2394 
Q 2494 2394 2734 2622 
Q 2975 2850 2975 3272 
Q 2975 3691 2734 3919 
Q 2494 4147 2053 4147 
L 1259 4147 
z
M 628 4666 
L 2053 4666 
Q 2838 4666 3239 4311 
Q 3641 3956 3641 3272 
Q 3641 2581 3239 2228 
Q 2838 1875 2053 1875 
L 1259 1875 
L 1259 0 
L 628 0 
L 628 4666 
z
" transform="scale(0.015625)"/>
      <path id="DejaVuSans-52" d="M 2841 2188 
Q 3044 2119 3236 1894 
Q 3428 1669 3622 1275 
L 4263 0 
L 3584 0 
L 2988 1197 
Q 2756 1666 2539 1819 
Q 2322 1972 1947 1972 
L 1259 1972 
L 1259 0 
L 628 0 
L 628 4666 
L 2053 4666 
Q 2853 4666 3247 4331 
Q 3641 3997 3641 3322 
Q 3641 2881 3436 2590 
Q 3231 2300 2841 2188 
z
M 1259 4147 
L 1259 2491 
L 2053 2491 
Q 2509 2491 2742 2702 
Q 2975 2913 2975 3322 
Q 2975 3731 2742 3939 
Q 2509 4147 2053 4147 
L 1259 4147 
z
" transform="scale(0.015625)"/>
      <path id="DejaVuSans-42" d="M 1259 2228 
L 1259 519 
L 2272 519 
Q 2781 519 3026 730 
Q 3272 941 3272 1375 
Q 3272 1813 3026 2020 
Q 2781 2228 2272 2228 
L 1259 2228 
z
M 1259 4147 
L 1259 2741 
L 2194 2741 
Q 2656 2741 2882 2914 
Q 3109 3088 3109 3444 
Q 3109 3797 2882 3972 
Q 2656 4147 2194 4147 
L 1259 4147 
z
M 628 4666 
L 2241 4666 
Q 2963 4666 3353 4366 
Q 3744 4066 3744 3513 
Q 3744 3084 3544 2831 
Q 3344 2578 2956 2516 
Q 3422 2416 3680 2098 
Q 3938 1781 3938 1306 
Q 3938 681 3513 340 
Q 3088 0 2303 0 
L 628 0 
L 628 4666 
z
" transform="scale(0.015625)"/>
      <path id="DejaVuSans-2014" d="M 313 1978 
L 6088 1978 
L 6088 1528 
L 313 1528 
L 313 1978 
z
" transform="scale(0.015625)"/>
      <path id="DejaVuSans-64" d="M 2906 2969 
L 2906 4863 
L 3481 4863 
L 3481 0 
L 2906 0 
L 2906 525 
Q 2725 213 2448 61 
Q 2172 -91 1784 -91 
Q 1150 -91 751 415 
Q 353 922 353 1747 
Q 353 2572 751 3078 
Q 1150 3584 1784 3584 
Q 2172 3584 2448 3432 
Q 2725 3281 2906 2969 
z
M 947 1747 
Q 947 1113 1208 752 
Q 1469 391 1925 391 
Q 2381 391 2643 752 
Q 2906 1113 2906 1747 
Q 2906 2381 2643 2742 
Q 2381 3103 1925 3103 
Q 1469 3103 1208 2742 
Q 947 2381 947 1747 
z
" transform="scale(0.015625)"/>
      <path id="DejaVuSans-69" d="M 603 3500 
L 1178 3500 
L 1178 0 
L 603 0 
L 603 3500 
z
M 603 4863 
L 1178 4863 
L 1178 4134 
L 603 4134 
L 603 4863 
z
" transform="scale(0.015625)"/>
      <path id="DejaVuSans-6f" d="M 1959 3097 
Q 1497 3097 1228 2736 
Q 959 2375 959 1747 
Q 959 1119 1226 758 
Q 1494 397 1959 397 
Q 2419 397 2687 759 
Q 2956 1122 2956 1747 
Q 2956 2369 2687 2733 
Q 2419 3097 1959 3097 
z
M 1959 3584 
Q 2709 3584 3137 3096 
Q 3566 2609 3566 1747 
Q 3566 888 3137 398 
Q 2709 -91 1959 -91 
Q 1206 -91 779 398 
Q 353 888 353 1747 
Q 353 2609 779 3096 
Q 1206 3584 1959 3584 
z
" transform="scale(0.015625)"/>
      <path id="DejaVuSans-79" d="M 2059 -325 
Q 1816 -950 1584 -1140 
Q 1353 -1331 966 -1331 
L 506 -1331 
L 506 -850 
L 844 -850 
Q 1081 -850 1212 -737 
Q 1344 -625 1503 -206 
L 1606 56 
L 191 3500 
L 800 3500 
L 1894 763 
L 2988 3500 
L 3597 3500 
L 2059 -325 
z
" transform="scale(0.015625)"/>
      <path id="DejaVuSans-67" d="M 2906 1791 
Q 2906 2416 2648 2759 
Q 2391 3103 1925 3103 
Q 1463 3103 1205 2759 
Q 947 2416 947 1791 
Q 947 1169 1205 825 
Q 1463 481 1925 481 
Q 2391 481 2648 825 
Q 2906 1169 2906 1791 
z
M 3481 434 
Q 3481 -459 3084 -895 
Q 2688 -1331 1869 -1331 
Q 1566 -1331 1297 -1286 
Q 1028 -1241 775 -1147 
L 775 -588 
Q 1028 -725 1275 -790 
Q 1522 -856 1778 -856 
Q 2344 -856 2625 -561 
Q 2906 -266 2906 331 
L 2906 616 
Q 2728 306 2450 153 
Q 2172 0 1784 0 
Q 1141 0 747 490 
Q 353 981 353 1791 
Q 353 2603 747 3093 
Q 1141 3584 1784 3584 
Q 2172 3584 2450 3431 
Q 2728 3278 2906 2969 
L 2906 3500 
L 3481 3500 
L 3481 434 
z
" transform="scale(0.015625)"/>
      <path id="DejaVuSans-47" d="M 3809 666 
L 3809 1919 
L 2778 1919 
L 2778 2438 
L 4434 2438 
L 4434 434 
Q 4069 175 3628 42 
Q 3188 -91 2688 -91 
Q 1594 -91 976 548 
Q 359 1188 359 2328 
Q 359 3472 976 4111 
Q 1594 4750 2688 4750 
Q 3144 4750 3555 4637 
Q 3966 4525 4313 4306 
L 4313 3634 
Q 3963 3931 3569 4081 
Q 3175 4231 2741 4231 
Q 1884 4231 1454 3753 
Q 1025 3275 1025 2328 
Q 1025 1384 1454 906 
Q 1884 428 2741 428 
Q 3075 428 3337 486 
Q 3600 544 3809 666 
z
" transform="scale(0.015625)"/>
     </defs>
     <use xlink:href="#DejaVuSans-53"/>
     <use xlink:href="#DejaVuSans-50" x="63.476562"/>
     <use xlink:href="#DejaVuSans-41" x="117.404297"/>
     <use xlink:href="#DejaVuSans-52" x="185.8125"/>
     <use xlink:href="#DejaVuSans-45" x="255.294922"/>
     <use xlink:href="#DejaVuSans-2d" x="318.478516"/>
     <use xlink:href="#DejaVuSans-42" x="350.9375"/>
     <use xlink:href="#DejaVuSans-41" x="419.541016"/>
     <use xlink:href="#DejaVuSans-20" x="487.949219"/>
     <use xlink:href="#DejaVuSans-2014" x="519.736328"/>
     <use xlink:href="#DejaVuSans-20" x="619.736328"/>
     <use xlink:href="#DejaVuSans-50" x="651.523438"/>
     <use xlink:href="#DejaVuSans-72" x="710.076172"/>
     <use xlink:href="#DejaVuSans-65" x="748.939453"/>
     <use xlink:href="#DejaVuSans-64" x="810.462891"/>
     <use xlink:href="#DejaVuSans-69" x="873.939453"/>
     <use xlink:href="#DejaVuSans-63" x="901.722656"/>
     <use xlink:href="#DejaVuSans-74" x="956.703125"/>
     <use xlink:href="#DejaVuSans-69" x="995.912109"/>
     <use xlink:href="#DejaVuSans-6f" x="1023.695312"/>
     <use xlink:href="#DejaVuSans-6e" x="1084.876953"/>
     <use xlink:href="#DejaVuSans-20" x="1148.255859"/>
     <use xlink:href="#DejaVuSans-45" x="1180.042969"/>
     <use xlink:href="#DejaVuSans-72" x="1243.226562"/>
     <use xlink:href="#DejaVuSans-72" x="1282.589844"/>
     <use xlink:href="#DejaVuSans-6f" x="1321.453125"/>
     <use xlink:href="#DejaVuSans-72" x="1382.634766"/>
     <use xlink:href="#DejaVuSans-20" x="1423.748047"/>
     <use xlink:href="#DejaVuSans-62" x="1455.535156"/>
     <use xlink:href="#DejaVuSans-79" x="1519.011719"/>
     <use xlink:href="#DejaVuSans-20" x="1578.191406"/>
     <use xlink:href="#DejaVuSans-41" x="1609.978516"/>
     <use xlink:href="#DejaVuSans-67" x="1678.386719"/>
     <use xlink:href="#DejaVuSans-65" x="1741.863281"/>
     <use xlink:href="#DejaVuSans-20" x="1803.386719"/>
     <use xlink:href="#DejaVuSans-47" x="1835.173828"/>
     <use xlink:href="#DejaVuSans-72" x="1912.664062"/>
     <use xlink:href="#DejaVuSans-6f" x="1951.527344"/>
     <use xlink:href="#DejaVuSans-75" x="2012.708984"/>
     <use xlink:href="#DejaVuSans-70" x="2076.087891"/>
    </g>
   </g>
  </g>
  <g id="axes_2">
   <g id="patch_6">
    <path d="M 538.36125 351.174125 
L 992.21125 351.174125 
L 992.21125 22.318125 
L 538.36125 22.318125 
z
" style="fill: #ffffff"/>
   </g>
   <g id="patch_7">
    <path d="M 558.990795 351.174125 
L 598.019665 351.174125 
L 598.019665 267.128762 
L 558.990795 267.128762 
z
" clip-path="url(#p1148c33c5c)" style="fill: #2166ac; opacity: 0.8"/>
   </g>
   <g id="patch_8">
    <path d="M 670.501852 351.174125 
L 709.530722 351.174125 
L 709.530722 260.189727 
L 670.501852 260.189727 
z
" clip-path="url(#p1148c33c5c)" style="fill: #4dac26; opacity: 0.8"/>
   </g>
   <g id="patch_9">
    <path d="M 782.012908 351.174125 
L 821.041778 351.174125 
L 821.041778 223.864225 
L 782.012908 223.864225 
z
" clip-path="url(#p1148c33c5c)" style="fill: #d6604d; opacity: 0.8"/>
   </g>
   <g id="patch_10">
    <path d="M 893.523965 351.174125 
L 932.552835 351.174125 
L 932.552835 216.04457 
L 893.523965 216.04457 
z
" clip-path="url(#p1148c33c5c)" style="fill: #762a83; opacity: 0.8"/>
   </g>
   <g id="patch_11">
    <path d="M 598.019665 351.174125 
L 637.048535 351.174125 
L 637.048535 239.143971 
L 598.019665 239.143971 
z
" clip-path="url(#p1148c33c5c)" style="fill: url(#hafbc1c00b9); opacity: 0.45"/>
   </g>
   <g id="patch_12">
    <path d="M 709.530722 351.174125 
L 748.559592 351.174125 
L 748.559592 231.932168 
L 709.530722 231.932168 
z
" clip-path="url(#p1148c33c5c)" style="fill: url(#h1f7753218d); opacity: 0.45"/>
   </g>
   <g id="patch_13">
    <path d="M 821.041778 351.174125 
L 860.070648 351.174125 
L 860.070648 183.7103 
L 821.041778 183.7103 
z
" clip-path="url(#p1148c33c5c)" style="fill: url(#hf9092d583c); opacity: 0.45"/>
   </g>
   <g id="patch_14">
    <path d="M 932.552835 351.174125 
L 971.581705 351.174125 
L 971.581705 172.287681 
L 932.552835 172.287681 
z
" clip-path="url(#p1148c33c5c)" style="fill: url(#hc959b7b499); opacity: 0.45"/>
   </g>
   <g id="matplotlib.axis_3">
    <g id="xtick_5">
     <g id="line2d_11">
      <g>
       <use xlink:href="#m98a48fe548" x="598.019665" y="351.174125" style="stroke: #000000; stroke-width: 0.8"/>
      </g>
     </g>
     <g id="text_14">
      <!-- &lt;60 -->
      <g transform="translate(587.467321 365.772562) scale(0.1 -0.1)">
       <use xlink:href="#DejaVuSans-3c"/>
       <use xlink:href="#DejaVuSans-36" x="83.789062"/>
       <use xlink:href="#DejaVuSans-30" x="147.412109"/>
      </g>
      <!-- (n=230) -->
      <g transform="translate(577.215759 376.970375) scale(0.1 -0.1)">
       <use xlink:href="#DejaVuSans-28"/>
       <use xlink:href="#DejaVuSans-6e" x="39.013672"/>
       <use xlink:href="#DejaVuSans-3d" x="102.392578"/>
       <use xlink:href="#DejaVuSans-32" x="186.181641"/>
       <use xlink:href="#DejaVuSans-33" x="249.804688"/>
       <use xlink:href="#DejaVuSans-30" x="313.427734"/>
       <use xlink:href="#DejaVuSans-29" x="377.050781"/>
      </g>
     </g>
    </g>
    <g id="xtick_6">
     <g id="line2d_12">
      <g>
       <use xlink:href="#m98a48fe548" x="709.530722" y="351.174125" style="stroke: #000000; stroke-width: 0.8"/>
      </g>
     </g>
     <g id="text_15">
      <!-- 60-70 -->
      <g transform="translate(695.001815 365.772562) scale(0.1 -0.1)">
       <use xlink:href="#DejaVuSans-36"/>
       <use xlink:href="#DejaVuSans-30" x="63.623047"/>
       <use xlink:href="#DejaVuSans-2d" x="127.246094"/>
       <use xlink:href="#DejaVuSans-37" x="163.330078"/>
       <use xlink:href="#DejaVuSans-30" x="226.953125"/>
      </g>
      <!-- (n=285) -->
      <g transform="translate(688.726815 376.970375) scale(0.1 -0.1)">
       <use xlink:href="#DejaVuSans-28"/>
       <use xlink:href="#DejaVuSans-6e" x="39.013672"/>
       <use xlink:href="#DejaVuSans-3d" x="102.392578"/>
       <use xlink:href="#DejaVuSans-32" x="186.181641"/>
       <use xlink:href="#DejaVuSans-38" x="249.804688"/>
       <use xlink:href="#DejaVuSans-35" x="313.427734"/>
       <use xlink:href="#DejaVuSans-29" x="377.050781"/>
      </g>
     </g>
    </g>
    <g id="xtick_7">
     <g id="line2d_13">
      <g>
       <use xlink:href="#m98a48fe548" x="821.041778" y="351.174125" style="stroke: #000000; stroke-width: 0.8"/>
      </g>
     </g>
     <g id="text_16">
      <!-- 70-80 -->
      <g transform="translate(806.512872 365.772562) scale(0.1 -0.1)">
       <use xlink:href="#DejaVuSans-37"/>
       <use xlink:href="#DejaVuSans-30" x="63.623047"/>
       <use xlink:href="#DejaVuSans-2d" x="127.246094"/>
       <use xlink:href="#DejaVuSans-38" x="163.330078"/>
       <use xlink:href="#DejaVuSans-30" x="226.953125"/>
      </g>
      <!-- (n=215) -->
      <g transform="translate(800.237872 376.970375) scale(0.1 -0.1)">
       <use xlink:href="#DejaVuSans-28"/>
       <use xlink:href="#DejaVuSans-6e" x="39.013672"/>
       <use xlink:href="#DejaVuSans-3d" x="102.392578"/>
       <use xlink:href="#DejaVuSans-32" x="186.181641"/>
       <use xlink:href="#DejaVuSans-31" x="249.804688"/>
       <use xlink:href="#DejaVuSans-35" x="313.427734"/>
       <use xlink:href="#DejaVuSans-29" x="377.050781"/>
      </g>
     </g>
    </g>
    <g id="xtick_8">
     <g id="line2d_14">
      <g>
       <use xlink:href="#m98a48fe548" x="932.552835" y="351.174125" style="stroke: #000000; stroke-width: 0.8"/>
      </g>
     </g>
     <g id="text_17">
      <!-- &gt;=80 -->
      <g transform="translate(917.810647 365.772562) scale(0.1 -0.1)">
       <use xlink:href="#DejaVuSans-3e"/>
       <use xlink:href="#DejaVuSans-3d" x="83.789062"/>
       <use xlink:href="#DejaVuSans-38" x="167.578125"/>
       <use xlink:href="#DejaVuSans-30" x="231.201172"/>
      </g>
      <!-- (n=50) -->
      <g transform="translate(914.930179 376.970375) scale(0.1 -0.1)">
       <use xlink:href="#DejaVuSans-28"/>
       <use xlink:href="#DejaVuSans-6e" x="39.013672"/>
       <use xlink:href="#DejaVuSans-3d" x="102.392578"/>
       <use xlink:href="#DejaVuSans-35" x="186.181641"/>
       <use xlink:href="#DejaVuSans-30" x="249.804688"/>
       <use xlink:href="#DejaVuSans-29" x="313.427734"/>
      </g>
     </g>
    </g>
   </g>
   <g id="matplotlib.axis_4">
    <g id="ytick_7">
     <g id="line2d_15">
      <g>
       <use xlink:href="#mda540829dc" x="538.36125" y="351.174125" style="stroke: #000000; stroke-width: 0.8"/>
      </g>
     </g>
     <g id="text_18">
      <!-- 0 -->
      <g transform="translate(524.3625 355.353266) scale(0.11 -0.11)">
       <use xlink:href="#DejaVuSans-30"/>
      </g>
     </g>
    </g>
    <g id="ytick_8">
     <g id="line2d_16">
      <g>
       <use xlink:href="#mda540829dc" x="538.36125" y="290.010854" style="stroke: #000000; stroke-width: 0.8"/>
      </g>
     </g>
     <g id="text_19">
      <!-- 1 -->
      <g transform="translate(524.3625 294.189995) scale(0.11 -0.11)">
       <use xlink:href="#DejaVuSans-31"/>
      </g>
     </g>
    </g>
    <g id="ytick_9">
     <g id="line2d_17">
      <g>
       <use xlink:href="#mda540829dc" x="538.36125" y="228.847583" style="stroke: #000000; stroke-width: 0.8"/>
      </g>
     </g>
     <g id="text_20">
      <!-- 2 -->
      <g transform="translate(524.3625 233.026724) scale(0.11 -0.11)">
       <use xlink:href="#DejaVuSans-32"/>
      </g>
     </g>
    </g>
    <g id="ytick_10">
     <g id="line2d_18">
      <g>
       <use xlink:href="#mda540829dc" x="538.36125" y="167.684312" style="stroke: #000000; stroke-width: 0.8"/>
      </g>
     </g>
     <g id="text_21">
      <!-- 3 -->
      <g transform="translate(524.3625 171.863452) scale(0.11 -0.11)">
       <use xlink:href="#DejaVuSans-33"/>
      </g>
     </g>
    </g>
    <g id="ytick_11">
     <g id="line2d_19">
      <g>
       <use xlink:href="#mda540829dc" x="538.36125" y="106.521041" style="stroke: #000000; stroke-width: 0.8"/>
      </g>
     </g>
     <g id="text_22">
      <!-- 4 -->
      <g transform="translate(524.3625 110.700181) scale(0.11 -0.11)">
       <use xlink:href="#DejaVuSans-34"/>
      </g>
     </g>
    </g>
    <g id="ytick_12">
     <g id="line2d_20">
      <g>
       <use xlink:href="#mda540829dc" x="538.36125" y="45.35777" style="stroke: #000000; stroke-width: 0.8"/>
      </g>
     </g>
     <g id="text_23">
      <!-- 5 -->
      <g transform="translate(524.3625 49.53691) scale(0.11 -0.11)">
       <use xlink:href="#DejaVuSans-35"/>
      </g>
     </g>
    </g>
    <g id="text_24">
     <!-- Error -->
     <g transform="translate(517.866875 201.368312) rotate(-90) scale(0.12 -0.12)">
      <use xlink:href="#DejaVuSans-45"/>
      <use xlink:href="#DejaVuSans-72" x="63.183594"/>
      <use xlink:href="#DejaVuSans-72" x="102.546875"/>
      <use xlink:href="#DejaVuSans-6f" x="141.410156"/>
      <use xlink:href="#DejaVuSans-72" x="202.591797"/>
     </g>
    </g>
   </g>
   <g id="LineCollection_5">
    <path d="M 578.50523 329.225359 
L 578.50523 205.032165 
" clip-path="url(#p1148c33c5c)" style="fill: none; stroke: #000000; stroke-width: 1.5"/>
    <path d="M 690.016287 326.406016 
L 690.016287 193.973438 
" clip-path="url(#p1148c33c5c)" style="fill: none; stroke: #000000; stroke-width: 1.5"/>
    <path d="M 801.527343 324.569092 
L 801.527343 123.159357 
" clip-path="url(#p1148c33c5c)" style="fill: none; stroke: #000000; stroke-width: 1.5"/>
    <path d="M 913.0384 318.421249 
L 913.0384 113.667891 
" clip-path="url(#p1148c33c5c)" style="fill: none; stroke: #000000; stroke-width: 1.5"/>
   </g>
   <g id="line2d_21">
    <defs>
     <path id="m7629c0b520" d="M 5 0 
L -5 -0 
" style="stroke: #000000"/>
    </defs>
    <g clip-path="url(#p1148c33c5c)">
     <use xlink:href="#m7629c0b520" x="578.50523" y="329.225359" style="stroke: #000000"/>
     <use xlink:href="#m7629c0b520" x="690.016287" y="326.406016" style="stroke: #000000"/>
     <use xlink:href="#m7629c0b520" x="801.527343" y="324.569092" style="stroke: #000000"/>
     <use xlink:href="#m7629c0b520" x="913.0384" y="318.421249" style="stroke: #000000"/>
    </g>
   </g>
   <g id="line2d_22">
    <g clip-path="url(#p1148c33c5c)">
     <use xlink:href="#m7629c0b520" x="578.50523" y="205.032165" style="stroke: #000000"/>
     <use xlink:href="#m7629c0b520" x="690.016287" y="193.973438" style="stroke: #000000"/>
     <use xlink:href="#m7629c0b520" x="801.527343" y="123.159357" style="stroke: #000000"/>
     <use xlink:href="#m7629c0b520" x="913.0384" y="113.667891" style="stroke: #000000"/>
    </g>
   </g>
   <g id="LineCollection_6">
    <path d="M 617.5341 324.28894 
L 617.5341 153.999003 
" clip-path="url(#p1148c33c5c)" style="fill: none; stroke: #000000; stroke-width: 1.5"/>
    <path d="M 729.045157 321.786009 
L 729.045157 142.078328 
" clip-path="url(#p1148c33c5c)" style="fill: none; stroke: #000000; stroke-width: 1.5"/>
    <path d="M 840.556213 321.842128 
L 840.556213 45.578472 
" clip-path="url(#p1148c33c5c)" style="fill: none; stroke: #000000; stroke-width: 1.5"/>
    <path d="M 952.06727 306.597427 
L 952.06727 37.977935 
" clip-path="url(#p1148c33c5c)" style="fill: none; stroke: #000000; stroke-width: 1.5"/>
   </g>
   <g id="line2d_23">
    <g clip-path="url(#p1148c33c5c)">
     <use xlink:href="#m7629c0b520" x="617.5341" y="324.28894" style="stroke: #000000"/>
     <use xlink:href="#m7629c0b520" x="729.045157" y="321.786009" style="stroke: #000000"/>
     <use xlink:href="#m7629c0b520" x="840.556213" y="321.842128" style="stroke: #000000"/>
     <use xlink:href="#m7629c0b520" x="952.06727" y="306.597427" style="stroke: #000000"/>
    </g>
   </g>
   <g id="line2d_24">
    <g clip-path="url(#p1148c33c5c)">
     <use xlink:href="#m7629c0b520" x="617.5341" y="153.999003" style="stroke: #000000"/>
     <use xlink:href="#m7629c0b520" x="729.045157" y="142.078328" style="stroke: #000000"/>
     <use xlink:href="#m7629c0b520" x="840.556213" y="45.578472" style="stroke: #000000"/>
     <use xlink:href="#m7629c0b520" x="952.06727" y="37.977935" style="stroke: #000000"/>
    </g>
   </g>
   <g id="patch_15">
    <path d="M 538.36125 351.174125 
L 538.36125 22.318125 
" style="fill: none; stroke: #000000; stroke-width: 0.8; stroke-linejoin: miter; stroke-linecap: square"/>
   </g>
   <g id="patch_16">
    <path d="M 538.36125 351.174125 
L 992.21125 351.174125 
" style="fill: none; stroke: #000000; stroke-width: 0.8; stroke-linejoin: miter; stroke-linecap: square"/>
   </g>
   <g id="text_25">
    <!-- SPARE-BA — MAE &amp; RMSE by Age Group -->
    <g transform="translate(644.734062 16.318125) scale(0.12 -0.12)">
     <defs>
      <path id="DejaVuSans-26" d="M 1556 2509 
Q 1272 2256 1139 2004 
Q 1006 1753 1006 1478 
Q 1006 1022 1337 719 
Q 1669 416 2169 416 
Q 2466 416 2725 514 
Q 2984 613 3213 813 
L 1556 2509 
z
M 1997 2859 
L 3584 1234 
Q 3769 1513 3872 1830 
Q 3975 2147 3994 2503 
L 4575 2503 
Q 4538 2091 4375 1687 
Q 4213 1284 3922 891 
L 4794 0 
L 4006 0 
L 3559 459 
Q 3234 181 2878 45 
Q 2522 -91 2113 -91 
Q 1359 -91 881 339 
Q 403 769 403 1441 
Q 403 1841 612 2192 
Q 822 2544 1241 2853 
Q 1091 3050 1012 3245 
Q 934 3441 934 3628 
Q 934 4134 1281 4442 
Q 1628 4750 2203 4750 
Q 2463 4750 2720 4694 
Q 2978 4638 3244 4525 
L 3244 3956 
Q 2972 4103 2725 4179 
Q 2478 4256 2266 4256 
Q 1938 4256 1733 4082 
Q 1528 3909 1528 3634 
Q 1528 3475 1620 3314 
Q 1713 3153 1997 2859 
z
" transform="scale(0.015625)"/>
     </defs>
     <use xlink:href="#DejaVuSans-53"/>
     <use xlink:href="#DejaVuSans-50" x="63.476562"/>
     <use xlink:href="#DejaVuSans-41" x="117.404297"/>
     <use xlink:href="#DejaVuSans-52" x="185.8125"/>
     <use xlink:href="#DejaVuSans-45" x="255.294922"/>
     <use xlink:href="#DejaVuSans-2d" x="318.478516"/>
     <use xlink:href="#DejaVuSans-42" x="350.9375"/>
     <use xlink:href="#DejaVuSans-41" x="419.541016"/>
     <use xlink:href="#DejaVuSans-20" x="487.949219"/>
     <use xlink:href="#DejaVuSans-2014" x="519.736328"/>
     <use xlink:href="#DejaVuSans-20" x="619.736328"/>
     <use xlink:href="#DejaVuSans-4d" x="651.523438"/>
     <use xlink:href="#DejaVuSans-41" x="737.802734"/>
     <use xlink:href="#DejaVuSans-45" x="806.210938"/>
     <use xlink:href="#DejaVuSans-20" x="869.394531"/>
     <use xlink:href="#DejaVuSans-26" x="901.181641"/>
     <use xlink:href="#DejaVuSans-20" x="979.160156"/>
     <use xlink:href="#DejaVuSans-52" x="1010.947266"/>
     <use xlink:href="#DejaVuSans-4d" x="1080.429688"/>
     <use xlink:href="#DejaVuSans-53" x="1166.708984"/>
     <use xlink:href="#DejaVuSans-45" x="1230.185547"/>
     <use xlink:href="#DejaVuSans-20" x="1293.369141"/>
     <use xlink:href="#DejaVuSans-62" x="1325.15625"/>
     <use xlink:href="#DejaVuSans-79" x="1388.632812"/>
     <use xlink:href="#DejaVuSans-20" x="1447.8125"/>
     <use xlink:href="#DejaVuSans-41" x="1479.599609"/>
     <use xlink:href="#DejaVuSans-67" x="1548.007812"/>
     <use xlink:href="#DejaVuSans-65" x="1611.484375"/>
     <use xlink:href="#DejaVuSans-20" x="1673.007812"/>
     <use xlink:href="#DejaVuSans-47" x="1704.794922"/>
     <use xlink:href="#DejaVuSans-72" x="1782.285156"/>
     <use xlink:href="#DejaVuSans-6f" x="1821.148438"/>
     <use xlink:href="#DejaVuSans-75" x="1882.330078"/>
     <use xlink:href="#DejaVuSans-70" x="1945.708984"/>
    </g>
   </g>
   <g id="legend_1">
    <g id="patch_17">
     <path d="M 545.36125 59.674375 
L 605.605 59.674375 
Q 607.605 59.674375 607.605 57.674375 
L 607.605 29.318125 
Q 607.605 27.318125 605.605 27.318125 
L 545.36125 27.318125 
Q 543.36125 27.318125 543.36125 29.318125 
L 543.36125 57.674375 
Q 543.36125 59.674375 545.36125 59.674375 
z
" style="fill: #ffffff; opacity: 0.8; stroke: #cccccc; stroke-linejoin: miter"/>
    </g>
    <g id="patch_18">
     <path d="M 547.36125 38.916562 
L 567.36125 38.916562 
L 567.36125 31.916562 
L 547.36125 31.916562 
z
" style="fill: #2166ac; opacity: 0.8"/>
    </g>
    <g id="text_26">
     <!-- MAE -->
     <g transform="translate(575.36125 38.916562) scale(0.1 -0.1)">
      <use xlink:href="#DejaVuSans-4d"/>
      <use xlink:href="#DejaVuSans-41" x="86.279297"/>
      <use xlink:href="#DejaVuSans-45" x="154.6875"/>
     </g>
    </g>
    <g id="patch_19">
     <path d="M 547.36125 53.594687 
L 567.36125 53.594687 
L 567.36125 46.594687 
L 547.36125 46.594687 
z
" style="fill: url(#hafbc1c00b9); opacity: 0.45"/>
    </g>
    <g id="text_27">
     <!-- RMSE -->
     <g transform="translate(575.36125 53.594687) scale(0.1 -0.1)">
      <use xlink:href="#DejaVuSans-52"/>
      <use xlink:href="#DejaVuSans-4d" x="69.482422"/>
      <use xlink:href="#DejaVuSans-53" x="155.761719"/>
      <use xlink:href="#DejaVuSans-45" x="219.238281"/>
     </g>
    </g>
   </g>
  </g>
 </g>
 <defs>
  <clipPath id="pabc522bf5c">
   <rect x="43.81125" y="22.318125" width="453.85" height="328.856"/>
  </clipPath>
  <clipPath id="p1148c33c5c">
   <rect x="538.36125" y="22.318125" width="453.85" height="328.856"/>
  </clipPath>
 </defs>
 <defs>
  <pattern id="hafbc1c00b9" patternUnits="userSpaceOnUse" x="0" y="0" width="72" height="72">
   <rect x="0" y="0" width="73" height="73" fill="#2166ac"/>
   <path d="M -36 36 
L 36 -36 
M -30 42 
L 42 -30 
M -24 48 
L 48 -24 
M -18 54 
L 54 -18 
M -12 60 
L 60 -12 
M -6 66 
L 66 -6 
M 0 72 
L 72 0 
M 6 78 
L 78 6 
M 12 84 
L 84 12 
M 18 90 
L 90 18 
M 24 96 
L 96 24 
M 30 102 
L 102 30 
M 36 108 
L 108 36 
" style="fill: #000000; stroke: #000000; stroke-width: 1.0; stroke-linecap: butt; stroke-linejoin: miter"/>
  </pattern>
  <pattern id="h1f7753218d" patternUnits="userSpaceOnUse" x="0" y="0" width="72" height="72">
   <rect x="0" y="0" width="73" height="73" fill="#4dac26"/>
   <path d="M -36 36 
L 36 -36 
M -30 42 
L 42 -30 
M -24 48 
L 48 -24 
M -18 54 
L 54 -18 
M -12 60 
L 60 -12 
M -6 66 
L 66 -6 
M 0 72 
L 72 0 
M 6 78 
L 78 6 
M 12 84 
L 84 12 
M 18 90 
L 90 18 
M 24 96 
L 96 24 
M 30 102 
L 102 30 
M 36 108 
L 108 36 
" style="fill: #000000; stroke: #000000; stroke-width: 1.0; stroke-linecap: butt; stroke-linejoin: miter"/>
  </pattern>
  <pattern id="hf9092d583c" patternUnits="userSpaceOnUse" x="0" y="0" width="72" height="72">
   <rect x="0" y="0" width="73" height="73" fill="#d6604d"/>
   <path d="M -36 36 
L 36 -36 
M -30 42 
L 42 -30 
M -24 48 
L 48 -24 
M -18 54 
L 54 -18 
M -12 60 
L 60 -12 
M -6 66 
L 66 -6 
M 0 72 
L 72 0 
M 6 78 
L 78 6 
M 12 84 
L 84 12 
M 18 90 
L 90 18 
M 24 96 
L 96 24 
M 30 102 
L 102 30 
M 36 108 
L 108 36 
" style="fill: #000000; stroke: #000000; stroke-width: 1.0; stroke-linecap: butt; stroke-linejoin: miter"/>
  </pattern>
  <pattern id="hc959b7b499" patternUnits="userSpaceOnUse" x="0" y="0" width="72" height="72">
   <rect x="0" y="0" width="73" height="73" fill="#762a83"/>
   <path d="M -36 36 
L 36 -36 
M -30 42 
L 42 -30 
M -24 48 
L 48 -24 
M -18 54 
L 54 -18 
M -12 60 
L 60 -12 
M -6 66 
L 66 -6 
M 0 72 
L 72 0 
M 6 78 
L 78 6 
M 12 84 
L 84 12 
M 18 90 
L 90 18 
M 24 96 
L 96 24 
M 30 102 
L 102 30 
M 36 108 
L 108 36 
" style="fill: #000000; stroke: #000000; stroke-width: 1.0; stroke-linecap: butt; stroke-linejoin: miter"/>
  </pattern>
 </defs>
</svg>
