<?xml version="1.0" encoding="utf-8" standalone="no"?>
<!DOCTYPE svg PUBLIC "-//W3C//DTD SVG 1.1//EN"
  "http://www.w3.org/Graphics/SVG/1.1/DTD/svg11.dtd">
<svg xmlns:xlink="http://www.w3.org/1999/xlink" width="927.36875pt" height="351.777812pt" viewBox="0 0 927.36875 351.777812" xmlns="http://www.w3.org/2000/svg" version="1.1">
 <metadata>
  <rdf:RDF xmlns:dc="http://purl.org/dc/elements/1.1/" xmlns:cc="http://creativecommons.org/ns#" xmlns:rdf="http://www.w3.org/1999/02/22-rdf-syntax-ns#">
   <cc:Work>
    <dc:type rdf:resource="http://purl.org/dc/dcmitype/StillImage"/>
    <dc:date>2026-04-09T12:42:19.705678</dc:date>
    <dc:format>image/svg+xml</dc:format>
    <dc:creator>
     <cc:Agent>
      <dc:title>Matplotlib v3.7.2, https://matplotlib.org/</dc:title>
     </cc:Agent>
    </dc:creator>
   </cc:Work>
  </rdf:RDF>
 </metadata>
 <defs>
  <style type="text/css">*{stroke-linejoin: round; stroke-linecap: butt}</style>
 </defs>
 <g id="figure_1">
  <g id="patch_1">
   <path d="M 0 351.777812 
L 927.36875 351.777812 
L 927.36875 0 
L 0 0 
z
" style="fill: #ffffff"/>
  </g>
  <g id="axes_1">
   <g id="patch_2">
    <path d="M 57.80875 311.318125 
L 461.431929 311.318125 
L 461.431929 22.318125 
L 57.80875 22.318125 
z
" style="fill: #ffffff"/>
   </g>
   <g id="patch_3">
    <path d="M 76.155258 311.318125 
L 82.270761 311.318125 
L 82.270761 36.08003 
L 76.155258 36.08003 
z
" clip-path="url(#p0bfcf87e94)" style="fill: #4682b4; opacity: 0.85; stroke: #ffffff; stroke-linejoin: miter"/>
   </g>
   <g id="patch_4">
    <path d="M 82.270761 311.318125 
L 88.386264 311.318125 
L 88.386264 244.663388 
L 82.270761 244.663388 
z
" clip-path="url(#p0bfcf87e94)" style="fill: #4682b4; opacity: 0.85; stroke: #ffffff; stroke-linejoin: miter"/>
   </g>
   <g id="patch_5">
    <path d="M 88.386264 311.318125 
L 94.501766 311.318125 
L 94.501766 255.868279 
L 88.386264 255.868279 
z
" clip-path="url(#p0bfcf87e94)" style="fill: #4682b4; opacity: 0.85; stroke: #ffffff; stroke-linejoin: miter"/>
   </g>
   <g id="patch_6">
    <path d="M 94.501766 311.318125 
L 100.617269 311.318125 
L 100.617269 271.957354 
L 94.501766 271.957354 
z
" clip-path="url(#p0bfcf87e94)" style="fill: #4682b4; opacity: 0.85; stroke: #ffffff; stroke-linejoin: miter"/>
   </g>
   <g id="patch_7">
    <path d="M 100.617269 311.318125 
L 106.732772 311.318125 
L 106.732772 268.797 
L 100.617269 268.797 
z
" clip-path="url(#p0bfcf87e94)" style="fill: #4682b4; opacity: 0.85; stroke: #ffffff; stroke-linejoin: miter"/>
   </g>
   <g id="patch_8">
    <path d="M 106.732772 311.318125 
L 112.848274 311.318125 
L 112.848274 274.830403 
L 106.732772 274.830403 
z
" clip-path="url(#p0bfcf87e94)" style="fill: #4682b4; opacity: 0.85; stroke: #ffffff; stroke-linejoin: miter"/>
   </g>
   <g id="patch_9">
    <path d="M 112.848274 311.318125 
L 118.963777 311.318125 
L 118.963777 285.173379 
L 112.848274 285.173379 
z
" clip-path="url(#p0bfcf87e94)" style="fill: #4682b4; opacity: 0.85; stroke: #ffffff; stroke-linejoin: miter"/>
   </g>
   <g id="patch_10">
    <path d="M 118.963777 311.318125 
L 125.07928 311.318125 
L 125.07928 284.311464 
L 118.963777 284.311464 
z
" clip-path="url(#p0bfcf87e94)" style="fill: #4682b4; opacity: 0.85; stroke: #ffffff; stroke-linejoin: miter"/>
   </g>
   <g id="patch_11">
    <path d="M 125.07928 311.318125 
L 131.194783 311.318125 
L 131.194783 292.643306 
L 125.07928 292.643306 
z
" clip-path="url(#p0bfcf87e94)" style="fill: #4682b4; opacity: 0.85; stroke: #ffffff; stroke-linejoin: miter"/>
   </g>
   <g id="patch_12">
    <path d="M 131.194783 311.318125 
L 137.310285 311.318125 
L 137.310285 299.825929 
L 131.194783 299.825929 
z
" clip-path="url(#p0bfcf87e94)" style="fill: #4682b4; opacity: 0.85; stroke: #ffffff; stroke-linejoin: miter"/>
   </g>
   <g id="patch_13">
    <path d="M 137.310285 311.318125 
L 143.425788 311.318125 
L 143.425788 299.251319 
L 137.310285 299.251319 
z
" clip-path="url(#p0bfcf87e94)" style="fill: #4682b4; opacity: 0.85; stroke: #ffffff; stroke-linejoin: miter"/>
   </g>
   <g id="patch_14">
    <path d="M 143.425788 311.318125 
L 149.541291 311.318125 
L 149.541291 303.560893 
L 143.425788 303.560893 
z
" clip-path="url(#p0bfcf87e94)" style="fill: #4682b4; opacity: 0.85; stroke: #ffffff; stroke-linejoin: miter"/>
   </g>
   <g id="patch_15">
    <path d="M 149.541291 311.318125 
L 155.656793 311.318125 
L 155.656793 304.997417 
L 149.541291 304.997417 
z
" clip-path="url(#p0bfcf87e94)" style="fill: #4682b4; opacity: 0.85; stroke: #ffffff; stroke-linejoin: miter"/>
   </g>
   <g id="patch_16">
    <path d="M 155.656793 311.318125 
L 161.772296 311.318125 
L 161.772296 305.572027 
L 155.656793 305.572027 
z
" clip-path="url(#p0bfcf87e94)" style="fill: #4682b4; opacity: 0.85; stroke: #ffffff; stroke-linejoin: miter"/>
   </g>
   <g id="patch_17">
    <path d="M 161.772296 311.318125 
L 167.887799 311.318125 
L 167.887799 307.295856 
L 161.772296 307.295856 
z
" clip-path="url(#p0bfcf87e94)" style="fill: #4682b4; opacity: 0.85; stroke: #ffffff; stroke-linejoin: miter"/>
   </g>
   <g id="patch_18">
    <path d="M 167.887799 311.318125 
L 174.003302 311.318125 
L 174.003302 308.732381 
L 167.887799 308.732381 
z
" clip-path="url(#p0bfcf87e94)" style="fill: #4682b4; opacity: 0.85; stroke: #ffffff; stroke-linejoin: miter"/>
   </g>
   <g id="patch_19">
    <path d="M 174.003302 311.318125 
L 180.118804 311.318125 
L 180.118804 309.306991 
L 174.003302 309.306991 
z
" clip-path="url(#p0bfcf87e94)" style="fill: #4682b4; opacity: 0.85; stroke: #ffffff; stroke-linejoin: miter"/>
   </g>
   <g id="patch_20">
    <path d="M 180.118804 311.318125 
L 186.234307 311.318125 
L 186.234307 309.8816 
L 180.118804 309.8816 
z
" clip-path="url(#p0bfcf87e94)" style="fill: #4682b4; opacity: 0.85; stroke: #ffffff; stroke-linejoin: miter"/>
   </g>
   <g id="patch_21">
    <path d="M 186.234307 311.318125 
L 192.34981 311.318125 
L 192.34981 309.306991 
L 186.234307 309.306991 
z
" clip-path="url(#p0bfcf87e94)" style="fill: #4682b4; opacity: 0.85; stroke: #ffffff; stroke-linejoin: miter"/>
   </g>
   <g id="patch_22">
    <path d="M 192.34981 311.318125 
L 198.465312 311.318125 
L 198.465312 309.306991 
L 192.34981 309.306991 
z
" clip-path="url(#p0bfcf87e94)" style="fill: #4682b4; opacity: 0.85; stroke: #ffffff; stroke-linejoin: miter"/>
   </g>
   <g id="patch_23">
    <path d="M 198.465312 311.318125 
L 204.580815 311.318125 
L 204.580815 310.743515 
L 198.465312 310.743515 
z
" clip-path="url(#p0bfcf87e94)" style="fill: #4682b4; opacity: 0.85; stroke: #ffffff; stroke-linejoin: miter"/>
   </g>
   <g id="patch_24">
    <path d="M 204.580815 311.318125 
L 210.696318 311.318125 
L 210.696318 309.8816 
L 204.580815 309.8816 
z
" clip-path="url(#p0bfcf87e94)" style="fill: #4682b4; opacity: 0.85; stroke: #ffffff; stroke-linejoin: miter"/>
   </g>
   <g id="patch_25">
    <path d="M 210.696318 311.318125 
L 216.811821 311.318125 
L 216.811821 309.306991 
L 210.696318 309.306991 
z
" clip-path="url(#p0bfcf87e94)" style="fill: #4682b4; opacity: 0.85; stroke: #ffffff; stroke-linejoin: miter"/>
   </g>
   <g id="patch_26">
    <path d="M 216.811821 311.318125 
L 222.927323 311.318125 
L 222.927323 310.743515 
L 216.811821 310.743515 
z
" clip-path="url(#p0bfcf87e94)" style="fill: #4682b4; opacity: 0.85; stroke: #ffffff; stroke-linejoin: miter"/>
   </g>
   <g id="patch_27">
    <path d="M 222.927323 311.318125 
L 229.042826 311.318125 
L 229.042826 310.743515 
L 222.927323 310.743515 
z
" clip-path="url(#p0bfcf87e94)" style="fill: #4682b4; opacity: 0.85; stroke: #ffffff; stroke-linejoin: miter"/>
   </g>
   <g id="patch_28">
    <path d="M 229.042826 311.318125 
L 235.158329 311.318125 
L 235.158329 311.318125 
L 229.042826 311.318125 
z
" clip-path="url(#p0bfcf87e94)" style="fill: #4682b4; opacity: 0.85; stroke: #ffffff; stroke-linejoin: miter"/>
   </g>
   <g id="patch_29">
    <path d="M 235.158329 311.318125 
L 241.273831 311.318125 
L 241.273831 310.743515 
L 235.158329 310.743515 
z
" clip-path="url(#p0bfcf87e94)" style="fill: #4682b4; opacity: 0.85; stroke: #ffffff; stroke-linejoin: miter"/>
   </g>
   <g id="patch_30">
    <path d="M 241.273831 311.318125 
L 247.389334 311.318125 
L 247.389334 311.318125 
L 241.273831 311.318125 
z
" clip-path="url(#p0bfcf87e94)" style="fill: #4682b4; opacity: 0.85; stroke: #ffffff; stroke-linejoin: miter"/>
   </g>
   <g id="patch_31">
    <path d="M 247.389334 311.318125 
L 253.504837 311.318125 
L 253.504837 310.45621 
L 247.389334 310.45621 
z
" clip-path="url(#p0bfcf87e94)" style="fill: #4682b4; opacity: 0.85; stroke: #ffffff; stroke-linejoin: miter"/>
   </g>
   <g id="patch_32">
    <path d="M 253.504837 311.318125 
L 259.620339 311.318125 
L 259.620339 311.318125 
L 253.504837 311.318125 
z
" clip-path="url(#p0bfcf87e94)" style="fill: #4682b4; opacity: 0.85; stroke: #ffffff; stroke-linejoin: miter"/>
   </g>
   <g id="patch_33">
    <path d="M 259.620339 311.318125 
L 265.735842 311.318125 
L 265.735842 311.318125 
L 259.620339 311.318125 
z
" clip-path="url(#p0bfcf87e94)" style="fill: #4682b4; opacity: 0.85; stroke: #ffffff; stroke-linejoin: miter"/>
   </g>
   <g id="patch_34">
    <path d="M 265.735842 311.318125 
L 271.851345 311.318125 
L 271.851345 311.03082 
L 265.735842 311.03082 
z
" clip-path="url(#p0bfcf87e94)" style="fill: #4682b4; opacity: 0.85; stroke: #ffffff; stroke-linejoin: miter"/>
   </g>
   <g id="patch_35">
    <path d="M 271.851345 311.318125 
L 277.966848 311.318125 
L 277.966848 311.318125 
L 271.851345 311.318125 
z
" clip-path="url(#p0bfcf87e94)" style="fill: #4682b4; opacity: 0.85; stroke: #ffffff; stroke-linejoin: miter"/>
   </g>
   <g id="patch_36">
    <path d="M 277.966848 311.318125 
L 284.08235 311.318125 
L 284.08235 311.318125 
L 277.966848 311.318125 
z
" clip-path="url(#p0bfcf87e94)" style="fill: #4682b4; opacity: 0.85; stroke: #ffffff; stroke-linejoin: miter"/>
   </g>
   <g id="patch_37">
    <path d="M 284.08235 311.318125 
L 290.197853 311.318125 
L 290.197853 311.318125 
L 284.08235 311.318125 
z
" clip-path="url(#p0bfcf87e94)" style="fill: #4682b4; opacity: 0.85; stroke: #ffffff; stroke-linejoin: miter"/>
   </g>
   <g id="patch_38">
    <path d="M 290.197853 311.318125 
L 296.313356 311.318125 
L 296.313356 311.318125 
L 290.197853 311.318125 
z
" clip-path="url(#p0bfcf87e94)" style="fill: #4682b4; opacity: 0.85; stroke: #ffffff; stroke-linejoin: miter"/>
   </g>
   <g id="patch_39">
    <path d="M 296.313356 311.318125 
L 302.428858 311.318125 
L 302.428858 311.318125 
L 296.313356 311.318125 
z
" clip-path="url(#p0bfcf87e94)" style="fill: #4682b4; opacity: 0.85; stroke: #ffffff; stroke-linejoin: miter"/>
   </g>
   <g id="patch_40">
    <path d="M 302.428858 311.318125 
L 308.544361 311.318125 
L 308.544361 311.318125 
L 302.428858 311.318125 
z
" clip-path="url(#p0bfcf87e94)" style="fill: #4682b4; opacity: 0.85; stroke: #ffffff; stroke-linejoin: miter"/>
   </g>
   <g id="patch_41">
    <path d="M 308.544361 311.318125 
L 314.659864 311.318125 
L 314.659864 311.318125 
L 308.544361 311.318125 
z
" clip-path="url(#p0bfcf87e94)" style="fill: #4682b4; opacity: 0.85; stroke: #ffffff; stroke-linejoin: miter"/>
   </g>
   <g id="patch_42">
    <path d="M 314.659864 311.318125 
L 320.775367 311.318125 
L 320.775367 311.03082 
L 314.659864 311.03082 
z
" clip-path="url(#p0bfcf87e94)" style="fill: #4682b4; opacity: 0.85; stroke: #ffffff; stroke-linejoin: miter"/>
   </g>
   <g id="patch_43">
    <path d="M 320.775367 311.318125 
L 326.890869 311.318125 
L 326.890869 311.318125 
L 320.775367 311.318125 
z
" clip-path="url(#p0bfcf87e94)" style="fill: #4682b4; opacity: 0.85; stroke: #ffffff; stroke-linejoin: miter"/>
   </g>
   <g id="patch_44">
    <path d="M 326.890869 311.318125 
L 333.006372 311.318125 
L 333.006372 311.318125 
L 326.890869 311.318125 
z
" clip-path="url(#p0bfcf87e94)" style="fill: #4682b4; opacity: 0.85; stroke: #ffffff; stroke-linejoin: miter"/>
   </g>
   <g id="patch_45">
    <path d="M 333.006372 311.318125 
L 339.121875 311.318125 
L 339.121875 311.318125 
L 333.006372 311.318125 
z
" clip-path="url(#p0bfcf87e94)" style="fill: #4682b4; opacity: 0.85; stroke: #ffffff; stroke-linejoin: miter"/>
   </g>
   <g id="patch_46">
    <path d="M 339.121875 311.318125 
L 345.237377 311.318125 
L 345.237377 311.318125 
L 339.121875 311.318125 
z
" clip-path="url(#p0bfcf87e94)" style="fill: #4682b4; opacity: 0.85; stroke: #ffffff; stroke-linejoin: miter"/>
   </g>
   <g id="patch_47">
    <path d="M 345.237377 311.318125 
L 351.35288 311.318125 
L 351.35288 311.318125 
L 345.237377 311.318125 
z
" clip-path="url(#p0bfcf87e94)" style="fill: #4682b4; opacity: 0.85; stroke: #ffffff; stroke-linejoin: miter"/>
   </g>
   <g id="patch_48">
    <path d="M 351.35288 311.318125 
L 357.468383 311.318125 
L 357.468383 311.318125 
L 351.35288 311.318125 
z
" clip-path="url(#p0bfcf87e94)" style="fill: #4682b4; opacity: 0.85; stroke: #ffffff; stroke-linejoin: miter"/>
   </g>
   <g id="patch_49">
    <path d="M 357.468383 311.318125 
L 363.583886 311.318125 
L 363.583886 311.318125 
L 357.468383 311.318125 
z
" clip-path="url(#p0bfcf87e94)" style="fill: #4682b4; opacity: 0.85; stroke: #ffffff; stroke-linejoin: miter"/>
   </g>
   <g id="patch_50">
    <path d="M 363.583886 311.318125 
L 369.699388 311.318125 
L 369.699388 311.318125 
L 363.583886 311.318125 
z
" clip-path="url(#p0bfcf87e94)" style="fill: #4682b4; opacity: 0.85; stroke: #ffffff; stroke-linejoin: miter"/>
   </g>
   <g id="patch_51">
    <path d="M 369.699388 311.318125 
L 375.814891 311.318125 
L 375.814891 311.03082 
L 369.699388 311.03082 
z
" clip-path="url(#p0bfcf87e94)" style="fill: #4682b4; opacity: 0.85; stroke: #ffffff; stroke-linejoin: miter"/>
   </g>
   <g id="patch_52">
    <path d="M 375.814891 311.318125 
L 381.930394 311.318125 
L 381.930394 311.318125 
L 375.814891 311.318125 
z
" clip-path="url(#p0bfcf87e94)" style="fill: #4682b4; opacity: 0.85; stroke: #ffffff; stroke-linejoin: miter"/>
   </g>
   <g id="patch_53">
    <path d="M 381.930394 311.318125 
L 388.045896 311.318125 
L 388.045896 311.318125 
L 381.930394 311.318125 
z
" clip-path="url(#p0bfcf87e94)" style="fill: #4682b4; opacity: 0.85; stroke: #ffffff; stroke-linejoin: miter"/>
   </g>
   <g id="patch_54">
    <path d="M 388.045896 311.318125 
L 394.161399 311.318125 
L 394.161399 311.318125 
L 388.045896 311.318125 
z
" clip-path="url(#p0bfcf87e94)" style="fill: #4682b4; opacity: 0.85; stroke: #ffffff; stroke-linejoin: miter"/>
   </g>
   <g id="patch_55">
    <path d="M 394.161399 311.318125 
L 400.276902 311.318125 
L 400.276902 311.318125 
L 394.161399 311.318125 
z
" clip-path="url(#p0bfcf87e94)" style="fill: #4682b4; opacity: 0.85; stroke: #ffffff; stroke-linejoin: miter"/>
   </g>
   <g id="patch_56">
    <path d="M 400.276902 311.318125 
L 406.392405 311.318125 
L 406.392405 311.318125 
L 400.276902 311.318125 
z
" clip-path="url(#p0bfcf87e94)" style="fill: #4682b4; opacity: 0.85; stroke: #ffffff; stroke-linejoin: miter"/>
   </g>
   <g id="patch_57">
    <path d="M 406.392405 311.318125 
L 412.507907 311.318125 
L 412.507907 311.318125 
L 406.392405 311.318125 
z
" clip-path="url(#p0bfcf87e94)" style="fill: #4682b4; opacity: 0.85; stroke: #ffffff; stroke-linejoin: miter"/>
   </g>
   <g id="patch_58">
    <path d="M 412.507907 311.318125 
L 418.62341 311.318125 
L 418.62341 311.318125 
L 412.507907 311.318125 
z
" clip-path="url(#p0bfcf87e94)" style="fill: #4682b4; opacity: 0.85; stroke: #ffffff; stroke-linejoin: miter"/>
   </g>
   <g id="patch_59">
    <path d="M 418.62341 311.318125 
L 424.738913 311.318125 
L 424.738913 311.318125 
L 418.62341 311.318125 
z
" clip-path="url(#p0bfcf87e94)" style="fill: #4682b4; opacity: 0.85; stroke: #ffffff; stroke-linejoin: miter"/>
   </g>
   <g id="patch_60">
    <path d="M 424.738913 311.318125 
L 430.854415 311.318125 
L 430.854415 311.318125 
L 424.738913 311.318125 
z
" clip-path="url(#p0bfcf87e94)" style="fill: #4682b4; opacity: 0.85; stroke: #ffffff; stroke-linejoin: miter"/>
   </g>
   <g id="patch_61">
    <path d="M 430.854415 311.318125 
L 436.969918 311.318125 
L 436.969918 311.318125 
L 430.854415 311.318125 
z
" clip-path="url(#p0bfcf87e94)" style="fill: #4682b4; opacity: 0.85; stroke: #ffffff; stroke-linejoin: miter"/>
   </g>
   <g id="patch_62">
    <path d="M 436.969918 311.318125 
L 443.085421 311.318125 
L 443.085421 311.03082 
L 436.969918 311.03082 
z
" clip-path="url(#p0bfcf87e94)" style="fill: #4682b4; opacity: 0.85; stroke: #ffffff; stroke-linejoin: miter"/>
   </g>
   <g id="matplotlib.axis_1">
    <g id="xtick_1">
     <g id="line2d_1">
      <defs>
       <path id="m481d4c20c5" d="M 0 0 
L 0 3.5 
" style="stroke: #000000; stroke-width: 0.8"/>
      </defs>
      <g>
       <use xlink:href="#m481d4c20c5" x="76.153051" y="311.318125" style="stroke: #000000; stroke-width: 0.8"/>
      </g>
     </g>
     <g id="text_1">
      <!-- 0 -->
      <g transform="translate(72.653676 326.676406) scale(0.11 -0.11)">
       <defs>
        <path id="DejaVuSans-30" d="M 2034 4250 
Q 1547 4250 1301 3770 
Q 1056 3291 1056 2328 
Q 1056 1369 1301 889 
Q 1547 409 2034 409 
Q 2525 409 2770 889 
Q 3016 1369 3016 2328 
Q 3016 3291 2770 3770 
Q 2525 4250 2034 4250 
z
M 2034 4750 
Q 2819 4750 3233 4129 
Q 3647 3509 3647 2328 
Q 3647 1150 3233 529 
Q 2819 -91 2034 -91 
Q 1250 -91 836 529 
Q 422 1150 422 2328 
Q 422 3509 836 4129 
Q 1250 4750 2034 4750 
z
" transform="scale(0.015625)"/>
       </defs>
       <use xlink:href="#DejaVuSans-30"/>
      </g>
     </g>
    </g>
    <g id="xtick_2">
     <g id="line2d_2">
      <g>
       <use xlink:href="#m481d4c20c5" x="130.030621" y="311.318125" style="stroke: #000000; stroke-width: 0.8"/>
      </g>
     </g>
     <g id="text_2">
      <!-- 5 -->
      <g transform="translate(126.531246 326.676406) scale(0.11 -0.11)">
       <defs>
        <path id="DejaVuSans-35" d="M 691 4666 
L 3169 4666 
L 3169 4134 
L 1269 4134 
L 1269 2991 
Q 1406 3038 1543 3061 
Q 1681 3084 1819 3084 
Q 2600 3084 3056 2656 
Q 3513 2228 3513 1497 
Q 3513 744 3044 326 
Q 2575 -91 1722 -91 
Q 1428 -91 1123 -41 
Q 819 9 494 109 
L 494 744 
Q 775 591 1075 516 
Q 1375 441 1709 441 
Q 2250 441 2565 725 
Q 2881 1009 2881 1497 
Q 2881 1984 2565 2268 
Q 2250 2553 1709 2553 
Q 1456 2553 1204 2497 
Q 953 2441 691 2322 
L 691 4666 
z
" transform="scale(0.015625)"/>
       </defs>
       <use xlink:href="#DejaVuSans-35"/>
      </g>
     </g>
    </g>
    <g id="xtick_3">
     <g id="line2d_3">
      <g>
       <use xlink:href="#m481d4c20c5" x="183.908191" y="311.318125" style="stroke: #000000; stroke-width: 0.8"/>
      </g>
     </g>
     <g id="text_3">
      <!-- 10 -->
      <g transform="translate(176.909441 326.676406) scale(0.11 -0.11)">
       <defs>
        <path id="DejaVuSans-31" d="M 794 531 
L 1825 531 
L 1825 4091 
L 703 3866 
L 703 4441 
L 1819 4666 
L 2450 4666 
L 2450 531 
L 3481 531 
L 3481 0 
L 794 0 
L 794 531 
z
" transform="scale(0.015625)"/>
       </defs>
       <use xlink:href="#DejaVuSans-31"/>
       <use xlink:href="#DejaVuSans-30" x="63.623047"/>
      </g>
     </g>
    </g>
    <g id="xtick_4">
     <g id="line2d_4">
      <g>
       <use xlink:href="#m481d4c20c5" x="237.785761" y="311.318125" style="stroke: #000000; stroke-width: 0.8"/>
      </g>
     </g>
     <g id="text_4">
      <!-- 15 -->
      <g transform="translate(230.787011 326.676406) scale(0.11 -0.11)">
       <use xlink:href="#DejaVuSans-31"/>
       <use xlink:href="#DejaVuSans-35" x="63.623047"/>
      </g>
     </g>
    </g>
    <g id="xtick_5">
     <g id="line2d_5">
      <g>
       <use xlink:href="#m481d4c20c5" x="291.663331" y="311.318125" style="stroke: #000000; stroke-width: 0.8"/>
      </g>
     </g>
     <g id="text_5">
      <!-- 20 -->
      <g transform="translate(284.664581 326.676406) scale(0.11 -0.11)">
       <defs>
        <path id="DejaVuSans-32" d="M 1228 531 
L 3431 531 
L 3431 0 
L 469 0 
L 469 531 
Q 828 903 1448 1529 
Q 2069 2156 2228 2338 
Q 2531 2678 2651 2914 
Q 2772 3150 2772 3378 
Q 2772 3750 2511 3984 
Q 2250 4219 1831 4219 
Q 1534 4219 1204 4116 
Q 875 4013 500 3803 
L 500 4441 
Q 881 4594 1212 4672 
Q 1544 4750 1819 4750 
Q 2544 4750 2975 4387 
Q 3406 4025 3406 3419 
Q 3406 3131 3298 2873 
Q 3191 2616 2906 2266 
Q 2828 2175 2409 1742 
Q 1991 1309 1228 531 
z
" transform="scale(0.015625)"/>
       </defs>
       <use xlink:href="#DejaVuSans-32"/>
       <use xlink:href="#DejaVuSans-30" x="63.623047"/>
      </g>
     </g>
    </g>
    <g id="xtick_6">
     <g id="line2d_6">
      <g>
       <use xlink:href="#m481d4c20c5" x="345.540901" y="311.318125" style="stroke: #000000; stroke-width: 0.8"/>
      </g>
     </g>
     <g id="text_6">
      <!-- 25 -->
      <g transform="translate(338.542151 326.676406) scale(0.11 -0.11)">
       <use xlink:href="#DejaVuSans-32"/>
       <use xlink:href="#DejaVuSans-35" x="63.623047"/>
      </g>
     </g>
    </g>
    <g id="xtick_7">
     <g id="line2d_7">
      <g>
       <use xlink:href="#m481d4c20c5" x="399.418471" y="311.318125" style="stroke: #000000; stroke-width: 0.8"/>
      </g>
     </g>
     <g id="text_7">
      <!-- 30 -->
      <g transform="translate(392.419721 326.676406) scale(0.11 -0.11)">
       <defs>
        <path id="DejaVuSans-33" d="M 2597 2516 
Q 3050 2419 3304 2112 
Q 3559 1806 3559 1356 
Q 3559 666 3084 287 
Q 2609 -91 1734 -91 
Q 1441 -91 1130 -33 
Q 819 25 488 141 
L 488 750 
Q 750 597 1062 519 
Q 1375 441 1716 441 
Q 2309 441 2620 675 
Q 2931 909 2931 1356 
Q 2931 1769 2642 2001 
Q 2353 2234 1838 2234 
L 1294 2234 
L 1294 2753 
L 1863 2753 
Q 2328 2753 2575 2939 
Q 2822 3125 2822 3475 
Q 2822 3834 2567 4026 
Q 2313 4219 1838 4219 
Q 1578 4219 1281 4162 
Q 984 4106 628 3988 
L 628 4550 
Q 988 4650 1302 4700 
Q 1616 4750 1894 4750 
Q 2613 4750 3031 4423 
Q 3450 4097 3450 3541 
Q 3450 3153 3228 2886 
Q 3006 2619 2597 2516 
z
" transform="scale(0.015625)"/>
       </defs>
       <use xlink:href="#DejaVuSans-33"/>
       <use xlink:href="#DejaVuSans-30" x="63.623047"/>
      </g>
     </g>
    </g>
    <g id="xtick_8">
     <g id="line2d_8">
      <g>
       <use xlink:href="#m481d4c20c5" x="453.296041" y="311.318125" style="stroke: #000000; stroke-width: 0.8"/>
      </g>
     </g>
     <g id="text_8">
      <!-- 35 -->
      <g transform="translate(446.297291 326.676406) scale(0.11 -0.11)">
       <use xlink:href="#DejaVuSans-33"/>
       <use xlink:href="#DejaVuSans-35" x="63.623047"/>
      </g>
     </g>
    </g>
    <g id="text_9">
     <!-- Absolute Error (SPARE-BA) -->
     <g transform="translate(181.001589 342.082187) scale(0.12 -0.12)">
      <defs>
       <path id="DejaVuSans-41" d="M 2188 4044 
L 1331 1722 
L 3047 1722 
L 2188 4044 
z
M 1831 4666 
L 2547 4666 
L 4325 0 
L 3669 0 
L 3244 1197 
L 1141 1197 
L 716 0 
L 50 0 
L 1831 4666 
z
" transform="scale(0.015625)"/>
       <path id="DejaVuSans-62" d="M 3116 1747 
Q 3116 2381 2855 2742 
Q 2594 3103 2138 3103 
Q 1681 3103 1420 2742 
Q 1159 2381 1159 1747 
Q 1159 1113 1420 752 
Q 1681 391 2138 391 
Q 2594 391 2855 752 
Q 3116 1113 3116 1747 
z
M 1159 2969 
Q 1341 3281 1617 3432 
Q 1894 3584 2278 3584 
Q 2916 3584 3314 3078 
Q 3713 2572 3713 1747 
Q 3713 922 3314 415 
Q 2916 -91 2278 -91 
Q 1894 -91 1617 61 
Q 1341 213 1159 525 
L 1159 0 
L 581 0 
L 581 4863 
L 1159 4863 
L 1159 2969 
z
" transform="scale(0.015625)"/>
       <path id="DejaVuSans-73" d="M 2834 3397 
L 2834 2853 
Q 2591 2978 2328 3040 
Q 2066 3103 1784 3103 
Q 1356 3103 1142 2972 
Q 928 2841 928 2578 
Q 928 2378 1081 2264 
Q 1234 2150 1697 2047 
L 1894 2003 
Q 2506 1872 2764 1633 
Q 3022 1394 3022 966 
Q 3022 478 2636 193 
Q 2250 -91 1575 -91 
Q 1294 -91 989 -36 
Q 684 19 347 128 
L 347 722 
Q 666 556 975 473 
Q 1284 391 1588 391 
Q 1994 391 2212 530 
Q 2431 669 2431 922 
Q 2431 1156 2273 1281 
Q 2116 1406 1581 1522 
L 1381 1569 
Q 847 1681 609 1914 
Q 372 2147 372 2553 
Q 372 3047 722 3315 
Q 1072 3584 1716 3584 
Q 2034 3584 2315 3537 
Q 2597 3491 2834 3397 
z
" transform="scale(0.015625)"/>
       <path id="DejaVuSans-6f" d="M 1959 3097 
Q 1497 3097 1228 2736 
Q 959 2375 959 1747 
Q 959 1119 1226 758 
Q 1494 397 1959 397 
Q 2419 397 2687 759 
Q 2956 1122 2956 1747 
Q 2956 2369 2687 2733 
Q 2419 3097 1959 3097 
z
M 1959 3584 
Q 2709 3584 3137 3096 
Q 3566 2609 3566 1747 
Q 3566 888 3137 398 
Q 2709 -91 1959 -91 
Q 1206 -91 779 398 
Q 353 888 353 1747 
Q 353 2609 779 3096 
Q 1206 3584 1959 3584 
z
" transform="scale(0.015625)"/>
       <path id="DejaVuSans-6c" d="M 603 4863 
L 1178 4863 
L 1178 0 
L 603 0 
L 603 4863 
z
" transform="scale(0.015625)"/>
       <path id="DejaVuSans-75" d="M 544 1381 
L 544 3500 
L 1119 3500 
L 1119 1403 
Q 1119 906 1312 657 
Q 1506 409 1894 409 
Q 2359 409 2629 706 
Q 2900 1003 2900 1516 
L 2900 3500 
L 3475 3500 
L 3475 0 
L 2900 0 
L 2900 538 
Q 2691 219 2414 64 
Q 2138 -91 1772 -91 
Q 1169 -91 856 284 
Q 544 659 544 1381 
z
M 1991 3584 
L 1991 3584 
z
" transform="scale(0.015625)"/>
       <path id="DejaVuSans-74" d="M 1172 4494 
L 1172 3500 
L 2356 3500 
L 2356 3053 
L 1172 3053 
L 1172 1153 
Q 1172 725 1289 603 
Q 1406 481 1766 481 
L 2356 481 
L 2356 0 
L 1766 0 
Q 1100 0 847 248 
Q 594 497 594 1153 
L 594 3053 
L 172 3053 
L 172 3500 
L 594 3500 
L 594 4494 
L 1172 4494 
z
" transform="scale(0.015625)"/>
       <path id="DejaVuSans-65" d="M 3597 1894 
L 3597 1613 
L 953 1613 
Q 991 1019 1311 708 
Q 1631 397 2203 397 
Q 2534 397 2845 478 
Q 3156 559 3463 722 
L 3463 178 
Q 3153 47 2828 -22 
Q 2503 -91 2169 -91 
Q 1331 -91 842 396 
Q 353 884 353 1716 
Q 353 2575 817 3079 
Q 1281 3584 2069 3584 
Q 2775 3584 3186 3129 
Q 3597 2675 3597 1894 
z
M 3022 2063 
Q 3016 2534 2758 2815 
Q 2500 3097 2075 3097 
Q 1594 3097 1305 2825 
Q 1016 2553 972 2059 
L 3022 2063 
z
" transform="scale(0.015625)"/>
       <path id="DejaVuSans-20" transform="scale(0.015625)"/>
       <path id="DejaVuSans-45" d="M 628 4666 
L 3578 4666 
L 3578 4134 
L 1259 4134 
L 1259 2753 
L 3481 2753 
L 3481 2222 
L 1259 2222 
L 1259 531 
L 3634 531 
L 3634 0 
L 628 0 
L 628 4666 
z
" transform="scale(0.015625)"/>
       <path id="DejaVuSans-72" d="M 2631 2963 
Q 2534 3019 2420 3045 
Q 2306 3072 2169 3072 
Q 1681 3072 1420 2755 
Q 1159 2438 1159 1844 
L 1159 0 
L 581 0 
L 581 3500 
L 1159 3500 
L 1159 2956 
Q 1341 3275 1631 3429 
Q 1922 3584 2338 3584 
Q 2397 3584 2469 3576 
Q 2541 3569 2628 3553 
L 2631 2963 
z
" transform="scale(0.015625)"/>
       <path id="DejaVuSans-28" d="M 1984 4856 
Q 1566 4138 1362 3434 
Q 1159 2731 1159 2009 
Q 1159 1288 1364 580 
Q 1569 -128 1984 -844 
L 1484 -844 
Q 1016 -109 783 600 
Q 550 1309 550 2009 
Q 550 2706 781 3412 
Q 1013 4119 1484 4856 
L 1984 4856 
z
" transform="scale(0.015625)"/>
       <path id="DejaVuSans-53" d="M 3425 4513 
L 3425 3897 
Q 3066 4069 2747 4153 
Q 2428 4238 2131 4238 
Q 1616 4238 1336 4038 
Q 1056 3838 1056 3469 
Q 1056 3159 1242 3001 
Q 1428 2844 1947 2747 
L 2328 2669 
Q 3034 2534 3370 2195 
Q 3706 1856 3706 1288 
Q 3706 609 3251 259 
Q 2797 -91 1919 -91 
Q 1588 -91 1214 -16 
Q 841 59 441 206 
L 441 856 
Q 825 641 1194 531 
Q 1563 422 1919 422 
Q 2459 422 2753 634 
Q 3047 847 3047 1241 
Q 3047 1584 2836 1778 
Q 2625 1972 2144 2069 
L 1759 2144 
Q 1053 2284 737 2584 
Q 422 2884 422 3419 
Q 422 4038 858 4394 
Q 1294 4750 2059 4750 
Q 2388 4750 2728 4690 
Q 3069 4631 3425 4513 
z
" transform="scale(0.015625)"/>
       <path id="DejaVuSans-50" d="M 1259 4147 
L 1259 2394 
L 2053 2394 
Q 2494 2394 2734 2622 
Q 2975 2850 2975 3272 
Q 2975 3691 2734 3919 
Q 2494 4147 2053 4147 
L 1259 4147 
z
M 628 4666 
L 2053 4666 
Q 2838 4666 3239 4311 
Q 3641 3956 3641 3272 
Q 3641 2581 3239 2228 
Q 2838 1875 2053 1875 
L 1259 1875 
L 1259 0 
L 628 0 
L 628 4666 
z
" transform="scale(0.015625)"/>
       <path id="DejaVuSans-52" d="M 2841 2188 
Q 3044 2119 3236 1894 
Q 3428 1669 3622 1275 
L 4263 0 
L 3584 0 
L 2988 1197 
Q 2756 1666 2539 1819 
Q 2322 1972 1947 1972 
L 1259 1972 
L 1259 0 
L 628 0 
L 628 4666 
L 2053 4666 
Q 2853 4666 3247 4331 
Q 3641 3997 3641 3322 
Q 3641 2881 3436 2590 
Q 3231 2300 2841 2188 
z
M 1259 4147 
L 1259 2491 
L 2053 2491 
Q 2509 2491 2742 2702 
Q 2975 2913 2975 3322 
Q 2975 3731 2742 3939 
Q 2509 4147 2053 4147 
L 1259 4147 
z
" transform="scale(0.015625)"/>
       <path id="DejaVuSans-2d" d="M 313 2009 
L 1997 2009 
L 1997 1497 
L 313 1497 
L 313 2009 
z
" transform="scale(0.015625)"/>
       <path id="DejaVuSans-42" d="M 1259 2228 
L 1259 519 
L 2272 519 
Q 2781 519 3026 730 
Q 3272 941 3272 1375 
Q 3272 1813 3026 2020 
Q 2781 2228 2272 2228 
L 1259 2228 
z
M 1259 4147 
L 1259 2741 
L 2194 2741 
Q 2656 2741 2882 2914 
Q 3109 3088 3109 3444 
Q 3109 3797 2882 3972 
Q 2656 4147 2194 4147 
L 1259 4147 
z
M 628 4666 
L 2241 4666 
Q 2963 4666 3353 4366 
Q 3744 4066 3744 3513 
Q 3744 3084 3544 2831 
Q 3344 2578 2956 2516 
Q 3422 2416 3680 2098 
Q 3938 1781 3938 1306 
Q 3938 681 3513 340 
Q 3088 0 2303 0 
L 628 0 
L 628 4666 
z
" transform="scale(0.015625)"/>
       <path id="DejaVuSans-29" d="M 513 4856 
L 1013 4856 
Q 1481 4119 1714 3412 
Q 1947 2706 1947 2009 
Q 1947 1309 1714 600 
Q 1481 -109 1013 -844 
L 513 -844 
Q 928 -128 1133 580 
Q 1338 1288 1338 2009 
Q 1338 2731 1133 3434 
Q 928 4138 513 4856 
z
" transform="scale(0.015625)"/>
      </defs>
      <use xlink:href="#DejaVuSans-41"/>
      <use xlink:href="#DejaVuSans-62" x="68.408203"/>
      <use xlink:href="#DejaVuSans-73" x="131.884766"/>
      <use xlink:href="#DejaVuSans-6f" x="183.984375"/>
      <use xlink:href="#DejaVuSans-6c" x="245.166016"/>
      <use xlink:href="#DejaVuSans-75" x="272.949219"/>
      <use xlink:href="#DejaVuSans-74" x="336.328125"/>
      <use xlink:href="#DejaVuSans-65" x="375.537109"/>
      <use xlink:href="#DejaVuSans-20" x="437.060547"/>
      <use xlink:href="#DejaVuSans-45" x="468.847656"/>
      <use xlink:href="#DejaVuSans-72" x="532.03125"/>
      <use xlink:href="#DejaVuSans-72" x="571.394531"/>
      <use xlink:href="#DejaVuSans-6f" x="610.257812"/>
      <use xlink:href="#DejaVuSans-72" x="671.439453"/>
      <use xlink:href="#DejaVuSans-20" x="712.552734"/>
      <use xlink:href="#DejaVuSans-28" x="744.339844"/>
      <use xlink:href="#DejaVuSans-53" x="783.353516"/>
      <use xlink:href="#DejaVuSans-50" x="846.830078"/>
      <use xlink:href="#DejaVuSans-41" x="900.757812"/>
      <use xlink:href="#DejaVuSans-52" x="969.166016"/>
      <use xlink:href="#DejaVuSans-45" x="1038.648438"/>
      <use xlink:href="#DejaVuSans-2d" x="1101.832031"/>
      <use xlink:href="#DejaVuSans-42" x="1134.291016"/>
      <use xlink:href="#DejaVuSans-41" x="1202.894531"/>
      <use xlink:href="#DejaVuSans-29" x="1271.302734"/>
     </g>
    </g>
   </g>
   <g id="matplotlib.axis_2">
    <g id="ytick_1">
     <g id="line2d_9">
      <defs>
       <path id="m980388d1b3" d="M 0 0 
L -3.5 0 
" style="stroke: #000000; stroke-width: 0.8"/>
      </defs>
      <g>
       <use xlink:href="#m980388d1b3" x="57.80875" y="311.318125" style="stroke: #000000; stroke-width: 0.8"/>
      </g>
     </g>
     <g id="text_10">
      <!-- 0 -->
      <g transform="translate(43.81 315.497266) scale(0.11 -0.11)">
       <use xlink:href="#DejaVuSans-30"/>
      </g>
     </g>
    </g>
    <g id="ytick_2">
     <g id="line2d_10">
      <g>
       <use xlink:href="#m980388d1b3" x="57.80875" y="253.857145" style="stroke: #000000; stroke-width: 0.8"/>
      </g>
     </g>
     <g id="text_11">
      <!-- 200 -->
      <g transform="translate(29.8125 258.036285) scale(0.11 -0.11)">
       <use xlink:href="#DejaVuSans-32"/>
       <use xlink:href="#DejaVuSans-30" x="63.623047"/>
       <use xlink:href="#DejaVuSans-30" x="127.246094"/>
      </g>
     </g>
    </g>
    <g id="ytick_3">
     <g id="line2d_11">
      <g>
       <use xlink:href="#m980388d1b3" x="57.80875" y="196.396165" style="stroke: #000000; stroke-width: 0.8"/>
      </g>
     </g>
     <g id="text_12">
      <!-- 400 -->
      <g transform="translate(29.8125 200.575305) scale(0.11 -0.11)">
       <defs>
        <path id="DejaVuSans-34" d="M 2419 4116 
L 825 1625 
L 2419 1625 
L 2419 4116 
z
M 2253 4666 
L 3047 4666 
L 3047 1625 
L 3713 1625 
L 3713 1100 
L 3047 1100 
L 3047 0 
L 2419 0 
L 2419 1100 
L 313 1100 
L 313 1709 
L 2253 4666 
z
" transform="scale(0.015625)"/>
       </defs>
       <use xlink:href="#DejaVuSans-34"/>
       <use xlink:href="#DejaVuSans-30" x="63.623047"/>
       <use xlink:href="#DejaVuSans-30" x="127.246094"/>
      </g>
     </g>
    </g>
    <g id="ytick_4">
     <g id="line2d_12">
      <g>
       <use xlink:href="#m980388d1b3" x="57.80875" y="138.935184" style="stroke: #000000; stroke-width: 0.8"/>
      </g>
     </g>
     <g id="text_13">
      <!-- 600 -->
      <g transform="translate(29.8125 143.114325) scale(0.11 -0.11)">
       <defs>
        <path id="DejaVuSans-36" d="M 2113 2584 
Q 1688 2584 1439 2293 
Q 1191 2003 1191 1497 
Q 1191 994 1439 701 
Q 1688 409 2113 409 
Q 2538 409 2786 701 
Q 3034 994 3034 1497 
Q 3034 2003 2786 2293 
Q 2538 2584 2113 2584 
z
M 3366 4563 
L 3366 3988 
Q 3128 4100 2886 4159 
Q 2644 4219 2406 4219 
Q 1781 4219 1451 3797 
Q 1122 3375 1075 2522 
Q 1259 2794 1537 2939 
Q 1816 3084 2150 3084 
Q 2853 3084 3261 2657 
Q 3669 2231 3669 1497 
Q 3669 778 3244 343 
Q 2819 -91 2113 -91 
Q 1303 -91 875 529 
Q 447 1150 447 2328 
Q 447 3434 972 4092 
Q 1497 4750 2381 4750 
Q 2619 4750 2861 4703 
Q 3103 4656 3366 4563 
z
" transform="scale(0.015625)"/>
       </defs>
       <use xlink:href="#DejaVuSans-36"/>
       <use xlink:href="#DejaVuSans-30" x="63.623047"/>
       <use xlink:href="#DejaVuSans-30" x="127.246094"/>
      </g>
     </g>
    </g>
    <g id="ytick_5">
     <g id="line2d_13">
      <g>
       <use xlink:href="#m980388d1b3" x="57.80875" y="81.474204" style="stroke: #000000; stroke-width: 0.8"/>
      </g>
     </g>
     <g id="text_14">
      <!-- 800 -->
      <g transform="translate(29.8125 85.653345) scale(0.11 -0.11)">
       <defs>
        <path id="DejaVuSans-38" d="M 2034 2216 
Q 1584 2216 1326 1975 
Q 1069 1734 1069 1313 
Q 1069 891 1326 650 
Q 1584 409 2034 409 
Q 2484 409 2743 651 
Q 3003 894 3003 1313 
Q 3003 1734 2745 1975 
Q 2488 2216 2034 2216 
z
M 1403 2484 
Q 997 2584 770 2862 
Q 544 3141 544 3541 
Q 544 4100 942 4425 
Q 1341 4750 2034 4750 
Q 2731 4750 3128 4425 
Q 3525 4100 3525 3541 
Q 3525 3141 3298 2862 
Q 3072 2584 2669 2484 
Q 3125 2378 3379 2068 
Q 3634 1759 3634 1313 
Q 3634 634 3220 271 
Q 2806 -91 2034 -91 
Q 1263 -91 848 271 
Q 434 634 434 1313 
Q 434 1759 690 2068 
Q 947 2378 1403 2484 
z
M 1172 3481 
Q 1172 3119 1398 2916 
Q 1625 2713 2034 2713 
Q 2441 2713 2670 2916 
Q 2900 3119 2900 3481 
Q 2900 3844 2670 4047 
Q 2441 4250 2034 4250 
Q 1625 4250 1398 4047 
Q 1172 3844 1172 3481 
z
" transform="scale(0.015625)"/>
       </defs>
       <use xlink:href="#DejaVuSans-38"/>
       <use xlink:href="#DejaVuSans-30" x="63.623047"/>
       <use xlink:href="#DejaVuSans-30" x="127.246094"/>
      </g>
     </g>
    </g>
    <g id="ytick_6">
     <g id="line2d_14">
      <g>
       <use xlink:href="#m980388d1b3" x="57.80875" y="24.013224" style="stroke: #000000; stroke-width: 0.8"/>
      </g>
     </g>
     <g id="text_15">
      <!-- 1000 -->
      <g transform="translate(22.81375 28.192365) scale(0.11 -0.11)">
       <use xlink:href="#DejaVuSans-31"/>
       <use xlink:href="#DejaVuSans-30" x="63.623047"/>
       <use xlink:href="#DejaVuSans-30" x="127.246094"/>
       <use xlink:href="#DejaVuSans-30" x="190.869141"/>
      </g>
     </g>
    </g>
    <g id="text_16">
     <!-- Observations -->
     <g transform="translate(16.318125 206.480937) rotate(-90) scale(0.12 -0.12)">
      <defs>
       <path id="DejaVuSans-4f" d="M 2522 4238 
Q 1834 4238 1429 3725 
Q 1025 3213 1025 2328 
Q 1025 1447 1429 934 
Q 1834 422 2522 422 
Q 3209 422 3611 934 
Q 4013 1447 4013 2328 
Q 4013 3213 3611 3725 
Q 3209 4238 2522 4238 
z
M 2522 4750 
Q 3503 4750 4090 4092 
Q 4678 3434 4678 2328 
Q 4678 1225 4090 567 
Q 3503 -91 2522 -91 
Q 1538 -91 948 565 
Q 359 1222 359 2328 
Q 359 3434 948 4092 
Q 1538 4750 2522 4750 
z
" transform="scale(0.015625)"/>
       <path id="DejaVuSans-76" d="M 191 3500 
L 800 3500 
L 1894 563 
L 2988 3500 
L 3597 3500 
L 2284 0 
L 1503 0 
L 191 3500 
z
" transform="scale(0.015625)"/>
       <path id="DejaVuSans-61" d="M 2194 1759 
Q 1497 1759 1228 1600 
Q 959 1441 959 1056 
Q 959 750 1161 570 
Q 1363 391 1709 391 
Q 2188 391 2477 730 
Q 2766 1069 2766 1631 
L 2766 1759 
L 2194 1759 
z
M 3341 1997 
L 3341 0 
L 2766 0 
L 2766 531 
Q 2569 213 2275 61 
Q 1981 -91 1556 -91 
Q 1019 -91 701 211 
Q 384 513 384 1019 
Q 384 1609 779 1909 
Q 1175 2209 1959 2209 
L 2766 2209 
L 2766 2266 
Q 2766 2663 2505 2880 
Q 2244 3097 1772 3097 
Q 1472 3097 1187 3025 
Q 903 2953 641 2809 
L 641 3341 
Q 956 3463 1253 3523 
Q 1550 3584 1831 3584 
Q 2591 3584 2966 3190 
Q 3341 2797 3341 1997 
z
" transform="scale(0.015625)"/>
       <path id="DejaVuSans-69" d="M 603 3500 
L 1178 3500 
L 1178 0 
L 603 0 
L 603 3500 
z
M 603 4863 
L 1178 4863 
L 1178 4134 
L 603 4134 
L 603 4863 
z
" transform="scale(0.015625)"/>
       <path id="DejaVuSans-6e" d="M 3513 2113 
L 3513 0 
L 2938 0 
L 2938 2094 
Q 2938 2591 2744 2837 
Q 2550 3084 2163 3084 
Q 1697 3084 1428 2787 
Q 1159 2491 1159 1978 
L 1159 0 
L 581 0 
L 581 3500 
L 1159 3500 
L 1159 2956 
Q 1366 3272 1645 3428 
Q 1925 3584 2291 3584 
Q 2894 3584 3203 3211 
Q 3513 2838 3513 2113 
z
" transform="scale(0.015625)"/>
      </defs>
      <use xlink:href="#DejaVuSans-4f"/>
      <use xlink:href="#DejaVuSans-62" x="78.710938"/>
      <use xlink:href="#DejaVuSans-73" x="142.1875"/>
      <use xlink:href="#DejaVuSans-65" x="194.287109"/>
      <use xlink:href="#DejaVuSans-72" x="255.810547"/>
      <use xlink:href="#DejaVuSans-76" x="296.923828"/>
      <use xlink:href="#DejaVuSans-61" x="356.103516"/>
      <use xlink:href="#DejaVuSans-74" x="417.382812"/>
      <use xlink:href="#DejaVuSans-69" x="456.591797"/>
      <use xlink:href="#DejaVuSans-6f" x="484.375"/>
      <use xlink:href="#DejaVuSans-6e" x="545.556641"/>
      <use xlink:href="#DejaVuSans-73" x="608.935547"/>
     </g>
    </g>
   </g>
   <g id="line2d_15">
    <path d="M 97.731367 311.318125 
L 97.731367 22.318125 
" clip-path="url(#p0bfcf87e94)" style="fill: none; stroke-dasharray: 5.55,2.4; stroke-dashoffset: 0; stroke: #dc143c; stroke-width: 1.5"/>
   </g>
   <g id="patch_63">
    <path d="M 57.80875 311.318125 
L 57.80875 22.318125 
" style="fill: none; stroke: #000000; stroke-width: 0.8; stroke-linejoin: miter; stroke-linecap: square"/>
   </g>
   <g id="patch_64">
    <path d="M 57.80875 311.318125 
L 461.431929 311.318125 
" style="fill: none; stroke: #000000; stroke-width: 0.8; stroke-linejoin: miter; stroke-linecap: square"/>
   </g>
   <g id="text_17">
    <!-- Abs. Error Distribution — All Observations -->
    <g transform="translate(134.414402 16.318125) scale(0.12 -0.12)">
     <defs>
      <path id="DejaVuSans-2e" d="M 684 794 
L 1344 794 
L 1344 0 
L 684 0 
L 684 794 
z
" transform="scale(0.015625)"/>
      <path id="DejaVuSans-44" d="M 1259 4147 
L 1259 519 
L 2022 519 
Q 2988 519 3436 956 
Q 3884 1394 3884 2338 
Q 3884 3275 3436 3711 
Q 2988 4147 2022 4147 
L 1259 4147 
z
M 628 4666 
L 1925 4666 
Q 3281 4666 3915 4102 
Q 4550 3538 4550 2338 
Q 4550 1131 3912 565 
Q 3275 0 1925 0 
L 628 0 
L 628 4666 
z
" transform="scale(0.015625)"/>
      <path id="DejaVuSans-2014" d="M 313 1978 
L 6088 1978 
L 6088 1528 
L 313 1528 
L 313 1978 
z
" transform="scale(0.015625)"/>
     </defs>
     <use xlink:href="#DejaVuSans-41"/>
     <use xlink:href="#DejaVuSans-62" x="68.408203"/>
     <use xlink:href="#DejaVuSans-73" x="131.884766"/>
     <use xlink:href="#DejaVuSans-2e" x="183.984375"/>
     <use xlink:href="#DejaVuSans-20" x="215.771484"/>
     <use xlink:href="#DejaVuSans-45" x="247.558594"/>
     <use xlink:href="#DejaVuSans-72" x="310.742188"/>
     <use xlink:href="#DejaVuSans-72" x="350.105469"/>
     <use xlink:href="#DejaVuSans-6f" x="388.96875"/>
     <use xlink:href="#DejaVuSans-72" x="450.150391"/>
     <use xlink:href="#DejaVuSans-20" x="491.263672"/>
     <use xlink:href="#DejaVuSans-44" x="523.050781"/>
     <use xlink:href="#DejaVuSans-69" x="600.052734"/>
     <use xlink:href="#DejaVuSans-73" x="627.835938"/>
     <use xlink:href="#DejaVuSans-74" x="679.935547"/>
     <use xlink:href="#DejaVuSans-72" x="719.144531"/>
     <use xlink:href="#DejaVuSans-69" x="760.257812"/>
     <use xlink:href="#DejaVuSans-62" x="788.041016"/>
     <use xlink:href="#DejaVuSans-75" x="851.517578"/>
     <use xlink:href="#DejaVuSans-74" x="914.896484"/>
     <use xlink:href="#DejaVuSans-69" x="954.105469"/>
     <use xlink:href="#DejaVuSans-6f" x="981.888672"/>
     <use xlink:href="#DejaVuSans-6e" x="1043.070312"/>
     <use xlink:href="#DejaVuSans-20" x="1106.449219"/>
     <use xlink:href="#DejaVuSans-2014" x="1138.236328"/>
     <use xlink:href="#DejaVuSans-20" x="1238.236328"/>
     <use xlink:href="#DejaVuSans-41" x="1270.023438"/>
     <use xlink:href="#DejaVuSans-6c" x="1338.431641"/>
     <use xlink:href="#DejaVuSans-6c" x="1366.214844"/>
     <use xlink:href="#DejaVuSans-20" x="1393.998047"/>
     <use xlink:href="#DejaVuSans-4f" x="1425.785156"/>
     <use xlink:href="#DejaVuSans-62" x="1504.496094"/>
     <use xlink:href="#DejaVuSans-73" x="1567.972656"/>
     <use xlink:href="#DejaVuSans-65" x="1620.072266"/>
     <use xlink:href="#DejaVuSans-72" x="1681.595703"/>
     <use xlink:href="#DejaVuSans-76" x="1722.708984"/>
     <use xlink:href="#DejaVuSans-61" x="1781.888672"/>
     <use xlink:href="#DejaVuSans-74" x="1843.167969"/>
     <use xlink:href="#DejaVuSans-69" x="1882.376953"/>
     <use xlink:href="#DejaVuSans-6f" x="1910.160156"/>
     <use xlink:href="#DejaVuSans-6e" x="1971.341797"/>
     <use xlink:href="#DejaVuSans-73" x="2034.720703"/>
    </g>
   </g>
   <g id="legend_1">
    <g id="patch_65">
     <path d="M 351.820991 44.99625 
L 454.431929 44.99625 
Q 456.431929 44.99625 456.431929 42.99625 
L 456.431929 29.318125 
Q 456.431929 27.318125 454.431929 27.318125 
L 351.820991 27.318125 
Q 349.820991 27.318125 349.820991 29.318125 
L 349.820991 42.99625 
Q 349.820991 44.99625 351.820991 44.99625 
z
" style="fill: #ffffff; opacity: 0.8; stroke: #cccccc; stroke-linejoin: miter"/>
    </g>
    <g id="line2d_16">
     <path d="M 353.820991 35.416563 
L 363.820991 35.416563 
L 373.820991 35.416563 
" style="fill: none; stroke-dasharray: 5.55,2.4; stroke-dashoffset: 0; stroke: #dc143c; stroke-width: 1.5"/>
    </g>
    <g id="text_18">
     <!-- Mean = 2.003 -->
     <g transform="translate(381.820991 38.916563) scale(0.1 -0.1)">
      <defs>
       <path id="DejaVuSans-4d" d="M 628 4666 
L 1569 4666 
L 2759 1491 
L 3956 4666 
L 4897 4666 
L 4897 0 
L 4281 0 
L 4281 4097 
L 3078 897 
L 2444 897 
L 1241 4097 
L 1241 0 
L 628 0 
L 628 4666 
z
" transform="scale(0.015625)"/>
       <path id="DejaVuSans-3d" d="M 678 2906 
L 4684 2906 
L 4684 2381 
L 678 2381 
L 678 2906 
z
M 678 1631 
L 4684 1631 
L 4684 1100 
L 678 1100 
L 678 1631 
z
" transform="scale(0.015625)"/>
      </defs>
      <use xlink:href="#DejaVuSans-4d"/>
      <use xlink:href="#DejaVuSans-65" x="86.279297"/>
      <use xlink:href="#DejaVuSans-61" x="147.802734"/>
      <use xlink:href="#DejaVuSans-6e" x="209.082031"/>
      <use xlink:href="#DejaVuSans-20" x="272.460938"/>
      <use xlink:href="#DejaVuSans-3d" x="304.248047"/>
      <use xlink:href="#DejaVuSans-20" x="388.037109"/>
      <use xlink:href="#DejaVuSans-32" x="419.824219"/>
      <use xlink:href="#DejaVuSans-2e" x="483.447266"/>
      <use xlink:href="#DejaVuSans-30" x="515.234375"/>
      <use xlink:href="#DejaVuSans-30" x="578.857422"/>
      <use xlink:href="#DejaVuSans-33" x="642.480469"/>
     </g>
    </g>
   </g>
  </g>
  <g id="axes_2">
   <g id="patch_66">
    <path d="M 516.545571 311.318125 
L 920.16875 311.318125 
L 920.16875 22.318125 
L 516.545571 22.318125 
z
" style="fill: #ffffff"/>
   </g>
   <g id="patch_67">
    <path d="M 534.892079 311.318125 
L 544.065333 311.318125 
L 544.065333 150.762569 
L 534.892079 150.762569 
z
" clip-path="url(#p3624f95267)" style="fill: #ff7f50; opacity: 0.85; stroke: #ffffff; stroke-linejoin: miter"/>
   </g>
   <g id="patch_68">
    <path d="M 544.065333 311.318125 
L 553.238587 311.318125 
L 553.238587 36.08003 
L 544.065333 36.08003 
z
" clip-path="url(#p3624f95267)" style="fill: #ff7f50; opacity: 0.85; stroke: #ffffff; stroke-linejoin: miter"/>
   </g>
   <g id="patch_69">
    <path d="M 553.238587 311.318125 
L 562.411841 311.318125 
L 562.411841 81.953046 
L 553.238587 81.953046 
z
" clip-path="url(#p3624f95267)" style="fill: #ff7f50; opacity: 0.85; stroke: #ffffff; stroke-linejoin: miter"/>
   </g>
   <g id="patch_70">
    <path d="M 562.411841 311.318125 
L 571.585095 311.318125 
L 571.585095 122.091935 
L 562.411841 122.091935 
z
" clip-path="url(#p3624f95267)" style="fill: #ff7f50; opacity: 0.85; stroke: #ffffff; stroke-linejoin: miter"/>
   </g>
   <g id="patch_71">
    <path d="M 571.585095 311.318125 
L 580.75835 311.318125 
L 580.75835 130.693125 
L 571.585095 130.693125 
z
" clip-path="url(#p3624f95267)" style="fill: #ff7f50; opacity: 0.85; stroke: #ffffff; stroke-linejoin: miter"/>
   </g>
   <g id="patch_72">
    <path d="M 580.75835 311.318125 
L 589.931604 311.318125 
L 589.931604 150.762569 
L 580.75835 150.762569 
z
" clip-path="url(#p3624f95267)" style="fill: #ff7f50; opacity: 0.85; stroke: #ffffff; stroke-linejoin: miter"/>
   </g>
   <g id="patch_73">
    <path d="M 589.931604 311.318125 
L 599.104858 311.318125 
L 599.104858 136.427252 
L 589.931604 136.427252 
z
" clip-path="url(#p3624f95267)" style="fill: #ff7f50; opacity: 0.85; stroke: #ffffff; stroke-linejoin: miter"/>
   </g>
   <g id="patch_74">
    <path d="M 599.104858 311.318125 
L 608.278112 311.318125 
L 608.278112 147.895506 
L 599.104858 147.895506 
z
" clip-path="url(#p3624f95267)" style="fill: #ff7f50; opacity: 0.85; stroke: #ffffff; stroke-linejoin: miter"/>
   </g>
   <g id="patch_75">
    <path d="M 608.278112 311.318125 
L 617.451366 311.318125 
L 617.451366 150.762569 
L 608.278112 150.762569 
z
" clip-path="url(#p3624f95267)" style="fill: #ff7f50; opacity: 0.85; stroke: #ffffff; stroke-linejoin: miter"/>
   </g>
   <g id="patch_76">
    <path d="M 617.451366 311.318125 
L 626.62462 311.318125 
L 626.62462 199.502649 
L 617.451366 199.502649 
z
" clip-path="url(#p3624f95267)" style="fill: #ff7f50; opacity: 0.85; stroke: #ffffff; stroke-linejoin: miter"/>
   </g>
   <g id="patch_77">
    <path d="M 626.62462 311.318125 
L 635.797874 311.318125 
L 635.797874 231.040347 
L 626.62462 231.040347 
z
" clip-path="url(#p3624f95267)" style="fill: #ff7f50; opacity: 0.85; stroke: #ffffff; stroke-linejoin: miter"/>
   </g>
   <g id="patch_78">
    <path d="M 635.797874 311.318125 
L 644.971128 311.318125 
L 644.971128 233.907411 
L 635.797874 233.907411 
z
" clip-path="url(#p3624f95267)" style="fill: #ff7f50; opacity: 0.85; stroke: #ffffff; stroke-linejoin: miter"/>
   </g>
   <g id="patch_79">
    <path d="M 644.971128 311.318125 
L 654.144382 311.318125 
L 654.144382 274.0463 
L 644.971128 274.0463 
z
" clip-path="url(#p3624f95267)" style="fill: #ff7f50; opacity: 0.85; stroke: #ffffff; stroke-linejoin: miter"/>
   </g>
   <g id="patch_80">
    <path d="M 654.144382 311.318125 
L 663.317636 311.318125 
L 663.317636 279.780427 
L 654.144382 279.780427 
z
" clip-path="url(#p3624f95267)" style="fill: #ff7f50; opacity: 0.85; stroke: #ffffff; stroke-linejoin: miter"/>
   </g>
   <g id="patch_81">
    <path d="M 663.317636 311.318125 
L 672.49089 311.318125 
L 672.49089 274.0463 
L 663.317636 274.0463 
z
" clip-path="url(#p3624f95267)" style="fill: #ff7f50; opacity: 0.85; stroke: #ffffff; stroke-linejoin: miter"/>
   </g>
   <g id="patch_82">
    <path d="M 672.49089 311.318125 
L 681.664144 311.318125 
L 681.664144 279.780427 
L 672.49089 279.780427 
z
" clip-path="url(#p3624f95267)" style="fill: #ff7f50; opacity: 0.85; stroke: #ffffff; stroke-linejoin: miter"/>
   </g>
   <g id="patch_83">
    <path d="M 681.664144 311.318125 
L 690.837398 311.318125 
L 690.837398 279.780427 
L 681.664144 279.780427 
z
" clip-path="url(#p3624f95267)" style="fill: #ff7f50; opacity: 0.85; stroke: #ffffff; stroke-linejoin: miter"/>
   </g>
   <g id="patch_84">
    <path d="M 690.837398 311.318125 
L 700.010652 311.318125 
L 700.010652 279.780427 
L 690.837398 279.780427 
z
" clip-path="url(#p3624f95267)" style="fill: #ff7f50; opacity: 0.85; stroke: #ffffff; stroke-linejoin: miter"/>
   </g>
   <g id="patch_85">
    <path d="M 700.010652 311.318125 
L 709.183906 311.318125 
L 709.183906 302.716935 
L 700.010652 302.716935 
z
" clip-path="url(#p3624f95267)" style="fill: #ff7f50; opacity: 0.85; stroke: #ffffff; stroke-linejoin: miter"/>
   </g>
   <g id="patch_86">
    <path d="M 709.183906 311.318125 
L 718.357161 311.318125 
L 718.357161 299.849871 
L 709.183906 299.849871 
z
" clip-path="url(#p3624f95267)" style="fill: #ff7f50; opacity: 0.85; stroke: #ffffff; stroke-linejoin: miter"/>
   </g>
   <g id="patch_87">
    <path d="M 718.357161 311.318125 
L 727.530415 311.318125 
L 727.530415 296.982808 
L 718.357161 296.982808 
z
" clip-path="url(#p3624f95267)" style="fill: #ff7f50; opacity: 0.85; stroke: #ffffff; stroke-linejoin: miter"/>
   </g>
   <g id="patch_88">
    <path d="M 727.530415 311.318125 
L 736.703669 311.318125 
L 736.703669 308.451062 
L 727.530415 308.451062 
z
" clip-path="url(#p3624f95267)" style="fill: #ff7f50; opacity: 0.85; stroke: #ffffff; stroke-linejoin: miter"/>
   </g>
   <g id="patch_89">
    <path d="M 736.703669 311.318125 
L 745.876923 311.318125 
L 745.876923 302.716935 
L 736.703669 302.716935 
z
" clip-path="url(#p3624f95267)" style="fill: #ff7f50; opacity: 0.85; stroke: #ffffff; stroke-linejoin: miter"/>
   </g>
   <g id="patch_90">
    <path d="M 745.876923 311.318125 
L 755.050177 311.318125 
L 755.050177 305.583998 
L 745.876923 305.583998 
z
" clip-path="url(#p3624f95267)" style="fill: #ff7f50; opacity: 0.85; stroke: #ffffff; stroke-linejoin: miter"/>
   </g>
   <g id="patch_91">
    <path d="M 755.050177 311.318125 
L 764.223431 311.318125 
L 764.223431 308.451062 
L 755.050177 308.451062 
z
" clip-path="url(#p3624f95267)" style="fill: #ff7f50; opacity: 0.85; stroke: #ffffff; stroke-linejoin: miter"/>
   </g>
   <g id="patch_92">
    <path d="M 764.223431 311.318125 
L 773.396685 311.318125 
L 773.396685 311.318125 
L 764.223431 311.318125 
z
" clip-path="url(#p3624f95267)" style="fill: #ff7f50; opacity: 0.85; stroke: #ffffff; stroke-linejoin: miter"/>
   </g>
   <g id="patch_93">
    <path d="M 773.396685 311.318125 
L 782.569939 311.318125 
L 782.569939 311.318125 
L 773.396685 311.318125 
z
" clip-path="url(#p3624f95267)" style="fill: #ff7f50; opacity: 0.85; stroke: #ffffff; stroke-linejoin: miter"/>
   </g>
   <g id="patch_94">
    <path d="M 782.569939 311.318125 
L 791.743193 311.318125 
L 791.743193 311.318125 
L 782.569939 311.318125 
z
" clip-path="url(#p3624f95267)" style="fill: #ff7f50; opacity: 0.85; stroke: #ffffff; stroke-linejoin: miter"/>
   </g>
   <g id="patch_95">
    <path d="M 791.743193 311.318125 
L 800.916447 311.318125 
L 800.916447 308.451062 
L 791.743193 308.451062 
z
" clip-path="url(#p3624f95267)" style="fill: #ff7f50; opacity: 0.85; stroke: #ffffff; stroke-linejoin: miter"/>
   </g>
   <g id="patch_96">
    <path d="M 800.916447 311.318125 
L 810.089701 311.318125 
L 810.089701 311.318125 
L 800.916447 311.318125 
z
" clip-path="url(#p3624f95267)" style="fill: #ff7f50; opacity: 0.85; stroke: #ffffff; stroke-linejoin: miter"/>
   </g>
   <g id="patch_97">
    <path d="M 810.089701 311.318125 
L 819.262955 311.318125 
L 819.262955 311.318125 
L 810.089701 311.318125 
z
" clip-path="url(#p3624f95267)" style="fill: #ff7f50; opacity: 0.85; stroke: #ffffff; stroke-linejoin: miter"/>
   </g>
   <g id="patch_98">
    <path d="M 819.262955 311.318125 
L 828.436209 311.318125 
L 828.436209 308.451062 
L 819.262955 308.451062 
z
" clip-path="url(#p3624f95267)" style="fill: #ff7f50; opacity: 0.85; stroke: #ffffff; stroke-linejoin: miter"/>
   </g>
   <g id="patch_99">
    <path d="M 828.436209 311.318125 
L 837.609463 311.318125 
L 837.609463 308.451062 
L 828.436209 308.451062 
z
" clip-path="url(#p3624f95267)" style="fill: #ff7f50; opacity: 0.85; stroke: #ffffff; stroke-linejoin: miter"/>
   </g>
   <g id="patch_100">
    <path d="M 837.609463 311.318125 
L 846.782717 311.318125 
L 846.782717 311.318125 
L 837.609463 311.318125 
z
" clip-path="url(#p3624f95267)" style="fill: #ff7f50; opacity: 0.85; stroke: #ffffff; stroke-linejoin: miter"/>
   </g>
   <g id="patch_101">
    <path d="M 846.782717 311.318125 
L 855.955972 311.318125 
L 855.955972 308.451062 
L 846.782717 308.451062 
z
" clip-path="url(#p3624f95267)" style="fill: #ff7f50; opacity: 0.85; stroke: #ffffff; stroke-linejoin: miter"/>
   </g>
   <g id="patch_102">
    <path d="M 855.955972 311.318125 
L 865.129226 311.318125 
L 865.129226 308.451062 
L 855.955972 308.451062 
z
" clip-path="url(#p3624f95267)" style="fill: #ff7f50; opacity: 0.85; stroke: #ffffff; stroke-linejoin: miter"/>
   </g>
   <g id="patch_103">
    <path d="M 865.129226 311.318125 
L 874.30248 311.318125 
L 874.30248 311.318125 
L 865.129226 311.318125 
z
" clip-path="url(#p3624f95267)" style="fill: #ff7f50; opacity: 0.85; stroke: #ffffff; stroke-linejoin: miter"/>
   </g>
   <g id="patch_104">
    <path d="M 874.30248 311.318125 
L 883.475734 311.318125 
L 883.475734 311.318125 
L 874.30248 311.318125 
z
" clip-path="url(#p3624f95267)" style="fill: #ff7f50; opacity: 0.85; stroke: #ffffff; stroke-linejoin: miter"/>
   </g>
   <g id="patch_105">
    <path d="M 883.475734 311.318125 
L 892.648988 311.318125 
L 892.648988 311.318125 
L 883.475734 311.318125 
z
" clip-path="url(#p3624f95267)" style="fill: #ff7f50; opacity: 0.85; stroke: #ffffff; stroke-linejoin: miter"/>
   </g>
   <g id="patch_106">
    <path d="M 892.648988 311.318125 
L 901.822242 311.318125 
L 901.822242 308.451062 
L 892.648988 308.451062 
z
" clip-path="url(#p3624f95267)" style="fill: #ff7f50; opacity: 0.85; stroke: #ffffff; stroke-linejoin: miter"/>
   </g>
   <g id="matplotlib.axis_3">
    <g id="xtick_9">
     <g id="line2d_17">
      <g>
       <use xlink:href="#m481d4c20c5" x="533.809175" y="311.318125" style="stroke: #000000; stroke-width: 0.8"/>
      </g>
     </g>
     <g id="text_19">
      <!-- 0 -->
      <g transform="translate(530.3098 326.676406) scale(0.11 -0.11)">
       <use xlink:href="#DejaVuSans-30"/>
      </g>
     </g>
    </g>
    <g id="xtick_10">
     <g id="line2d_18">
      <g>
       <use xlink:href="#m481d4c20c5" x="607.219494" y="311.318125" style="stroke: #000000; stroke-width: 0.8"/>
      </g>
     </g>
     <g id="text_20">
      <!-- 2 -->
      <g transform="translate(603.720119 326.676406) scale(0.11 -0.11)">
       <use xlink:href="#DejaVuSans-32"/>
      </g>
     </g>
    </g>
    <g id="xtick_11">
     <g id="line2d_19">
      <g>
       <use xlink:href="#m481d4c20c5" x="680.629813" y="311.318125" style="stroke: #000000; stroke-width: 0.8"/>
      </g>
     </g>
     <g id="text_21">
      <!-- 4 -->
      <g transform="translate(677.130438 326.676406) scale(0.11 -0.11)">
       <use xlink:href="#DejaVuSans-34"/>
      </g>
     </g>
    </g>
    <g id="xtick_12">
     <g id="line2d_20">
      <g>
       <use xlink:href="#m481d4c20c5" x="754.040132" y="311.318125" style="stroke: #000000; stroke-width: 0.8"/>
      </g>
     </g>
     <g id="text_22">
      <!-- 6 -->
      <g transform="translate(750.540757 326.676406) scale(0.11 -0.11)">
       <use xlink:href="#DejaVuSans-36"/>
      </g>
     </g>
    </g>
    <g id="xtick_13">
     <g id="line2d_21">
      <g>
       <use xlink:href="#m481d4c20c5" x="827.450451" y="311.318125" style="stroke: #000000; stroke-width: 0.8"/>
      </g>
     </g>
     <g id="text_23">
      <!-- 8 -->
      <g transform="translate(823.951076 326.676406) scale(0.11 -0.11)">
       <use xlink:href="#DejaVuSans-38"/>
      </g>
     </g>
    </g>
    <g id="xtick_14">
     <g id="line2d_22">
      <g>
       <use xlink:href="#m481d4c20c5" x="900.86077" y="311.318125" style="stroke: #000000; stroke-width: 0.8"/>
      </g>
     </g>
     <g id="text_24">
      <!-- 10 -->
      <g transform="translate(893.86202 326.676406) scale(0.11 -0.11)">
       <use xlink:href="#DejaVuSans-31"/>
       <use xlink:href="#DejaVuSans-30" x="63.623047"/>
      </g>
     </g>
    </g>
    <g id="text_25">
     <!-- Per-Subject MAE (SPARE-BA) -->
     <g transform="translate(633.740286 342.082187) scale(0.12 -0.12)">
      <defs>
       <path id="DejaVuSans-6a" d="M 603 3500 
L 1178 3500 
L 1178 -63 
Q 1178 -731 923 -1031 
Q 669 -1331 103 -1331 
L -116 -1331 
L -116 -844 
L 38 -844 
Q 366 -844 484 -692 
Q 603 -541 603 -63 
L 603 3500 
z
M 603 4863 
L 1178 4863 
L 1178 4134 
L 603 4134 
L 603 4863 
z
" transform="scale(0.015625)"/>
       <path id="DejaVuSans-63" d="M 3122 3366 
L 3122 2828 
Q 2878 2963 2633 3030 
Q 2388 3097 2138 3097 
Q 1578 3097 1268 2742 
Q 959 2388 959 1747 
Q 959 1106 1268 751 
Q 1578 397 2138 397 
Q 2388 397 2633 464 
Q 2878 531 3122 666 
L 3122 134 
Q 2881 22 2623 -34 
Q 2366 -91 2075 -91 
Q 1284 -91 818 406 
Q 353 903 353 1747 
Q 353 2603 823 3093 
Q 1294 3584 2113 3584 
Q 2378 3584 2631 3529 
Q 2884 3475 3122 3366 
z
" transform="scale(0.015625)"/>
      </defs>
      <use xlink:href="#DejaVuSans-50"/>
      <use xlink:href="#DejaVuSans-65" x="56.677734"/>
      <use xlink:href="#DejaVuSans-72" x="118.201172"/>
      <use xlink:href="#DejaVuSans-2d" x="152.939453"/>
      <use xlink:href="#DejaVuSans-53" x="189.023438"/>
      <use xlink:href="#DejaVuSans-75" x="252.5"/>
      <use xlink:href="#DejaVuSans-62" x="315.878906"/>
      <use xlink:href="#DejaVuSans-6a" x="379.355469"/>
      <use xlink:href="#DejaVuSans-65" x="407.138672"/>
      <use xlink:href="#DejaVuSans-63" x="468.662109"/>
      <use xlink:href="#DejaVuSans-74" x="523.642578"/>
      <use xlink:href="#DejaVuSans-20" x="562.851562"/>
      <use xlink:href="#DejaVuSans-4d" x="594.638672"/>
      <use xlink:href="#DejaVuSans-41" x="680.917969"/>
      <use xlink:href="#DejaVuSans-45" x="749.326172"/>
      <use xlink:href="#DejaVuSans-20" x="812.509766"/>
      <use xlink:href="#DejaVuSans-28" x="844.296875"/>
      <use xlink:href="#DejaVuSans-53" x="883.310547"/>
      <use xlink:href="#DejaVuSans-50" x="946.787109"/>
      <use xlink:href="#DejaVuSans-41" x="1000.714844"/>
      <use xlink:href="#DejaVuSans-52" x="1069.123047"/>
      <use xlink:href="#DejaVuSans-45" x="1138.605469"/>
      <use xlink:href="#DejaVuSans-2d" x="1201.789062"/>
      <use xlink:href="#DejaVuSans-42" x="1234.248047"/>
      <use xlink:href="#DejaVuSans-41" x="1302.851562"/>
      <use xlink:href="#DejaVuSans-29" x="1371.259766"/>
     </g>
    </g>
   </g>
   <g id="matplotlib.axis_4">
    <g id="ytick_7">
     <g id="line2d_23">
      <g>
       <use xlink:href="#m980388d1b3" x="516.545571" y="311.318125" style="stroke: #000000; stroke-width: 0.8"/>
      </g>
     </g>
     <g id="text_26">
      <!-- 0 -->
      <g transform="translate(502.546821 315.497266) scale(0.11 -0.11)">
       <use xlink:href="#DejaVuSans-30"/>
      </g>
     </g>
    </g>
    <g id="ytick_8">
     <g id="line2d_24">
      <g>
       <use xlink:href="#m980388d1b3" x="516.545571" y="253.976855" style="stroke: #000000; stroke-width: 0.8"/>
      </g>
     </g>
     <g id="text_27">
      <!-- 20 -->
      <g transform="translate(495.548071 258.155996) scale(0.11 -0.11)">
       <use xlink:href="#DejaVuSans-32"/>
       <use xlink:href="#DejaVuSans-30" x="63.623047"/>
      </g>
     </g>
    </g>
    <g id="ytick_9">
     <g id="line2d_25">
      <g>
       <use xlink:href="#m980388d1b3" x="516.545571" y="196.635585" style="stroke: #000000; stroke-width: 0.8"/>
      </g>
     </g>
     <g id="text_28">
      <!-- 40 -->
      <g transform="translate(495.548071 200.814726) scale(0.11 -0.11)">
       <use xlink:href="#DejaVuSans-34"/>
       <use xlink:href="#DejaVuSans-30" x="63.623047"/>
      </g>
     </g>
    </g>
    <g id="ytick_10">
     <g id="line2d_26">
      <g>
       <use xlink:href="#m980388d1b3" x="516.545571" y="139.294315" style="stroke: #000000; stroke-width: 0.8"/>
      </g>
     </g>
     <g id="text_29">
      <!-- 60 -->
      <g transform="translate(495.548071 143.473456) scale(0.11 -0.11)">
       <use xlink:href="#DejaVuSans-36"/>
       <use xlink:href="#DejaVuSans-30" x="63.623047"/>
      </g>
     </g>
    </g>
    <g id="ytick_11">
     <g id="line2d_27">
      <g>
       <use xlink:href="#m980388d1b3" x="516.545571" y="81.953046" style="stroke: #000000; stroke-width: 0.8"/>
      </g>
     </g>
     <g id="text_30">
      <!-- 80 -->
      <g transform="translate(495.548071 86.132186) scale(0.11 -0.11)">
       <use xlink:href="#DejaVuSans-38"/>
       <use xlink:href="#DejaVuSans-30" x="63.623047"/>
      </g>
     </g>
    </g>
    <g id="ytick_12">
     <g id="line2d_28">
      <g>
       <use xlink:href="#m980388d1b3" x="516.545571" y="24.611776" style="stroke: #000000; stroke-width: 0.8"/>
      </g>
     </g>
     <g id="text_31">
      <!-- 100 -->
      <g transform="translate(488.549321 28.790916) scale(0.11 -0.11)">
       <use xlink:href="#DejaVuSans-31"/>
       <use xlink:href="#DejaVuSans-30" x="63.623047"/>
       <use xlink:href="#DejaVuSans-30" x="127.246094"/>
      </g>
     </g>
    </g>
    <g id="text_32">
     <!-- Subjects -->
     <g transform="translate(482.053696 192.374375) rotate(-90) scale(0.12 -0.12)">
      <use xlink:href="#DejaVuSans-53"/>
      <use xlink:href="#DejaVuSans-75" x="63.476562"/>
      <use xlink:href="#DejaVuSans-62" x="126.855469"/>
      <use xlink:href="#DejaVuSans-6a" x="190.332031"/>
      <use xlink:href="#DejaVuSans-65" x="218.115234"/>
      <use xlink:href="#DejaVuSans-63" x="279.638672"/>
      <use xlink:href="#DejaVuSans-74" x="334.619141"/>
      <use xlink:href="#DejaVuSans-73" x="373.828125"/>
     </g>
    </g>
   </g>
   <g id="line2d_29">
    <path d="M 594.889685 311.318125 
L 594.889685 22.318125 
" clip-path="url(#p3624f95267)" style="fill: none; stroke-dasharray: 5.55,2.4; stroke-dashoffset: 0; stroke: #000080; stroke-width: 1.5"/>
   </g>
   <g id="patch_107">
    <path d="M 516.545571 311.318125 
L 516.545571 22.318125 
" style="fill: none; stroke: #000000; stroke-width: 0.8; stroke-linejoin: miter; stroke-linecap: square"/>
   </g>
   <g id="patch_108">
    <path d="M 516.545571 311.318125 
L 920.16875 311.318125 
" style="fill: none; stroke: #000000; stroke-width: 0.8; stroke-linejoin: miter; stroke-linecap: square"/>
   </g>
   <g id="text_33">
    <!-- Per-Subject MAE Distribution -->
    <g transform="translate(632.696848 16.318125) scale(0.12 -0.12)">
     <use xlink:href="#DejaVuSans-50"/>
     <use xlink:href="#DejaVuSans-65" x="56.677734"/>
     <use xlink:href="#DejaVuSans-72" x="118.201172"/>
     <use xlink:href="#DejaVuSans-2d" x="152.939453"/>
     <use xlink:href="#DejaVuSans-53" x="189.023438"/>
     <use xlink:href="#DejaVuSans-75" x="252.5"/>
     <use xlink:href="#DejaVuSans-62" x="315.878906"/>
     <use xlink:href="#DejaVuSans-6a" x="379.355469"/>
     <use xlink:href="#DejaVuSans-65" x="407.138672"/>
     <use xlink:href="#DejaVuSans-63" x="468.662109"/>
     <use xlink:href="#DejaVuSans-74" x="523.642578"/>
     <use xlink:href="#DejaVuSans-20" x="562.851562"/>
     <use xlink:href="#DejaVuSans-4d" x="594.638672"/>
     <use xlink:href="#DejaVuSans-41" x="680.917969"/>
     <use xlink:href="#DejaVuSans-45" x="749.326172"/>
     <use xlink:href="#DejaVuSans-20" x="812.509766"/>
     <use xlink:href="#DejaVuSans-44" x="844.296875"/>
     <use xlink:href="#DejaVuSans-69" x="921.298828"/>
     <use xlink:href="#DejaVuSans-73" x="949.082031"/>
     <use xlink:href="#DejaVuSans-74" x="1001.181641"/>
     <use xlink:href="#DejaVuSans-72" x="1040.390625"/>
     <use xlink:href="#DejaVuSans-69" x="1081.503906"/>
     <use xlink:href="#DejaVuSans-62" x="1109.287109"/>
     <use xlink:href="#DejaVuSans-75" x="1172.763672"/>
     <use xlink:href="#DejaVuSans-74" x="1236.142578"/>
     <use xlink:href="#DejaVuSans-69" x="1275.351562"/>
     <use xlink:href="#DejaVuSans-6f" x="1303.134766"/>
     <use xlink:href="#DejaVuSans-6e" x="1364.316406"/>
    </g>
   </g>
   <g id="legend_2">
    <g id="patch_109">
     <path d="M 810.557812 44.99625 
L 913.16875 44.99625 
Q 915.16875 44.99625 915.16875 42.99625 
L 915.16875 29.318125 
Q 915.16875 27.318125 913.16875 27.318125 
L 810.557812 27.318125 
Q 808.557812 27.318125 808.557812 29.318125 
L 808.557812 42.99625 
Q 808.557812 44.99625 810.557812 44.99625 
z
" style="fill: #ffffff; opacity: 0.8; stroke: #cccccc; stroke-linejoin: miter"/>
    </g>
    <g id="line2d_30">
     <path d="M 812.557812 35.416563 
L 822.557812 35.416563 
L 832.557812 35.416563 
" style="fill: none; stroke-dasharray: 5.55,2.4; stroke-dashoffset: 0; stroke: #000080; stroke-width: 1.5"/>
    </g>
    <g id="text_34">
     <!-- Mean = 1.664 -->
     <g transform="translate(840.557812 38.916563) scale(0.1 -0.1)">
      <use xlink:href="#DejaVuSans-4d"/>
      <use xlink:href="#DejaVuSans-65" x="86.279297"/>
      <use xlink:href="#DejaVuSans-61" x="147.802734"/>
      <use xlink:href="#DejaVuSans-6e" x="209.082031"/>
      <use xlink:href="#DejaVuSans-20" x="272.460938"/>
      <use xlink:href="#DejaVuSans-3d" x="304.248047"/>
      <use xlink:href="#DejaVuSans-20" x="388.037109"/>
      <use xlink:href="#DejaVuSans-31" x="419.824219"/>
      <use xlink:href="#DejaVuSans-2e" x="483.447266"/>
      <use xlink:href="#DejaVuSans-36" x="515.234375"/>
      <use xlink:href="#DejaVuSans-36" x="578.857422"/>
      <use xlink:href="#DejaVuSans-34" x="642.480469"/>
     </g>
    </g>
   </g>
  </g>
 </g>
 <defs>
  <clipPath id="p0bfcf87e94">
   <rect x="57.80875" y="22.318125" width="403.623179" height="289"/>
  </clipPath>
  <clipPath id="p3624f95267">
   <rect x="516.545571" y="22.318125" width="403.623179" height="289"/>
  </clipPath>
 </defs>
</svg>
