<?xml version="1.0" encoding="utf-8" standalone="no"?>
<!DOCTYPE svg PUBLIC "-//W3C//DTD SVG 1.1//EN"
  "http://www.w3.org/Graphics/SVG/1.1/DTD/svg11.dtd">
<svg xmlns:xlink="http://www.w3.org/1999/xlink" width="999.41125pt" height="386.250062pt" viewBox="0 0 999.41125 386.250062" xmlns="http://www.w3.org/2000/svg" version="1.1">
 <metadata>
  <rdf:RDF xmlns:dc="http://purl.org/dc/elements/1.1/" xmlns:cc="http://creativecommons.org/ns#" xmlns:rdf="http://www.w3.org/1999/02/22-rdf-syntax-ns#">
   <cc:Work>
    <dc:type rdf:resource="http://purl.org/dc/dcmitype/StillImage"/>
    <dc:date>2026-04-09T12:42:04.311731</dc:date>
    <dc:format>image/svg+xml</dc:format>
    <dc:creator>
     <cc:Agent>
      <dc:title>Matplotlib v3.7.2, https://matplotlib.org/</dc:title>
     </cc:Agent>
    </dc:creator>
   </cc:Work>
  </rdf:RDF>
 </metadata>
 <defs>
  <style type="text/css">*{stroke-linejoin: round; stroke-linecap: butt}</style>
 </defs>
 <g id="figure_1">
  <g id="patch_1">
   <path d="M 0 386.250062 
L 999.41125 386.250062 
L 999.41125 0 
L 0 0 
z
" style="fill: #ffffff"/>
  </g>
  <g id="axes_1">
   <g id="patch_2">
    <path d="M 43.81125 351.174125 
L 492.39625 351.174125 
L 492.39625 22.318125 
L 43.81125 22.318125 
z
" style="fill: #ffffff"/>
   </g>
   <g id="PolyCollection_1">
    <path d="M 103.658416 336.226125 
L 83.002331 336.226125 
L 79.871195 333.206327 
L 76.608811 330.186529 
L 73.431477 327.166731 
L 70.542115 324.146933 
L 68.103379 321.127135 
L 66.223753 318.107337 
L 64.954714 315.087539 
L 64.295244 312.067741 
L 64.201477 309.047943 
L 64.6002 306.028145 
L 65.403799 303.008347 
L 66.523133 299.988549 
L 67.876087 296.968751 
L 69.392382 293.948953 
L 71.016458 290.929155 
L 72.708651 287.909357 
L 74.442915 284.889559 
L 76.200075 281.869761 
L 77.95898 278.849963 
L 79.690539 275.830165 
L 81.358487 272.810367 
L 82.926442 269.790569 
L 84.366698 266.770771 
L 85.665405 263.750973 
L 86.821474 260.731176 
L 87.840479 257.711378 
L 88.727437 254.69158 
L 89.482283 251.671782 
L 90.099857 248.651984 
L 90.57384 245.632186 
L 90.90271 242.612388 
L 91.095629 239.59259 
L 91.17644 236.572792 
L 91.184129 233.552994 
L 91.168311 230.533196 
L 91.179599 227.513398 
L 91.257139 224.4936 
L 91.417943 221.473802 
L 91.652899 218.454004 
L 91.931715 215.434206 
L 92.214875 212.414408 
L 92.467372 209.39461 
L 92.668627 206.374812 
L 92.815295 203.355014 
L 92.917259 200.335216 
L 92.989867 197.315418 
L 93.046386 194.29562 
L 93.093613 191.275822 
L 93.131585 188.256024 
L 93.156437 185.236226 
L 93.16444 182.216428 
L 93.155348 179.19663 
L 93.133809 176.176832 
L 93.108516 173.157034 
L 93.089545 170.137236 
L 93.084982 167.117438 
L 93.098234 164.09764 
L 93.127095 161.077842 
L 93.164856 158.058044 
L 93.202734 155.038246 
L 93.232441 152.018448 
L 93.247958 148.99865 
L 93.246332 145.978852 
L 93.227875 142.959054 
L 93.196154 139.939256 
L 93.157752 136.919458 
L 93.121355 133.89966 
L 93.095877 130.879862 
L 93.087974 127.860064 
L 93.099936 124.840266 
L 93.129033 121.820468 
L 93.168724 118.80067 
L 93.211125 115.780872 
L 93.249547 112.761074 
L 93.280038 109.741277 
L 93.301572 106.721479 
L 93.315231 103.701681 
L 93.323059 100.681883 
L 93.327127 97.662085 
L 93.32905 94.642287 
L 93.329877 91.622489 
L 93.330201 88.602691 
L 93.330315 85.582893 
L 93.33034 82.563095 
L 93.330309 79.543297 
L 93.330183 76.523499 
L 93.329828 73.503701 
L 93.328931 70.483903 
L 93.326863 67.464105 
L 93.322525 64.444307 
L 93.314252 61.424509 
L 93.299947 58.404711 
L 93.27761 55.384913 
L 93.246307 52.365115 
L 93.207308 49.345317 
L 93.164847 46.325519 
L 93.125814 43.305721 
L 93.098105 40.285923 
L 93.088058 37.266125 
L 93.572689 37.266125 
L 93.572689 37.266125 
L 93.562642 40.285923 
L 93.534933 43.305721 
L 93.4959 46.325519 
L 93.453439 49.345317 
L 93.41444 52.365115 
L 93.383136 55.384913 
L 93.3608 58.404711 
L 93.346495 61.424509 
L 93.338222 64.444307 
L 93.333884 67.464105 
L 93.331816 70.483903 
L 93.330918 73.503701 
L 93.330563 76.523499 
L 93.330438 79.543297 
L 93.330407 82.563095 
L 93.330432 85.582893 
L 93.330545 88.602691 
L 93.33087 91.622489 
L 93.331697 94.642287 
L 93.333619 97.662085 
L 93.337687 100.681883 
L 93.345515 103.701681 
L 93.359175 106.721479 
L 93.380709 109.741277 
L 93.4112 112.761074 
L 93.449622 115.780872 
L 93.492023 118.80067 
L 93.531714 121.820468 
L 93.560811 124.840266 
L 93.572772 127.860064 
L 93.56487 130.879862 
L 93.539392 133.89966 
L 93.502995 136.919458 
L 93.464593 139.939256 
L 93.432872 142.959054 
L 93.414414 145.978852 
L 93.412789 148.99865 
L 93.428306 152.018448 
L 93.458012 155.038246 
L 93.495891 158.058044 
L 93.533652 161.077842 
L 93.562513 164.09764 
L 93.575764 167.117438 
L 93.571202 170.137236 
L 93.55223 173.157034 
L 93.526937 176.176832 
L 93.505399 179.19663 
L 93.496307 182.216428 
L 93.50431 185.236226 
L 93.529161 188.256024 
L 93.567134 191.275822 
L 93.614361 194.29562 
L 93.67088 197.315418 
L 93.743488 200.335216 
L 93.845451 203.355014 
L 93.99212 206.374812 
L 94.193375 209.39461 
L 94.445872 212.414408 
L 94.729031 215.434206 
L 95.007848 218.454004 
L 95.242804 221.473802 
L 95.403608 224.4936 
L 95.481148 227.513398 
L 95.492436 230.533196 
L 95.476618 233.552994 
L 95.484307 236.572792 
L 95.565118 239.59259 
L 95.758037 242.612388 
L 96.086907 245.632186 
L 96.56089 248.651984 
L 97.178464 251.671782 
L 97.93331 254.69158 
L 98.820268 257.711378 
L 99.839273 260.731176 
L 100.995342 263.750973 
L 102.294049 266.770771 
L 103.734305 269.790569 
L 105.30226 272.810367 
L 106.970208 275.830165 
L 108.701766 278.849963 
L 110.460672 281.869761 
L 112.217832 284.889559 
L 113.952096 287.909357 
L 115.644289 290.929155 
L 117.268365 293.948953 
L 118.78466 296.968751 
L 120.137614 299.988549 
L 121.256948 303.008347 
L 122.060547 306.028145 
L 122.459269 309.047943 
L 122.365503 312.067741 
L 121.706032 315.087539 
L 120.436994 318.107337 
L 118.557368 321.127135 
L 116.118631 324.146933 
L 113.22927 327.166731 
L 110.051936 330.186529 
L 106.789552 333.206327 
L 103.658416 336.226125 
z
" clip-path="url(#p0969d6f3ae)" style="fill: #2166ac; fill-opacity: 0.72"/>
   </g>
   <g id="PolyCollection_2">
    <path d="M 217.913215 336.110467 
L 201.7787 336.110467 
L 199.837822 334.339655 
L 197.701084 332.568843 
L 195.416758 330.798031 
L 193.049055 329.027219 
L 190.676141 327.256407 
L 188.386179 325.485595 
L 186.271108 323.714783 
L 184.418343 321.943971 
L 182.90128 320.173159 
L 181.770253 318.402347 
L 181.045938 316.631535 
L 180.717062 314.860723 
L 180.743367 313.089911 
L 181.063507 311.319099 
L 181.60614 309.548287 
L 182.301596 307.777475 
L 183.091382 306.006663 
L 183.933536 304.235851 
L 184.803241 302.465039 
L 185.689519 300.694227 
L 186.589869 298.923415 
L 187.50497 297.152603 
L 188.435045 295.381791 
L 189.3785 293.610979 
L 190.332419 291.840167 
L 191.293866 290.069355 
L 192.26085 288.298543 
L 193.232305 286.527731 
L 194.20705 284.756919 
L 195.182324 282.986107 
L 196.152644 281.215295 
L 197.1096 279.444483 
L 198.042712 277.673671 
L 198.941031 275.902859 
L 199.794865 274.132047 
L 200.597056 272.361235 
L 201.343449 270.590423 
L 202.032555 268.819611 
L 202.664705 267.048799 
L 203.241057 265.277987 
L 203.762813 263.507175 
L 204.230794 261.736363 
L 204.645424 259.965551 
L 205.007042 258.194739 
L 205.316486 256.423927 
L 205.575854 254.653115 
L 205.789363 252.882303 
L 205.964112 251.111491 
L 206.110471 249.340679 
L 206.241831 247.569867 
L 206.373506 245.799055 
L 206.520833 244.028243 
L 206.69681 242.257431 
L 206.909807 240.486619 
L 207.161968 238.715807 
L 207.448762 236.944995 
L 207.759829 235.174183 
L 208.080921 233.403371 
L 208.396426 231.632559 
L 208.691891 229.861747 
L 208.955994 228.090935 
L 209.181654 226.320123 
L 209.366219 224.549311 
L 209.510889 222.778499 
L 209.619673 221.007687 
L 209.698198 219.236875 
L 209.752616 217.466063 
L 209.788773 215.695251 
L 209.811681 213.924439 
L 209.825276 212.153627 
L 209.832374 210.382814 
L 209.834765 208.612002 
L 209.83337 206.84119 
L 209.828422 205.070378 
L 209.819661 203.299566 
L 209.806534 201.528754 
L 209.788409 199.757942 
L 209.764788 197.98713 
L 209.735501 196.216318 
L 209.700818 194.445506 
L 209.661476 192.674694 
L 209.618554 190.903882 
L 209.573249 189.13307 
L 209.52661 187.362258 
L 209.479316 185.591446 
L 209.431617 183.820634 
L 209.383491 182.049822 
L 209.334978 180.27901 
L 209.286612 178.508198 
L 209.239771 176.737386 
L 209.196808 174.966574 
L 209.160873 173.195762 
L 209.135445 171.42495 
L 209.123703 169.654138 
L 209.127899 167.883326 
L 209.14891 166.112514 
L 209.186058 164.341702 
L 209.237219 162.57089 
L 209.299159 160.800078 
L 210.392757 160.800078 
L 210.392757 160.800078 
L 210.454696 162.57089 
L 210.505858 164.341702 
L 210.543006 166.112514 
L 210.564017 167.883326 
L 210.568213 169.654138 
L 210.55647 171.42495 
L 210.531043 173.195762 
L 210.495107 174.966574 
L 210.452145 176.737386 
L 210.405304 178.508198 
L 210.356937 180.27901 
L 210.308425 182.049822 
L 210.260298 183.820634 
L 210.2126 185.591446 
L 210.165305 187.362258 
L 210.118666 189.13307 
L 210.073362 190.903882 
L 210.030439 192.674694 
L 209.991097 194.445506 
L 209.956415 196.216318 
L 209.927127 197.98713 
L 209.903507 199.757942 
L 209.885382 201.528754 
L 209.872255 203.299566 
L 209.863494 205.070378 
L 209.858546 206.84119 
L 209.857151 208.612002 
L 209.859542 210.382814 
L 209.866639 212.153627 
L 209.880234 213.924439 
L 209.903143 215.695251 
L 209.9393 217.466063 
L 209.993717 219.236875 
L 210.072242 221.007687 
L 210.181026 222.778499 
L 210.325696 224.549311 
L 210.510261 226.320123 
L 210.735922 228.090935 
L 211.000025 229.861747 
L 211.295489 231.632559 
L 211.610994 233.403371 
L 211.932086 235.174183 
L 212.243154 236.944995 
L 212.529948 238.715807 
L 212.782109 240.486619 
L 212.995106 242.257431 
L 213.171083 244.028243 
L 213.31841 245.799055 
L 213.450084 247.569867 
L 213.581445 249.340679 
L 213.727804 251.111491 
L 213.902552 252.882303 
L 214.116062 254.653115 
L 214.37543 256.423927 
L 214.684873 258.194739 
L 215.046492 259.965551 
L 215.461122 261.736363 
L 215.929103 263.507175 
L 216.450859 265.277987 
L 217.027211 267.048799 
L 217.65936 268.819611 
L 218.348467 270.590423 
L 219.094859 272.361235 
L 219.897051 274.132047 
L 220.750885 275.902859 
L 221.649203 277.673671 
L 222.582316 279.444483 
L 223.539272 281.215295 
L 224.509592 282.986107 
L 225.484865 284.756919 
L 226.459611 286.527731 
L 227.431065 288.298543 
L 228.39805 290.069355 
L 229.359496 291.840167 
L 230.313416 293.610979 
L 231.25687 295.381791 
L 232.186945 297.152603 
L 233.102046 298.923415 
L 234.002397 300.694227 
L 234.888675 302.465039 
L 235.75838 304.235851 
L 236.600534 306.006663 
L 237.390319 307.777475 
L 238.085776 309.548287 
L 238.628409 311.319099 
L 238.948549 313.089911 
L 238.974854 314.860723 
L 238.645977 316.631535 
L 237.921663 318.402347 
L 236.790635 320.173159 
L 235.273573 321.943971 
L 233.420807 323.714783 
L 231.305737 325.485595 
L 229.015774 327.256407 
L 226.642861 329.027219 
L 224.275158 330.798031 
L 221.990831 332.568843 
L 219.854093 334.339655 
L 217.913215 336.110467 
z
" clip-path="url(#p0969d6f3ae)" style="fill: #4dac26; fill-opacity: 0.72"/>
   </g>
   <g id="PolyCollection_3">
    <path d="M 338.348815 334.967847 
L 314.374269 334.967847 
L 312.016741 332.162159 
L 309.629591 329.356471 
L 307.299594 326.550784 
L 305.105531 323.745096 
L 303.112094 320.939409 
L 301.367603 318.133721 
L 299.905375 315.328034 
L 298.747497 312.522346 
L 297.909122 309.716658 
L 297.401496 306.910971 
L 297.232646 304.105283 
L 297.405683 301.299596 
L 297.915646 298.493908 
L 298.746381 295.68822 
L 299.868842 292.882533 
L 301.241578 290.076845 
L 302.813336 287.271158 
L 304.526921 284.46547 
L 306.323237 281.659783 
L 308.144648 278.854095 
L 309.937369 276.048407 
L 311.653184 273.24272 
L 313.251015 270.437032 
L 314.698755 267.631345 
L 315.975282 264.825657 
L 317.072137 262.019969 
L 317.994141 259.214282 
L 318.758339 256.408594 
L 319.391145 253.602907 
L 319.9241 250.797219 
L 320.389079 247.991532 
L 320.813989 245.185844 
L 321.219793 242.380156 
L 321.619337 239.574469 
L 322.017929 236.768781 
L 322.415152 233.963094 
L 322.807186 231.157406 
L 323.188876 228.351719 
L 323.555073 225.546031 
L 323.901124 222.740343 
L 324.222761 219.934656 
L 324.515804 217.128968 
L 324.776088 214.323281 
L 324.999809 211.517593 
L 325.184246 208.711905 
L 325.328571 205.906218 
L 325.43443 203.10053 
L 325.506046 200.294843 
L 325.549767 197.489155 
L 325.573205 194.683468 
L 325.584207 191.87778 
L 325.589942 189.072092 
L 325.596283 186.266405 
L 325.607561 183.460717 
L 325.626621 180.65503 
L 325.655046 177.849342 
L 325.693397 175.043654 
L 325.74138 172.237967 
L 325.797926 169.432279 
L 325.861228 166.626592 
L 325.928822 163.820904 
L 325.997775 161.015217 
L 326.06499 158.209529 
L 326.127585 155.403841 
L 326.183249 152.598154 
L 326.230502 149.792466 
L 326.26878 146.986779 
L 326.298367 144.181091 
L 326.320187 141.375404 
L 326.33554 138.569716 
L 326.345849 135.764028 
L 326.352454 132.958341 
L 326.356491 130.152653 
L 326.358843 127.346966 
L 326.360139 124.541278 
L 326.360794 121.73559 
L 326.361049 118.929903 
L 326.361004 116.124215 
L 326.360637 113.318528 
L 326.359796 110.51284 
L 326.358169 107.707153 
L 326.355233 104.901465 
L 326.350201 102.095777 
L 326.341973 99.29009 
L 326.329131 96.484402 
L 326.310008 93.678715 
L 326.282856 90.873027 
L 326.24614 88.067339 
L 326.198923 85.261652 
L 326.141303 82.455964 
L 326.074793 79.650277 
L 326.002528 76.844589 
L 325.929196 74.038902 
L 325.860634 71.233214 
L 325.803111 68.427526 
L 325.762398 65.621839 
L 325.742839 62.816151 
L 325.746587 60.010464 
L 325.773226 57.204776 
L 326.949858 57.204776 
L 326.949858 57.204776 
L 326.976497 60.010464 
L 326.980246 62.816151 
L 326.960686 65.621839 
L 326.919974 68.427526 
L 326.86245 71.233214 
L 326.793889 74.038902 
L 326.720556 76.844589 
L 326.648291 79.650277 
L 326.581781 82.455964 
L 326.524162 85.261652 
L 326.476944 88.067339 
L 326.440228 90.873027 
L 326.413076 93.678715 
L 326.393953 96.484402 
L 326.381111 99.29009 
L 326.372883 102.095777 
L 326.367851 104.901465 
L 326.364915 107.707153 
L 326.363288 110.51284 
L 326.362447 113.318528 
L 326.36208 116.124215 
L 326.362036 118.929903 
L 326.36229 121.73559 
L 326.362945 124.541278 
L 326.364242 127.346966 
L 326.366593 130.152653 
L 326.370631 132.958341 
L 326.377236 135.764028 
L 326.387544 138.569716 
L 326.402897 141.375404 
L 326.424717 144.181091 
L 326.454304 146.986779 
L 326.492583 149.792466 
L 326.539835 152.598154 
L 326.5955 155.403841 
L 326.658095 158.209529 
L 326.72531 161.015217 
L 326.794262 163.820904 
L 326.861856 166.626592 
L 326.925158 169.432279 
L 326.981704 172.237967 
L 327.029687 175.043654 
L 327.068038 177.849342 
L 327.096463 180.65503 
L 327.115524 183.460717 
L 327.126801 186.266405 
L 327.133142 189.072092 
L 327.138877 191.87778 
L 327.14988 194.683468 
L 327.173318 197.489155 
L 327.217039 200.294843 
L 327.288655 203.10053 
L 327.394514 205.906218 
L 327.538838 208.711905 
L 327.723275 211.517593 
L 327.946997 214.323281 
L 328.20728 217.128968 
L 328.500324 219.934656 
L 328.821961 222.740343 
L 329.168011 225.546031 
L 329.534208 228.351719 
L 329.915899 231.157406 
L 330.307933 233.963094 
L 330.705156 236.768781 
L 331.103747 239.574469 
L 331.503292 242.380156 
L 331.909096 245.185844 
L 332.334006 247.991532 
L 332.798985 250.797219 
L 333.331939 253.602907 
L 333.964746 256.408594 
L 334.728944 259.214282 
L 335.650948 262.019969 
L 336.747803 264.825657 
L 338.024329 267.631345 
L 339.47207 270.437032 
L 341.069901 273.24272 
L 342.785715 276.048407 
L 344.578437 278.854095 
L 346.399848 281.659783 
L 348.196163 284.46547 
L 349.909748 287.271158 
L 351.481506 290.076845 
L 352.854243 292.882533 
L 353.976703 295.68822 
L 354.807439 298.493908 
L 355.317402 301.299596 
L 355.490438 304.105283 
L 355.321589 306.910971 
L 354.813962 309.716658 
L 353.975587 312.522346 
L 352.81771 315.328034 
L 351.355482 318.133721 
L 349.61099 320.939409 
L 347.617554 323.745096 
L 345.423491 326.550784 
L 343.093493 329.356471 
L 340.706344 332.162159 
L 338.348815 334.967847 
z
" clip-path="url(#p0969d6f3ae)" style="fill: #d6604d; fill-opacity: 0.72"/>
   </g>
   <g id="PolyCollection_4">
    <path d="M 450.150805 331.182297 
L 435.603449 331.182297 
L 434.89885 330.030455 
L 434.163347 328.878613 
L 433.399085 327.726772 
L 432.608394 326.57493 
L 431.793755 325.423088 
L 430.957769 324.271246 
L 430.103142 323.119404 
L 429.232673 321.967563 
L 428.349256 320.815721 
L 427.455892 319.663879 
L 426.55571 318.512037 
L 425.652001 317.360195 
L 424.748248 316.208354 
L 423.848166 315.056512 
L 422.955737 313.90467 
L 422.075235 312.752828 
L 421.211245 311.600987 
L 420.368659 310.449145 
L 419.552661 309.297303 
L 418.768682 308.145461 
L 418.02234 306.993619 
L 417.319346 305.841778 
L 416.665401 304.689936 
L 416.066064 303.538094 
L 415.526617 302.386252 
L 415.051915 301.234411 
L 414.646245 300.082569 
L 414.313189 298.930727 
L 414.055505 297.778885 
L 413.875038 296.627043 
L 413.772657 295.475202 
L 413.748231 294.32336 
L 413.800641 293.171518 
L 413.927837 292.019676 
L 414.126926 290.867834 
L 414.394293 289.715993 
L 414.725744 288.564151 
L 415.116667 287.412309 
L 415.562199 286.260467 
L 416.057382 285.108626 
L 416.597305 283.956784 
L 417.177227 282.804942 
L 417.792663 281.6531 
L 418.43944 280.501258 
L 419.113709 279.349417 
L 419.811937 278.197575 
L 420.530852 277.045733 
L 421.267375 275.893891 
L 422.018537 274.74205 
L 422.78138 273.590208 
L 423.552871 272.438366 
L 424.32982 271.286524 
L 425.108822 270.134682 
L 425.886219 268.982841 
L 426.658091 267.830999 
L 427.420278 266.679157 
L 428.16843 265.527315 
L 428.898086 264.375473 
L 429.604768 263.223632 
L 430.284099 262.07179 
L 430.931931 260.919948 
L 431.544477 259.768106 
L 432.118431 258.616265 
L 432.651097 257.464423 
L 433.140484 256.312581 
L 433.585395 255.160739 
L 433.985477 254.008897 
L 434.341257 252.857056 
L 434.654136 251.705214 
L 434.926356 250.553372 
L 435.160937 249.40153 
L 435.361581 248.249689 
L 435.532556 247.097847 
L 435.678552 245.946005 
L 435.804529 244.794163 
L 435.915551 243.642321 
L 436.016623 242.49048 
L 436.112534 241.338638 
L 436.207708 240.186796 
L 436.306088 239.034954 
L 436.411031 237.883112 
L 436.525245 236.731271 
L 436.65075 235.579429 
L 436.788875 234.427587 
L 436.94028 233.275745 
L 437.105014 232.123904 
L 437.282585 230.972062 
L 437.472051 229.82022 
L 437.672117 228.668378 
L 437.881242 227.516536 
L 438.09773 226.364695 
L 438.319828 225.212853 
L 438.545794 224.061011 
L 438.773961 222.909169 
L 439.002783 221.757328 
L 439.230854 220.605486 
L 439.456927 219.453644 
L 439.679907 218.301802 
L 439.898838 217.14996 
L 445.855416 217.14996 
L 445.855416 217.14996 
L 446.074346 218.301802 
L 446.297326 219.453644 
L 446.523399 220.605486 
L 446.751471 221.757328 
L 446.980292 222.909169 
L 447.208459 224.061011 
L 447.434425 225.212853 
L 447.656523 226.364695 
L 447.873012 227.516536 
L 448.082136 228.668378 
L 448.282202 229.82022 
L 448.471668 230.972062 
L 448.649239 232.123904 
L 448.813973 233.275745 
L 448.965379 234.427587 
L 449.103503 235.579429 
L 449.229008 236.731271 
L 449.343222 237.883112 
L 449.448165 239.034954 
L 449.546545 240.186796 
L 449.641719 241.338638 
L 449.73763 242.49048 
L 449.838702 243.642321 
L 449.949724 244.794163 
L 450.075701 245.946005 
L 450.221697 247.097847 
L 450.392672 248.249689 
L 450.593316 249.40153 
L 450.827897 250.553372 
L 451.100117 251.705214 
L 451.412996 252.857056 
L 451.768776 254.008897 
L 452.168858 255.160739 
L 452.613769 256.312581 
L 453.103156 257.464423 
L 453.635822 258.616265 
L 454.209777 259.768106 
L 454.822322 260.919948 
L 455.470155 262.07179 
L 456.149486 263.223632 
L 456.856167 264.375473 
L 457.585823 265.527315 
L 458.333976 266.679157 
L 459.096163 267.830999 
L 459.868034 268.982841 
L 460.645431 270.134682 
L 461.424433 271.286524 
L 462.201383 272.438366 
L 462.972873 273.590208 
L 463.735716 274.74205 
L 464.486878 275.893891 
L 465.223401 277.045733 
L 465.942316 278.197575 
L 466.640544 279.349417 
L 467.314813 280.501258 
L 467.96159 281.6531 
L 468.577026 282.804942 
L 469.156949 283.956784 
L 469.696872 285.108626 
L 470.192054 286.260467 
L 470.637586 287.412309 
L 471.02851 288.564151 
L 471.35996 289.715993 
L 471.627327 290.867834 
L 471.826416 292.019676 
L 471.953613 293.171518 
L 472.006023 294.32336 
L 471.981596 295.475202 
L 471.879215 296.627043 
L 471.698748 297.778885 
L 471.441065 298.930727 
L 471.108008 300.082569 
L 470.702338 301.234411 
L 470.227637 302.386252 
L 469.688189 303.538094 
L 469.088853 304.689936 
L 468.434907 305.841778 
L 467.731913 306.993619 
L 466.985571 308.145461 
L 466.201593 309.297303 
L 465.385594 310.449145 
L 464.543008 311.600987 
L 463.679018 312.752828 
L 462.798516 313.90467 
L 461.906087 315.056512 
L 461.006005 316.208354 
L 460.102252 317.360195 
L 459.198543 318.512037 
L 458.298362 319.663879 
L 457.404997 320.815721 
L 456.52158 321.967563 
L 455.651111 323.119404 
L 454.796484 324.271246 
L 453.960498 325.423088 
L 453.145859 326.57493 
L 452.355168 327.726772 
L 451.590906 328.878613 
L 450.855403 330.030455 
L 450.150805 331.182297 
z
" clip-path="url(#p0969d6f3ae)" style="fill: #762a83; fill-opacity: 0.72"/>
   </g>
   <g id="matplotlib.axis_1">
    <g id="xtick_1">
     <g id="line2d_1">
      <defs>
       <path id="mcb68495a29" d="M 0 0 
L 0 3.5 
" style="stroke: #000000; stroke-width: 0.8"/>
      </defs>
      <g>
       <use xlink:href="#mcb68495a29" x="93.330373" y="351.174125" style="stroke: #000000; stroke-width: 0.8"/>
      </g>
     </g>
     <g id="text_1">
      <!-- &lt;60 -->
      <g transform="translate(82.77803 365.772562) scale(0.1 -0.1)">
       <defs>
        <path id="DejaVuSans-3c" d="M 4684 3150 
L 1459 2003 
L 4684 863 
L 4684 294 
L 678 1747 
L 678 2266 
L 4684 3719 
L 4684 3150 
z
" transform="scale(0.015625)"/>
        <path id="DejaVuSans-36" d="M 2113 2584 
Q 1688 2584 1439 2293 
Q 1191 2003 1191 1497 
Q 1191 994 1439 701 
Q 1688 409 2113 409 
Q 2538 409 2786 701 
Q 3034 994 3034 1497 
Q 3034 2003 2786 2293 
Q 2538 2584 2113 2584 
z
M 3366 4563 
L 3366 3988 
Q 3128 4100 2886 4159 
Q 2644 4219 2406 4219 
Q 1781 4219 1451 3797 
Q 1122 3375 1075 2522 
Q 1259 2794 1537 2939 
Q 1816 3084 2150 3084 
Q 2853 3084 3261 2657 
Q 3669 2231 3669 1497 
Q 3669 778 3244 343 
Q 2819 -91 2113 -91 
Q 1303 -91 875 529 
Q 447 1150 447 2328 
Q 447 3434 972 4092 
Q 1497 4750 2381 4750 
Q 2619 4750 2861 4703 
Q 3103 4656 3366 4563 
z
" transform="scale(0.015625)"/>
        <path id="DejaVuSans-30" d="M 2034 4250 
Q 1547 4250 1301 3770 
Q 1056 3291 1056 2328 
Q 1056 1369 1301 889 
Q 1547 409 2034 409 
Q 2525 409 2770 889 
Q 3016 1369 3016 2328 
Q 3016 3291 2770 3770 
Q 2525 4250 2034 4250 
z
M 2034 4750 
Q 2819 4750 3233 4129 
Q 3647 3509 3647 2328 
Q 3647 1150 3233 529 
Q 2819 -91 2034 -91 
Q 1250 -91 836 529 
Q 422 1150 422 2328 
Q 422 3509 836 4129 
Q 1250 4750 2034 4750 
z
" transform="scale(0.015625)"/>
       </defs>
       <use xlink:href="#DejaVuSans-3c"/>
       <use xlink:href="#DejaVuSans-36" x="83.789062"/>
       <use xlink:href="#DejaVuSans-30" x="147.412109"/>
      </g>
      <!-- (n=278) -->
      <g transform="translate(72.526467 376.970375) scale(0.1 -0.1)">
       <defs>
        <path id="DejaVuSans-28" d="M 1984 4856 
Q 1566 4138 1362 3434 
Q 1159 2731 1159 2009 
Q 1159 1288 1364 580 
Q 1569 -128 1984 -844 
L 1484 -844 
Q 1016 -109 783 600 
Q 550 1309 550 2009 
Q 550 2706 781 3412 
Q 1013 4119 1484 4856 
L 1984 4856 
z
" transform="scale(0.015625)"/>
        <path id="DejaVuSans-6e" d="M 3513 2113 
L 3513 0 
L 2938 0 
L 2938 2094 
Q 2938 2591 2744 2837 
Q 2550 3084 2163 3084 
Q 1697 3084 1428 2787 
Q 1159 2491 1159 1978 
L 1159 0 
L 581 0 
L 581 3500 
L 1159 3500 
L 1159 2956 
Q 1366 3272 1645 3428 
Q 1925 3584 2291 3584 
Q 2894 3584 3203 3211 
Q 3513 2838 3513 2113 
z
" transform="scale(0.015625)"/>
        <path id="DejaVuSans-3d" d="M 678 2906 
L 4684 2906 
L 4684 2381 
L 678 2381 
L 678 2906 
z
M 678 1631 
L 4684 1631 
L 4684 1100 
L 678 1100 
L 678 1631 
z
" transform="scale(0.015625)"/>
        <path id="DejaVuSans-32" d="M 1228 531 
L 3431 531 
L 3431 0 
L 469 0 
L 469 531 
Q 828 903 1448 1529 
Q 2069 2156 2228 2338 
Q 2531 2678 2651 2914 
Q 2772 3150 2772 3378 
Q 2772 3750 2511 3984 
Q 2250 4219 1831 4219 
Q 1534 4219 1204 4116 
Q 875 4013 500 3803 
L 500 4441 
Q 881 4594 1212 4672 
Q 1544 4750 1819 4750 
Q 2544 4750 2975 4387 
Q 3406 4025 3406 3419 
Q 3406 3131 3298 2873 
Q 3191 2616 2906 2266 
Q 2828 2175 2409 1742 
Q 1991 1309 1228 531 
z
" transform="scale(0.015625)"/>
        <path id="DejaVuSans-37" d="M 525 4666 
L 3525 4666 
L 3525 4397 
L 1831 0 
L 1172 0 
L 2766 4134 
L 525 4134 
L 525 4666 
z
" transform="scale(0.015625)"/>
        <path id="DejaVuSans-38" d="M 2034 2216 
Q 1584 2216 1326 1975 
Q 1069 1734 1069 1313 
Q 1069 891 1326 650 
Q 1584 409 2034 409 
Q 2484 409 2743 651 
Q 3003 894 3003 1313 
Q 3003 1734 2745 1975 
Q 2488 2216 2034 2216 
z
M 1403 2484 
Q 997 2584 770 2862 
Q 544 3141 544 3541 
Q 544 4100 942 4425 
Q 1341 4750 2034 4750 
Q 2731 4750 3128 4425 
Q 3525 4100 3525 3541 
Q 3525 3141 3298 2862 
Q 3072 2584 2669 2484 
Q 3125 2378 3379 2068 
Q 3634 1759 3634 1313 
Q 3634 634 3220 271 
Q 2806 -91 2034 -91 
Q 1263 -91 848 271 
Q 434 634 434 1313 
Q 434 1759 690 2068 
Q 947 2378 1403 2484 
z
M 1172 3481 
Q 1172 3119 1398 2916 
Q 1625 2713 2034 2713 
Q 2441 2713 2670 2916 
Q 2900 3119 2900 3481 
Q 2900 3844 2670 4047 
Q 2441 4250 2034 4250 
Q 1625 4250 1398 4047 
Q 1172 3844 1172 3481 
z
" transform="scale(0.015625)"/>
        <path id="DejaVuSans-29" d="M 513 4856 
L 1013 4856 
Q 1481 4119 1714 3412 
Q 1947 2706 1947 2009 
Q 1947 1309 1714 600 
Q 1481 -109 1013 -844 
L 513 -844 
Q 928 -128 1133 580 
Q 1338 1288 1338 2009 
Q 1338 2731 1133 3434 
Q 928 4138 513 4856 
z
" transform="scale(0.015625)"/>
       </defs>
       <use xlink:href="#DejaVuSans-28"/>
       <use xlink:href="#DejaVuSans-6e" x="39.013672"/>
       <use xlink:href="#DejaVuSans-3d" x="102.392578"/>
       <use xlink:href="#DejaVuSans-32" x="186.181641"/>
       <use xlink:href="#DejaVuSans-37" x="249.804688"/>
       <use xlink:href="#DejaVuSans-38" x="313.427734"/>
       <use xlink:href="#DejaVuSans-29" x="377.050781"/>
      </g>
     </g>
    </g>
    <g id="xtick_2">
     <g id="line2d_2">
      <g>
       <use xlink:href="#mcb68495a29" x="209.845958" y="351.174125" style="stroke: #000000; stroke-width: 0.8"/>
      </g>
     </g>
     <g id="text_2">
      <!-- 60-70 -->
      <g transform="translate(195.317052 365.772562) scale(0.1 -0.1)">
       <defs>
        <path id="DejaVuSans-2d" d="M 313 2009 
L 1997 2009 
L 1997 1497 
L 313 1497 
L 313 2009 
z
" transform="scale(0.015625)"/>
       </defs>
       <use xlink:href="#DejaVuSans-36"/>
       <use xlink:href="#DejaVuSans-30" x="63.623047"/>
       <use xlink:href="#DejaVuSans-2d" x="127.246094"/>
       <use xlink:href="#DejaVuSans-37" x="163.330078"/>
       <use xlink:href="#DejaVuSans-30" x="226.953125"/>
      </g>
      <!-- (n=278) -->
      <g transform="translate(189.042052 376.970375) scale(0.1 -0.1)">
       <use xlink:href="#DejaVuSans-28"/>
       <use xlink:href="#DejaVuSans-6e" x="39.013672"/>
       <use xlink:href="#DejaVuSans-3d" x="102.392578"/>
       <use xlink:href="#DejaVuSans-32" x="186.181641"/>
       <use xlink:href="#DejaVuSans-37" x="249.804688"/>
       <use xlink:href="#DejaVuSans-38" x="313.427734"/>
       <use xlink:href="#DejaVuSans-29" x="377.050781"/>
      </g>
     </g>
    </g>
    <g id="xtick_3">
     <g id="line2d_3">
      <g>
       <use xlink:href="#mcb68495a29" x="326.361542" y="351.174125" style="stroke: #000000; stroke-width: 0.8"/>
      </g>
     </g>
     <g id="text_3">
      <!-- 70-80 -->
      <g transform="translate(311.832636 365.772562) scale(0.1 -0.1)">
       <use xlink:href="#DejaVuSans-37"/>
       <use xlink:href="#DejaVuSans-30" x="63.623047"/>
       <use xlink:href="#DejaVuSans-2d" x="127.246094"/>
       <use xlink:href="#DejaVuSans-38" x="163.330078"/>
       <use xlink:href="#DejaVuSans-30" x="226.953125"/>
      </g>
      <!-- (n=178) -->
      <g transform="translate(305.557636 376.970375) scale(0.1 -0.1)">
       <defs>
        <path id="DejaVuSans-31" d="M 794 531 
L 1825 531 
L 1825 4091 
L 703 3866 
L 703 4441 
L 1819 4666 
L 2450 4666 
L 2450 531 
L 3481 531 
L 3481 0 
L 794 0 
L 794 531 
z
" transform="scale(0.015625)"/>
       </defs>
       <use xlink:href="#DejaVuSans-28"/>
       <use xlink:href="#DejaVuSans-6e" x="39.013672"/>
       <use xlink:href="#DejaVuSans-3d" x="102.392578"/>
       <use xlink:href="#DejaVuSans-31" x="186.181641"/>
       <use xlink:href="#DejaVuSans-37" x="249.804688"/>
       <use xlink:href="#DejaVuSans-38" x="313.427734"/>
       <use xlink:href="#DejaVuSans-29" x="377.050781"/>
      </g>
     </g>
    </g>
    <g id="xtick_4">
     <g id="line2d_4">
      <g>
       <use xlink:href="#mcb68495a29" x="442.877127" y="351.174125" style="stroke: #000000; stroke-width: 0.8"/>
      </g>
     </g>
     <g id="text_4">
      <!-- &gt;=80 -->
      <g transform="translate(428.134939 365.772562) scale(0.1 -0.1)">
       <defs>
        <path id="DejaVuSans-3e" d="M 678 3150 
L 678 3719 
L 4684 2266 
L 4684 1747 
L 678 294 
L 678 863 
L 3897 2003 
L 678 3150 
z
" transform="scale(0.015625)"/>
       </defs>
       <use xlink:href="#DejaVuSans-3e"/>
       <use xlink:href="#DejaVuSans-3d" x="83.789062"/>
       <use xlink:href="#DejaVuSans-38" x="167.578125"/>
       <use xlink:href="#DejaVuSans-30" x="231.201172"/>
      </g>
      <!-- (n=45) -->
      <g transform="translate(425.25447 376.970375) scale(0.1 -0.1)">
       <defs>
        <path id="DejaVuSans-34" d="M 2419 4116 
L 825 1625 
L 2419 1625 
L 2419 4116 
z
M 2253 4666 
L 3047 4666 
L 3047 1625 
L 3713 1625 
L 3713 1100 
L 3047 1100 
L 3047 0 
L 2419 0 
L 2419 1100 
L 313 1100 
L 313 1709 
L 2253 4666 
z
" transform="scale(0.015625)"/>
        <path id="DejaVuSans-35" d="M 691 4666 
L 3169 4666 
L 3169 4134 
L 1269 4134 
L 1269 2991 
Q 1406 3038 1543 3061 
Q 1681 3084 1819 3084 
Q 2600 3084 3056 2656 
Q 3513 2228 3513 1497 
Q 3513 744 3044 326 
Q 2575 -91 1722 -91 
Q 1428 -91 1123 -41 
Q 819 9 494 109 
L 494 744 
Q 775 591 1075 516 
Q 1375 441 1709 441 
Q 2250 441 2565 725 
Q 2881 1009 2881 1497 
Q 2881 1984 2565 2268 
Q 2250 2553 1709 2553 
Q 1456 2553 1204 2497 
Q 953 2441 691 2322 
L 691 4666 
z
" transform="scale(0.015625)"/>
       </defs>
       <use xlink:href="#DejaVuSans-28"/>
       <use xlink:href="#DejaVuSans-6e" x="39.013672"/>
       <use xlink:href="#DejaVuSans-3d" x="102.392578"/>
       <use xlink:href="#DejaVuSans-34" x="186.181641"/>
       <use xlink:href="#DejaVuSans-35" x="249.804688"/>
       <use xlink:href="#DejaVuSans-29" x="313.427734"/>
      </g>
     </g>
    </g>
   </g>
   <g id="matplotlib.axis_2">
    <g id="ytick_1">
     <g id="line2d_5">
      <defs>
       <path id="ma0b7fc80d2" d="M 0 0 
L -3.5 0 
" style="stroke: #000000; stroke-width: 0.8"/>
      </defs>
      <g>
       <use xlink:href="#ma0b7fc80d2" x="43.81125" y="336.395189" style="stroke: #000000; stroke-width: 0.8"/>
      </g>
     </g>
     <g id="text_5">
      <!-- 0 -->
      <g transform="translate(29.8125 340.574329) scale(0.11 -0.11)">
       <use xlink:href="#DejaVuSans-30"/>
      </g>
     </g>
    </g>
    <g id="ytick_2">
     <g id="line2d_6">
      <g>
       <use xlink:href="#ma0b7fc80d2" x="43.81125" y="282.917329" style="stroke: #000000; stroke-width: 0.8"/>
      </g>
     </g>
     <g id="text_6">
      <!-- 2 -->
      <g transform="translate(29.8125 287.09647) scale(0.11 -0.11)">
       <use xlink:href="#DejaVuSans-32"/>
      </g>
     </g>
    </g>
    <g id="ytick_3">
     <g id="line2d_7">
      <g>
       <use xlink:href="#ma0b7fc80d2" x="43.81125" y="229.439469" style="stroke: #000000; stroke-width: 0.8"/>
      </g>
     </g>
     <g id="text_7">
      <!-- 4 -->
      <g transform="translate(29.8125 233.61861) scale(0.11 -0.11)">
       <use xlink:href="#DejaVuSans-34"/>
      </g>
     </g>
    </g>
    <g id="ytick_4">
     <g id="line2d_8">
      <g>
       <use xlink:href="#ma0b7fc80d2" x="43.81125" y="175.961609" style="stroke: #000000; stroke-width: 0.8"/>
      </g>
     </g>
     <g id="text_8">
      <!-- 6 -->
      <g transform="translate(29.8125 180.14075) scale(0.11 -0.11)">
       <use xlink:href="#DejaVuSans-36"/>
      </g>
     </g>
    </g>
    <g id="ytick_5">
     <g id="line2d_9">
      <g>
       <use xlink:href="#ma0b7fc80d2" x="43.81125" y="122.483749" style="stroke: #000000; stroke-width: 0.8"/>
      </g>
     </g>
     <g id="text_9">
      <!-- 8 -->
      <g transform="translate(29.8125 126.66289) scale(0.11 -0.11)">
       <use xlink:href="#DejaVuSans-38"/>
      </g>
     </g>
    </g>
    <g id="ytick_6">
     <g id="line2d_10">
      <g>
       <use xlink:href="#ma0b7fc80d2" x="43.81125" y="69.00589" style="stroke: #000000; stroke-width: 0.8"/>
      </g>
     </g>
     <g id="text_10">
      <!-- 10 -->
      <g transform="translate(22.81375 73.18503) scale(0.11 -0.11)">
       <use xlink:href="#DejaVuSans-31"/>
       <use xlink:href="#DejaVuSans-30" x="63.623047"/>
      </g>
     </g>
    </g>
    <g id="text_11">
     <!-- MAE (per subject) -->
     <g transform="translate(16.318125 240.028937) rotate(-90) scale(0.12 -0.12)">
      <defs>
       <path id="DejaVuSans-4d" d="M 628 4666 
L 1569 4666 
L 2759 1491 
L 3956 4666 
L 4897 4666 
L 4897 0 
L 4281 0 
L 4281 4097 
L 3078 897 
L 2444 897 
L 1241 4097 
L 1241 0 
L 628 0 
L 628 4666 
z
" transform="scale(0.015625)"/>
       <path id="DejaVuSans-41" d="M 2188 4044 
L 1331 1722 
L 3047 1722 
L 2188 4044 
z
M 1831 4666 
L 2547 4666 
L 4325 0 
L 3669 0 
L 3244 1197 
L 1141 1197 
L 716 0 
L 50 0 
L 1831 4666 
z
" transform="scale(0.015625)"/>
       <path id="DejaVuSans-45" d="M 628 4666 
L 3578 4666 
L 3578 4134 
L 1259 4134 
L 1259 2753 
L 3481 2753 
L 3481 2222 
L 1259 2222 
L 1259 531 
L 3634 531 
L 3634 0 
L 628 0 
L 628 4666 
z
" transform="scale(0.015625)"/>
       <path id="DejaVuSans-20" transform="scale(0.015625)"/>
       <path id="DejaVuSans-70" d="M 1159 525 
L 1159 -1331 
L 581 -1331 
L 581 3500 
L 1159 3500 
L 1159 2969 
Q 1341 3281 1617 3432 
Q 1894 3584 2278 3584 
Q 2916 3584 3314 3078 
Q 3713 2572 3713 1747 
Q 3713 922 3314 415 
Q 2916 -91 2278 -91 
Q 1894 -91 1617 61 
Q 1341 213 1159 525 
z
M 3116 1747 
Q 3116 2381 2855 2742 
Q 2594 3103 2138 3103 
Q 1681 3103 1420 2742 
Q 1159 2381 1159 1747 
Q 1159 1113 1420 752 
Q 1681 391 2138 391 
Q 2594 391 2855 752 
Q 3116 1113 3116 1747 
z
" transform="scale(0.015625)"/>
       <path id="DejaVuSans-65" d="M 3597 1894 
L 3597 1613 
L 953 1613 
Q 991 1019 1311 708 
Q 1631 397 2203 397 
Q 2534 397 2845 478 
Q 3156 559 3463 722 
L 3463 178 
Q 3153 47 2828 -22 
Q 2503 -91 2169 -91 
Q 1331 -91 842 396 
Q 353 884 353 1716 
Q 353 2575 817 3079 
Q 1281 3584 2069 3584 
Q 2775 3584 3186 3129 
Q 3597 2675 3597 1894 
z
M 3022 2063 
Q 3016 2534 2758 2815 
Q 2500 3097 2075 3097 
Q 1594 3097 1305 2825 
Q 1016 2553 972 2059 
L 3022 2063 
z
" transform="scale(0.015625)"/>
       <path id="DejaVuSans-72" d="M 2631 2963 
Q 2534 3019 2420 3045 
Q 2306 3072 2169 3072 
Q 1681 3072 1420 2755 
Q 1159 2438 1159 1844 
L 1159 0 
L 581 0 
L 581 3500 
L 1159 3500 
L 1159 2956 
Q 1341 3275 1631 3429 
Q 1922 3584 2338 3584 
Q 2397 3584 2469 3576 
Q 2541 3569 2628 3553 
L 2631 2963 
z
" transform="scale(0.015625)"/>
       <path id="DejaVuSans-73" d="M 2834 3397 
L 2834 2853 
Q 2591 2978 2328 3040 
Q 2066 3103 1784 3103 
Q 1356 3103 1142 2972 
Q 928 2841 928 2578 
Q 928 2378 1081 2264 
Q 1234 2150 1697 2047 
L 1894 2003 
Q 2506 1872 2764 1633 
Q 3022 1394 3022 966 
Q 3022 478 2636 193 
Q 2250 -91 1575 -91 
Q 1294 -91 989 -36 
Q 684 19 347 128 
L 347 722 
Q 666 556 975 473 
Q 1284 391 1588 391 
Q 1994 391 2212 530 
Q 2431 669 2431 922 
Q 2431 1156 2273 1281 
Q 2116 1406 1581 1522 
L 1381 1569 
Q 847 1681 609 1914 
Q 372 2147 372 2553 
Q 372 3047 722 3315 
Q 1072 3584 1716 3584 
Q 2034 3584 2315 3537 
Q 2597 3491 2834 3397 
z
" transform="scale(0.015625)"/>
       <path id="DejaVuSans-75" d="M 544 1381 
L 544 3500 
L 1119 3500 
L 1119 1403 
Q 1119 906 1312 657 
Q 1506 409 1894 409 
Q 2359 409 2629 706 
Q 2900 1003 2900 1516 
L 2900 3500 
L 3475 3500 
L 3475 0 
L 2900 0 
L 2900 538 
Q 2691 219 2414 64 
Q 2138 -91 1772 -91 
Q 1169 -91 856 284 
Q 544 659 544 1381 
z
M 1991 3584 
L 1991 3584 
z
" transform="scale(0.015625)"/>
       <path id="DejaVuSans-62" d="M 3116 1747 
Q 3116 2381 2855 2742 
Q 2594 3103 2138 3103 
Q 1681 3103 1420 2742 
Q 1159 2381 1159 1747 
Q 1159 1113 1420 752 
Q 1681 391 2138 391 
Q 2594 391 2855 752 
Q 3116 1113 3116 1747 
z
M 1159 2969 
Q 1341 3281 1617 3432 
Q 1894 3584 2278 3584 
Q 2916 3584 3314 3078 
Q 3713 2572 3713 1747 
Q 3713 922 3314 415 
Q 2916 -91 2278 -91 
Q 1894 -91 1617 61 
Q 1341 213 1159 525 
L 1159 0 
L 581 0 
L 581 4863 
L 1159 4863 
L 1159 2969 
z
" transform="scale(0.015625)"/>
       <path id="DejaVuSans-6a" d="M 603 3500 
L 1178 3500 
L 1178 -63 
Q 1178 -731 923 -1031 
Q 669 -1331 103 -1331 
L -116 -1331 
L -116 -844 
L 38 -844 
Q 366 -844 484 -692 
Q 603 -541 603 -63 
L 603 3500 
z
M 603 4863 
L 1178 4863 
L 1178 4134 
L 603 4134 
L 603 4863 
z
" transform="scale(0.015625)"/>
       <path id="DejaVuSans-63" d="M 3122 3366 
L 3122 2828 
Q 2878 2963 2633 3030 
Q 2388 3097 2138 3097 
Q 1578 3097 1268 2742 
Q 959 2388 959 1747 
Q 959 1106 1268 751 
Q 1578 397 2138 397 
Q 2388 397 2633 464 
Q 2878 531 3122 666 
L 3122 134 
Q 2881 22 2623 -34 
Q 2366 -91 2075 -91 
Q 1284 -91 818 406 
Q 353 903 353 1747 
Q 353 2603 823 3093 
Q 1294 3584 2113 3584 
Q 2378 3584 2631 3529 
Q 2884 3475 3122 3366 
z
" transform="scale(0.015625)"/>
       <path id="DejaVuSans-74" d="M 1172 4494 
L 1172 3500 
L 2356 3500 
L 2356 3053 
L 1172 3053 
L 1172 1153 
Q 1172 725 1289 603 
Q 1406 481 1766 481 
L 2356 481 
L 2356 0 
L 1766 0 
Q 1100 0 847 248 
Q 594 497 594 1153 
L 594 3053 
L 172 3053 
L 172 3500 
L 594 3500 
L 594 4494 
L 1172 4494 
z
" transform="scale(0.015625)"/>
      </defs>
      <use xlink:href="#DejaVuSans-4d"/>
      <use xlink:href="#DejaVuSans-41" x="86.279297"/>
      <use xlink:href="#DejaVuSans-45" x="154.6875"/>
      <use xlink:href="#DejaVuSans-20" x="217.871094"/>
      <use xlink:href="#DejaVuSans-28" x="249.658203"/>
      <use xlink:href="#DejaVuSans-70" x="288.671875"/>
      <use xlink:href="#DejaVuSans-65" x="352.148438"/>
      <use xlink:href="#DejaVuSans-72" x="413.671875"/>
      <use xlink:href="#DejaVuSans-20" x="454.785156"/>
      <use xlink:href="#DejaVuSans-73" x="486.572266"/>
      <use xlink:href="#DejaVuSans-75" x="538.671875"/>
      <use xlink:href="#DejaVuSans-62" x="602.050781"/>
      <use xlink:href="#DejaVuSans-6a" x="665.527344"/>
      <use xlink:href="#DejaVuSans-65" x="693.310547"/>
      <use xlink:href="#DejaVuSans-63" x="754.833984"/>
      <use xlink:href="#DejaVuSans-74" x="809.814453"/>
      <use xlink:href="#DejaVuSans-29" x="849.023438"/>
     </g>
    </g>
   </g>
   <g id="LineCollection_1">
    <path d="M 78.765925 37.266125 
L 107.894821 37.266125 
" clip-path="url(#p0969d6f3ae)" style="fill: none; stroke: #1f77b4; stroke-width: 1.5"/>
    <path d="M 195.28151 160.800078 
L 224.410406 160.800078 
" clip-path="url(#p0969d6f3ae)" style="fill: none; stroke: #1f77b4; stroke-width: 1.5"/>
    <path d="M 311.797094 57.204776 
L 340.92599 57.204776 
" clip-path="url(#p0969d6f3ae)" style="fill: none; stroke: #1f77b4; stroke-width: 1.5"/>
    <path d="M 428.312679 217.14996 
L 457.441575 217.14996 
" clip-path="url(#p0969d6f3ae)" style="fill: none; stroke: #1f77b4; stroke-width: 1.5"/>
   </g>
   <g id="LineCollection_2">
    <path d="M 78.765925 336.226125 
L 107.894821 336.226125 
" clip-path="url(#p0969d6f3ae)" style="fill: none; stroke: #1f77b4; stroke-width: 1.5"/>
    <path d="M 195.28151 336.110467 
L 224.410406 336.110467 
" clip-path="url(#p0969d6f3ae)" style="fill: none; stroke: #1f77b4; stroke-width: 1.5"/>
    <path d="M 311.797094 334.967847 
L 340.92599 334.967847 
" clip-path="url(#p0969d6f3ae)" style="fill: none; stroke: #1f77b4; stroke-width: 1.5"/>
    <path d="M 428.312679 331.182297 
L 457.441575 331.182297 
" clip-path="url(#p0969d6f3ae)" style="fill: none; stroke: #1f77b4; stroke-width: 1.5"/>
   </g>
   <g id="LineCollection_3">
    <path d="M 93.330373 336.226125 
L 93.330373 37.266125 
" clip-path="url(#p0969d6f3ae)" style="fill: none; stroke: #1f77b4; stroke-width: 1.5"/>
    <path d="M 209.845958 336.110467 
L 209.845958 160.800078 
" clip-path="url(#p0969d6f3ae)" style="fill: none; stroke: #1f77b4; stroke-width: 1.5"/>
    <path d="M 326.361542 334.967847 
L 326.361542 57.204776 
" clip-path="url(#p0969d6f3ae)" style="fill: none; stroke: #1f77b4; stroke-width: 1.5"/>
    <path d="M 442.877127 331.182297 
L 442.877127 217.14996 
" clip-path="url(#p0969d6f3ae)" style="fill: none; stroke: #1f77b4; stroke-width: 1.5"/>
   </g>
   <g id="LineCollection_4">
    <path d="M 78.765925 301.789376 
L 107.894821 301.789376 
" clip-path="url(#p0969d6f3ae)" style="fill: none; stroke: #000000; stroke-width: 2"/>
    <path d="M 195.28151 304.959241 
L 224.410406 304.959241 
" clip-path="url(#p0969d6f3ae)" style="fill: none; stroke: #000000; stroke-width: 2"/>
    <path d="M 311.797094 298.088168 
L 340.92599 298.088168 
" clip-path="url(#p0969d6f3ae)" style="fill: none; stroke: #000000; stroke-width: 2"/>
    <path d="M 428.312679 290.756107 
L 457.441575 290.756107 
" clip-path="url(#p0969d6f3ae)" style="fill: none; stroke: #000000; stroke-width: 2"/>
   </g>
   <g id="patch_3">
    <path d="M 43.81125 351.174125 
L 43.81125 22.318125 
" style="fill: none; stroke: #000000; stroke-width: 0.8; stroke-linejoin: miter; stroke-linecap: square"/>
   </g>
   <g id="patch_4">
    <path d="M 43.81125 351.174125 
L 492.39625 351.174125 
" style="fill: none; stroke: #000000; stroke-width: 0.8; stroke-linejoin: miter; stroke-linecap: square"/>
   </g>
   <g id="text_12">
    <g id="patch_5">
     <path d="M 201.439766 42.694117 
L 334.767734 42.694117 
Q 336.567734 42.694117 336.567734 40.894117 
L 336.567734 32.183805 
Q 336.567734 30.383805 334.767734 30.383805 
L 201.439766 30.383805 
Q 199.639766 30.383805 199.639766 32.183805 
L 199.639766 40.894117 
Q 199.639766 42.694117 201.439766 42.694117 
z
" style="fill: #ffffe0; opacity: 0.8; stroke: #000000; stroke-linejoin: miter"/>
    </g>
    <!-- Kruskal-Wallis  p = 0.0019  ** -->
    <g transform="translate(201.439766 39.022399) scale(0.09 -0.09)">
     <defs>
      <path id="DejaVuSans-Oblique-4b" d="M 1081 4666 
L 1716 4666 
L 1331 2700 
L 3781 4666 
L 4622 4666 
L 1850 2438 
L 3878 0 
L 3109 0 
L 1247 2272 
L 806 0 
L 172 0 
L 1081 4666 
z
" transform="scale(0.015625)"/>
      <path id="DejaVuSans-Oblique-72" d="M 2853 2969 
Q 2766 3016 2653 3041 
Q 2541 3066 2413 3066 
Q 1953 3066 1609 2717 
Q 1266 2369 1153 1784 
L 800 0 
L 225 0 
L 909 3500 
L 1484 3500 
L 1375 2956 
Q 1603 3259 1920 3421 
Q 2238 3584 2597 3584 
Q 2691 3584 2781 3573 
Q 2872 3563 2963 3538 
L 2853 2969 
z
" transform="scale(0.015625)"/>
      <path id="DejaVuSans-Oblique-75" d="M 428 1388 
L 838 3500 
L 1416 3500 
L 1006 1409 
Q 975 1256 961 1147 
Q 947 1038 947 966 
Q 947 700 1109 554 
Q 1272 409 1569 409 
Q 2031 409 2368 721 
Q 2706 1034 2809 1563 
L 3194 3500 
L 3769 3500 
L 3091 0 
L 2516 0 
L 2631 550 
Q 2388 244 2052 76 
Q 1716 -91 1338 -91 
Q 878 -91 622 161 
Q 366 413 366 863 
Q 366 956 381 1097 
Q 397 1238 428 1388 
z
" transform="scale(0.015625)"/>
      <path id="DejaVuSans-Oblique-73" d="M 3200 3397 
L 3091 2853 
Q 2863 2978 2609 3040 
Q 2356 3103 2088 3103 
Q 1634 3103 1373 2948 
Q 1113 2794 1113 2528 
Q 1113 2219 1719 2053 
Q 1766 2041 1788 2034 
L 1972 1978 
Q 2547 1819 2739 1644 
Q 2931 1469 2931 1166 
Q 2931 609 2489 259 
Q 2047 -91 1331 -91 
Q 1053 -91 747 -37 
Q 441 16 72 128 
L 184 722 
Q 500 559 806 475 
Q 1113 391 1394 391 
Q 1816 391 2080 572 
Q 2344 753 2344 1031 
Q 2344 1331 1650 1516 
L 1591 1531 
L 1394 1581 
Q 956 1697 753 1886 
Q 550 2075 550 2369 
Q 550 2928 970 3256 
Q 1391 3584 2113 3584 
Q 2397 3584 2667 3537 
Q 2938 3491 3200 3397 
z
" transform="scale(0.015625)"/>
      <path id="DejaVuSans-Oblique-6b" d="M 1172 4863 
L 1747 4863 
L 1197 2028 
L 3169 3500 
L 3916 3500 
L 1716 1825 
L 3322 0 
L 2625 0 
L 1131 1709 
L 800 0 
L 225 0 
L 1172 4863 
z
" transform="scale(0.015625)"/>
      <path id="DejaVuSans-Oblique-61" d="M 3438 1997 
L 3047 0 
L 2472 0 
L 2578 531 
Q 2325 219 2001 64 
Q 1678 -91 1281 -91 
Q 834 -91 548 182 
Q 263 456 263 884 
Q 263 1497 752 1853 
Q 1241 2209 2100 2209 
L 2900 2209 
L 2931 2363 
Q 2938 2388 2941 2417 
Q 2944 2447 2944 2509 
Q 2944 2788 2717 2942 
Q 2491 3097 2081 3097 
Q 1800 3097 1504 3025 
Q 1209 2953 897 2809 
L 997 3341 
Q 1322 3463 1633 3523 
Q 1944 3584 2234 3584 
Q 2853 3584 3176 3315 
Q 3500 3047 3500 2534 
Q 3500 2431 3484 2292 
Q 3469 2153 3438 1997 
z
M 2816 1759 
L 2241 1759 
Q 1534 1759 1195 1570 
Q 856 1381 856 984 
Q 856 709 1029 553 
Q 1203 397 1509 397 
Q 1978 397 2328 733 
Q 2678 1069 2791 1631 
L 2816 1759 
z
" transform="scale(0.015625)"/>
      <path id="DejaVuSans-Oblique-6c" d="M 1172 4863 
L 1747 4863 
L 800 0 
L 225 0 
L 1172 4863 
z
" transform="scale(0.015625)"/>
      <path id="DejaVuSans-Oblique-2d" d="M 391 2009 
L 2075 2009 
L 1978 1497 
L 288 1497 
L 391 2009 
z
" transform="scale(0.015625)"/>
      <path id="DejaVuSans-Oblique-57" d="M 616 4666 
L 1228 4666 
L 1453 697 
L 3213 4666 
L 3916 4666 
L 4147 697 
L 5888 4666 
L 6528 4666 
L 4453 0 
L 3659 0 
L 3444 3891 
L 1697 0 
L 903 0 
L 616 4666 
z
" transform="scale(0.015625)"/>
      <path id="DejaVuSans-Oblique-69" d="M 1172 4863 
L 1747 4863 
L 1606 4134 
L 1031 4134 
L 1172 4863 
z
M 909 3500 
L 1484 3500 
L 800 0 
L 225 0 
L 909 3500 
z
" transform="scale(0.015625)"/>
      <path id="DejaVuSans-Oblique-20" transform="scale(0.015625)"/>
      <path id="DejaVuSans-Oblique-70" d="M 3175 2156 
Q 3175 2616 2975 2859 
Q 2775 3103 2400 3103 
Q 2144 3103 1911 2972 
Q 1678 2841 1497 2591 
Q 1319 2344 1212 1994 
Q 1106 1644 1106 1300 
Q 1106 863 1306 627 
Q 1506 391 1875 391 
Q 2147 391 2380 519 
Q 2613 647 2778 891 
Q 2956 1147 3065 1494 
Q 3175 1841 3175 2156 
z
M 1394 2969 
Q 1625 3272 1939 3428 
Q 2253 3584 2638 3584 
Q 3175 3584 3472 3232 
Q 3769 2881 3769 2247 
Q 3769 1728 3584 1258 
Q 3400 788 3053 416 
Q 2822 169 2531 39 
Q 2241 -91 1919 -91 
Q 1547 -91 1294 64 
Q 1041 219 916 525 
L 556 -1331 
L -19 -1331 
L 922 3500 
L 1497 3500 
L 1394 2969 
z
" transform="scale(0.015625)"/>
      <path id="DejaVuSans-Oblique-3d" d="M 678 2906 
L 4684 2906 
L 4684 2381 
L 678 2381 
L 678 2906 
z
M 678 1631 
L 4684 1631 
L 4684 1100 
L 678 1100 
L 678 1631 
z
" transform="scale(0.015625)"/>
      <path id="DejaVuSans-Oblique-30" d="M 2444 4750 
Q 3078 4750 3414 4328 
Q 3750 3906 3750 3116 
Q 3750 2516 3592 1923 
Q 3434 1331 3150 863 
Q 2859 394 2467 151 
Q 2075 -91 1600 -91 
Q 988 -91 653 334 
Q 319 759 319 1544 
Q 319 2138 480 2733 
Q 641 3328 928 3794 
Q 1216 4263 1602 4506 
Q 1988 4750 2444 4750 
z
M 2406 4250 
Q 2169 4250 1955 4123 
Q 1741 3997 1569 3750 
Q 1281 3338 1111 2720 
Q 941 2103 941 1453 
Q 941 938 1123 673 
Q 1306 409 1663 409 
Q 1913 409 2125 536 
Q 2338 663 2509 909 
Q 2794 1319 2961 1936 
Q 3128 2553 3128 3206 
Q 3128 3722 2945 3986 
Q 2763 4250 2406 4250 
z
" transform="scale(0.015625)"/>
      <path id="DejaVuSans-Oblique-2e" d="M 525 794 
L 1184 794 
L 1031 0 
L 372 0 
L 525 794 
z
" transform="scale(0.015625)"/>
      <path id="DejaVuSans-Oblique-31" d="M 416 531 
L 1447 531 
L 2144 4122 
L 978 3897 
L 1088 4441 
L 2247 4666 
L 2881 4666 
L 2075 531 
L 3103 531 
L 3003 0 
L 313 0 
L 416 531 
z
" transform="scale(0.015625)"/>
      <path id="DejaVuSans-Oblique-39" d="M 281 103 
L 397 678 
Q 578 559 809 496 
Q 1041 434 1306 434 
Q 1953 434 2348 843 
Q 2744 1253 2938 2119 
Q 2706 1853 2401 1714 
Q 2097 1575 1747 1575 
Q 1178 1575 842 1904 
Q 506 2234 506 2791 
Q 506 3247 672 3639 
Q 838 4031 1159 4325 
Q 1378 4531 1665 4640 
Q 1953 4750 2278 4750 
Q 2925 4750 3300 4339 
Q 3675 3928 3675 3219 
Q 3675 2559 3501 1943 
Q 3328 1328 3022 878 
Q 2697 403 2240 156 
Q 1784 -91 1228 -91 
Q 988 -91 748 -42 
Q 509 6 281 103 
z
M 1131 2938 
Q 1131 2541 1337 2308 
Q 1544 2075 1894 2075 
Q 2378 2075 2706 2447 
Q 3034 2819 3034 3372 
Q 3034 3784 2831 4017 
Q 2628 4250 2272 4250 
Q 1788 4250 1459 3870 
Q 1131 3491 1131 2938 
z
" transform="scale(0.015625)"/>
      <path id="DejaVuSans-Oblique-2a" d="M 3009 3897 
L 1888 3291 
L 3009 2681 
L 2828 2375 
L 1778 3009 
L 1778 1831 
L 1422 1831 
L 1422 3009 
L 372 2375 
L 191 2681 
L 1313 3291 
L 191 3897 
L 372 4206 
L 1422 3572 
L 1422 4750 
L 1778 4750 
L 1778 3572 
L 2828 4206 
L 3009 3897 
z
" transform="scale(0.015625)"/>
     </defs>
     <use xlink:href="#DejaVuSans-Oblique-4b"/>
     <use xlink:href="#DejaVuSans-Oblique-72" x="65.576172"/>
     <use xlink:href="#DejaVuSans-Oblique-75" x="106.689453"/>
     <use xlink:href="#DejaVuSans-Oblique-73" x="170.068359"/>
     <use xlink:href="#DejaVuSans-Oblique-6b" x="222.167969"/>
     <use xlink:href="#DejaVuSans-Oblique-61" x="280.078125"/>
     <use xlink:href="#DejaVuSans-Oblique-6c" x="341.357422"/>
     <use xlink:href="#DejaVuSans-Oblique-2d" x="369.140625"/>
     <use xlink:href="#DejaVuSans-Oblique-57" x="403.474609"/>
     <use xlink:href="#DejaVuSans-Oblique-61" x="496.851562"/>
     <use xlink:href="#DejaVuSans-Oblique-6c" x="558.130859"/>
     <use xlink:href="#DejaVuSans-Oblique-6c" x="585.914062"/>
     <use xlink:href="#DejaVuSans-Oblique-69" x="613.697266"/>
     <use xlink:href="#DejaVuSans-Oblique-73" x="641.480469"/>
     <use xlink:href="#DejaVuSans-Oblique-20" x="693.580078"/>
     <use xlink:href="#DejaVuSans-Oblique-20" x="725.367188"/>
     <use xlink:href="#DejaVuSans-Oblique-70" x="757.154297"/>
     <use xlink:href="#DejaVuSans-Oblique-20" x="820.630859"/>
     <use xlink:href="#DejaVuSans-Oblique-3d" x="852.417969"/>
     <use xlink:href="#DejaVuSans-Oblique-20" x="936.207031"/>
     <use xlink:href="#DejaVuSans-Oblique-30" x="967.994141"/>
     <use xlink:href="#DejaVuSans-Oblique-2e" x="1031.617188"/>
     <use xlink:href="#DejaVuSans-Oblique-30" x="1063.404297"/>
     <use xlink:href="#DejaVuSans-Oblique-30" x="1127.027344"/>
     <use xlink:href="#DejaVuSans-Oblique-31" x="1190.650391"/>
     <use xlink:href="#DejaVuSans-Oblique-39" x="1254.273438"/>
     <use xlink:href="#DejaVuSans-Oblique-20" x="1317.896484"/>
     <use xlink:href="#DejaVuSans-Oblique-20" x="1349.683594"/>
     <use xlink:href="#DejaVuSans-Oblique-2a" x="1381.470703"/>
     <use xlink:href="#DejaVuSans-Oblique-2a" x="1431.470703"/>
    </g>
   </g>
   <g id="text_13">
    <!-- BAG — Prediction Error by Age Group -->
    <g transform="translate(156.242188 16.318125) scale(0.12 -0.12)">
     <defs>
      <path id="DejaVuSans-42" d="M 1259 2228 
L 1259 519 
L 2272 519 
Q 2781 519 3026 730 
Q 3272 941 3272 1375 
Q 3272 1813 3026 2020 
Q 2781 2228 2272 2228 
L 1259 2228 
z
M 1259 4147 
L 1259 2741 
L 2194 2741 
Q 2656 2741 2882 2914 
Q 3109 3088 3109 3444 
Q 3109 3797 2882 3972 
Q 2656 4147 2194 4147 
L 1259 4147 
z
M 628 4666 
L 2241 4666 
Q 2963 4666 3353 4366 
Q 3744 4066 3744 3513 
Q 3744 3084 3544 2831 
Q 3344 2578 2956 2516 
Q 3422 2416 3680 2098 
Q 3938 1781 3938 1306 
Q 3938 681 3513 340 
Q 3088 0 2303 0 
L 628 0 
L 628 4666 
z
" transform="scale(0.015625)"/>
      <path id="DejaVuSans-47" d="M 3809 666 
L 3809 1919 
L 2778 1919 
L 2778 2438 
L 4434 2438 
L 4434 434 
Q 4069 175 3628 42 
Q 3188 -91 2688 -91 
Q 1594 -91 976 548 
Q 359 1188 359 2328 
Q 359 3472 976 4111 
Q 1594 4750 2688 4750 
Q 3144 4750 3555 4637 
Q 3966 4525 4313 4306 
L 4313 3634 
Q 3963 3931 3569 4081 
Q 3175 4231 2741 4231 
Q 1884 4231 1454 3753 
Q 1025 3275 1025 2328 
Q 1025 1384 1454 906 
Q 1884 428 2741 428 
Q 3075 428 3337 486 
Q 3600 544 3809 666 
z
" transform="scale(0.015625)"/>
      <path id="DejaVuSans-2014" d="M 313 1978 
L 6088 1978 
L 6088 1528 
L 313 1528 
L 313 1978 
z
" transform="scale(0.015625)"/>
      <path id="DejaVuSans-50" d="M 1259 4147 
L 1259 2394 
L 2053 2394 
Q 2494 2394 2734 2622 
Q 2975 2850 2975 3272 
Q 2975 3691 2734 3919 
Q 2494 4147 2053 4147 
L 1259 4147 
z
M 628 4666 
L 2053 4666 
Q 2838 4666 3239 4311 
Q 3641 3956 3641 3272 
Q 3641 2581 3239 2228 
Q 2838 1875 2053 1875 
L 1259 1875 
L 1259 0 
L 628 0 
L 628 4666 
z
" transform="scale(0.015625)"/>
      <path id="DejaVuSans-64" d="M 2906 2969 
L 2906 4863 
L 3481 4863 
L 3481 0 
L 2906 0 
L 2906 525 
Q 2725 213 2448 61 
Q 2172 -91 1784 -91 
Q 1150 -91 751 415 
Q 353 922 353 1747 
Q 353 2572 751 3078 
Q 1150 3584 1784 3584 
Q 2172 3584 2448 3432 
Q 2725 3281 2906 2969 
z
M 947 1747 
Q 947 1113 1208 752 
Q 1469 391 1925 391 
Q 2381 391 2643 752 
Q 2906 1113 2906 1747 
Q 2906 2381 2643 2742 
Q 2381 3103 1925 3103 
Q 1469 3103 1208 2742 
Q 947 2381 947 1747 
z
" transform="scale(0.015625)"/>
      <path id="DejaVuSans-69" d="M 603 3500 
L 1178 3500 
L 1178 0 
L 603 0 
L 603 3500 
z
M 603 4863 
L 1178 4863 
L 1178 4134 
L 603 4134 
L 603 4863 
z
" transform="scale(0.015625)"/>
      <path id="DejaVuSans-6f" d="M 1959 3097 
Q 1497 3097 1228 2736 
Q 959 2375 959 1747 
Q 959 1119 1226 758 
Q 1494 397 1959 397 
Q 2419 397 2687 759 
Q 2956 1122 2956 1747 
Q 2956 2369 2687 2733 
Q 2419 3097 1959 3097 
z
M 1959 3584 
Q 2709 3584 3137 3096 
Q 3566 2609 3566 1747 
Q 3566 888 3137 398 
Q 2709 -91 1959 -91 
Q 1206 -91 779 398 
Q 353 888 353 1747 
Q 353 2609 779 3096 
Q 1206 3584 1959 3584 
z
" transform="scale(0.015625)"/>
      <path id="DejaVuSans-79" d="M 2059 -325 
Q 1816 -950 1584 -1140 
Q 1353 -1331 966 -1331 
L 506 -1331 
L 506 -850 
L 844 -850 
Q 1081 -850 1212 -737 
Q 1344 -625 1503 -206 
L 1606 56 
L 191 3500 
L 800 3500 
L 1894 763 
L 2988 3500 
L 3597 3500 
L 2059 -325 
z
" transform="scale(0.015625)"/>
      <path id="DejaVuSans-67" d="M 2906 1791 
Q 2906 2416 2648 2759 
Q 2391 3103 1925 3103 
Q 1463 3103 1205 2759 
Q 947 2416 947 1791 
Q 947 1169 1205 825 
Q 1463 481 1925 481 
Q 2391 481 2648 825 
Q 2906 1169 2906 1791 
z
M 3481 434 
Q 3481 -459 3084 -895 
Q 2688 -1331 1869 -1331 
Q 1566 -1331 1297 -1286 
Q 1028 -1241 775 -1147 
L 775 -588 
Q 1028 -725 1275 -790 
Q 1522 -856 1778 -856 
Q 2344 -856 2625 -561 
Q 2906 -266 2906 331 
L 2906 616 
Q 2728 306 2450 153 
Q 2172 0 1784 0 
Q 1141 0 747 490 
Q 353 981 353 1791 
Q 353 2603 747 3093 
Q 1141 3584 1784 3584 
Q 2172 3584 2450 3431 
Q 2728 3278 2906 2969 
L 2906 3500 
L 3481 3500 
L 3481 434 
z
" transform="scale(0.015625)"/>
     </defs>
     <use xlink:href="#DejaVuSans-42"/>
     <use xlink:href="#DejaVuSans-41" x="68.603516"/>
     <use xlink:href="#DejaVuSans-47" x="135.261719"/>
     <use xlink:href="#DejaVuSans-20" x="212.751953"/>
     <use xlink:href="#DejaVuSans-2014" x="244.539062"/>
     <use xlink:href="#DejaVuSans-20" x="344.539062"/>
     <use xlink:href="#DejaVuSans-50" x="376.326172"/>
     <use xlink:href="#DejaVuSans-72" x="434.878906"/>
     <use xlink:href="#DejaVuSans-65" x="473.742188"/>
     <use xlink:href="#DejaVuSans-64" x="535.265625"/>
     <use xlink:href="#DejaVuSans-69" x="598.742188"/>
     <use xlink:href="#DejaVuSans-63" x="626.525391"/>
     <use xlink:href="#DejaVuSans-74" x="681.505859"/>
     <use xlink:href="#DejaVuSans-69" x="720.714844"/>
     <use xlink:href="#DejaVuSans-6f" x="748.498047"/>
     <use xlink:href="#DejaVuSans-6e" x="809.679688"/>
     <use xlink:href="#DejaVuSans-20" x="873.058594"/>
     <use xlink:href="#DejaVuSans-45" x="904.845703"/>
     <use xlink:href="#DejaVuSans-72" x="968.029297"/>
     <use xlink:href="#DejaVuSans-72" x="1007.392578"/>
     <use xlink:href="#DejaVuSans-6f" x="1046.255859"/>
     <use xlink:href="#DejaVuSans-72" x="1107.4375"/>
     <use xlink:href="#DejaVuSans-20" x="1148.550781"/>
     <use xlink:href="#DejaVuSans-62" x="1180.337891"/>
     <use xlink:href="#DejaVuSans-79" x="1243.814453"/>
     <use xlink:href="#DejaVuSans-20" x="1302.994141"/>
     <use xlink:href="#DejaVuSans-41" x="1334.78125"/>
     <use xlink:href="#DejaVuSans-67" x="1403.189453"/>
     <use xlink:href="#DejaVuSans-65" x="1466.666016"/>
     <use xlink:href="#DejaVuSans-20" x="1528.189453"/>
     <use xlink:href="#DejaVuSans-47" x="1559.976562"/>
     <use xlink:href="#DejaVuSans-72" x="1637.466797"/>
     <use xlink:href="#DejaVuSans-6f" x="1676.330078"/>
     <use xlink:href="#DejaVuSans-75" x="1737.511719"/>
     <use xlink:href="#DejaVuSans-70" x="1800.890625"/>
    </g>
   </g>
  </g>
  <g id="axes_2">
   <g id="patch_6">
    <path d="M 543.62625 351.174125 
L 992.21125 351.174125 
L 992.21125 22.318125 
L 543.62625 22.318125 
z
" style="fill: #ffffff"/>
   </g>
   <g id="patch_7">
    <path d="M 564.016477 351.174125 
L 602.592583 351.174125 
L 602.592583 230.343481 
L 564.016477 230.343481 
z
" clip-path="url(#p7c7753a9d7)" style="fill: #2166ac; opacity: 0.8"/>
   </g>
   <g id="patch_8">
    <path d="M 674.233922 351.174125 
L 712.810028 351.174125 
L 712.810028 236.965619 
L 674.233922 236.965619 
z
" clip-path="url(#p7c7753a9d7)" style="fill: #4dac26; opacity: 0.8"/>
   </g>
   <g id="patch_9">
    <path d="M 784.451367 351.174125 
L 823.027472 351.174125 
L 823.027472 213.897842 
L 784.451367 213.897842 
z
" clip-path="url(#p7c7753a9d7)" style="fill: #d6604d; opacity: 0.8"/>
   </g>
   <g id="patch_10">
    <path d="M 894.668811 351.174125 
L 933.244917 351.174125 
L 933.244917 198.541617 
L 894.668811 198.541617 
z
" clip-path="url(#p7c7753a9d7)" style="fill: #762a83; opacity: 0.8"/>
   </g>
   <g id="patch_11">
    <path d="M 602.592583 351.174125 
L 641.168689 351.174125 
L 641.168689 198.992199 
L 602.592583 198.992199 
z
" clip-path="url(#p7c7753a9d7)" style="fill: url(#h15c2f048da); opacity: 0.45"/>
   </g>
   <g id="patch_12">
    <path d="M 712.810028 351.174125 
L 751.386133 351.174125 
L 751.386133 208.122989 
L 712.810028 208.122989 
z
" clip-path="url(#p7c7753a9d7)" style="fill: url(#h289ee201c6); opacity: 0.45"/>
   </g>
   <g id="patch_13">
    <path d="M 823.027472 351.174125 
L 861.603578 351.174125 
L 861.603578 180.868484 
L 823.027472 180.868484 
z
" clip-path="url(#p7c7753a9d7)" style="fill: url(#h70ec1f8dfd); opacity: 0.45"/>
   </g>
   <g id="patch_14">
    <path d="M 933.244917 351.174125 
L 971.821023 351.174125 
L 971.821023 163.273198 
L 933.244917 163.273198 
z
" clip-path="url(#p7c7753a9d7)" style="fill: url(#h2d7a7f2713); opacity: 0.45"/>
   </g>
   <g id="matplotlib.axis_3">
    <g id="xtick_5">
     <g id="line2d_11">
      <g>
       <use xlink:href="#mcb68495a29" x="602.592583" y="351.174125" style="stroke: #000000; stroke-width: 0.8"/>
      </g>
     </g>
     <g id="text_14">
      <!-- &lt;60 -->
      <g transform="translate(592.040239 365.772562) scale(0.1 -0.1)">
       <use xlink:href="#DejaVuSans-3c"/>
       <use xlink:href="#DejaVuSans-36" x="83.789062"/>
       <use xlink:href="#DejaVuSans-30" x="147.412109"/>
      </g>
      <!-- (n=278) -->
      <g transform="translate(581.788677 376.970375) scale(0.1 -0.1)">
       <use xlink:href="#DejaVuSans-28"/>
       <use xlink:href="#DejaVuSans-6e" x="39.013672"/>
       <use xlink:href="#DejaVuSans-3d" x="102.392578"/>
       <use xlink:href="#DejaVuSans-32" x="186.181641"/>
       <use xlink:href="#DejaVuSans-37" x="249.804688"/>
       <use xlink:href="#DejaVuSans-38" x="313.427734"/>
       <use xlink:href="#DejaVuSans-29" x="377.050781"/>
      </g>
     </g>
    </g>
    <g id="xtick_6">
     <g id="line2d_12">
      <g>
       <use xlink:href="#mcb68495a29" x="712.810028" y="351.174125" style="stroke: #000000; stroke-width: 0.8"/>
      </g>
     </g>
     <g id="text_15">
      <!-- 60-70 -->
      <g transform="translate(698.281121 365.772562) scale(0.1 -0.1)">
       <use xlink:href="#DejaVuSans-36"/>
       <use xlink:href="#DejaVuSans-30" x="63.623047"/>
       <use xlink:href="#DejaVuSans-2d" x="127.246094"/>
       <use xlink:href="#DejaVuSans-37" x="163.330078"/>
       <use xlink:href="#DejaVuSans-30" x="226.953125"/>
      </g>
      <!-- (n=278) -->
      <g transform="translate(692.006121 376.970375) scale(0.1 -0.1)">
       <use xlink:href="#DejaVuSans-28"/>
       <use xlink:href="#DejaVuSans-6e" x="39.013672"/>
       <use xlink:href="#DejaVuSans-3d" x="102.392578"/>
       <use xlink:href="#DejaVuSans-32" x="186.181641"/>
       <use xlink:href="#DejaVuSans-37" x="249.804688"/>
       <use xlink:href="#DejaVuSans-38" x="313.427734"/>
       <use xlink:href="#DejaVuSans-29" x="377.050781"/>
      </g>
     </g>
    </g>
    <g id="xtick_7">
     <g id="line2d_13">
      <g>
       <use xlink:href="#mcb68495a29" x="823.027472" y="351.174125" style="stroke: #000000; stroke-width: 0.8"/>
      </g>
     </g>
     <g id="text_16">
      <!-- 70-80 -->
      <g transform="translate(808.498566 365.772562) scale(0.1 -0.1)">
       <use xlink:href="#DejaVuSans-37"/>
       <use xlink:href="#DejaVuSans-30" x="63.623047"/>
       <use xlink:href="#DejaVuSans-2d" x="127.246094"/>
       <use xlink:href="#DejaVuSans-38" x="163.330078"/>
       <use xlink:href="#DejaVuSans-30" x="226.953125"/>
      </g>
      <!-- (n=178) -->
      <g transform="translate(802.223566 376.970375) scale(0.1 -0.1)">
       <use xlink:href="#DejaVuSans-28"/>
       <use xlink:href="#DejaVuSans-6e" x="39.013672"/>
       <use xlink:href="#DejaVuSans-3d" x="102.392578"/>
       <use xlink:href="#DejaVuSans-31" x="186.181641"/>
       <use xlink:href="#DejaVuSans-37" x="249.804688"/>
       <use xlink:href="#DejaVuSans-38" x="313.427734"/>
       <use xlink:href="#DejaVuSans-29" x="377.050781"/>
      </g>
     </g>
    </g>
    <g id="xtick_8">
     <g id="line2d_14">
      <g>
       <use xlink:href="#mcb68495a29" x="933.244917" y="351.174125" style="stroke: #000000; stroke-width: 0.8"/>
      </g>
     </g>
     <g id="text_17">
      <!-- &gt;=80 -->
      <g transform="translate(918.50273 365.772562) scale(0.1 -0.1)">
       <use xlink:href="#DejaVuSans-3e"/>
       <use xlink:href="#DejaVuSans-3d" x="83.789062"/>
       <use xlink:href="#DejaVuSans-38" x="167.578125"/>
       <use xlink:href="#DejaVuSans-30" x="231.201172"/>
      </g>
      <!-- (n=45) -->
      <g transform="translate(915.622261 376.970375) scale(0.1 -0.1)">
       <use xlink:href="#DejaVuSans-28"/>
       <use xlink:href="#DejaVuSans-6e" x="39.013672"/>
       <use xlink:href="#DejaVuSans-3d" x="102.392578"/>
       <use xlink:href="#DejaVuSans-34" x="186.181641"/>
       <use xlink:href="#DejaVuSans-35" x="249.804688"/>
       <use xlink:href="#DejaVuSans-29" x="313.427734"/>
      </g>
     </g>
    </g>
   </g>
   <g id="matplotlib.axis_4">
    <g id="ytick_7">
     <g id="line2d_15">
      <g>
       <use xlink:href="#ma0b7fc80d2" x="543.62625" y="351.174125" style="stroke: #000000; stroke-width: 0.8"/>
      </g>
     </g>
     <g id="text_18">
      <!-- 0.0 -->
      <g transform="translate(519.132812 355.353266) scale(0.11 -0.11)">
       <defs>
        <path id="DejaVuSans-2e" d="M 684 794 
L 1344 794 
L 1344 0 
L 684 0 
L 684 794 
z
" transform="scale(0.015625)"/>
       </defs>
       <use xlink:href="#DejaVuSans-30"/>
       <use xlink:href="#DejaVuSans-2e" x="63.623047"/>
       <use xlink:href="#DejaVuSans-30" x="95.410156"/>
      </g>
     </g>
    </g>
    <g id="ytick_8">
     <g id="line2d_16">
      <g>
       <use xlink:href="#ma0b7fc80d2" x="543.62625" y="310.243666" style="stroke: #000000; stroke-width: 0.8"/>
      </g>
     </g>
     <g id="text_19">
      <!-- 0.5 -->
      <g transform="translate(519.132812 314.422806) scale(0.11 -0.11)">
       <use xlink:href="#DejaVuSans-30"/>
       <use xlink:href="#DejaVuSans-2e" x="63.623047"/>
       <use xlink:href="#DejaVuSans-35" x="95.410156"/>
      </g>
     </g>
    </g>
    <g id="ytick_9">
     <g id="line2d_17">
      <g>
       <use xlink:href="#ma0b7fc80d2" x="543.62625" y="269.313206" style="stroke: #000000; stroke-width: 0.8"/>
      </g>
     </g>
     <g id="text_20">
      <!-- 1.0 -->
      <g transform="translate(519.132812 273.492347) scale(0.11 -0.11)">
       <use xlink:href="#DejaVuSans-31"/>
       <use xlink:href="#DejaVuSans-2e" x="63.623047"/>
       <use xlink:href="#DejaVuSans-30" x="95.410156"/>
      </g>
     </g>
    </g>
    <g id="ytick_10">
     <g id="line2d_18">
      <g>
       <use xlink:href="#ma0b7fc80d2" x="543.62625" y="228.382747" style="stroke: #000000; stroke-width: 0.8"/>
      </g>
     </g>
     <g id="text_21">
      <!-- 1.5 -->
      <g transform="translate(519.132812 232.561887) scale(0.11 -0.11)">
       <use xlink:href="#DejaVuSans-31"/>
       <use xlink:href="#DejaVuSans-2e" x="63.623047"/>
       <use xlink:href="#DejaVuSans-35" x="95.410156"/>
      </g>
     </g>
    </g>
    <g id="ytick_11">
     <g id="line2d_19">
      <g>
       <use xlink:href="#ma0b7fc80d2" x="543.62625" y="187.452287" style="stroke: #000000; stroke-width: 0.8"/>
      </g>
     </g>
     <g id="text_22">
      <!-- 2.0 -->
      <g transform="translate(519.132812 191.631428) scale(0.11 -0.11)">
       <use xlink:href="#DejaVuSans-32"/>
       <use xlink:href="#DejaVuSans-2e" x="63.623047"/>
       <use xlink:href="#DejaVuSans-30" x="95.410156"/>
      </g>
     </g>
    </g>
    <g id="ytick_12">
     <g id="line2d_20">
      <g>
       <use xlink:href="#ma0b7fc80d2" x="543.62625" y="146.521828" style="stroke: #000000; stroke-width: 0.8"/>
      </g>
     </g>
     <g id="text_23">
      <!-- 2.5 -->
      <g transform="translate(519.132812 150.700968) scale(0.11 -0.11)">
       <use xlink:href="#DejaVuSans-32"/>
       <use xlink:href="#DejaVuSans-2e" x="63.623047"/>
       <use xlink:href="#DejaVuSans-35" x="95.410156"/>
      </g>
     </g>
    </g>
    <g id="ytick_13">
     <g id="line2d_21">
      <g>
       <use xlink:href="#ma0b7fc80d2" x="543.62625" y="105.591368" style="stroke: #000000; stroke-width: 0.8"/>
      </g>
     </g>
     <g id="text_24">
      <!-- 3.0 -->
      <g transform="translate(519.132812 109.770509) scale(0.11 -0.11)">
       <defs>
        <path id="DejaVuSans-33" d="M 2597 2516 
Q 3050 2419 3304 2112 
Q 3559 1806 3559 1356 
Q 3559 666 3084 287 
Q 2609 -91 1734 -91 
Q 1441 -91 1130 -33 
Q 819 25 488 141 
L 488 750 
Q 750 597 1062 519 
Q 1375 441 1716 441 
Q 2309 441 2620 675 
Q 2931 909 2931 1356 
Q 2931 1769 2642 2001 
Q 2353 2234 1838 2234 
L 1294 2234 
L 1294 2753 
L 1863 2753 
Q 2328 2753 2575 2939 
Q 2822 3125 2822 3475 
Q 2822 3834 2567 4026 
Q 2313 4219 1838 4219 
Q 1578 4219 1281 4162 
Q 984 4106 628 3988 
L 628 4550 
Q 988 4650 1302 4700 
Q 1616 4750 1894 4750 
Q 2613 4750 3031 4423 
Q 3450 4097 3450 3541 
Q 3450 3153 3228 2886 
Q 3006 2619 2597 2516 
z
" transform="scale(0.015625)"/>
       </defs>
       <use xlink:href="#DejaVuSans-33"/>
       <use xlink:href="#DejaVuSans-2e" x="63.623047"/>
       <use xlink:href="#DejaVuSans-30" x="95.410156"/>
      </g>
     </g>
    </g>
    <g id="ytick_14">
     <g id="line2d_22">
      <g>
       <use xlink:href="#ma0b7fc80d2" x="543.62625" y="64.660909" style="stroke: #000000; stroke-width: 0.8"/>
      </g>
     </g>
     <g id="text_25">
      <!-- 3.5 -->
      <g transform="translate(519.132812 68.840049) scale(0.11 -0.11)">
       <use xlink:href="#DejaVuSans-33"/>
       <use xlink:href="#DejaVuSans-2e" x="63.623047"/>
       <use xlink:href="#DejaVuSans-35" x="95.410156"/>
      </g>
     </g>
    </g>
    <g id="ytick_15">
     <g id="line2d_23">
      <g>
       <use xlink:href="#ma0b7fc80d2" x="543.62625" y="23.730449" style="stroke: #000000; stroke-width: 0.8"/>
      </g>
     </g>
     <g id="text_26">
      <!-- 4.0 -->
      <g transform="translate(519.132812 27.90959) scale(0.11 -0.11)">
       <use xlink:href="#DejaVuSans-34"/>
       <use xlink:href="#DejaVuSans-2e" x="63.623047"/>
       <use xlink:href="#DejaVuSans-30" x="95.410156"/>
      </g>
     </g>
    </g>
    <g id="text_27">
     <!-- Error -->
     <g transform="translate(512.637187 201.368312) rotate(-90) scale(0.12 -0.12)">
      <use xlink:href="#DejaVuSans-45"/>
      <use xlink:href="#DejaVuSans-72" x="63.183594"/>
      <use xlink:href="#DejaVuSans-72" x="102.546875"/>
      <use xlink:href="#DejaVuSans-6f" x="141.410156"/>
      <use xlink:href="#DejaVuSans-72" x="202.591797"/>
     </g>
    </g>
   </g>
   <g id="LineCollection_5">
    <path d="M 583.30453 328.247858 
L 583.30453 132.439103 
" clip-path="url(#p7c7753a9d7)" style="fill: none; stroke: #000000; stroke-width: 1.5"/>
    <path d="M 693.521975 319.176328 
L 693.521975 154.754909 
" clip-path="url(#p7c7753a9d7)" style="fill: none; stroke: #000000; stroke-width: 1.5"/>
    <path d="M 803.73942 330.165436 
L 803.73942 97.630249 
" clip-path="url(#p7c7753a9d7)" style="fill: none; stroke: #000000; stroke-width: 1.5"/>
    <path d="M 913.956864 278.169361 
L 913.956864 118.913874 
" clip-path="url(#p7c7753a9d7)" style="fill: none; stroke: #000000; stroke-width: 1.5"/>
   </g>
   <g id="line2d_24">
    <defs>
     <path id="mb2276ac49e" d="M 5 0 
L -5 -0 
" style="stroke: #000000"/>
    </defs>
    <g clip-path="url(#p7c7753a9d7)">
     <use xlink:href="#mb2276ac49e" x="583.30453" y="328.247858" style="stroke: #000000"/>
     <use xlink:href="#mb2276ac49e" x="693.521975" y="319.176328" style="stroke: #000000"/>
     <use xlink:href="#mb2276ac49e" x="803.73942" y="330.165436" style="stroke: #000000"/>
     <use xlink:href="#mb2276ac49e" x="913.956864" y="278.169361" style="stroke: #000000"/>
    </g>
   </g>
   <g id="line2d_25">
    <g clip-path="url(#p7c7753a9d7)">
     <use xlink:href="#mb2276ac49e" x="583.30453" y="132.439103" style="stroke: #000000"/>
     <use xlink:href="#mb2276ac49e" x="693.521975" y="154.754909" style="stroke: #000000"/>
     <use xlink:href="#mb2276ac49e" x="803.73942" y="97.630249" style="stroke: #000000"/>
     <use xlink:href="#mb2276ac49e" x="913.956864" y="118.913874" style="stroke: #000000"/>
    </g>
   </g>
   <g id="LineCollection_6">
    <path d="M 621.880636 329.362328 
L 621.880636 68.62207 
" clip-path="url(#p7c7753a9d7)" style="fill: none; stroke: #000000; stroke-width: 1.5"/>
    <path d="M 732.09808 314.807612 
L 732.09808 101.438366 
" clip-path="url(#p7c7753a9d7)" style="fill: none; stroke: #000000; stroke-width: 1.5"/>
    <path d="M 842.315525 323.759033 
L 842.315525 37.977935 
" clip-path="url(#p7c7753a9d7)" style="fill: none; stroke: #000000; stroke-width: 1.5"/>
    <path d="M 952.53297 258.283069 
L 952.53297 68.263328 
" clip-path="url(#p7c7753a9d7)" style="fill: none; stroke: #000000; stroke-width: 1.5"/>
   </g>
   <g id="line2d_26">
    <g clip-path="url(#p7c7753a9d7)">
     <use xlink:href="#mb2276ac49e" x="621.880636" y="329.362328" style="stroke: #000000"/>
     <use xlink:href="#mb2276ac49e" x="732.09808" y="314.807612" style="stroke: #000000"/>
     <use xlink:href="#mb2276ac49e" x="842.315525" y="323.759033" style="stroke: #000000"/>
     <use xlink:href="#mb2276ac49e" x="952.53297" y="258.283069" style="stroke: #000000"/>
    </g>
   </g>
   <g id="line2d_27">
    <g clip-path="url(#p7c7753a9d7)">
     <use xlink:href="#mb2276ac49e" x="621.880636" y="68.62207" style="stroke: #000000"/>
     <use xlink:href="#mb2276ac49e" x="732.09808" y="101.438366" style="stroke: #000000"/>
     <use xlink:href="#mb2276ac49e" x="842.315525" y="37.977935" style="stroke: #000000"/>
     <use xlink:href="#mb2276ac49e" x="952.53297" y="68.263328" style="stroke: #000000"/>
    </g>
   </g>
   <g id="patch_15">
    <path d="M 543.62625 351.174125 
L 543.62625 22.318125 
" style="fill: none; stroke: #000000; stroke-width: 0.8; stroke-linejoin: miter; stroke-linecap: square"/>
   </g>
   <g id="patch_16">
    <path d="M 543.62625 351.174125 
L 992.21125 351.174125 
" style="fill: none; stroke: #000000; stroke-width: 0.8; stroke-linejoin: miter; stroke-linecap: square"/>
   </g>
   <g id="text_28">
    <!-- BAG — MAE &amp; RMSE by Age Group -->
    <g transform="translate(663.87875 16.318125) scale(0.12 -0.12)">
     <defs>
      <path id="DejaVuSans-26" d="M 1556 2509 
Q 1272 2256 1139 2004 
Q 1006 1753 1006 1478 
Q 1006 1022 1337 719 
Q 1669 416 2169 416 
Q 2466 416 2725 514 
Q 2984 613 3213 813 
L 1556 2509 
z
M 1997 2859 
L 3584 1234 
Q 3769 1513 3872 1830 
Q 3975 2147 3994 2503 
L 4575 2503 
Q 4538 2091 4375 1687 
Q 4213 1284 3922 891 
L 4794 0 
L 4006 0 
L 3559 459 
Q 3234 181 2878 45 
Q 2522 -91 2113 -91 
Q 1359 -91 881 339 
Q 403 769 403 1441 
Q 403 1841 612 2192 
Q 822 2544 1241 2853 
Q 1091 3050 1012 3245 
Q 934 3441 934 3628 
Q 934 4134 1281 4442 
Q 1628 4750 2203 4750 
Q 2463 4750 2720 4694 
Q 2978 4638 3244 4525 
L 3244 3956 
Q 2972 4103 2725 4179 
Q 2478 4256 2266 4256 
Q 1938 4256 1733 4082 
Q 1528 3909 1528 3634 
Q 1528 3475 1620 3314 
Q 1713 3153 1997 2859 
z
" transform="scale(0.015625)"/>
      <path id="DejaVuSans-52" d="M 2841 2188 
Q 3044 2119 3236 1894 
Q 3428 1669 3622 1275 
L 4263 0 
L 3584 0 
L 2988 1197 
Q 2756 1666 2539 1819 
Q 2322 1972 1947 1972 
L 1259 1972 
L 1259 0 
L 628 0 
L 628 4666 
L 2053 4666 
Q 2853 4666 3247 4331 
Q 3641 3997 3641 3322 
Q 3641 2881 3436 2590 
Q 3231 2300 2841 2188 
z
M 1259 4147 
L 1259 2491 
L 2053 2491 
Q 2509 2491 2742 2702 
Q 2975 2913 2975 3322 
Q 2975 3731 2742 3939 
Q 2509 4147 2053 4147 
L 1259 4147 
z
" transform="scale(0.015625)"/>
      <path id="DejaVuSans-53" d="M 3425 4513 
L 3425 3897 
Q 3066 4069 2747 4153 
Q 2428 4238 2131 4238 
Q 1616 4238 1336 4038 
Q 1056 3838 1056 3469 
Q 1056 3159 1242 3001 
Q 1428 2844 1947 2747 
L 2328 2669 
Q 3034 2534 3370 2195 
Q 3706 1856 3706 1288 
Q 3706 609 3251 259 
Q 2797 -91 1919 -91 
Q 1588 -91 1214 -16 
Q 841 59 441 206 
L 441 856 
Q 825 641 1194 531 
Q 1563 422 1919 422 
Q 2459 422 2753 634 
Q 3047 847 3047 1241 
Q 3047 1584 2836 1778 
Q 2625 1972 2144 2069 
L 1759 2144 
Q 1053 2284 737 2584 
Q 422 2884 422 3419 
Q 422 4038 858 4394 
Q 1294 4750 2059 4750 
Q 2388 4750 2728 4690 
Q 3069 4631 3425 4513 
z
" transform="scale(0.015625)"/>
     </defs>
     <use xlink:href="#DejaVuSans-42"/>
     <use xlink:href="#DejaVuSans-41" x="68.603516"/>
     <use xlink:href="#DejaVuSans-47" x="135.261719"/>
     <use xlink:href="#DejaVuSans-20" x="212.751953"/>
     <use xlink:href="#DejaVuSans-2014" x="244.539062"/>
     <use xlink:href="#DejaVuSans-20" x="344.539062"/>
     <use xlink:href="#DejaVuSans-4d" x="376.326172"/>
     <use xlink:href="#DejaVuSans-41" x="462.605469"/>
     <use xlink:href="#DejaVuSans-45" x="531.013672"/>
     <use xlink:href="#DejaVuSans-20" x="594.197266"/>
     <use xlink:href="#DejaVuSans-26" x="625.984375"/>
     <use xlink:href="#DejaVuSans-20" x="703.962891"/>
     <use xlink:href="#DejaVuSans-52" x="735.75"/>
     <use xlink:href="#DejaVuSans-4d" x="805.232422"/>
     <use xlink:href="#DejaVuSans-53" x="891.511719"/>
     <use xlink:href="#DejaVuSans-45" x="954.988281"/>
     <use xlink:href="#DejaVuSans-20" x="1018.171875"/>
     <use xlink:href="#DejaVuSans-62" x="1049.958984"/>
     <use xlink:href="#DejaVuSans-79" x="1113.435547"/>
     <use xlink:href="#DejaVuSans-20" x="1172.615234"/>
     <use xlink:href="#DejaVuSans-41" x="1204.402344"/>
     <use xlink:href="#DejaVuSans-67" x="1272.810547"/>
     <use xlink:href="#DejaVuSans-65" x="1336.287109"/>
     <use xlink:href="#DejaVuSans-20" x="1397.810547"/>
     <use xlink:href="#DejaVuSans-47" x="1429.597656"/>
     <use xlink:href="#DejaVuSans-72" x="1507.087891"/>
     <use xlink:href="#DejaVuSans-6f" x="1545.951172"/>
     <use xlink:href="#DejaVuSans-75" x="1607.132812"/>
     <use xlink:href="#DejaVuSans-70" x="1670.511719"/>
    </g>
   </g>
   <g id="legend_1">
    <g id="patch_17">
     <path d="M 924.9675 59.674375 
L 985.21125 59.674375 
Q 987.21125 59.674375 987.21125 57.674375 
L 987.21125 29.318125 
Q 987.21125 27.318125 985.21125 27.318125 
L 924.9675 27.318125 
Q 922.9675 27.318125 922.9675 29.318125 
L 922.9675 57.674375 
Q 922.9675 59.674375 924.9675 59.674375 
z
" style="fill: #ffffff; opacity: 0.8; stroke: #cccccc; stroke-linejoin: miter"/>
    </g>
    <g id="patch_18">
     <path d="M 926.9675 38.916562 
L 946.9675 38.916562 
L 946.9675 31.916562 
L 926.9675 31.916562 
z
" style="fill: #2166ac; opacity: 0.8"/>
    </g>
    <g id="text_29">
     <!-- MAE -->
     <g transform="translate(954.9675 38.916562) scale(0.1 -0.1)">
      <use xlink:href="#DejaVuSans-4d"/>
      <use xlink:href="#DejaVuSans-41" x="86.279297"/>
      <use xlink:href="#DejaVuSans-45" x="154.6875"/>
     </g>
    </g>
    <g id="patch_19">
     <path d="M 926.9675 53.594687 
L 946.9675 53.594687 
L 946.9675 46.594687 
L 926.9675 46.594687 
z
" style="fill: url(#h15c2f048da); opacity: 0.45"/>
    </g>
    <g id="text_30">
     <!-- RMSE -->
     <g transform="translate(954.9675 53.594687) scale(0.1 -0.1)">
      <use xlink:href="#DejaVuSans-52"/>
      <use xlink:href="#DejaVuSans-4d" x="69.482422"/>
      <use xlink:href="#DejaVuSans-53" x="155.761719"/>
      <use xlink:href="#DejaVuSans-45" x="219.238281"/>
     </g>
    </g>
   </g>
  </g>
 </g>
 <defs>
  <clipPath id="p0969d6f3ae">
   <rect x="43.81125" y="22.318125" width="448.585" height="328.856"/>
  </clipPath>
  <clipPath id="p7c7753a9d7">
   <rect x="543.62625" y="22.318125" width="448.585" height="328.856"/>
  </clipPath>
 </defs>
 <defs>
  <pattern id="h15c2f048da" patternUnits="userSpaceOnUse" x="0" y="0" width="72" height="72">
   <rect x="0" y="0" width="73" height="73" fill="#2166ac"/>
   <path d="M -36 36 
L 36 -36 
M -30 42 
L 42 -30 
M -24 48 
L 48 -24 
M -18 54 
L 54 -18 
M -12 60 
L 60 -12 
M -6 66 
L 66 -6 
M 0 72 
L 72 0 
M 6 78 
L 78 6 
M 12 84 
L 84 12 
M 18 90 
L 90 18 
M 24 96 
L 96 24 
M 30 102 
L 102 30 
M 36 108 
L 108 36 
" style="fill: #000000; stroke: #000000; stroke-width: 1.0; stroke-linecap: butt; stroke-linejoin: miter"/>
  </pattern>
  <pattern id="h289ee201c6" patternUnits="userSpaceOnUse" x="0" y="0" width="72" height="72">
   <rect x="0" y="0" width="73" height="73" fill="#4dac26"/>
   <path d="M -36 36 
L 36 -36 
M -30 42 
L 42 -30 
M -24 48 
L 48 -24 
M -18 54 
L 54 -18 
M -12 60 
L 60 -12 
M -6 66 
L 66 -6 
M 0 72 
L 72 0 
M 6 78 
L 78 6 
M 12 84 
L 84 12 
M 18 90 
L 90 18 
M 24 96 
L 96 24 
M 30 102 
L 102 30 
M 36 108 
L 108 36 
" style="fill: #000000; stroke: #000000; stroke-width: 1.0; stroke-linecap: butt; stroke-linejoin: miter"/>
  </pattern>
  <pattern id="h70ec1f8dfd" patternUnits="userSpaceOnUse" x="0" y="0" width="72" height="72">
   <rect x="0" y="0" width="73" height="73" fill="#d6604d"/>
   <path d="M -36 36 
L 36 -36 
M -30 42 
L 42 -30 
M -24 48 
L 48 -24 
M -18 54 
L 54 -18 
M -12 60 
L 60 -12 
M -6 66 
L 66 -6 
M 0 72 
L 72 0 
M 6 78 
L 78 6 
M 12 84 
L 84 12 
M 18 90 
L 90 18 
M 24 96 
L 96 24 
M 30 102 
L 102 30 
M 36 108 
L 108 36 
" style="fill: #000000; stroke: #000000; stroke-width: 1.0; stroke-linecap: butt; stroke-linejoin: miter"/>
  </pattern>
  <pattern id="h2d7a7f2713" patternUnits="userSpaceOnUse" x="0" y="0" width="72" height="72">
   <rect x="0" y="0" width="73" height="73" fill="#762a83"/>
   <path d="M -36 36 
L 36 -36 
M -30 42 
L 42 -30 
M -24 48 
L 48 -24 
M -18 54 
L 54 -18 
M -12 60 
L 60 -12 
M -6 66 
L 66 -6 
M 0 72 
L 72 0 
M 6 78 
L 78 6 
M 12 84 
L 84 12 
M 18 90 
L 90 18 
M 24 96 
L 96 24 
M 30 102 
L 102 30 
M 36 108 
L 108 36 
" style="fill: #000000; stroke: #000000; stroke-width: 1.0; stroke-linecap: butt; stroke-linejoin: miter"/>
  </pattern>
 </defs>
</svg>
